<?xml version="1.0" standalone="no"?><!DOCTYPE svg PUBLIC "-//W3C//DTD SVG 1.1//EN" "http://www.w3.org/Graphics/SVG/1.1/DTD/svg11.dtd"><svg t="1590203821742" class="icon" viewBox="0 0 1024 1024" version="1.1" xmlns="http://www.w3.org/2000/svg" p-id="2256" xmlns:xlink="http://www.w3.org/1999/xlink" width="200" height="200"><defs><style type="text/css"></style></defs><path d="M512 92.16c-217.3952 0-394.24 188.3648-394.24 419.84 0 231.4752 176.8448 419.84 394.24 419.84s394.24-188.3648 394.24-419.84c0-112.64-41.6256-222.0032-111.36-292.5056l-0.1536-0.1024-0.1024-0.1536C711.7824 134.912 616.704 92.16 512 92.16m0-92.16c131.072 0 250.0608 54.5792 348.3648 154.6752C941.312 236.544 998.4 367.2064 998.4 512c0 282.7776-217.7536 512-486.4 512S25.6 794.7776 25.6 512 243.3536 0 512 0z" p-id="2257" fill="#bfbfbf"></path></svg>