<?xml version="1.0" standalone="no"?><!DOCTYPE svg PUBLIC "-//W3C//DTD SVG 1.1//EN" "http://www.w3.org/Graphics/SVG/1.1/DTD/svg11.dtd"><svg t="1589258596680" class="icon" viewBox="0 0 1024 1024" version="1.1" xmlns="http://www.w3.org/2000/svg" p-id="3722" xmlns:xlink="http://www.w3.org/1999/xlink" width="200" height="200"><defs><style type="text/css"></style></defs><path d="M800 128h-576C134.4 128 64 198.4 64 288v448c0 89.6 70.4 160 160 160h576c89.6 0 160-70.4 160-160v-448c0-89.6-70.4-160-160-160zM896 736c0 54.4-41.6 96-96 96h-576c-54.4 0-96-41.6-96-96v-448c0-54.4 41.6-96 96-96h576c54.4 0 96 41.6 96 96v448zM240 384h64v64h-64v-64z m128 0h384v64h-384v-64z m64 192h352v64h-352v-64z m-128 0h64v64h-64v-64z" p-id="3723" fill="#bfbfbf"></path></svg>