<?xml version="1.0" standalone="no"?><!DOCTYPE svg PUBLIC "-//W3C//DTD SVG 1.1//EN" "http://www.w3.org/Graphics/SVG/1.1/DTD/svg11.dtd"><svg t="1589424376105" class="icon" viewBox="0 0 1024 1024" version="1.1" xmlns="http://www.w3.org/2000/svg" p-id="5583" xmlns:xlink="http://www.w3.org/1999/xlink" width="200" height="200"><defs><style type="text/css"></style></defs><path d="M456 222.92a295.928 295.928 0 0 1 56-5.32c162.592 0 294.4 131.808 294.4 294.4 0 162.592-131.808 294.4-294.4 294.4-162.592 0-294.4-131.808-294.4-294.4 0-2.672 0.032-5.344 0.104-8h-73.616c-0.056 2.656-0.088 5.328-0.088 8 0 203.24 164.76 368 368 368s368-164.76 368-368-164.76-368-368-368c-19.04 0-37.744 1.44-56 4.24V72L328 200l128 128V222.92z" p-id="5584" fill="#ee537a"></path></svg>