<?xml version="1.0" standalone="no"?><!DOCTYPE svg PUBLIC "-//W3C//DTD SVG 1.1//EN" "http://www.w3.org/Graphics/SVG/1.1/DTD/svg11.dtd"><svg t="1589368785701" class="icon" viewBox="0 0 1024 1024" version="1.1" xmlns="http://www.w3.org/2000/svg" p-id="2148" xmlns:xlink="http://www.w3.org/1999/xlink" width="200" height="200"><defs><style type="text/css"></style></defs><path d="M622.372571 734.090971l-101.0688-53.204114c-7.972571-5.310171-21.269943-5.310171-29.257142 0L388.330057 731.428571c-13.312 7.972571-18.622171 23.932343-13.312 37.229715 7.9872 13.312 23.946971 18.622171 39.906743 10.6496l93.0816-45.216915 90.433829 47.879315c13.312 7.972571 31.919543 2.647771 37.244342-10.6496 7.972571-13.297371 0-29.257143-13.312-37.229715zM422.912 454.802286c0-7.9872-2.6624-13.312-7.972571-18.622172l-2.6624-2.6624-125.015772-101.0688c-10.634971-7.972571-29.257143-7.972571-37.229714 2.6624-10.634971 10.634971-7.9872 26.594743 2.6624 37.244343l101.0688 82.446629-101.083429 82.446628c-10.634971 7.9872-13.282743 26.594743-2.647771 37.244343a28.481829 28.481829 0 0 0 37.229714 2.6624l125.015772-101.083428c5.310171-5.310171 10.634971-13.297371 10.634971-21.269943zM505.344 0C226.084571 0 0 226.084571 0 505.344c0 279.274057 226.084571 505.358629 505.344 505.358629 279.274057 0 505.358629-226.084571 505.358629-505.358629C1010.688 226.084571 784.618057 0 505.344 0z m0 957.513143c-250.002286 0-452.154514-202.152229-452.154514-452.169143 0-250.002286 202.152229-452.154514 452.169143-452.154514 250.002286 0 452.154514 202.152229 452.154514 452.169143 0 250.002286-202.152229 452.154514-452.169143 452.154514zM760.685714 335.125943a28.481829 28.481829 0 0 0-37.229714-2.6624l-122.353371 101.083428c-5.3248 5.310171-7.9872 10.634971-7.9872 18.607543 0 7.9872 2.6624 15.959771 7.9872 18.622172l122.353371 101.0688c10.634971 7.972571 29.257143 7.972571 37.229714-2.6624 10.634971-10.634971 7.972571-26.594743-2.6624-37.229715l-101.0688-79.798857 101.083429-82.446628c10.620343-7.9872 13.282743-23.946971 2.647771-34.581943z" fill="#bfbfbf" p-id="2149"></path></svg>