<?xml version="1.0" standalone="no"?><!DOCTYPE svg PUBLIC "-//W3C//DTD SVG 1.1//EN" "http://www.w3.org/Graphics/SVG/1.1/DTD/svg11.dtd"><svg t="1589369575623" class="icon" viewBox="0 0 1170 1024" version="1.1" xmlns="http://www.w3.org/2000/svg" p-id="14748" xmlns:xlink="http://www.w3.org/1999/xlink" width="228.515625" height="200"><defs><style type="text/css"></style></defs><path d="M135.094857 273.115429l166.546286-166.473143A36.571429 36.571429 0 1 0 249.929143 54.857143L26.112 278.674286a36.571429 36.571429 0 0 0-0.146286 51.492571l223.817143 226.669714a36.571429 36.571429 0 1 0 52.077714-51.419428L103.570286 304.64l31.451428-31.451429z" fill="#bfbfbf" p-id="14749"></path><path d="M73.142857 329.142857h694.857143a292.571429 292.571429 0 1 1 0 585.142857H319.853714a36.571429 36.571429 0 1 0 0 73.142857H768a365.714286 365.714286 0 0 0 0-731.428571H73.142857a36.571429 36.571429 0 0 0 0 73.142857z" fill="#bfbfbf" p-id="14750"></path></svg>