<?xml version="1.0" standalone="no"?><!DOCTYPE svg PUBLIC "-//W3C//DTD SVG 1.1//EN" "http://www.w3.org/Graphics/SVG/1.1/DTD/svg11.dtd"><svg t="1589256030835" class="icon" viewBox="0 0 1024 1024" version="1.1" xmlns="http://www.w3.org/2000/svg" p-id="5652" xmlns:xlink="http://www.w3.org/1999/xlink" width="200" height="200"><defs><style type="text/css"></style></defs><path d="M532.45952 399.38048c33.93536 0 61.46048-27.50464 61.46048-61.44 0-33.93536-27.52512-61.44-61.46048-61.44-33.93536 0-61.46048 27.50464-61.46048 61.44C471.01952 371.85536 498.52416 399.38048 532.45952 399.38048zM532.45952 665.6c-33.93536 0-61.46048 27.50464-61.46048 61.44s27.52512 61.44 61.46048 61.44c33.93536 0 61.46048-27.50464 61.46048-61.44S566.39488 665.6 532.45952 665.6zM532.45952 471.04c-33.93536 0-61.46048 27.50464-61.46048 61.44 0 33.93536 27.52512 61.44 61.46048 61.44 33.93536 0 61.46048-27.50464 61.46048-61.44C593.92 498.54464 566.39488 471.04 532.45952 471.04z" p-id="5653" fill="#797777"></path></svg>