<?xml version="1.0" standalone="no"?><!DOCTYPE svg PUBLIC "-//W3C//DTD SVG 1.1//EN" "http://www.w3.org/Graphics/SVG/1.1/DTD/svg11.dtd"><svg t="1591711256608" class="icon" viewBox="0 0 1024 1024" version="1.1" xmlns="http://www.w3.org/2000/svg" p-id="8792" xmlns:xlink="http://www.w3.org/1999/xlink" width="200" height="200"><defs><style type="text/css"></style></defs><path d="M396.92857168 469.14285693H134.21428614A72.21428613 72.21428613 0 0 1 62 396.92857168V134.21428614A72.21428613 72.21428613 0 0 1 134.21428614 62h262.71428554A72.21428613 72.21428613 0 0 1 469.14285693 134.21428614v262.71428554A72.21428613 72.21428613 0 0 1 396.92857168 469.14285693zM126.28571416 139.78571416v251.57142861a13.5 13.5 0 0 0 13.5 13.5h251.57142862a13.5 13.5 0 0 0 13.49999999-13.5V139.78571416a13.5 13.5 0 0 0-13.5-13.5H139.78571416a13.5 13.5 0 0 0-13.5 13.5zM889.78571386 469.14285693H627.07142832A72.21428613 72.21428613 0 0 1 554.85714307 396.92857168V134.21428614A72.21428613 72.21428613 0 0 1 627.07142832 62h262.71428555A72.21428613 72.21428613 0 0 1 962 134.21428614v262.71428554A72.21428613 72.21428613 0 0 1 889.78571386 469.14285693zM619.14285722 139.78571416v251.57142861a13.5 13.5 0 0 0 13.50000001 13.5h251.57142861a13.5 13.5 0 0 0 13.5-13.5V139.78571416a13.5 13.5 0 0 0-13.5-13.5H632.64285723a13.5 13.5 0 0 0-13.50000001 13.5zM396.92857168 962H134.21428614A72.21428613 72.21428613 0 0 1 62 889.78571386V627.07142832A72.21428613 72.21428613 0 0 1 134.21428614 554.85714307h262.71428554A72.21428613 72.21428613 0 0 1 469.14285693 627.07142832v262.71428555A72.21428613 72.21428613 0 0 1 396.92857168 962zM126.28571416 632.64285723v251.57142861a13.5 13.5 0 0 0 13.5 13.5h251.57142862a13.5 13.5 0 0 0 13.49999999-13.5V632.64285723a13.5 13.5 0 0 0-13.5-13.50000001H139.78571416a13.5 13.5 0 0 0-13.5 13.5zM889.78571386 962H627.07142832A72.21428613 72.21428613 0 0 1 554.85714307 889.78571386V627.07142832A72.21428613 72.21428613 0 0 1 627.07142832 554.85714307h262.71428555A72.21428613 72.21428613 0 0 1 962 627.07142832v262.71428555A72.21428613 72.21428613 0 0 1 889.78571386 962zM619.14285722 632.64285723v251.57142861a13.5 13.5 0 0 0 13.50000001 13.5h251.57142861a13.5 13.5 0 0 0 13.5-13.5V632.64285723a13.5 13.5 0 0 0-13.5-13.50000001H632.64285723a13.5 13.5 0 0 0-13.50000001 13.5z" p-id="8793" fill="#e6e6e6"></path></svg>