<?xml version="1.0" standalone="no"?><!DOCTYPE svg PUBLIC "-//W3C//DTD SVG 1.1//EN" "http://www.w3.org/Graphics/SVG/1.1/DTD/svg11.dtd"><svg t="1591932182044" class="icon" viewBox="0 0 1024 1024" version="1.1" xmlns="http://www.w3.org/2000/svg" p-id="15902" xmlns:xlink="http://www.w3.org/1999/xlink" width="200" height="200"><defs><style type="text/css"></style></defs><path d="M786.278104 462.723699c-77.658266 83.287306-155.32837 166.562775-233.004393 249.844162-3.190382 3.427145-6.434035 6.78326-9.606659 10.228162-12.501087 13.578358-27.079769 21.237642-44.748208 14.063723-5.75926-2.338035-10.044671-5.865803-13.702659-9.867099a54.798798 54.798798 0 0 1-6.937156-6.01378c-39.930081-41.617017-210.091653-224.587468-249.394312-266.891098-4.22622-4.54585-8.286705-9.423168-11.613226-14.732578-10.683931-17.035098-9.227838-33.720971 3.450821-48.631122 12.962775-15.247538 29.299422-15.886798 45.393387-7.398844 7.813179 4.113757 14.247214 11.678335 20.604301 18.449758 26.458266 28.127445 122.169711 130.604393 186.243699 199.395884-0.035514-107.443052-0.041434-214.880185-0.023676-322.329156 0-32.25896-0.95889-64.57711 0.532717-96.759121 1.396902-29.897249 14.927908-45.150705 36.727861-45.914266 22.356347-0.787237 35.922867 13.809202 38.971191 43.292115 1.15422 11.169295 0.544555 22.551676 0.550474 33.845272 0.035514 70.969711 0.017757 141.95126 0.017757 212.92689v159.223122l10.311029 4.889156c19.90585-21.24948 39.835376-42.487121 59.717549-63.772116 41.516393-44.458173 82.500069-89.508254 124.750428-133.161434 19.077179-19.71052 41.184925-20.03015 56.373272-4.53993 16.372162 16.697711 15.798012 36.579884-2.036162 59.977988-3.788208 4.977942-8.32222 9.316624-12.578035 13.874312" fill="#e6e6e6" p-id="15903"></path><path d="M161.188254 722.405364c0.982566-21.172532 16.366243-32.868624 36.668671-32.436532 20.113017 0.438012 33.377665 12.335353 35.26585 33.975492 1.385064 15.898636 0.195329 31.968925 0.580069 47.950427 0.95889 40.119491 10.618821 49.388763 55.195376 50.18192 42.931052 0.763561 85.903538 0.248601 128.852346 0.25452 99.239214 0.005919 198.472509 0.071029 297.711723-0.053272 68.341642-0.082867 74.260717-5.398197 74.592185-65.174936 0.059191-10.654335-0.538636-21.379699 0.550474-31.963006 2.320277-22.516162 14.045965-34.230012 33.904462-35.236254 21.444809-1.095029 37.065249 12.015723 38.710752 35.218497 1.497526 21.237642 0.651098 42.617341 0.497202 63.943768-0.50904 69.016416-34.49637 99.985017-111.23126 100.387515-79.978543 0.408416-159.963006 0.088786-239.947468 0.106543-23.694058 0.011838-47.394035 0.023676-71.088093 0.011838-60.729711-0.011838-121.477179 0.745803-182.183214-0.301872-53.520277-0.917457-92.657202-28.778543-97.173456-71.028902-3.39163-31.696647-2.379468-63.926012-0.905619-95.829827" fill="#e6e6e6" p-id="15904"></path></svg>