<?xml version="1.0" standalone="no"?><!DOCTYPE svg PUBLIC "-//W3C//DTD SVG 1.1//EN" "http://www.w3.org/Graphics/SVG/1.1/DTD/svg11.dtd"><svg t="1591932701039" class="icon" viewBox="0 0 1024 1024" version="1.1" xmlns="http://www.w3.org/2000/svg" p-id="17704" xmlns:xlink="http://www.w3.org/1999/xlink" width="200" height="200"><defs><style type="text/css"></style></defs><path d="M24.576 950.272c-16.384 16.384-16.384 45.056 0 61.44 8.192 8.192 20.48 12.288 30.72 12.288s22.528-4.096 30.72-12.288L196.608 901.12l108.544 108.544c8.192 8.192 20.48 12.288 30.72 12.288s22.528-4.096 30.72-12.288c16.384-16.384 16.384-45.056 0-61.44L258.048 839.68l108.544-108.544c2.048-2.048 4.096-6.144 6.144-8.192 67.584 49.152 149.504 79.872 237.568 79.872 221.184 0 401.408-180.224 401.408-401.408S831.488 0 612.352 0C391.168 0 210.944 180.224 210.944 401.408c0 100.352 36.864 192.512 100.352 264.192-2.048 2.048-4.096 2.048-6.144 4.096L196.608 778.24l-108.544-108.544c-16.384-16.384-45.056-16.384-61.44 0-16.384 16.384-16.384 45.056 0 61.44L133.12 839.68l-108.544 110.592z m587.776-235.52c-172.032 0-313.344-141.312-313.344-313.344S440.32 88.064 612.352 88.064s313.344 141.312 313.344 313.344-141.312 313.344-313.344 313.344z m0 0" fill="#ee537a" p-id="17705"></path></svg>