<?xml version="1.0" standalone="no"?><!DOCTYPE svg PUBLIC "-//W3C//DTD SVG 1.1//EN" "http://www.w3.org/Graphics/SVG/1.1/DTD/svg11.dtd"><svg t="1591932609807" class="icon" viewBox="0 0 1024 1024" version="1.1" xmlns="http://www.w3.org/2000/svg" p-id="16716" xmlns:xlink="http://www.w3.org/1999/xlink" width="200" height="200"><defs><style type="text/css"></style></defs><path d="M967.253476 426.666667a42.666667 42.666667 0 0 1-42.666667-42.666667V146.119111l-263.566222 263.566222a369.578667 369.578667 0 1 1-63.516445-57.144889L864.853476 85.333333h-238.933334a42.666667 42.666667 0 0 1 0-85.333333h341.333334A42.666667 42.666667 0 0 1 1009.920142 42.666667v341.333333a42.666667 42.666667 0 0 1-42.666666 42.666667zM99.69792 654.222222a284.444444 284.444444 0 1 0 284.444444-284.444444A284.444444 284.444444 0 0 0 99.69792 654.222222z" fill="#1F93FF" p-id="16717"></path></svg>