<?xml version="1.0" standalone="no"?>
<!DOCTYPE svg PUBLIC "-//W3C//DTD SVG 1.1//EN" "http://www.w3.org/Graphics/SVG/1.1/DTD/svg11.dtd">
<svg t="1591503844619" class="icon" viewBox="0 0 1024 1024" version="1.1" xmlns="http://www.w3.org/2000/svg" p-id="6486" xmlns:xlink="http://www.w3.org/1999/xlink" width="200" height="200">
    <defs>
        <style type="text/css"/>
    </defs>
    <path d="M512 896c212.074667 0 384-171.925333 384-384S724.074667 128 512 128 128 299.925333 128 512s171.925333 384 384 384z m0 85.333333C252.8 981.333333 42.666667 771.2 42.666667 512S252.8 42.666667 512 42.666667s469.333333 210.133333 469.333333 469.333333-210.133333 469.333333-469.333333 469.333333z m85.738667-383.36l-249.749334 106.346667a21.333333 21.333333 0 0 1-27.904-28.16l107.797334-247.509333 248.213333-108.458667a21.333333 21.333333 0 0 1 28.16 27.904L597.738667 597.973333z" p-id="6487" fill="#707070"/>
</svg>
