<?xml version="1.0" standalone="no"?><!DOCTYPE svg PUBLIC "-//W3C//DTD SVG 1.1//EN" "http://www.w3.org/Graphics/SVG/1.1/DTD/svg11.dtd"><svg t="1591711190822" class="icon" viewBox="0 0 1024 1024" version="1.1" xmlns="http://www.w3.org/2000/svg" p-id="7936" xmlns:xlink="http://www.w3.org/1999/xlink" width="200" height="200"><defs><style type="text/css"></style></defs><path d="M896 576c70.4 0 128 57.6 128 128v192c0 70.4-57.6 128-128 128H128c-70.4 0-128-57.6-128-128v-192c0-70.4 57.6-128 128-128h768z m0 86.4H128c-22.4 0-41.6 19.2-41.6 41.6v192c0 22.4 19.2 41.6 41.6 41.6h768c22.4 0 41.6-19.2 41.6-41.6v-192c0-22.4-19.2-41.6-41.6-41.6zM896 0c70.4 0 128 57.6 128 128v192c0 70.4-57.6 128-128 128H128c-70.4 0-128-57.6-128-128V128c0-70.4 57.6-128 128-128h768z m0 86.4H128c-22.4 0-41.6 19.2-41.6 41.6v192c0 22.4 19.2 41.6 41.6 41.6h768c22.4 0 41.6-19.2 41.6-41.6V128c0-22.4-19.2-41.6-41.6-41.6z" p-id="7937" fill="#e6e6e6"></path></svg>