<?xml version="1.0" standalone="no"?><!DOCTYPE svg PUBLIC "-//W3C//DTD SVG 1.1//EN" "http://www.w3.org/Graphics/SVG/1.1/DTD/svg11.dtd"><svg t="1591971717945" class="icon" viewBox="0 0 1145 1024" version="1.1" xmlns="http://www.w3.org/2000/svg" p-id="10483" data-spm-anchor-id="a313x.7781069.0.i14" xmlns:xlink="http://www.w3.org/1999/xlink" width="223.6328125" height="200"><defs><style type="text/css"></style></defs><path d="M1031.160839 0h-909.426573c-57.286713 0-103.832168 46.545455-103.832168 103.832168v769.79021c0 57.286713 46.545455 103.832168 103.832168 103.832167h909.426573c57.286713 0 103.832168-46.545455 103.832168-103.832167v-769.79021c3.58042-57.286713-46.545455-103.832168-103.832168-103.832168z m35.804196 515.58042c-57.286713-46.545455-153.958042-107.412587-272.111888-107.412588-107.412587 0-214.825175 82.34965-318.657343 164.699301-78.769231 60.867133-161.118881 125.314685-218.405594 125.314685-78.769231 0-150.377622-57.286713-171.86014-82.34965v-512c0-17.902098 14.321678-35.804196 35.804196-35.804196h909.426573c17.902098 0 35.804196 14.321678 35.804196 35.804196v411.748252z" fill="#8BC24B" p-id="10484" data-spm-anchor-id="a313x.7781069.0.i13" class="selected"></path><path d="M365.202797 207.664336c-78.769231 0-139.636364 64.447552-139.636363 139.636363 0 78.769231 64.447552 139.636364 139.636363 139.636364 78.769231 0 139.636364-64.447552 139.636364-139.636364 3.58042-75.188811-60.867133-139.636364-139.636364-139.636363z m3.58042 211.244755c-39.384615 0-68.027972-32.223776-68.027972-68.027972 0-39.384615 32.223776-68.027972 68.027972-68.027972s68.027972 32.223776 68.027972 68.027972c0 35.804196-32.223776 68.027972-68.027972 68.027972z" fill="#8BC24B" p-id="10485" data-spm-anchor-id="a313x.7781069.0.i15" class="selected"></path></svg>