<?xml version="1.0" standalone="no"?><!DOCTYPE svg PUBLIC "-//W3C//DTD SVG 1.1//EN" "http://www.w3.org/Graphics/SVG/1.1/DTD/svg11.dtd"><svg t="1591930372152" class="icon" viewBox="0 0 1024 1024" version="1.1" xmlns="http://www.w3.org/2000/svg" p-id="10211" xmlns:xlink="http://www.w3.org/1999/xlink" width="200" height="200"><defs><style type="text/css"></style></defs><path d="M62.996776 484.06169398l423.16269601 3e-8L486.15947199 60.90002199 62.996776 60.90002199 62.996776 484.06169398zM168.78821799 166.69044l211.58083602 0-2e-8 211.580836L168.78821799 378.271276 168.78821799 166.69044zM539.05519301 60.90002199l0 423.16269602 423.16269599 0L962.21788799 60.90002199 539.05519301 60.90002199zM856.42644699 378.271276L644.845611 378.271276 644.845611 166.69044l211.58083599 0L856.42644699 378.271276zM221.682915 325.37657898l105.79041798 3e-8L327.47333298 219.585137 221.682915 219.585137 221.682915 325.37657898zM62.996776 960.120111l423.16269601 0L486.15947199 536.95741501 62.996776 536.95741501 62.996776 960.120111zM168.78821799 642.74783303l211.58083602-4e-8-2e-8 211.58083601L168.78821799 854.328669 168.78821799 642.74783303zM803.53174899 219.585137L697.740308 219.585137l0 105.79041798 105.79041798 0L803.53072602 219.585137zM539.05519301 960.120111l105.79041799 0L644.845611 854.329692 539.05519301 854.329692 539.05519301 960.120111zM644.845611 642.74783303l0 211.58083597 105.790418 0L750.636029 642.74783303 644.845611 642.74783303zM856.42644699 854.329692L750.636029 854.329692 750.636029 960.120111l211.580836 0L962.216865 748.538251 856.42644699 748.538251 856.42644699 854.329692zM856.42644699 642.74783303l105.79041801-4e-8L962.216865 536.95741501 856.42644699 536.95741501 856.42644699 642.74783303zM539.05519301 536.95741501l0 105.79041798 105.79041799 4e-8L644.845611 536.95741501 539.05519301 536.95741501zM221.682915 801.433972l105.79041798 0L327.47333298 695.64355399 221.682915 695.64355399 221.682915 801.433972z" fill="#e6e6e6" p-id="10212"></path></svg>