<?xml version="1.0" standalone="no"?><!DOCTYPE svg PUBLIC "-//W3C//DTD SVG 1.1//EN" "http://www.w3.org/Graphics/SVG/1.1/DTD/svg11.dtd"><svg t="1591789527458" class="icon" viewBox="0 0 1024 1024" version="1.1" xmlns="http://www.w3.org/2000/svg" p-id="5268" xmlns:xlink="http://www.w3.org/1999/xlink" width="200" height="200"><defs><style type="text/css"></style></defs><path d="M621.71418 804.571A36.46 36.46 0 0 1 585.14318 768V365.714a36.46 36.46 0 0 1 36.571-36.571 36.46 36.46 0 0 1 36.572 36.571V768a36.46 36.46 0 0 1-36.572 36.571z m-219.428 0A36.46 36.46 0 0 1 365.71418 768V365.714a36.46 36.46 0 0 1 36.572-36.571 36.46 36.46 0 0 1 36.571 36.571V768a36.46 36.46 0 0 1-36.571 36.571z m585.143-621.714H804.57018v-73.143C804.57118 49.286 755.71418 0 695.71418 0H329.14318c-60.429 0-109.714 49.286-109.714 109.714v73.143H36.57018A36.46 36.46 0 0 0 0.00018 219.43 36.46 36.46 0 0 0 36.57118 256H987.43018A36.46 36.46 0 0 0 1024.00018 219.429a36.46 36.46 0 0 0-36.571-36.572zM292.57018 109.714c0-20.143 16.429-36.571 36.572-36.571h366.571c20 0 35.715 16 35.715 36.571v73.143H292.57018v-73.143zM768.14318 1024h-512c-60.429 0-109.714-49.286-109.714-109.714V365.143c0-20.143 16.428-36.572 36.571-36.572 20.143 0 36.571 16.429 36.571 36.572v549.143c0 20.143 16.429 36.571 36.572 36.571h512.143c20.143 0 36.571-16.428 36.571-36.571V366.714c0-20.143 16.286-36.571 36.572-36.571 20.285 0 36.571 16.428 36.571 36.571v547.572C877.85718 974.714 828.57118 1024 768.14318 1024z m0 0" p-id="5269" fill="#e6e6e6"></path></svg>