<?xml version="1.0" standalone="no"?><!DOCTYPE svg PUBLIC "-//W3C//DTD SVG 1.1//EN" "http://www.w3.org/Graphics/SVG/1.1/DTD/svg11.dtd"><svg t="1591972057282" class="icon" viewBox="0 0 1099 1024" version="1.1" xmlns="http://www.w3.org/2000/svg" p-id="18813" data-spm-anchor-id="a313x.7781069.0.i23" xmlns:xlink="http://www.w3.org/1999/xlink" width="214.6484375" height="200"><defs><style type="text/css"></style></defs><path d="M113.777778 75.851852a37.925926 37.925926 0 0 0-37.925926 37.925926v796.444444a37.925926 37.925926 0 0 0 37.925926 37.925926h872.296296a37.925926 37.925926 0 0 0 37.925926-37.925926V113.777778a37.925926 37.925926 0 0 0-37.925926-37.925926H113.777778z m0-75.851852h872.296296a113.777778 113.777778 0 0 1 113.777778 113.777778v796.444444a113.777778 113.777778 0 0 1-113.777778 113.777778H113.777778a113.777778 113.777778 0 0 1-113.777778-113.777778V113.777778a113.777778 113.777778 0 0 1 113.777778-113.777778z" fill="#ee537a" p-id="18814" data-spm-anchor-id="a313x.7781069.0.i22" class="selected"></path><path d="M736.521481 373.115259c-35.309037 0-123.410963 87.22963-187.695407 149.124741-97.355852 93.828741-189.591704 184.964741-263.205926 184.964741H240.336593a33.488593 33.488593 0 0 1-32.085334-33.374815c0-17.901037 14.14637-32.616296 32.085334-33.450667H285.582222c46.573037 0 140.932741-93.297778 216.708741-166.191407 92.197926-88.746667 171.804444-167.898074 234.268444-167.898074h43.273482l-45.89037-44.373334a31.819852 31.819852 0 0 1-0.075852-45.89037 33.754074 33.754074 0 0 1 47.483259-0.075852l103.23437 102.58963a33.223111 33.223111 0 0 1 0 47.293629l-103.23437 102.513778a33.374815 33.374815 0 0 1-47.483259-0.530963 34.019556 34.019556 0 0 1 0-47.824592l45.966222-46.876445H736.521481z m44.752593 171.804445a33.678222 33.678222 0 0 0-47.407407 0.075852 34.853926 34.853926 0 0 0 0 48.545185l45.928296 46.838518H736.521481c-27.534222 0-73.652148-40.618667-119.201185-83.133629a33.60237 33.60237 0 0 0-47.483259 0.948148 34.436741 34.436741 0 0 0 1.630815 48.165926c69.518222 64.815407 116.394667 100.769185 165.053629 100.769185h43.273482l-45.89037 44.373333a32.540444 32.540444 0 0 0-7.433482 36.067556 32.768 32.768 0 0 0 31.099259 19.986963c8.609185 0 17.21837-3.413333 23.665778-9.860741l103.386074-102.817185a33.374815 33.374815 0 0 0 0-47.29363l-103.386074-102.665481zM240.222815 373.115259h45.283555c35.384889 0 88.064 44.790519 130.085926 82.678519a33.261037 33.261037 0 0 0 47.407408-1.327408 34.62637 34.62637 0 0 0-2.351408-48.279703c-65.611852-59.278222-120.452741-99.821037-175.066074-99.821037H240.336593a33.488593 33.488593 0 0 0-32.085334 33.374814c0 17.901037 14.14637 32.616296 32.085334 33.412741l-0.075852-0.037926z" fill="#ee537a" p-id="18815" data-spm-anchor-id="a313x.7781069.0.i24" class="selected"></path></svg>