<?xml version="1.0" standalone="no"?><!DOCTYPE svg PUBLIC "-//W3C//DTD SVG 1.1//EN" "http://www.w3.org/Graphics/SVG/1.1/DTD/svg11.dtd"><svg t="1591932055739" class="icon" viewBox="0 0 1024 1024" version="1.1" xmlns="http://www.w3.org/2000/svg" p-id="13339" xmlns:xlink="http://www.w3.org/1999/xlink" width="200" height="200"><defs><style type="text/css"></style></defs><path d="M617.5 271.8l278.6 244.1L611.6 763 611.6 641.5l0-59.7-59.2 7.3c-12.3 1.5-250.9 32.4-443.4 158.8 9.4-27.7 21.8-57.3 38.3-86.7 79.6-142.1 215-214.1 402.4-214.1 4.6 0 9.3 0 14 0.1l53.7 1 0-53.7L617.4 271.8M564.7 155.5l0 239.1c-5-0.1-10.1-0.1-15-0.1-504.6 0-521.9 488.1-522 490.1 182.3-199.9 531.1-243 531.1-243l0 237.1 417.5-362.6L564.7 155.5 564.7 155.5zM27.7 884.5C27.7 884.5 27.7 884.5 27.7 884.5 27.7 884.5 27.7 884.5 27.7 884.5L27.7 884.5z" p-id="13340" fill="#e6e6e6"></path></svg>