<?xml version="1.0" standalone="no"?><!DOCTYPE svg PUBLIC "-//W3C//DTD SVG 1.1//EN" "http://www.w3.org/Graphics/SVG/1.1/DTD/svg11.dtd"><svg t="1591971394953" class="icon" viewBox="0 0 1189 1024" version="1.1" xmlns="http://www.w3.org/2000/svg" p-id="5192" xmlns:xlink="http://www.w3.org/1999/xlink" width="232.2265625" height="200"><defs><style type="text/css"></style></defs><path d="M1045.669161 162.749935H873.323355l-53.842581-107.718193c-26.937806-37.689806-70.028387-59.243355-113.118968-53.842581H480.173419c-48.474839 0-91.565419 21.537032-118.486709 53.842581l-53.859097 107.718193H140.866065C60.085677 168.134194 0.842323 227.377548 0.842323 308.157935v565.512259c0 75.396129 59.243355 140.023742 140.023742 140.023741h904.803096c75.396129 0 140.023742-64.627613 140.023742-140.040258V308.157935c0-80.780387-64.627613-145.408-140.023742-145.408z m-840.175484 236.97342c-32.305548 0-59.243355-21.553548-59.243354-53.859097 0-32.322065 21.553548-59.243355 53.859096-59.243355 32.322065 0 59.243355 21.537032 59.243355 53.842581v5.400774c0 32.305548-26.92129 53.842581-53.84258 53.842581z m387.782194 473.930322c-156.193032 0-285.448258-129.255226-285.448258-285.431742 0-156.193032 129.255226-280.064 285.448258-280.064 156.176516 0 285.431742 129.255226 285.431742 285.448259 0 156.176516-129.255226 280.047484-285.431742 280.047483z" fill="#ee537a" p-id="5193" data-spm-anchor-id="a313x.7781069.0.i4" class="selected"></path></svg>