<?xml version="1.0" standalone="no"?><!DOCTYPE svg PUBLIC "-//W3C//DTD SVG 1.1//EN" "http://www.w3.org/Graphics/SVG/1.1/DTD/svg11.dtd"><svg t="1591711399092" class="icon" viewBox="0 0 1024 1024" version="1.1" xmlns="http://www.w3.org/2000/svg" p-id="9571" xmlns:xlink="http://www.w3.org/1999/xlink" width="200" height="200"><defs><style type="text/css"></style></defs><path d="M388.32355555 680.27733333c20.48-18.54577778 36.63644445-32.54044445 51.99644445-47.33155555 147.00088889-141.53955555 294.22933333-282.96533333 440.66133333-424.96 35.49866667-34.36088889 72.59022222-51.65511111 116.05333334-15.70133333 36.40888889 30.03733333 30.94755555 71.90755555-14.336 115.712C809.18755555 475.93244445 635.10755555 643.75466667 460.91377778 811.23555555c-54.61333333 52.45155555-84.30933333 52.79288889-137.89866667 1.70666667-94.54933333-90.33955555-188.07466667-181.81688889-282.73777778-272.04266667C4.55111111 506.88-13.53955555 471.04 23.66577778 429.056c31.17511111-35.15733333 74.63822222-30.03733333 120.03555555 13.53955555 81.12355555 77.93777778 161.45066667 156.78577778 244.62222222 237.68177778z" fill="#ee537a" p-id="9572"></path></svg>