<?xml version="1.0" standalone="no"?><!DOCTYPE svg PUBLIC "-//W3C//DTD SVG 1.1//EN" "http://www.w3.org/Graphics/SVG/1.1/DTD/svg11.dtd"><svg t="1590046922250" class="icon" viewBox="0 0 1024 1024" version="1.1" xmlns="http://www.w3.org/2000/svg" p-id="1949" xmlns:xlink="http://www.w3.org/1999/xlink" width="200" height="200"><defs><style type="text/css"></style></defs><path d="M912.032 659.67999969L912.032 265.82400031c0-84.89599969-68.928-153.82399969-153.888-153.82399969L265.79199969 111.99999969c-84.89599969 0-153.82399969 68.8960003-153.82399969 153.82399969l0 492.384c0 84.89599969 68.86399969 153.82399969 153.8239997 153.82399968l492.38399999 0c75.67999969 0 138.624-54.72 151.45600031-126.65599968-40.8-17.664-217.60000031-94.01599969-309.72799969-137.98399969-70.11199969 84.92800031-143.52 135.87199969-254.17600031 135.87199969s-184.51199999-68.16-175.64800031-151.55200032c5.856-54.75199969 43.392-144.288 206.52799968-128.928 85.95199969 8.064 125.31199969 24.12799969 195.39199969 47.26399969 18.144-33.216 33.216-69.85600031 44.64-108.768L305.792 441.27999969l0-30.816 153.792 0 0-55.296L272 355.16799969l1e-8-33.91999969 187.61599968 0L459.61599969 241.376c0 0 1.69600031-12.48 15.48799968-12.48000001l76.92799969 1e-8 0 92.32000031 199.99999969 0 0 33.91999969-199.99999969 1e-8 0 55.29599999 163.16800032 0c-15.0079997 61.056-37.75999969 117.15199969-66.27199969 166.14400031C696.32 593.72799969 912.032 659.67999969 912.032 659.67999969L912.032 659.67999969 912.032 659.67999969 912.032 659.67999969zM333.47199968 730.43199969c-116.928 0-135.42400031-73.824-129.21599999-104.67199968 6.144-30.68800031 40.00000031-70.78399969 105.024-70.7839997 74.688 0 141.6 19.16800031 221.92000031 58.20799969C474.78399969 686.68800031 405.47199969 730.43199969 333.47199968 730.43199969L333.47199968 730.43199969 333.47199968 730.43199969zM333.47199968 730.43199969" fill="#1296db" p-id="1950"></path></svg>