<?xml version="1.0" standalone="no"?><!DOCTYPE svg PUBLIC "-//W3C//DTD SVG 1.1//EN" "http://www.w3.org/Graphics/SVG/1.1/DTD/svg11.dtd"><svg t="1590055498297" class="icon" viewBox="0 0 1024 1024" version="1.1" xmlns="http://www.w3.org/2000/svg" p-id="12913" xmlns:xlink="http://www.w3.org/1999/xlink" width="200" height="200"><defs><style type="text/css"></style></defs><path d="M546.33472 721.93024a34.44736 34.44736 0 1 1-68.89472 0v-3.46624a34.44736 34.44736 0 1 1 68.89472 0v3.46624zM546.33472 584.13568a34.44736 34.44736 0 1 1-68.89472 0V305.09056a34.44736 34.44736 0 1 1 68.89472 0v279.04512z" fill="#d4237a" p-id="12914"></path><path d="M511.88736 63.95904c-247.3216 0-447.8208 200.49408-447.8208 447.8208 0 247.3216 200.49408 447.8208 447.8208 447.8208 247.3216 0 447.8208-200.49408 447.8208-447.8208 0-247.32672-200.49408-447.8208-447.8208-447.8208z m0 826.51648c-209.152 0-378.7008-169.5488-378.7008-378.7008s169.5488-378.7008 378.7008-378.7008 378.7008 169.5488 378.7008 378.7008-169.5488 378.7008-378.7008 378.7008z" fill="#d4237a" p-id="12915"></path></svg>