<?xml version="1.0" standalone="no"?><!DOCTYPE svg PUBLIC "-//W3C//DTD SVG 1.1//EN" "http://www.w3.org/Graphics/SVG/1.1/DTD/svg11.dtd"><svg t="1590055451914" class="icon" viewBox="0 0 1024 1024" version="1.1" xmlns="http://www.w3.org/2000/svg" p-id="10829" xmlns:xlink="http://www.w3.org/1999/xlink" width="200" height="200"><defs><style type="text/css"></style></defs><path d="M981.333333 512l-104.106666 118.613333 14.506666 157.013334-154.026666 34.986666-80.64 135.68L512 896l-145.066667 62.72-80.64-135.68-154.026666-34.986667 14.506666-157.44L42.666667 512l104.106666-119.04-14.506666-157.013333 154.026666-34.56L366.933333 65.706667 512 128l145.066667-62.293333 80.64 135.68 154.026666 34.986666-14.506666 157.013334L981.333333 512m-113.92 0L789.333333 421.973333l10.24-119.04L682.666667 277.333333l-60.586667-103.68L512 221.013333 401.92 173.653333 341.333333 277.333333l-116.906666 25.173334 10.24 119.04L156.586667 512l78.08 89.6-10.24 119.466667 116.906666 25.6 60.586667 103.68L512 802.56l110.08 47.36L682.666667 746.666667l116.906666-26.026667-10.24-119.04 78.08-89.6M469.333333 640h85.333334v85.333333h-85.333334v-85.333333m0-341.333333h85.333334v256h-85.333334V298.666667" p-id="10830" fill="#d4237a"></path></svg>