<?xml version="1.0" standalone="no"?><!DOCTYPE svg PUBLIC "-//W3C//DTD SVG 1.1//EN" "http://www.w3.org/Graphics/SVG/1.1/DTD/svg11.dtd"><svg t="1589865768171" class="icon" viewBox="0 0 1024 1024" version="1.1" xmlns="http://www.w3.org/2000/svg" p-id="10584" xmlns:xlink="http://www.w3.org/1999/xlink" width="200" height="200"><defs><style type="text/css"></style></defs><path d="M583.39 512l383.873-383.874c24.717-24.717 24.717-64.623 0-89.202-24.717-24.717-64.623-24.717-89.202 0L494.187 422.798 128.127 56.737c-24.718-24.717-64.624-24.717-89.203 0-24.717 24.717-24.717 64.623 0 89.202L404.847 512 38.924 878.06c-24.717 24.718-24.717 64.624 0 89.203 24.717 24.717 64.623 24.717 89.202 0l366.061-366.06 383.874 383.873c24.717 24.717 64.623 24.717 89.202 0 24.717-24.717 24.717-64.623 0-89.202L583.39 512z" p-id="10585" fill="#bfbfbf"></path></svg>