<?xml version="1.0" standalone="no"?><!DOCTYPE svg PUBLIC "-//W3C//DTD SVG 1.1//EN" "http://www.w3.org/Graphics/SVG/1.1/DTD/svg11.dtd"><svg t="1593914979733" class="icon" viewBox="0 0 1024 1024" version="1.1" xmlns="http://www.w3.org/2000/svg" p-id="21374" xmlns:xlink="http://www.w3.org/1999/xlink" width="200" height="200"><defs><style type="text/css"></style></defs><path d="M906.08 865.48c-65.5 0-102.8-39.2-146.1-84.5-15.3-16-31.2-32.7-49.6-49.2-48.4-43.2-97.2-49.2-142.6-49.2-8.1 0-16.1 0.2-23.7 0.4-7.3 0.2-14.4 0.3-21.1 0.3l-21.9 0c-6.7 0-13.8-0.2-21.1-0.3-7.6-0.2-15.5-0.4-23.7-0.4-45.5 0-94.2 6-142.6 49.2-18.5 16.5-34.3 33.1-49.7 49.2-43.2 45.3-80.6 84.5-146.1 84.5-25.5 0-46.8-9.4-63.4-27.9-42.4-47.4-52.7-154.6-32.5-337.4 27.9-251.9 143-341.6 241.5-341.6 35.5 0 59.8 14.6 85.6 30.1 35.5 21.3 75.8 45.5 162.9 45.5 87.1 0 127.4-24.2 162.9-45.5 25.8-15.5 50.1-30.1 85.6-30.1 98.5 0 213.7 89.7 241.5 341.6 20.2 182.9 9.9 290.1-32.5 337.4C952.98 856.08 931.58 865.48 906.08 865.48zM567.68 650.38c49.4 0 107.5 6.8 164.1 57.4 19.5 17.4 35.8 34.5 51.5 51 41.3 43.3 71.1 74.5 122.8 74.5 16.2 0 29-5.6 39.4-17.1 34.9-38.9 43.1-144 24.5-312.4-25.5-230.7-124.9-312.9-209.5-312.9-26.6 0-45.3 11.2-69 25.5-37.2 22.3-83.4 50.1-179.5 50.1-96.1 0-142.3-27.8-179.5-50.1-23.7-14.2-42.4-25.5-69-25.5-84.5 0-184 82.2-209.5 312.9-18.6 168.3-10.4 273.4 24.5 312.4 10.3 11.5 23.2 17.1 39.4 17.1 51.7 0 81.5-31.3 122.8-74.5 15.8-16.5 32-33.6 51.5-51 66.3-59.2 134.6-58.3 188.6-57 7 0.2 13.8 0.3 20.3 0.3l21.9 0c6.5 0 13.3-0.2 20.3-0.3C551.18 650.58 559.28 650.38 567.68 650.38z" p-id="21375" fill="#bfbfbf"></path><path d="M906.08 875.68c-69.9 0-110.5-42.6-153.5-87.7-15.4-16.1-31-32.5-49.1-48.6-45.9-40.9-92.4-46.6-135.8-46.6-8.1 0-15.9 0.2-23.4 0.4-7.4 0.2-14.5 0.4-21.3 0.4l-21.9 0c-6.8 0-14-0.2-21.4-0.4-7.5-0.2-15.3-0.4-23.4-0.4-43.4 0-89.9 5.6-135.8 46.6-18.1 16.1-33.7 32.5-48.8 48.3-43.3 45.4-83.9 88-153.8 88-28.5 0-52.4-10.5-71-31.3-44.5-49.7-55.6-159.4-35.1-345.4 28.6-258.6 148.8-350.8 251.7-350.8 38.3 0 65 16 90.9 31.5 34.4 20.6 73.3 44 157.6 44 84.3 0 123.2-23.4 157.6-44 25.8-15.5 52.5-31.5 90.9-31.5 102.9 0 223.1 92.1 251.7 350.8 20.6 186 9.4 295.7-35.1 345.4C958.58 865.18 934.68 875.68 906.08 875.68zM567.68 672.38c47.5 0 98.5 6.3 149.4 51.8 18.7 16.7 34.6 33.3 49.9 49.4 43.7 45.8 77.9 81.7 139 81.7 22.5 0 41.2-8.2 55.8-24.5 40.3-45 49.9-149.7 30-329.5-27.1-245.2-137.3-332.5-231.4-332.5-32.7 0-54.7 13.3-80.3 28.6-36.7 22-78.2 46.9-168.2 46.9-89.9 0-131.5-24.9-168.1-46.9-25.6-15.4-47.7-28.6-80.3-28.6-94.1 0-204.2 87.4-231.4 332.5-19.9 179.8-10.3 284.4 30 329.5 14.5 16.2 33.3 24.5 55.8 24.5 61.1 0 95.3-35.9 138.7-81.3 15.7-16.4 31.6-33.1 50.2-49.7 51-45.5 102-51.8 149.4-51.8 8.2 0 16.2 0.2 23.9 0.4 7.2 0.2 14.2 0.3 20.9 0.3l21.9 0c6.7 0 13.6-0.2 20.8-0.3C551.48 672.58 559.48 672.38 567.68 672.38zM906.08 843.48c-56.1 0-88.8-34.3-130.2-77.7-15.6-16.4-31.8-33.3-50.9-50.4-63.6-56.7-129.4-55.6-181.5-54.4-7.1 0.2-14 0.3-20.6 0.3l-21.9 0c-6.6 0-13.5-0.2-20.6-0.3-52.2-1.2-118.4-1.9-181.5 54.4-19.1 17.1-35.3 34-50.9 50.3-41.5 43.5-74.2 77.7-130.2 77.7-19 0-34.8-6.9-47-20.5-37.4-41.8-46.3-146.6-27-320.3 26.3-237.4 130.7-322 219.6-322 29.4 0 50.2 12.5 74.3 26.9 36.1 21.7 81 48.6 174.2 48.6 93.2 0 138.1-26.9 174.2-48.6 24.1-14.5 44.9-26.9 74.3-26.9 89 0 193.4 84.6 219.6 322 19.2 173.8 10.4 278.6-27 320.3C940.88 836.58 925.08 843.48 906.08 843.48zM567.68 640.18c51.3 0 111.7 7.1 170.9 60 19.8 17.6 36.2 34.9 52.1 51.5 41 43 68 71.3 115.3 71.3 13.3 0 23.4-4.4 31.8-13.7 22.6-25.2 44.7-98.5 21.9-304.4-24.8-224-119.2-303.8-199.3-303.8-23.7 0-40.5 10.1-63.7 24-38.3 23-85.9 51.5-184.8 51.5-98.9 0-146.5-28.6-184.7-51.5-23.3-14-40-24-63.8-24-80.1 0-174.5 79.8-199.3 303.8-22.8 205.9-0.6 279.2 21.9 304.4 8.4 9.4 18.5 13.7 31.8 13.7 47.3 0 74.4-28.4 115.3-71.3 15.9-16.7 32.4-33.9 52.1-51.5 68.5-61.2 139.5-60.9 195.6-59.6 7 0.2 13.7 0.3 20.1 0.3l21.9 0c6.4 0 13.1-0.2 20.1-0.3C550.98 640.28 559.18 640.18 567.68 640.18z" p-id="21376" fill="#bfbfbf"></path><path d="M392.192 445.44l-80.896 0 0-80.384c0-17.92-14.336-32.256-32.256-32.256-17.92 0-32.256 14.336-32.256 32.256L246.784 445.44l-80.384 0c-17.92 0-32.256 14.336-32.256 32.256s14.336 32.256 32.256 32.256l80.384 0 0 80.384c0 17.92 14.336 32.256 32.256 32.256 17.92 0 32.256-14.336 32.256-32.256l0-80.384 80.896 0c17.92 0 32.256-14.336 32.256-32.256S410.112 445.44 392.192 445.44z" p-id="21377" fill="#bfbfbf"></path><path d="M768.512 429.056c-26.624 0-48.128-21.504-48.128-48.128 0-26.624 21.504-48.128 48.128-48.128 26.624 0 48.128 21.504 48.128 48.128C816.64 407.552 795.136 429.056 768.512 429.056" p-id="21378" fill="#bfbfbf"></path><path d="M768.512 574.464m-48.128 0a9.4 9.4 0 1 0 96.256 0 9.4 9.4 0 1 0-96.256 0Z" p-id="21379" fill="#bfbfbf"></path><path d="M865.28 477.696m-48.128 0a9.4 9.4 0 1 0 96.256 0 9.4 9.4 0 1 0-96.256 0Z" p-id="21380" fill="#bfbfbf"></path><path d="M671.744 477.696m-48.128 0a9.4 9.4 0 1 0 96.256 0 9.4 9.4 0 1 0-96.256 0Z" p-id="21381" fill="#bfbfbf"></path></svg>