<?xml version="1.0" standalone="no"?><!DOCTYPE svg PUBLIC "-//W3C//DTD SVG 1.1//EN" "http://www.w3.org/Graphics/SVG/1.1/DTD/svg11.dtd"><svg t="1588607542538" class="icon" viewBox="0 0 1321 1024" version="1.1" xmlns="http://www.w3.org/2000/svg" p-id="35801" xmlns:xlink="http://www.w3.org/1999/xlink" width="258.0078125" height="200"><defs><style type="text/css"></style></defs><path d="M1139.61916 0H181.671858A181.887364 181.887364 0 0 0 0 181.671858v660.656284a181.887364 181.887364 0 0 0 181.671858 181.671858h957.947302a181.908915 181.908915 0 0 0 181.671858-181.671858V181.671858A181.908915 181.908915 0 0 0 1139.61916 0zM181.671858 99.132924h957.947302a83.05615 83.05615 0 0 1 23.253136 3.72826l-492.087213 381.446249a16.464686 16.464686 0 0 1-20.279148 0l-492.087213-381.446249A83.05615 83.05615 0 0 1 181.671858 99.132924z m1040.529337 743.195218a82.668238 82.668238 0 0 1-82.582035 82.582036H181.671858a82.646687 82.646687 0 0 1-82.582036-82.582036V182.275276l490.686422 380.390268a115.554508 115.554508 0 0 0 141.716979 0l490.707972-380.390268z" fill="#dfdfdf" p-id="35802"></path></svg>