<?xml version="1.0" standalone="no"?><!DOCTYPE svg PUBLIC "-//W3C//DTD SVG 1.1//EN" "http://www.w3.org/Graphics/SVG/1.1/DTD/svg11.dtd"><svg t="1589249307090" class="icon" viewBox="0 0 1024 1024" version="1.1" xmlns="http://www.w3.org/2000/svg" p-id="5256" xmlns:xlink="http://www.w3.org/1999/xlink" width="200" height="200"><defs><style type="text/css"></style></defs><path d="M849.455 814.545h-674.91a58.228 58.228 0 0 1-58.181-58.181V291.328L462.08 559.337a81.408 81.408 0 0 0 99.84 0l345.716-268.009v465.036c0 32.093-26.088 58.181-58.181 58.181z m0-581.818c5.725 0 11.147 1.094 16.384 2.63l-346.694 268.8a11.59 11.59 0 0 1-14.29 0l-346.694-268.8c5.237-1.536 10.66-2.63 16.384-2.63h674.91z m0-69.818h-674.91a128.163 128.163 0 0 0-128 128v465.455c0 70.563 57.438 128 128 128h674.91c70.562 0 128-57.437 128-128V290.909c0-70.563-57.438-128-128-128z" fill="#bfbfbf" p-id="5257"></path></svg>