<?xml version="1.0" standalone="no"?><!DOCTYPE svg PUBLIC "-//W3C//DTD SVG 1.1//EN" "http://www.w3.org/Graphics/SVG/1.1/DTD/svg11.dtd"><svg t="1589125714753" class="icon" viewBox="0 0 1365 1024" version="1.1" xmlns="http://www.w3.org/2000/svg" p-id="13931" xmlns:xlink="http://www.w3.org/1999/xlink" width="266.6015625" height="200"><defs><style type="text/css"></style></defs><path d="M830.464 661.504c-131.413 131.413-345.259 131.413-476.672 0s-131.413-345.088 0-476.501 345.259-131.414 476.672 0c131.413 131.242 131.413 345.088 0 476.501zM427.349 258.389c-90.965 90.966-90.965 238.763 0 329.728 90.795 90.966 238.763 90.795 329.728 0 90.795-90.965 90.795-238.762 0-329.557-90.965-91.136-238.933-91.136-329.728-0.17zM1089.877 819.2c24.918 24.917 24.918 65.365 0 90.453l-11.264 11.264c-24.917 24.918-65.365 24.918-90.453 0L756.565 689.323c-24.917-24.918-24.917-65.366 0-90.454l11.264-11.264c24.918-24.917 65.536-24.917 90.454 0L1089.877 819.2z m0 0" p-id="13932" fill="#bfbfbf"></path></svg>