<?xml version="1.0" standalone="no"?><!DOCTYPE svg PUBLIC "-//W3C//DTD SVG 1.1//EN" "http://www.w3.org/Graphics/SVG/1.1/DTD/svg11.dtd"><svg t="1596783247637" class="icon" viewBox="0 0 1024 1024" version="1.1" xmlns="http://www.w3.org/2000/svg" p-id="51343" xmlns:xlink="http://www.w3.org/1999/xlink" width="200" height="200"><defs><style type="text/css"></style></defs><path d="M356.650667 260.693333c4.714667 2.410667 11.946667 16.533333-2.432 19.882667-14.357333 3.349333-15.68-7.637333-34.197334 4.266667-22.336 14.357333-41.109333 36.864-51.2 48.853333-26.176 31.104-10.816 29.674667-31.018666 63.978667-18.901333 32.064-64.64 105.728-137.216 220.992l-15.146667-92.992c-0.917333-14.442667 3.349333-29.376 12.096-42.24 43.072-63.573333 71.850667-105.941333 94.4-136.213334 22.549333-30.272 27.456-23.082667 41.962667-35.861333 26.666667-23.509333 36.138667-29.354667 65.109333-45.781333 28.949333-16.426667 52.906667-7.274667 57.642667-4.864z m310.741333 0c4.714667-2.389333 28.693333-11.52 57.642667 4.906667 28.970667 16.426667 38.421333 22.250667 65.109333 45.76 14.506667 12.778667 19.413333 5.589333 41.962667 35.861333 22.528 30.293333 51.328 72.618667 94.4 136.192 8.746667 12.885333 13.013333 27.818667 12.074666 42.261334L923.434667 618.666667c-72.554667-115.264-118.293333-188.928-137.194667-221.013334-20.202667-34.282667-4.842667-32.853333-31.04-63.957333-10.090667-11.989333-28.864-34.496-51.2-48.853333-18.517333-11.904-19.84-0.917333-34.197333-4.266667-14.357333-3.349333-7.146667-17.472-2.410667-19.861333z" fill="#FF962A" p-id="51344"></path><path d="M832.106667 347.221333c22.528 30.293333 51.328 72.618667 94.4 136.192 7.594667 11.221333 11.818667 23.978667 12.16 36.629334L938.666667 522.453333l-0.064 3.221334-11.434667 70.208-19.562667-2.453334c-54.293333-86.336-91.733333-146.602667-112.384-180.757333l14.784-88.746667c5.461333 3.712 12.010667 9.749333 22.122667 23.296z m-618.090667-23.253333l14.784 88.746667c-20.629333 34.176-58.069333 94.4-112.341333 180.714666l-19.605334 2.432-11.392-70.186666c-0.938667-14.442667 3.328-29.376 12.074667-42.24 43.072-63.573333 71.850667-105.941333 94.4-136.213334 10.069333-13.504 16.618667-19.562667 22.08-23.253333z" fill="#FF5C00" p-id="51345"></path><path d="M241.664 304.597333l8.832 62.272c-1.706667 7.189333-3.626667 15.36-12.693333 30.805334-3.413333 5.76-7.68 12.842667-12.8 21.290666l-26.645334-79.957333c17.237333-20.778667 22.528-16.192 35.541334-27.648 2.752-2.432 5.333333-4.693333 7.765333-6.762667z m548.48 6.762667c13.013333 11.456 18.282667 6.869333 35.498667 27.626667l-26.666667 79.936c-5.098667-8.426667-9.344-15.509333-12.736-21.248-9.130667-15.509333-11.008-23.701333-12.714667-30.912l8.810667-62.208c2.432 2.090667 5.034667 4.352 7.808 6.805333z" fill="#FF7B32" p-id="51346"></path><path d="M362.666667 271.68c-3.541333-9.28-14.976-14.656-37.930667-8.213333-10.453333 2.944-37.333333 16.341333-62.570667 39.424-24.213333 22.186667-29.568 21.973333-44.949333 40.213333-15.36 18.24-42.389333 66.56-106.410667 166.485333-2.026667 3.178667-10.517333 11.093333-25.472 23.765334 0.426667-23.701333-0.384-29.376 3.413334-42.282667 3.776-12.906667 15.168-28.010667 17.92-32.042667 49.834667-73.109333 76.202667-107.306667 94.378666-126.677333 18.176-19.370667 18.282667-12.373333 42.368-31.082667 46.122667-35.797333 70.613333-44.501333 88.341334-45.184 17.770667-0.682667 30.848 2.773333 30.912 15.573334zM688.96 256l3.285333 0.085333c17.749333 0.682667 42.218667 9.386667 88.32 45.184 24.106667 18.688 24.213333 11.712 42.389334 31.082667 18.176 19.370667 44.544 53.546667 94.378666 126.677333 2.752 4.032 14.144 19.136 17.92 32.042667 3.797333 12.906667 2.986667 18.56 3.413334 42.282667-14.933333-12.672-23.445333-20.586667-25.472-23.765334-64.021333-99.925333-91.050667-148.266667-106.410667-166.485333-15.381333-18.218667-20.736-18.048-44.949333-40.213333-25.216-23.082667-52.117333-36.48-62.570667-39.424-22.954667-6.442667-34.389333-1.066667-37.930667 8.213333 0.064-12.8 13.141333-16.277333 30.912-15.594667z" fill="#FFD3A5" p-id="51347"></path><path d="M512 480c16.426667-1.066667 40.32-6.784 71.701333-17.152 35.690667-11.797333 83.050667-14.848 138.346667-14.848 65.578667 0 117.717333 3.477333 156.672 10.538667l0.298667 0.064c35.264 6.549333 58.944 29.333333 59.221333 69.632 0.256 40.277333 2.56 43.946667-6.912 55.594666-9.450667 11.626667-10.026667 25.621333-12.714667 35.136-20.330667 71.850667-76.053333 105.792-146.069333 107.029334l-82.944-0.810667c-57.28-1.429333-114.346667-35.84-140.053333-103.253333-9.173333-24.106667-12.586667-44.16-20.224-55.253334-5.077333-7.36-10.88-11.392-17.322667-12.053333-6.464 0.661333-12.245333 4.693333-17.322667 12.074667-7.637333 11.072-11.050667 31.146667-20.224 55.210666-25.706667 67.413333-82.773333 101.845333-140.053333 103.253334l-82.944 0.853333c-70.016-1.28-125.738667-35.2-146.069333-107.050667-2.688-9.514667-3.264-23.509333-12.714667-35.136-9.450667-11.626667-7.168-15.317333-6.912-55.594666 0.277333-40.32 23.957333-63.082667 59.221333-69.632l0.298667-0.064c38.954667-7.04 91.093333-10.538667 156.672-10.538667 55.296 0 102.656 3.050667 138.346667 14.848 31.381333 10.368 55.274667 16.085333 71.701333 17.152z" fill="#FFDB99" p-id="51348"></path><path d="M722.048 469.333333c65.578667 0 117.717333 3.477333 156.672 10.538667l0.298667 0.064c35.264 6.549333 58.944 8 59.221333 48.298667 0.256 40.277333 2.56 65.28-6.912 76.928-9.450667 11.626667-10.026667 25.621333-12.714667 35.136-20.330667 71.850667-76.053333 105.792-146.069333 107.029333l-82.944-0.810667c-57.28-1.429333-114.346667-35.84-140.053333-103.253333-9.173333-24.106667-12.586667-44.16-20.224-55.253333-5.077333-7.36-10.88-11.392-17.322667-12.053334-6.464 0.661333-12.245333 4.693333-17.322667 12.074667-7.637333 11.072-11.050667 31.146667-20.224 55.210667-25.706667 67.413333-82.773333 101.845333-140.053333 103.253333l-82.944 0.853333c-70.016-1.28-125.738667-35.2-146.069333-107.050666-2.688-9.514667-3.264-23.509333-12.714667-35.136-9.450667-11.626667-7.168-36.650667-6.912-76.928 0.277333-40.32 23.957333-41.749333 59.221333-48.298667l0.298667-0.064c38.954667-7.04 91.093333-10.538667 156.672-10.538667 55.296 0 102.656 3.050667 138.346667 14.848 31.381333 10.368 55.274667 16.085333 71.701333 17.152l3.925333-0.32c16.213333-1.664 38.826667-7.253333 67.776-16.853333 35.690667-11.776 83.050667-14.826667 138.346667-14.826667z" fill="#FFB21C" p-id="51349"></path><path d="M938.261333 533.333333l-0.021333-5.12c0.256 40.32 2.56 65.322667-6.912 76.949334-9.450667 11.626667-10.026667 25.621333-12.714667 35.136-19.029333 67.221333-69.056 101.269333-132.757333 106.389333L706.602667 746.666667l-17.002667-0.149334c-57.28-1.429333-114.346667-35.84-140.053333-103.253333-9.173333-24.106667-12.586667-44.16-20.224-55.253333-4.458667-6.442667-9.429333-10.325333-14.933334-11.648L512 575.957333l-2.389333 0.426667c-5.504 1.28-10.474667 5.184-14.933334 11.648-7.637333 11.072-11.050667 31.146667-20.224 55.210667-25.706667 67.413333-82.773333 101.845333-140.053333 103.253333l-17.024 0.170667-79.232 0.021333c-63.701333-5.12-113.728-39.168-132.757333-106.389333-2.688-9.514667-3.264-23.509333-12.714667-35.136-9.045333-11.136-7.36-34.496-6.954667-71.786667L938.261333 533.333333z" fill="#FFA500" p-id="51350"></path><path d="M474.453333 643.242667c-25.706667 67.413333-82.773333 101.845333-140.053333 103.253333l-17.045333 0.170667-79.210667 0.021333c-63.701333-5.12-113.728-39.168-132.757333-106.389333-1.706667-5.973333-2.56-13.781333-5.333334-21.610667l382.656-0.042667c-2.304 7.488-4.906667 15.786667-8.256 24.597334z m444.16-2.944c-19.029333 67.221333-69.034667 101.269333-132.757333 106.389333L706.602667 746.666667l-17.002667-0.149334c-57.28-1.429333-114.346667-35.84-140.053333-103.253333a385.834667 385.834667 0 0 1-8.256-24.618667L923.925333 618.666667c-2.773333 7.829333-3.626667 15.616-5.312 21.610666z" fill="#FF9700" p-id="51351"></path><path d="M334.4 746.517333l-17.045333 0.149334h-79.424l-5.546667-0.533334c-45.994667-5.034667-84.394667-25.621333-108.394667-63.445333h329.472c-29.632 41.429333-74.282667 62.72-119.04 63.829333zM786.069333 746.666667h-79.466666l-17.002667-0.149334c-44.778667-1.130667-89.429333-22.4-119.061333-63.850666h329.472c-24.96 39.36-65.472 60.053333-113.92 64z" fill="#FF8200" p-id="51352"></path><path d="M166.336 497.066667c33.6-4.266667 75.52-6.4 125.76-6.4 52.714667 0 96.277333 4.693333 130.666667 14.08a64 64 0 0 1 43.968 81.642666l-16.597334 50.752A128 128 0 0 1 328.490667 725.333333h-79.552a130.986667 130.986667 0 0 1-128.682667-106.666666l-8.746667-46.229334a64 64 0 0 1 54.826667-75.370666z" fill="#FF6A78" p-id="51353"></path><path d="M858.24 497.066667c-33.6-4.266667-75.52-6.4-125.738667-6.4-51.989333 0-94.592 4.8-127.786666 14.421333a64 64 0 0 0-43.050667 81.365333l16.426667 50.282667a128 128 0 0 0 121.429333 88.234667l78.378667 0.149333a128 128 0 0 0 126.037333-104.234667l9.152-48.448a64 64 0 0 0-54.826667-75.370666z" fill="#6DBBEE" p-id="51354"></path><path d="M463.146667 597.333333l-13.013334 39.808c-2.773333 8.533333-6.421333 16.64-10.794666 24.192H136.384a130.730667 130.730667 0 0 1-16.128-42.666666l-4.053333-21.333334H463.146667z" fill="#F45D6B" p-id="51355"></path><path d="M908.373333 597.333333l-4.437333 23.552A127.786667 127.786667 0 0 1 888.896 661.333333h-299.733333a128.042667 128.042667 0 0 1-11.050667-24.618666L565.226667 597.333333H908.373333z" fill="#4BB0F2" p-id="51356"></path><path d="M292.096 490.666667c52.714667 0 96.277333 4.693333 130.666667 14.08a64 64 0 0 1 43.968 81.642666L463.146667 597.333333H116.224l-4.693333-24.896a64 64 0 0 1 54.826666-75.370666c33.578667-4.266667 75.52-6.4 125.738667-6.4z" fill="#F14E5D" p-id="51357"></path><path d="M732.501333 490.666667c50.24 0 92.16 2.133333 125.76 6.4a64 64 0 0 1 54.826667 75.370666L908.352 597.333333H565.226667l-3.562667-10.88a64 64 0 0 1-0.32-1.066666l-0.32-1.024a64 64 0 0 1 43.690667-79.274667c33.194667-9.6 75.797333-14.421333 127.786666-14.421333z" fill="#44A9EB" p-id="51358"></path><path d="M167.68 507.648A53.333333 53.333333 0 0 0 122.026667 570.453333l8.725333 46.229334a120.32 120.32 0 0 0 118.208 97.984h79.552a117.333333 117.333333 0 0 0 111.509333-80.853334l16.597334-50.730666a53.333333 53.333333 0 0 0-36.629334-68.053334c-33.386667-9.088-76.032-13.696-127.872-13.696-49.813333 0-91.306667 2.112-124.416 6.314667z m-1.344-10.581333c33.6-4.266667 75.52-6.4 125.76-6.4 52.714667 0 96.277333 4.693333 130.666667 14.08a64 64 0 0 1 43.968 81.642666l-16.597334 50.752A128 128 0 0 1 328.490667 725.333333h-79.552a130.986667 130.986667 0 0 1-128.682667-106.666666l-8.746667-46.229334a64 64 0 0 1 54.826667-75.370666z" fill="#E93142" p-id="51359"></path><path d="M860.629333 507.648a53.333333 53.333333 0 0 1 45.696 62.805333l-9.194666 48.64a117.333333 117.333333 0 0 1-115.285334 95.573334h-82.005333a117.333333 117.333333 0 0 1-111.530667-80.853334l-16.597333-50.730666a53.333333 53.333333 0 0 1 36.650667-68.053334c33.365333-9.088 76.010667-13.696 127.850666-13.696 49.834667 0 91.306667 2.112 124.416 6.314667z m1.344-10.581333c-33.6-4.266667-75.52-6.4-125.76-6.4-52.693333 0-96.277333 4.693333-130.666666 14.08a64 64 0 0 0-43.968 81.642666l16.597333 50.752A128 128 0 0 0 699.84 725.333333h82.005333a128 128 0 0 0 125.76-104.234666l9.194667-48.661334a64 64 0 0 0-54.826667-75.370666z" fill="#0089E5" p-id="51360"></path><path d="M382.976 582.336a5.333333 5.333333 0 1 1 3.776 9.962667l-131.776 50.005333a5.333333 5.333333 0 0 1-3.776-9.984l131.776-49.984z m-210.773333 38.762667a5.333333 5.333333 0 1 1-3.52-10.069334l214.421333-75.050666a5.333333 5.333333 0 1 1 3.52 10.069333L172.202667 621.098667z" fill="#FFAEB6" p-id="51361"></path><path d="M830.976 582.336a5.333333 5.333333 0 1 1 3.776 9.962667l-131.776 50.005333a5.333333 5.333333 0 0 1-3.776-9.984l131.776-49.984z m-210.773333 38.762667a5.333333 5.333333 0 1 1-3.52-10.069334l214.421333-75.050666a5.333333 5.333333 0 1 1 3.52 10.069333l-214.421333 75.050667z" fill="#AEDBFF" p-id="51362"></path></svg>