<?xml version="1.0" standalone="no"?><!DOCTYPE svg PUBLIC "-//W3C//DTD SVG 1.1//EN" "http://www.w3.org/Graphics/SVG/1.1/DTD/svg11.dtd"><svg t="1596782969009" class="icon" viewBox="0 0 1024 1024" version="1.1" xmlns="http://www.w3.org/2000/svg" p-id="42962" xmlns:xlink="http://www.w3.org/1999/xlink" width="200" height="200"><defs><style type="text/css"></style></defs><path d="M480.608726 91.428616C455.653099 76.318462 374.308595 33.826797 325.855452 6.819493c-42.29811-23.549131-55.098514 26.942786-59.137351 61.563234s-4.025934 79.550899 40.323854 79.550899h162.753526c44.349788 0 44.349788-35.897908 10.748727-56.50501zM0.051616 267.034161v101.745149c0 37.626995 12.542332 56.569528 62.789079 56.569528h371.121397V216.039003H61.937441c-50.879026-0.129036-61.93744 16.568265-61.93744 50.943544z m42.427146 633.903888c0.516145 78.337958 46.207911 123.061951 143.862607 123.061951h245.298069V502.809348H42.478762s-0.580663 319.790743 0 398.128701z m981.540672-629.54246c0-34.362375-14.981118-55.421105-65.80853-55.421105H592.35419v209.271125h368.747128c50.233844 0 62.905212-17.277965 62.905212-54.969478-0.193554-34.233339-0.129036-64.634299 0-98.880542zM767.391975 67.621413c-4.038837-34.55593-16.90376-85.16398-59.201869-61.563235-48.414432 27.007304-129.784743 69.563487-154.688756 84.73816-33.665579 20.478066-33.665579 56.375974 10.748727 56.375974h162.818044c44.349788 0 44.349788-44.865933 40.323854-79.550899zM592.35419 502.809348v521.190652h237.749443c97.590178 0 141.565761-49.033806 142.081906-127.345957s-0.129036-393.844695-0.129036-393.844695z m0 0" fill="#FF6575" p-id="42963"></path></svg>