<?xml version="1.0" standalone="no"?><!DOCTYPE svg PUBLIC "-//W3C//DTD SVG 1.1//EN" "http://www.w3.org/Graphics/SVG/1.1/DTD/svg11.dtd"><svg t="1596785378785" class="icon" viewBox="0 0 1024 1024" version="1.1" xmlns="http://www.w3.org/2000/svg" p-id="56873" xmlns:xlink="http://www.w3.org/1999/xlink" width="200" height="200"><defs><style type="text/css"></style></defs><path d="M458.710204 827.559184l53.289796 21.942857H37.616327V168.228571h81.50204V752.326531l43.885715 4.179591c102.4 7.314286 201.665306 31.346939 295.706122 71.053062z m404.37551-72.09796l41.795919-3.134693V168.228571h81.50204v681.27347H512l54.334694-22.987755c95.085714-38.661224 194.35102-62.693878 296.75102-71.053062z" fill="#FFBAC1" p-id="56874"></path><path d="M986.383673 151.510204h-65.828571V71.053061c0-4.179592-2.089796-9.404082-5.22449-11.493877-3.134694-3.134694-8.359184-4.179592-12.538775-4.179592l-42.840817 3.134694c-103.444898 8.359184-204.8 33.436735-300.930612 73.142857L512 150.465306l-48.065306-19.853061c-96.130612-39.706122-197.485714-63.738776-300.930612-73.142857l-42.840817-3.134694c-4.179592 0-9.404082 1.044898-12.538775 4.179592-3.134694 3.134694-5.22449 7.314286-5.22449 12.538775v81.502041H37.616327c-9.404082 0-16.718367 7.314286-16.718368 16.718367v681.27347c0 9.404082 7.314286 16.718367 16.718368 16.718367h949.812244c9.404082 0 16.718367-7.314286 16.718368-16.718367V168.228571c-1.044898-9.404082-8.359184-16.718367-17.763266-16.718367z m-413.779591 9.404082c92.995918-38.661224 191.216327-61.64898 291.52653-70.008164l24.032653-3.134693v648.881632l-27.167347 2.089796c-103.444898 8.359184-204.8 33.436735-300.930612 72.097959l-32.391837 13.583674v-70.008163l7.314286-3.134694c87.771429-36.571429 179.722449-60.604082 273.763265-72.09796 6.269388-1.044898 11.493878-4.179592 13.583674-9.404081 2.089796-5.22449 1.044898-11.493878-2.089796-16.718368-4.179592-4.179592-9.404082-7.314286-15.673469-6.269387-95.085714 12.538776-188.081633 36.571429-275.853062 72.097959v-78.367347l81.502041-33.436735c63.738776-26.122449 130.612245-44.930612 199.57551-55.379592 9.404082-1.044898 14.628571-9.404082 13.583674-18.808163-1.044898-8.359184-9.404082-14.628571-18.808163-13.583673-71.053061 11.493878-140.016327 30.302041-206.889796 57.469387L528.718367 606.040816v-78.367347l81.502041-33.436734c63.738776-26.122449 130.612245-44.930612 199.57551-55.379592 9.404082-1.044898 14.628571-9.404082 13.583674-18.808163-1.044898-8.359184-9.404082-14.628571-18.808163-13.583674-71.053061 11.493878-140.016327 30.302041-206.889796 57.469388l-68.963266 28.212245v-78.367347l81.502041-33.436735c63.738776-26.122449 130.612245-44.930612 199.57551-55.379592 9.404082-1.044898 14.628571-9.404082 13.583674-18.808163-1.044898-8.359184-9.404082-14.628571-18.808163-13.583673-71.053061 11.493878-140.016327 30.302041-206.889796 57.469387l-68.963266 28.212245v-78.367347l81.502041-33.436734c63.738776-26.122449 130.612245-44.930612 199.57551-55.379592 9.404082-1.044898 14.628571-9.404082 13.583674-18.808164-1.044898-8.359184-9.404082-14.628571-18.808163-13.583673-71.053061 11.493878-140.016327 30.302041-206.889796 57.469388l-68.963266 28.212245V177.632653l43.885715-16.718367zM135.836735 87.771429l25.077551 2.089795c100.310204 8.359184 198.530612 32.391837 291.52653 70.008164l43.885715 17.763265v86.726531l-68.963266-28.212245c-65.828571-27.167347-135.836735-47.020408-206.889796-57.469388-6.269388-1.044898-11.493878 1.044898-15.673469 5.22449-4.179592 4.179592-5.22449 10.44898-2.089796 16.718367 2.089796 5.22449 7.314286 9.404082 13.583674 10.44898 67.918367 10.44898 134.791837 29.257143 198.530612 55.379592l81.502041 33.436734v78.367347l-68.963266-28.212245C360.489796 322.873469 290.481633 303.020408 219.428571 292.571429c-6.269388-1.044898-11.493878 1.044898-15.673469 5.224489-4.179592 4.179592-5.22449 10.44898-2.089796 16.718368 2.089796 5.22449 7.314286 9.404082 13.583674 10.448979 67.918367 10.44898 134.791837 29.257143 198.530612 55.379592l81.502041 33.436735v78.367347l-68.963266-28.212245c-65.828571-27.167347-135.836735-47.020408-206.889796-57.469388-6.269388-1.044898-11.493878 1.044898-15.673469 5.22449-4.179592 4.179592-5.22449 10.44898-2.089796 16.718367 2.089796 5.22449 7.314286 9.404082 13.583674 10.44898 67.918367 10.44898 134.791837 29.257143 198.530612 55.379592l81.502041 33.436734V606.040816l-68.963266-28.212245c-65.828571-27.167347-135.836735-47.020408-206.889796-57.469387-6.269388-1.044898-11.493878 1.044898-15.673469 5.224489-4.179592 4.179592-5.22449 10.44898-2.089796 16.718368 2.089796 5.22449 7.314286 9.404082 13.583674 10.448979 67.918367 10.44898 134.791837 29.257143 198.530612 55.379592l81.502041 33.436735v78.367347c-87.771429-36.571429-180.767347-60.604082-275.853062-73.142857-9.404082-1.044898-16.718367 5.22449-18.808163 13.583673-1.044898 9.404082 5.22449 16.718367 14.628572 17.763266 95.085714 11.493878 187.036735 36.571429 275.853061 73.142857l5.22449 2.089796v70.008163l-30.302041-12.538776c-96.130612-39.706122-197.485714-64.783673-300.930612-73.142857l-29.257143-1.044898V87.771429z m-82.546939 96.130612h49.110204v567.379592c0 8.359184 6.269388 15.673469 14.628571 16.718367l43.885715 4.179592c11.493878 1.044898 24.032653 2.089796 35.52653 4.179592 4.179592 0 8.359184 1.044898 11.493878 2.089796 8.359184 1.044898 15.673469 2.089796 24.032653 3.134693 5.22449 1.044898 9.404082 2.089796 14.628571 2.089796 7.314286 1.044898 14.628571 2.089796 21.942858 4.179592 5.22449 1.044898 9.404082 2.089796 14.628571 3.134694 7.314286 1.044898 13.583673 3.134694 20.897959 4.179592 5.22449 1.044898 9.404082 2.089796 14.628572 4.179592 6.269388 2.089796 13.583673 3.134694 19.853061 5.22449 5.22449 1.044898 9.404082 3.134694 14.628571 4.179591 6.269388 2.089796 13.583673 4.179592 19.853061 6.269388 5.22449 1.044898 9.404082 3.134694 14.628572 5.22449 6.269388 2.089796 13.583673 4.179592 19.853061 7.314286 5.22449 2.089796 9.404082 3.134694 14.628572 5.224489 2.089796 1.044898 4.179592 2.089796 6.269387 2.089796H53.289796V183.902041z m917.420408 648.881632H595.591837c2.089796-1.044898 4.179592-2.089796 6.269387-2.089795 5.22449-2.089796 9.404082-3.134694 14.628572-5.22449 6.269388-2.089796 12.538776-4.179592 19.853061-6.269388 5.22449-2.089796 10.44898-3.134694 15.67347-5.22449 6.269388-2.089796 12.538776-4.179592 19.853061-6.269388 5.22449-1.044898 10.44898-3.134694 15.673469-4.179591 6.269388-2.089796 13.583673-3.134694 19.853061-5.22449 5.22449-1.044898 10.44898-2.089796 15.67347-4.179592 7.314286-2.089796 13.583673-3.134694 20.897959-4.179592 5.22449-1.044898 9.404082-2.089796 14.628571-3.134694 7.314286-1.044898 14.628571-3.134694 21.942858-4.179592 4.179592-1.044898 9.404082-2.089796 13.583673-2.089795 8.359184-1.044898 15.673469-2.089796 24.032653-3.134694 4.179592 0 7.314286-1.044898 11.493878-2.089796 11.493878-1.044898 24.032653-3.134694 36.571428-4.179592l41.795919-3.134694c8.359184-1.044898 14.628571-7.314286 14.628571-16.718367V183.902041H971.755102v648.881632z" fill="#EA5967" p-id="56875"></path></svg>