<?xml version="1.0" standalone="no"?><!DOCTYPE svg PUBLIC "-//W3C//DTD SVG 1.1//EN" "http://www.w3.org/Graphics/SVG/1.1/DTD/svg11.dtd"><svg t="1596782884111" class="icon" viewBox="0 0 1024 1024" version="1.1" xmlns="http://www.w3.org/2000/svg" p-id="41539" xmlns:xlink="http://www.w3.org/1999/xlink" width="200" height="200"><defs><style type="text/css"></style></defs><path d="M992.096 598.848A256 256 0 0 0 578.144 896H465.824a34.944 34.944 0 0 0-22.016 9.216L331.616 1024l-111.296-118.784A34.112 34.112 0 0 0 198.752 896h-51.968A115.392 115.392 0 0 1 31.904 780.672V115.328C31.904 51.648 83.552 0 147.744 0h728.512c64 0 115.84 52.032 115.84 115.328v483.52zM159.904 224c0 17.152 14.08 32 31.424 32h321.152a32 32 0 0 0 0-64H191.328A32 32 0 0 0 159.904 224z m0 192c0 17.152 14.592 32 32.64 32h510.72c18.432 0 32.64-14.336 32.64-32a32.64 32.64 0 0 0-32.64-32H192.544a32.064 32.064 0 0 0-32.64 32z m0 192c0 17.152 14.08 32 31.36 32h193.28c17.6 0 31.36-14.336 31.36-32a32 32 0 0 0-31.36-32H191.264a31.488 31.488 0 0 0-31.36 32z" fill="#ee537a" p-id="41540"></path><path d="M610.592 800.384a192 192 0 0 0 378.944 0 32.896 32.896 0 0 1-7.296 0.832H617.952a31.616 31.616 0 0 1-7.36-0.832z m0-62.336a192 192 0 0 1 379.008 0 31.616 31.616 0 0 0-7.36-0.832H617.952a32.896 32.896 0 0 0-7.36 0.832z" fill="#ee537a" p-id="41541"></path></svg>