<?xml version="1.0" standalone="no"?><!DOCTYPE svg PUBLIC "-//W3C//DTD SVG 1.1//EN" "http://www.w3.org/Graphics/SVG/1.1/DTD/svg11.dtd"><svg t="1596784006074" class="icon" viewBox="0 0 1024 1024" version="1.1" xmlns="http://www.w3.org/2000/svg" p-id="17582" xmlns:xlink="http://www.w3.org/1999/xlink" width="200" height="200"><defs><style type="text/css"></style></defs><path d="M752.998 253.235a81.92 81.92 0 0 0-81.92-79.565h-252.21a81.92 81.92 0 0 0-81.92 79.565v92.314a81.92 81.92 0 0 0 81.92 81.92H671.13a81.92 81.92 0 0 0 81.92-81.92V255.59c0-0.768 0-1.587-0.052-2.355z m-334.13-59.085H671.13a61.44 61.44 0 0 1 61.44 59.085H357.478a61.44 61.44 0 0 1 61.39-59.085z" fill="#EA6381" p-id="17583"></path><path d="M773.478 253.235a102.4 102.4 0 0 0-102.4-100.045h-252.21a102.4 102.4 0 0 0-102.4 100.045v92.314a102.4 102.4 0 0 0 102.4 102.4H671.13a102.4 102.4 0 0 0 102.4-102.4V255.59c0-0.768 0-1.587-0.052-2.355z m-40.96 92.16a61.44 61.44 0 0 1-61.44 61.44h-252.21a61.44 61.44 0 0 1-61.44-61.44V253.235a61.44 61.44 0 0 1 61.44-59.085H671.13a61.44 61.44 0 0 1 61.44 59.085v2.355z" fill="#692F76" p-id="17584"></path><path d="M732.518 253.235h-375.04a61.44 61.44 0 0 1 61.44-59.085h252.263a61.44 61.44 0 0 1 61.337 59.085z" fill="#EA6381" p-id="17585"></path><path d="M360.09 237.875a61.082 61.082 0 0 0-2.612 15.36h375.04a61.082 61.082 0 0 0-2.61-15.36z" fill="#CB4E67" p-id="17586"></path><path d="M418.867 209.51H671.13a61.44 61.44 0 0 1 58.777 43.725h2.611a61.44 61.44 0 0 0-61.44-59.085h-252.21a61.44 61.44 0 0 0-61.44 59.085h2.61a61.44 61.44 0 0 1 58.83-43.725z" fill="#F093AA" p-id="17587"></path><path d="M877.978 273.715H212.07a81.92 81.92 0 0 0-81.92 81.92v425.882a81.92 81.92 0 0 0 81.92 81.92h665.908a81.92 81.92 0 0 0 81.92-81.92V355.635a81.92 81.92 0 0 0-81.92-81.92z m61.44 507.802a61.44 61.44 0 0 1-61.44 61.44H212.07a61.44 61.44 0 0 1-61.44-61.44V355.635a61.44 61.44 0 0 1 61.44-61.44h665.908a61.44 61.44 0 0 1 61.44 61.44z" fill="#F6D95F" p-id="17588"></path><path d="M877.978 253.235H212.07a102.4 102.4 0 0 0-102.4 102.4v425.882a102.4 102.4 0 0 0 102.4 102.4h665.908a102.4 102.4 0 0 0 102.4-102.4V355.635a102.4 102.4 0 0 0-102.4-102.4z m61.44 528.282a61.44 61.44 0 0 1-61.44 61.44H212.07a61.44 61.44 0 0 1-61.44-61.44V355.635a61.44 61.44 0 0 1 61.44-61.44h665.908a61.44 61.44 0 0 1 61.44 61.44z" fill="#692F76" p-id="17589"></path><path d="M877.978 827.597H212.07a61.44 61.44 0 0 1-61.44-61.44v15.36a61.44 61.44 0 0 0 61.44 61.44h665.908a61.44 61.44 0 0 0 61.44-61.44v-15.36a61.44 61.44 0 0 1-61.44 61.44zM702.874 451.226c-1.69-2.304-3.43-4.557-5.12-6.759a196.864 196.864 0 0 0-16.282-17.664 190.106 190.106 0 0 0-24.115-19.814 196.3 196.3 0 0 0-224.41 0 199.68 199.68 0 0 0-40.397 37.478c-1.843 2.202-3.584 4.455-5.12 6.759h-236.8v40.96h212.89a112.912 112.912 0 0 0-1.792 4.403l-1.229 3.225c-0.41 1.076-0.921 2.56-1.382 3.84l-0.717 1.997-0.614 1.895a215.084 215.084 0 0 0-4.301 15.36c-0.512 1.945-0.922 3.89-1.331 5.888 0 0.921-0.41 1.843-0.564 2.764-0.358 1.946-0.716 3.943-1.024 5.94s-0.563 3.635-0.819 5.478a5.12 5.12 0 0 0 0 0.87c0 1.485-0.358 3.072-0.512 4.608q-0.717 6.452-0.921 13.056v17.46c0 2.099 0 4.198 0.358 6.246s0.46 4.762 0.717 7.168 0.512 3.84 0.819 5.734 0.46 3.072 0.717 4.557 0.358 1.895 0.512 2.816 0.46 2.253 0.665 3.38c0.461 2.099 0.922 4.198 1.434 6.246s1.178 4.71 1.843 7.065 1.485 5.12 2.304 7.578H150.63v40.96h226.1a196.71 196.71 0 0 0 336.537 0h226.15v-40.96H732.16a177.181 177.181 0 0 0 4.147-14.643c0.512-2.048 0.973-4.147 1.434-6.247 0-1.126 0.46-2.252 0.665-3.379s0.359-1.843 0.512-2.816 0.512-3.02 0.717-4.557 0.563-3.788 0.82-5.734 0.511-4.762 0.716-7.168 0.307-4.147 0.359-6.246V561.51q0-6.605-0.922-13.057c0-1.536-0.307-3.123-0.512-4.608s-0.41-3.379-0.666-5.12-0.46-2.61-0.665-3.89c-0.359-2.049-0.717-4.097-1.178-6.094s-0.819-3.942-1.331-5.888c0-1.024-0.46-2.099-0.768-3.123-0.973-3.993-2.15-7.936-3.43-11.827-0.461-1.28-0.87-2.611-1.332-3.891s-0.87-2.56-1.382-3.84c-0.973-2.56-1.946-5.12-3.02-7.629h213.042v-40.96z m-20.89 43.161a34.56 34.56 0 0 1 1.74 3.328 114.74 114.74 0 0 1 6.247 13.773c0.922 2.355 1.843 4.762 2.663 7.168s1.536 5.12 2.252 7.322a141.466 141.466 0 0 1 3.482 15.052c0.46 2.56 0.87 5.12 1.178 7.732a76.8 76.8 0 0 1 0.819 7.68c0 1.484 0 2.97 0.256 4.454s0 3.84 0 5.786v9.574c0 1.894 0 2.97-0.256 4.454a76.8 76.8 0 0 1-0.82 7.68c-0.307 2.612-0.716 5.12-1.177 7.732a141.466 141.466 0 0 1-3.482 15.052 148.122 148.122 0 0 1-5.683 16.436 12.8 12.8 0 0 1-0.768 1.945c-0.665 1.639-1.382 3.226-2.201 4.813s-1.639 3.43-2.51 5.12a68.352 68.352 0 0 1-3.225 6.042c-0.512 0.87-1.024 1.792-1.587 2.662s-0.717 1.28-1.075 1.894-1.024 1.639-1.639 2.458a43.162 43.162 0 0 1-3.276 5.12c-2.356 3.38-5.12 6.707-7.527 9.933-0.87 1.075-1.74 2.15-2.662 3.174-1.946 2.253-4.045 4.506-6.144 6.707a13.568 13.568 0 0 1-1.485 1.485 155.34 155.34 0 0 1-110.131 45.67h-9.267q-5.12 0-9.984-0.921c-1.741 0-3.533-0.41-5.12-0.717a143.053 143.053 0 0 1-14.797-3.072c-1.792-0.46-3.533-0.921-5.12-1.485-3.021-0.87-6.042-1.894-8.96-2.97-4.762-1.74-9.421-3.737-13.927-5.887l-2.406-1.229c-1.485-0.666-2.918-1.434-4.352-2.253s-3.738-2.048-5.58-3.174c-0.974-0.563-1.998-1.178-2.97-1.843s-1.946-1.23-2.97-1.895c-0.717-0.46-1.434-0.921-2.1-1.433-2.508-1.69-5.12-3.43-7.32-5.12l-4.711-3.79a132.52 132.52 0 0 1-5.735-5.12c-1.126-0.972-2.201-2.047-3.276-3.122l-5.12-5.12-1.536-1.741-0.973-1.075-0.87-1.024q-1.997-2.253-3.84-4.608l-0.769-0.973c-1.075-1.331-2.099-2.714-3.123-4.096s-2.355-3.277-3.533-5.12l-1.484-2.304a1.229 1.229 0 0 1-0.308-0.461l-1.638-2.611c-0.614-1.024-1.229-1.997-1.792-3.021a12.186 12.186 0 0 1-0.922-1.536q-1.433-2.458-2.764-5.12a19.66 19.66 0 0 1-1.076-2.048 1.28 1.28 0 0 1 0-0.358v-0.512c-0.512-1.076-1.075-2.202-1.587-3.38s-1.126-2.457-1.638-3.737c-0.461-1.127-0.922-2.202-1.331-3.328-0.973-2.304-1.844-4.608-2.56-6.912a19.968 19.968 0 0 1-0.87-2.458 7.27 7.27 0 0 1-0.36-1.126 12.34 12.34 0 0 0-0.409-1.28 11.11 11.11 0 0 1-0.358-1.229 8.038 8.038 0 0 1-0.41-1.485c0-0.717-0.46-1.485-0.665-2.253a2.406 2.406 0 0 1 0-0.819c0-0.614-0.359-1.229-0.512-1.894a1.792 1.792 0 0 1 0-0.666c-0.308-1.075-0.564-2.201-0.768-3.277s-0.359-1.536-0.512-2.252a8.909 8.909 0 0 0 0-1.127v-1.126a8.14 8.14 0 0 1-0.308-1.536v-0.922a0.563 0.563 0 0 1 0-0.41c-0.307-1.689-0.563-3.43-0.819-5.12a4.66 4.66 0 0 1 0-1.177 61.952 61.952 0 0 1-0.665-6.195 1.434 1.434 0 0 1 0-0.461 0.717 0.717 0 0 1 0-0.46 1.485 1.485 0 0 1 0-0.82c0-1.69 0-3.38-0.308-5.12a28.826 28.826 0 0 1 0-2.97v-0.768a6.707 6.707 0 0 1 0-1.433v-5.479a0.307 0.307 0 0 1 0-0.307 28.826 28.826 0 0 1 0-2.97V561.614a2.509 2.509 0 0 0 0-0.87 1.587 1.587 0 0 1 0-0.513v-2.099a0.358 0.358 0 0 1 0-0.307c0-1.229 0-2.458 0.359-3.686s0.256-2.458 0.46-3.687q1.025-6.81 2.458-13.517a165.786 165.786 0 0 1 5.12-17.408 2.918 2.918 0 0 0 0-0.716c0-0.512 0.359-1.024 0.563-1.536a16.589 16.589 0 0 1 0.666-1.69c1.229-3.226 2.56-6.4 4.045-9.523 0.46-1.075 0.973-2.15 1.536-3.175 1.229-2.61 2.611-5.12 4.096-7.68q1.69-3.072 3.533-5.99c0.46-0.768 0.921-1.536 1.433-2.304a5.12 5.12 0 0 1 0.615-0.973c0.665-1.075 1.433-2.15 2.15-3.174a13.414 13.414 0 0 1 1.229-1.741c0.358-0.512 0.717-0.922 1.024-1.434l2.713-3.584 1.024-1.28c1.844-2.304 3.738-4.608 5.735-6.81 0.665-0.767 1.331-1.535 2.048-2.252s1.945-2.1 2.97-3.123l1.075-1.075c0.46-0.512 0.972-0.973 1.433-1.434s2.304-2.253 3.482-3.277 1.894-1.74 2.816-2.509l3.123-2.764 0.512-0.41a145.786 145.786 0 0 1 11.52-8.55c1.178-0.82 2.406-1.639 3.635-2.356a1.229 1.229 0 0 1 0.461-0.307c1.331-0.87 2.714-1.69 4.096-2.509a145.061 145.061 0 0 1 12.8-6.758c4.045-1.946 8.243-3.686 12.493-5.12 1.536-0.614 3.123-1.126 4.71-1.587s2.816-0.973 4.25-1.383 3.481-1.024 5.12-1.484l2.048-0.512c1.229-0.359 2.509-0.615 3.789-0.87l3.123-0.666a59.34 59.34 0 0 1 4.352-0.768h1.126l2.355-0.359c1.332 0 2.714-0.41 4.096-0.512l3.687-0.41c1.485 0 2.97-0.307 4.505-0.358h3.175a5.683 5.683 0 0 1 1.331 0h14.49c2.918 0 4.403 0.307 6.553 0.512a5.12 5.12 0 0 1 1.229 0 35.84 35.84 0 0 1 4.096 0.512 5.12 5.12 0 0 1 1.229 0c1.382 0 2.713 0.359 4.045 0.615s2.816 0.46 4.25 0.768l3.122 0.665c2.253 0.461 4.455 1.024 6.656 1.587a155.392 155.392 0 0 1 17.05 3.226l2.97 1.28 3.788 1.74 1.383 0.666q2.918 1.383 5.683 2.919c3.02 1.536 5.99 3.277 8.858 5.12 1.69 1.075 3.43 2.099 5.12 3.277s3.737 2.56 5.53 3.89 4.044 3.073 5.99 4.66l0.46 0.41s1.28 1.075 1.895 1.69l1.126 0.972 2.611 2.304c1.741 1.587 3.482 3.226 5.12 5.12a8.397 8.397 0 0 1 1.485 1.536l3.482 3.686q1.28 1.383 2.457 2.765a82.136 82.136 0 0 1 4.148 5.12 2.304 2.304 0 0 1 0.512 0.717c1.894 2.406 3.737 4.813 5.427 7.322a43.162 43.162 0 0 1 3.277 5.12 67.328 67.328 0 0 1 3.89 6.297l0.666 1.229z m165.94 320.615l43.52-43.47 3.122-3.174a31.13 31.13 0 0 0 6.912-13.414 29.798 29.798 0 0 0 0.922-7.424 31.846 31.846 0 0 0-31.846-31.846 31.437 31.437 0 0 0-22.63 9.472A31.846 31.846 0 0 0 793.6 747.52a31.642 31.642 0 0 0 7.834 20.89z" fill="#F6D95F" p-id="17590"></path><path d="M713.267 670.72a196.71 196.71 0 0 1-336.537 0h-226.1v95.642a61.44 61.44 0 0 0 61.44 61.44h665.908a61.44 61.44 0 0 0 61.44-61.44V670.72z m188.211 84.429a31.13 31.13 0 0 1-6.912 13.414l-3.123 3.175-43.52 43.468-46.643-46.592a31.642 31.642 0 0 1-7.68-21.094 31.846 31.846 0 0 1 54.477-22.374 31.437 31.437 0 0 1 22.63-9.472 31.846 31.846 0 0 1 31.847 31.846 29.798 29.798 0 0 1-1.076 7.424z" fill="#F6D95F" p-id="17591"></path><path d="M713.267 670.72a196.71 196.71 0 0 1-336.537 0h-226.1v95.642a61.44 61.44 0 0 0 61.44 61.44h665.908a61.44 61.44 0 0 0 61.44-61.44V670.72z m188.211 84.429a31.13 31.13 0 0 1-6.912 13.414l-3.123 3.175-43.52 43.468-46.643-46.592a31.642 31.642 0 0 1-7.68-21.094 31.846 31.846 0 0 1 54.477-22.374 31.437 31.437 0 0 1 22.63-9.472 31.846 31.846 0 0 1 31.847 31.846 29.798 29.798 0 0 1-1.076 7.424z m37.94-399.514v95.59H702.874c-1.69-2.303-3.43-4.556-5.12-6.758a196.864 196.864 0 0 0-16.282-17.664 190.106 190.106 0 0 0-24.115-19.814 196.3 196.3 0 0 0-224.41 0 199.68 199.68 0 0 0-40.397 37.478c-1.843 2.202-3.584 4.455-5.12 6.759h-236.8v-95.59a61.44 61.44 0 0 1 61.44-61.44h665.908a61.44 61.44 0 0 1 61.44 61.44z" fill="#F6D95F" p-id="17592"></path><path d="M697.6 429.107a196.864 196.864 0 0 0-16.282-17.664 190.106 190.106 0 0 0-24.115-19.814 196.3 196.3 0 0 0-224.41 0 199.68 199.68 0 0 0-40.396 37.478c-1.843 2.202-3.584 4.455-5.12 6.759H150.63v15.36h236.493c1.69-2.304 3.43-4.557 5.12-6.759a199.68 199.68 0 0 1 40.397-37.478 196.3 196.3 0 0 1 224.41 0 190.106 190.106 0 0 1 24.115 19.814 196.864 196.864 0 0 1 16.281 17.664c1.844 2.202 3.584 4.455 5.12 6.759H939.11v-15.36H702.566c-1.126-2.304-3.123-4.557-4.966-6.759z" fill="#EAB943" p-id="17593"></path><path d="M877.978 294.195H212.07a61.44 61.44 0 0 0-61.44 61.44v15.36a61.44 61.44 0 0 1 61.44-61.44h665.908a61.44 61.44 0 0 1 61.44 61.44v-15.36a61.44 61.44 0 0 0-61.44-61.44z" fill="#FFFFFF" p-id="17594"></path><path d="M590.848 471.706h-460.8V650.24h829.798V471.706zM150.63 629.76V492.186h212.89a196.66 196.66 0 0 0-5.632 137.574z m788.788 0H732.16a197.018 197.018 0 0 0-5.734-137.37h213.043z" fill="#F6D95F" p-id="17595"></path><path d="M483.38 629.76a83.456 83.456 0 0 0 11.775 9.933l2.15 1.485 0.82 0.512a32.973 32.973 0 0 0 3.379 2.048 50.143 50.143 0 0 0 3.635 1.996 8.909 8.909 0 0 0 1.383 0.717q2.15 1.075 4.3 1.997l4.352 1.74H614.4a71.22 71.22 0 0 0 3.635-3.225l3.533-3.43c0.922-0.87 1.792-1.843 2.662-2.816l0.666-0.768a29.798 29.798 0 0 0 2.1-2.458l1.433-1.74q1.28-1.588 2.611-3.38c0.614-0.87 1.28-1.74 1.843-2.662z m134.706-139.264c-1.177-1.126-2.406-2.202-3.686-3.277s-1.536-1.331-2.355-1.945l-1.946-1.536a66.997 66.997 0 0 0-3.84-2.816l-3.072-2.048-1.843-1.178-0.922-0.563a70.316 70.316 0 0 0-4.25-2.458h-0.614a0.666 0.666 0 0 0-0.358 0 11.52 11.52 0 0 0-1.075-0.614l-0.563-0.256a0.922 0.922 0 0 0-0.461 0l-0.87-0.461-0.922-0.41h-92.16l-2.867 1.383-0.666 0.358h-0.46c-1.025 0.512-1.998 1.075-2.97 1.639a12.288 12.288 0 0 0-1.383 0.819 6.912 6.912 0 0 0-1.331 0.768 27.085 27.085 0 0 0-2.56 1.638l-3.072 2.048a84.429 84.429 0 0 0-8.96 7.015 4.454 4.454 0 0 0-0.768 0.665l-1.74 1.587c-0.666 0.615-1.332 1.23-1.946 1.895h149.606c-0.512-1.229-1.28-1.843-1.946-2.458zM483.38 629.76a83.456 83.456 0 0 0 11.776 9.933l2.15 1.485 0.82 0.512a32.973 32.973 0 0 0 3.379 2.048 50.143 50.143 0 0 0 3.635 1.996 8.909 8.909 0 0 0 1.383 0.717q2.15 1.075 4.3 1.997l4.352 1.74H614.4a71.22 71.22 0 0 0 3.635-3.225l3.533-3.43c0.922-0.87 1.792-1.843 2.662-2.816l0.666-0.768a29.798 29.798 0 0 0 2.1-2.458l1.433-1.74q1.28-1.588 2.611-3.38c0.614-0.87 1.28-1.74 1.843-2.662z m136.653-137.574c-0.614-0.666-1.28-1.28-1.946-1.895s-2.406-2.201-3.686-3.277-1.536-1.33-2.355-1.945l-1.946-1.536a66.997 66.997 0 0 0-3.84-2.816l-3.072-2.048-1.843-1.178-0.922-0.563a70.316 70.316 0 0 0-4.25-2.458l-0.665-0.307a0.666 0.666 0 0 0-0.358 0 11.52 11.52 0 0 0-1.075-0.614l-0.564-0.256a0.922 0.922 0 0 0-0.46 0l-0.87-0.461-0.922-0.41h-92.11l-2.866 1.383-0.666 0.358h-0.46c-1.025 0.512-1.998 1.075-2.97 1.639a12.288 12.288 0 0 0-1.383 0.819 6.912 6.912 0 0 0-1.331 0.768 27.085 27.085 0 0 0-2.56 1.638l-3.072 2.048a84.429 84.429 0 0 0-8.96 7.015 4.454 4.454 0 0 0-0.768 0.665l-1.74 1.587c-0.666 0.615-1.332 1.23-1.946 1.895z m27.34-40.96h-537.6V670.72h870.606V451.226zM150.63 629.76V492.186h788.788V629.76z m467.456-139.264c-1.177-1.126-2.406-2.202-3.686-3.277s-1.536-1.331-2.355-1.945l-1.946-1.536a66.997 66.997 0 0 0-3.84-2.816l-3.072-2.048-1.843-1.178-0.922-0.563a70.316 70.316 0 0 0-4.25-2.458h-0.614a0.666 0.666 0 0 0-0.358 0 11.52 11.52 0 0 0-1.075-0.614l-0.563-0.256a0.922 0.922 0 0 0-0.461 0l-0.87-0.461-0.922-0.41h-92.16l-2.867 1.383-0.666 0.358h-0.46c-1.025 0.512-1.998 1.075-2.97 1.639a12.288 12.288 0 0 0-1.383 0.819 6.912 6.912 0 0 0-1.331 0.768 27.085 27.085 0 0 0-2.56 1.638l-3.072 2.048a84.429 84.429 0 0 0-8.96 7.015 4.454 4.454 0 0 0-0.768 0.665l-1.74 1.587c-0.666 0.615-1.332 1.23-1.946 1.895h149.606c-0.512-1.229-1.28-1.843-1.946-2.458zM483.38 629.76a83.456 83.456 0 0 0 11.776 9.933l2.15 1.485 0.82 0.512a32.973 32.973 0 0 0 3.379 2.048 50.143 50.143 0 0 0 3.635 1.996 8.909 8.909 0 0 0 1.383 0.717q2.15 1.075 4.3 1.997l4.352 1.74H614.4a71.22 71.22 0 0 0 3.635-3.225l3.533-3.43c0.922-0.87 1.792-1.843 2.662-2.816l0.666-0.768a29.798 29.798 0 0 0 2.1-2.458l1.433-1.74q1.28-1.588 2.611-3.38c0.614-0.87 1.28-1.74 1.843-2.662z m134.707-139.264c-1.177-1.126-2.406-2.202-3.686-3.277s-1.536-1.331-2.355-1.945l-1.946-1.536a66.997 66.997 0 0 0-3.84-2.816l-3.072-2.048-1.843-1.178-0.922-0.563a70.316 70.316 0 0 0-4.25-2.458h-0.614a0.666 0.666 0 0 0-0.358 0 11.52 11.52 0 0 0-1.075-0.614l-0.563-0.256a0.922 0.922 0 0 0-0.461 0l-0.87-0.461-0.922-0.41h-92.16l-2.867 1.383-0.666 0.358h-0.46c-1.025 0.512-1.998 1.075-2.97 1.639a12.288 12.288 0 0 0-1.383 0.819 6.912 6.912 0 0 0-1.331 0.768 27.085 27.085 0 0 0-2.56 1.638l-3.072 2.048a84.429 84.429 0 0 0-8.96 7.015 4.454 4.454 0 0 0-0.768 0.665l-1.74 1.587c-0.666 0.615-1.332 1.23-1.946 1.895h149.606c-0.512-1.229-1.28-1.843-1.946-2.458zM483.38 629.76a83.456 83.456 0 0 0 11.776 9.933l2.15 1.485 0.82 0.512a32.973 32.973 0 0 0 3.379 2.048 50.143 50.143 0 0 0 3.635 1.996 8.909 8.909 0 0 0 1.383 0.717q2.15 1.075 4.3 1.997l4.352 1.74H614.4a71.22 71.22 0 0 0 3.635-3.225l3.533-3.43c0.922-0.87 1.792-1.843 2.662-2.816l0.666-0.768a29.798 29.798 0 0 0 2.1-2.458l1.433-1.74q1.28-1.588 2.611-3.38c0.614-0.87 1.28-1.74 1.843-2.662z" fill="#692F76" p-id="17596"></path><path d="M939.418 492.186V629.76H732.16a197.018 197.018 0 0 0-5.734-137.37z m-591.258 76.39a195.226 195.226 0 0 0 9.728 61.184H150.63V492.186h212.89a195.02 195.02 0 0 0-15.36 76.39z" fill="#F6D95F" p-id="17597"></path><path d="M939.418 492.186V629.76H732.16a197.018 197.018 0 0 0-5.734-137.37z m-591.258 76.39a195.226 195.226 0 0 0 9.728 61.184H150.63V492.186h212.89a195.02 195.02 0 0 0-15.36 76.39z" fill="#F6D95F" p-id="17598"></path><path d="M726.374 492.186q3.175 7.526 5.684 15.36h207.36v-15.36z m-362.854 0H150.63v15.36h207.31a286.72 286.72 0 0 1 5.58-15.36z" fill="#FFFFFF" p-id="17599"></path><path d="M732.16 629.76h207.309V614.4H736.46a286.74 286.74 0 0 1-4.301 15.36zM150.63 614.4v15.36h207.258a246.434 246.434 0 0 1-4.352-15.36z" fill="#EAB943" p-id="17600"></path><path d="M544.973 392.243a176.333 176.333 0 1 0 176.333 176.333 176.282 176.282 0 0 0-176.333-176.333z m0 332.135a155.853 155.853 0 1 1 155.853-155.802 155.955 155.955 0 0 1-155.853 155.802z" fill="#EA6381" p-id="17601"></path><path d="M544.973 461.363a107.213 107.213 0 1 0 107.213 107.213 107.52 107.52 0 0 0-107.213-107.213z m0 173.415a66.253 66.253 0 1 1 66.253-66.202 66.253 66.253 0 0 1-66.253 66.304z" fill="#F6D95F" p-id="17602"></path><path d="M544.973 461.363a107.213 107.213 0 1 0 107.213 107.213 107.52 107.52 0 0 0-107.213-107.213z m0 173.415a66.253 66.253 0 1 1 66.253-66.202 66.253 66.253 0 0 1-66.253 66.304z" fill="#EA6381" p-id="17603"></path><path d="M741.632 561.306q0-6.605-0.922-13.056c0-1.536-0.307-3.124-0.512-4.608s-0.41-3.38-0.665-5.12-0.461-2.612-0.666-3.892c-0.358-2.048-0.717-4.096-1.177-6.092s-0.82-3.943-1.332-5.888c0-1.024-0.46-2.1-0.768-3.124-0.972-3.993-2.15-7.936-3.43-11.827-0.46-1.28-0.87-2.611-1.331-3.891s-0.87-2.56-1.383-3.84c-0.972-2.56-1.945-5.12-3.02-7.629a190.208 190.208 0 0 0-10.24-20.48 192.46 192.46 0 0 0-13.364-20.48c-1.69-2.304-3.43-4.557-5.12-6.758a196.864 196.864 0 0 0-16.281-17.664 190.106 190.106 0 0 0-24.115-19.815 196.3 196.3 0 0 0-224.41 0 199.68 199.68 0 0 0-40.397 37.479c-1.843 2.201-3.584 4.454-5.12 6.758a192.46 192.46 0 0 0-13.363 20.48 180.787 180.787 0 0 0-10.24 20.48 112.912 112.912 0 0 0-1.792 4.403l-1.229 3.226c-0.41 1.075-0.921 2.56-1.382 3.84l-0.717 1.997-0.614 1.894a215.084 215.084 0 0 0-4.301 15.36c-0.512 1.946-0.922 3.891-1.331 5.888 0 0.922-0.41 1.843-0.564 2.765-0.358 1.946-0.716 3.942-1.024 5.94s-0.563 3.634-0.819 5.478a5.12 5.12 0 0 0 0 0.87c0 1.485-0.358 3.072-0.512 4.608q-0.717 6.451-0.921 13.056v17.46c0 2.098 0 4.198 0.358 6.246s0.46 4.761 0.717 7.168 0.512 3.84 0.819 5.734 0.46 3.072 0.717 4.557 0.358 1.894 0.512 2.816 0.46 2.253 0.665 3.379c0.461 2.1 0.922 4.198 1.434 6.246s1.178 4.71 1.843 7.066 1.485 5.12 2.304 7.578a195.584 195.584 0 0 0 18.842 40.96 196.71 196.71 0 0 0 336.537 0 195.584 195.584 0 0 0 18.842-40.96 177.181 177.181 0 0 0 4.147-14.644c0.512-2.048 0.973-4.147 1.434-6.246 0-1.126 0.46-2.253 0.665-3.38s0.359-1.842 0.512-2.815 0.512-3.021 0.717-4.557 0.563-3.789 0.82-5.734 0.511-4.762 0.716-7.168 0.307-4.148 0.359-6.247v-10.189c0-2.201 0.204-5.222 0.102-7.628z m-85.043 115.916a13.568 13.568 0 0 1-1.485 1.485 155.34 155.34 0 0 1-110.131 45.67h-9.267q-5.12 0-9.984-0.921c-1.741 0-3.533-0.41-5.12-0.717a143.053 143.053 0 0 1-14.797-3.072c-1.792-0.46-3.533-0.921-5.12-1.485-3.021-0.87-6.042-1.894-8.96-2.97a145.51 145.51 0 0 1-13.927-5.887l-2.406-1.229c-1.485-0.666-2.918-1.434-4.352-2.253s-3.738-2.048-5.58-3.174c-0.974-0.563-1.998-1.178-2.97-1.843s-1.946-1.23-2.97-1.895c-0.717-0.46-1.434-0.921-2.1-1.433-2.508-1.69-5.12-3.43-7.32-5.12l-4.711-3.79a132.52 132.52 0 0 1-5.735-5.12c-1.126-0.972-2.201-2.047-3.276-3.122l-5.12-5.12-1.024-1.076a5.786 5.786 0 0 1-0.512-0.665l-0.973-1.075a8.294 8.294 0 0 1-0.922-1.024q-1.997-2.253-3.84-4.608l-0.717-0.973c-1.075-1.331-2.099-2.714-3.123-4.096s-2.355-3.277-3.533-5.12c-0.512-0.768-1.024-1.536-1.433-2.304a1.229 1.229 0 0 1-0.307-0.461q-0.922-1.28-1.69-2.611c-0.614-1.024-1.229-1.997-1.74-3.021a12.186 12.186 0 0 1-0.922-1.536l-1.741-3.174c-0.717-1.28-1.434-2.612-2.048-3.943a1.28 1.28 0 0 1 0-0.358v-0.512a24.43 24.43 0 0 1-0.82-1.639 12.902 12.902 0 0 1-0.767-1.74c-0.615-1.23-1.178-2.51-1.69-3.738s-0.922-2.202-1.331-3.328c-0.973-2.304-1.843-4.608-2.56-6.912a19.968 19.968 0 0 1-0.87-2.458 7.27 7.27 0 0 1-0.359-1.126 12.34 12.34 0 0 1-0.41-1.28 11.11 11.11 0 0 1-0.358-1.229 8.038 8.038 0 0 1-0.41-1.485c0-0.716-0.46-1.484-0.665-2.252a2.406 2.406 0 0 1 0-0.82c0-0.614-0.359-1.228-0.512-1.894a1.792 1.792 0 0 1 0-0.666c-0.307-1.075-0.563-2.201-0.768-3.276s-0.359-1.536-0.512-2.253a11.52 11.52 0 0 1 0-1.127 10.598 10.598 0 0 1 0-1.126 8.14 8.14 0 0 1-0.307-1.536 2.918 2.918 0 0 1 0-0.922 0.563 0.563 0 0 1 0-0.41 22.374 22.374 0 0 1-0.461-2.56c0-0.87 0-1.74-0.359-2.56a4.66 4.66 0 0 1 0-1.177 61.952 61.952 0 0 1-0.665-6.195 0.46 0.46 0 0 1 0-0.358 0.717 0.717 0 0 1 0-0.461 1.485 1.485 0 0 1 0-0.82c0-1.587-0.307-3.174-0.359-4.761a12.954 12.954 0 0 1 0-1.434v-2.61a6.707 6.707 0 0 1 0-1.434v-5.479a0.307 0.307 0 0 1 0-0.307v-3.738a13.312 13.312 0 0 1 0-2.048v-0.256a4.66 4.66 0 0 1 0-0.87 1.587 1.587 0 0 1 0-0.512v-2.1a0.358 0.358 0 0 1 0-0.306v-3.175c0-2.048 0.461-4.096 0.768-6.093v-1.484c0-1.792 0.564-3.584 0.973-5.12 0-0.87 0.307-1.69 0.461-2.51a1.587 1.587 0 0 1 0-0.409c0.307-1.69 0.717-3.328 1.178-5.12 0-0.614 0-1.177 0.41-1.792 0.46-1.638 0.87-3.225 1.382-4.813a0.717 0.717 0 0 1 0-0.307q0.41-1.433 0.921-2.918a0.973 0.973 0 0 1 0-0.41c0.461-1.433 0.922-2.816 1.434-4.25a1.843 1.843 0 0 1 0-0.563c0-0.512 0.358-1.024 0.563-1.536a16.589 16.589 0 0 1 0.666-1.69c1.228-3.225 2.56-6.4 4.044-9.522 0.461-1.076 0.973-2.15 1.536-3.175 1.23-2.611 2.612-5.12 4.096-7.68s2.048-3.584 3.124-5.12a3.277 3.277 0 0 1 0.41-0.717l1.074-1.69a1.946 1.946 0 0 1 0.41-0.562 5.12 5.12 0 0 1 0.614-0.973c0.666-1.075 1.434-2.15 2.15-3.175a13.414 13.414 0 0 1 1.23-1.74c0.307-0.461 0.614-0.973 0.972-1.434l-1.126-3.328 2.304-2.97c0.307-0.46 0.666-0.87 0.973-1.28 1.843-2.304 3.737-4.608 5.734-6.81 0.666-0.767 1.331-1.535 2.048-2.252s1.946-2.1 2.97-3.123l1.075-1.075c0.46-0.512 0.973-0.973 1.434-1.434s2.304-2.253 3.481-3.277 1.895-1.74 2.816-2.509c1.024-0.972 2.1-1.843 3.123-2.713l0.512-0.41a145.786 145.786 0 0 1 11.52-8.55c1.178-0.82 2.407-1.639 3.636-2.355a1.229 1.229 0 0 1 0.46-0.308c1.332-0.87 2.714-1.69 4.096-2.508a145.061 145.061 0 0 1 12.8-6.759 94.42 94.42 0 0 1 4.66-2.15l1.536-0.666 0.768-0.307c1.843-0.768 3.635-1.485 5.53-2.15s3.122-1.127 4.71-1.588 2.816-0.972 4.25-1.382 3.48-1.024 5.12-1.485l2.047-0.512c1.229-0.358 2.509-0.614 3.789-0.87l3.123-0.666a59.34 59.34 0 0 1 4.352-0.768h1.127l2.355-0.358c1.331 0 2.713-0.41 4.096-0.512l3.686-0.41c1.485 0 2.97-0.307 4.506-0.358h3.174a5.683 5.683 0 0 1 1.331 0h14.49c2.918 0 4.403 0.307 6.554 0.512a5.12 5.12 0 0 1 1.228 0 35.84 35.84 0 0 1 4.096 0.512 5.12 5.12 0 0 1 1.23 0c1.382 0 2.713 0.358 4.044 0.614s2.816 0.461 4.25 0.768l3.123 0.666c2.253 0.46 4.454 1.024 6.656 1.587a155.392 155.392 0 0 1 19.507 6.144l2.97 1.28 3.788 1.74 1.383 0.666q2.918 1.383 5.683 2.919c3.02 1.536 5.99 3.277 8.858 5.12 1.69 1.075 3.43 2.099 5.12 3.277s3.737 2.56 5.53 3.89 4.044 3.073 5.99 4.66l0.46 0.41 1.895 1.69 1.126 0.972 2.611 2.304c1.741 1.587 3.482 3.226 5.12 5.12a8.397 8.397 0 0 1 1.485 1.536l3.482 3.686q1.28 1.383 2.457 2.765a82.136 82.136 0 0 1 4.148 5.12 6.86 6.86 0 0 1 0.563 0.717c1.894 2.406 3.737 4.813 5.427 7.322a43.162 43.162 0 0 1 3.277 5.12 67.328 67.328 0 0 1 3.891 6.297l0.666 1.229 1.228 2.202a34.56 34.56 0 0 1 1.741 3.328c1.127 2.201 2.253 4.505 3.277 6.81s2.048 4.607 2.97 6.962 1.843 4.762 2.662 7.168 1.536 5.12 2.253 7.322a76.34 76.34 0 0 1 1.945 7.475c0.564 2.509 1.076 5.12 1.536 7.578s0.87 5.12 1.178 7.731a76.8 76.8 0 0 1 0.82 7.68c0 1.485 0 2.97 0.255 4.454s0 3.84 0 5.786v9.574c0 1.895 0 2.97-0.256 4.455a76.8 76.8 0 0 1-0.819 7.68c-0.307 2.611-0.717 5.12-1.178 7.731s-0.972 5.12-1.536 7.578a76.34 76.34 0 0 1-1.945 7.475 148.122 148.122 0 0 1-5.683 16.435c-0.256 0.666-0.564 1.28-0.87 1.946a1.382 1.382 0 0 1-0.257 0.563 17.613 17.613 0 0 1-1.075 2.509l-0.768 1.74a158.19 158.19 0 0 1-2.509 5.12 68.352 68.352 0 0 1-3.225 6.042c-0.512 0.87-1.024 1.792-1.588 2.662a19.098 19.098 0 0 1-1.177 1.895q-0.666 1.229-1.536 2.457a43.162 43.162 0 0 1-3.277 5.12c-2.355 3.38-5.12 6.708-7.526 9.933-0.87 1.075-1.741 2.15-2.663 3.175-1.28 1.894-3.379 4.147-5.478 6.348z" fill="#692F76" p-id="17604"></path><path d="M544.973 412.723a155.853 155.853 0 1 0 155.853 155.853 156.006 156.006 0 0 0-155.853-155.853z m0 263.015a107.213 107.213 0 1 1 107.213-107.162A107.52 107.52 0 0 1 544.973 675.84z" fill="#EA6381" p-id="17605"></path><path d="M544.973 428.083A156.006 156.006 0 0 1 700.62 576.256v-7.68a155.853 155.853 0 1 0-311.655 0v7.68a155.955 155.955 0 0 1 156.007-148.173z m0 263.117a107.52 107.52 0 0 0 107.213-107.162c0-2.61 0-5.12-0.41-7.68a107.06 107.06 0 0 1-213.555 0c0 2.56-0.41 5.12-0.41 7.68A107.52 107.52 0 0 0 544.973 691.2z" fill="#F093AA" p-id="17606"></path><path d="M544.973 446.003A107.52 107.52 0 0 0 437.81 553.216c0 2.611 0 5.12 0.41 7.68a107.06 107.06 0 0 1 213.555 0c0-2.56 0.41-5.12 0.41-7.68a107.52 107.52 0 0 0-107.213-107.213zM544.973 709.018a155.955 155.955 0 0 1-155.597-148.122v7.68a155.853 155.853 0 0 0 311.654 0v-7.68a155.955 155.955 0 0 1-156.057 148.122z" fill="#CB4E67" p-id="17607"></path><path d="M544.973 481.843a86.733 86.733 0 1 0 86.733 86.733 86.733 86.733 0 0 0-86.733-86.733z m0 152.935a66.253 66.253 0 1 1 66.253-66.202 66.253 66.253 0 0 1-66.253 66.304z" fill="#F6D95F" p-id="17608"></path><path d="M544.973 461.363a107.213 107.213 0 1 0 107.213 107.213 107.52 107.52 0 0 0-107.213-107.213z m0 173.415a66.253 66.253 0 1 1 66.253-66.202 66.253 66.253 0 0 1-66.253 66.304z" fill="#692F76" p-id="17609"></path><path d="M611.226 568.576a66.253 66.253 0 1 1-66.253-66.253 66.56 66.56 0 0 1 66.253 66.253z" fill="#F6D95F" p-id="17610"></path><path d="M544.973 507.443a66.56 66.56 0 0 1 66.15 63.693v-2.56a66.253 66.253 0 1 0-132.454 0v2.56a66.202 66.202 0 0 1 66.304-63.693z" fill="#FFFFFF" p-id="17611"></path><path d="M544.973 629.76a66.202 66.202 0 0 1-66.048-63.642v2.56a66.253 66.253 0 0 0 132.454 0v-2.56a66.56 66.56 0 0 1-66.406 63.642z" fill="#EAB943" p-id="17612"></path><path d="M902.4 747.52a29.798 29.798 0 0 1-0.922 7.424 31.13 31.13 0 0 1-6.912 13.414l-3.123 3.175-43.52 43.469-46.643-46.592a31.642 31.642 0 0 1-7.68-20.89 31.846 31.846 0 0 1 54.477-22.374 31.437 31.437 0 0 1 22.63-9.472A31.846 31.846 0 0 1 902.4 747.52z" fill="#EB637C" p-id="17613"></path><path d="M270.08 586.496h-43.008a25.6 25.6 0 0 1 0-51.2h43.008a25.6 25.6 0 1 1 0 51.2z m599.347 0H826.42a25.6 25.6 0 0 1 0-51.2h43.008a25.6 25.6 0 0 1 0 51.2z" fill="#F3A175" p-id="17614"></path><path d="M939.418 766.157v15.36a61.44 61.44 0 0 1-61.44 61.44H212.07a61.44 61.44 0 0 1-61.44-61.44v-15.36a61.44 61.44 0 0 0 61.44 61.44h665.908a61.44 61.44 0 0 0 61.44-61.44z" fill="#EAB943" p-id="17615"></path><path d="M713.267 670.72a196.71 196.71 0 0 1-336.537 0h-226.1v15.36h226.1a196.71 196.71 0 0 0 336.537 0h226.15v-15.36z" fill="#FFFFFF" p-id="17616"></path></svg>