<?xml version="1.0" standalone="no"?><!DOCTYPE svg PUBLIC "-//W3C//DTD SVG 1.1//EN" "http://www.w3.org/Graphics/SVG/1.1/DTD/svg11.dtd"><svg t="1596767933219" class="icon" viewBox="0 0 1024 1024" version="1.1" xmlns="http://www.w3.org/2000/svg" p-id="5492" xmlns:xlink="http://www.w3.org/1999/xlink" width="200" height="200"><defs><style type="text/css"></style></defs><path d="M989.380023 438.857143c-20.48 0-34.718476 15.262476-34.718476 37.059047 0 126.098286-46.177524 244.931048-129.999238 334.701715-83.870476 89.721905-194.901333 139.166476-312.661334 139.166476-162.864762 0-316.17219-100.254476-393.508571-256.390095h56.563809c20.382476 0 34.620952-15.262476 34.620953-37.059048 0-21.894095-14.238476-37.156571-34.620953-37.156571H34.621928c-20.382476 0-34.620952 15.262476-34.620953 37.107809v150.284191c0 21.845333 14.238476 37.059048 34.620953 37.059047 20.48 0 34.718476-15.213714 34.718476-37.059047v-57.051429a546.474667 546.474667 0 0 0 175.591619 192.609524C325.632975 995.718095 417.988023 1024 512.000975 1024a477.184 477.184 0 0 0 198.802286-43.25181 512.585143 512.585143 0 0 0 162.816-117.711238 552.569905 552.569905 0 0 0 109.958095-174.275047c26.819048-67.535238 40.423619-139.117714 40.423619-212.796953 0-21.845333-14.238476-37.10781-34.620952-37.107809M954.661547 217.429333v56.661334C862.647832 104.350476 695.345737 0 512.000975 0a477.184 477.184 0 0 0-198.802285 43.25181A512.585143 512.585143 0 0 0 150.38269 160.914286 552.569905 552.569905 0 0 0 40.473356 335.238095 574.317714 574.317714 0 0 0 0.000975 548.035048c0 21.845333 14.238476 37.10781 34.620953 37.107809 20.48 0 34.718476-15.262476 34.718476-37.059047 0-126.098286 46.177524-244.931048 129.999238-334.701715 83.870476-89.721905 194.901333-139.166476 312.661333-139.166476 82.797714 0 163.888762 24.966095 234.496 72.167619a466.017524 466.017524 0 0 1 159.158857 184.222476H848.945737c-20.382476 0-34.620952 15.262476-34.620952 37.10781s14.238476 37.059048 34.620952 37.059047h140.434286c20.382476 0 34.620952-15.213714 34.620952-37.059047V217.429333c0-21.845333-14.238476-37.059048-34.620952-37.059047-20.48 0-34.718476 15.213714-34.718476 37.059047z" fill="#ffffff" p-id="5493"></path></svg>