<?xml version="1.0" standalone="no"?><!DOCTYPE svg PUBLIC "-//W3C//DTD SVG 1.1//EN" "http://www.w3.org/Graphics/SVG/1.1/DTD/svg11.dtd"><svg t="1596784983789" class="icon" viewBox="0 0 1024 1024" version="1.1" xmlns="http://www.w3.org/2000/svg" p-id="43816" xmlns:xlink="http://www.w3.org/1999/xlink" width="200" height="200"><defs><style type="text/css"></style></defs><path d="M813.3376 947.1232h-24.9088" fill="#18D6CC" p-id="43817"></path><path d="M612.736 404.0448l79.1296 64.3584V206.9504H530.944v261.4528z" fill="#F3B42C" p-id="43818"></path><path d="M724.0192 532.8128l-111.3088-86.5536-113.9712 86.5536V239.1296h-225.28v707.9936h514.944c35.5072 0 89.2672-28.8768 89.2672-64.4352V239.1296h-153.6768v293.6832z" fill="#2797D3" p-id="43819"></path><path d="M176.9216 206.9504V174.7712c0-17.7664 14.3872-32.2048 32.2048-32.2048h668.8256c-11.2128-19.1232-30.1312-32.1536-53.8624-32.1536H209.1264a64.3072 64.3072 0 0 0-64.4096 64.3584V882.688a64.4096 64.4096 0 0 0 64.4096 64.4352h32.1536V239.1296H209.1264a32.1536 32.1536 0 0 1-32.2048-32.1792z" fill="#2797D3" p-id="43820"></path></svg>