<?xml version="1.0" standalone="no"?><!DOCTYPE svg PUBLIC "-//W3C//DTD SVG 1.1//EN" "http://www.w3.org/Graphics/SVG/1.1/DTD/svg11.dtd"><svg t="1596784115174" class="icon" viewBox="0 0 1024 1024" version="1.1" xmlns="http://www.w3.org/2000/svg" p-id="25474" xmlns:xlink="http://www.w3.org/1999/xlink" width="200" height="200"><defs><style type="text/css"></style></defs><path d="M755.2 517.632c0-269.312-101.888-489.472-237.568-489.472s-237.568 220.672-237.568 489.472 101.888 489.472 237.568 489.472 237.568-220.16 237.568-489.472z m-433.152 0c0-248.832 92.16-448 195.584-448s195.584 199.168 195.584 448-92.16 448-195.584 448-195.584-199.168-195.584-448z" fill="#45c8dc" p-id="25475"></path><path d="M93.696 762.368c67.584 117.248 309.76 95.232 542.72-39.424s373.248-332.8 305.664-450.56c-48.64-83.968-187.392-97.792-353.792-45.056-10.752 3.584-16.896 15.36-12.8 26.624 3.584 10.752 14.848 16.384 25.6 13.312 150.016-47.616 269.312-35.84 305.152 26.112 51.712 89.6-74.752 268.8-290.304 393.216s-434.176 144.384-485.888 54.784S204.288 472.576 419.84 348.16c9.728-5.632 13.312-18.432 7.68-28.672-5.632-9.728-18.432-13.312-28.16-7.68-233.472 134.656-373.248 333.312-305.664 450.56z" fill="#45c8dc" p-id="25476"></path><path d="M93.696 272.896C26.112 390.144 165.888 588.8 399.36 723.456c10.24 5.632 22.528 2.048 28.16-7.68 5.632-9.728 2.048-22.528-7.68-28.16C204.288 563.2 77.824 384 129.536 294.4S399.872 223.744 615.424 348.16c10.24 5.632 22.528 2.048 28.16-7.68 5.632-9.728 2.048-22.528-7.68-28.16-232.448-134.656-474.624-156.672-542.208-39.424z m847.872 489.472c45.568-78.336-1.536-194.56-113.664-305.664-8.192-8.192-20.992-8.192-29.696-0.512-8.192 8.192-8.192 20.992-0.512 29.696l0.512 0.512c100.352 99.84 140.288 198.144 107.008 255.488-35.84 61.952-154.624 73.728-304.128 26.624-10.752-3.584-22.528 2.56-26.112 13.824-3.584 10.752 2.56 22.528 13.824 26.112 166.4 51.712 304.64 37.888 352.768-46.08z" fill="#45c8dc" p-id="25477"></path><path d="M523.264 523.264m-132.096 0a132.096 132.096 0 1 0 264.192 0 132.096 132.096 0 1 0-264.192 0Z" fill="#45c8dc" p-id="25478"></path></svg>