<?xml version="1.0" standalone="no"?><!DOCTYPE svg PUBLIC "-//W3C//DTD SVG 1.1//EN" "http://www.w3.org/Graphics/SVG/1.1/DTD/svg11.dtd"><svg t="1596786330804" class="icon" viewBox="0 0 1024 1024" version="1.1" xmlns="http://www.w3.org/2000/svg" p-id="70682" xmlns:xlink="http://www.w3.org/1999/xlink" width="200" height="200"><defs><style type="text/css"></style></defs><path d="M512.30214 857.886635c-70.478119 0-140.924434 0.063608-211.402553 0-80.337423-0.095413-130.842501-50.695903-130.842501-130.969717 0-137.235146-0.063608-274.438488 0.031804-411.673634 0.031804-78.206541 51.109358-129.47492 129.125074-129.538529 141.465105-0.095413 282.930211-0.095413 424.395316 0 78.556387 0.031804 130.206417 51.522813 130.30183 130.015592 0.127217 137.235146 0.127217 274.438488 0 411.673634-0.063608 79.065255-51.300183 130.365438-130.174613 130.46085-70.509923 0.095413-140.988042 0.031804-211.434357 0.031804z" fill="#123450" p-id="70683"></path><path d="M834.510544 369.119607c-0.063608 8.650744-0.159021 17.301488-0.222629 25.952232-4.738827 9.414045-11.226884 17.078858-21.02258 21.563251-11.926577 2.035469-24.043979 1.335777-36.034164 2.607945-29.005435-16.283753-49.169301-40.8366-64.530733-69.746622-8.205485-15.488648-7.951051-15.42504-20.291083-2.862379-19.973041 20.354691-39.850669 40.8366-60.618816 60.364382-9.414045 8.873373-9.445849 15.902103-1.812839 25.475168 7.887443 9.891108 15.361431 20.068454 24.298413 29.069044-2.671553 9.795695-10.463584 12.562661-19.241545 13.930242-11.322297-6.583471-17.301488-18.064789-24.934497-27.924092-6.106407-7.887443-10.845234-8.046464-17.619529-1.017735-18.287418 18.923502-34.539367 39.723452-54.067149 57.470199-5.120477 4.643414-4.357176 8.555331 1.049538 12.848899 8.61894 6.869708 18.510048 12.149206 25.697798 20.799951-2.925987 9.509457-9.922912 14.439109-19.018915 17.015249-2.989595-1.113147-4.261764-3.7847-5.756561-6.551666 0.095413 3.498463 1.59021 6.901513-0.413454 10.113737-4.643414 5.661149-9.414045 11.004255-17.905768 8.269094-6.933317-9.60487-10.940647-20.068454-10.113737-30.341212-2.099078 9.22322-3.466658 20.831755-10.177346 30.62745-8.555331 3.721092-13.325962-1.876448-18.096593-7.378576-3.848309 0.731497 4.070938-12.371836-5.692953-4.770631-9.191415-2.41712-15.997515-7.505792-19.20974-16.697208 6.424449-8.587135 16.092928-13.421375 24.012175-20.259278 5.915582-5.088673 7.346771-8.682548 1.558406-15.329627-16.569991-19.082523-34.253129-37.051899-51.968071-55.05308-7.728422-7.855639-13.00792-8.809765-19.527782 1.399385a117.618312 117.618312 0 0 1-23.789546 27.097183c-9.795695 0.159021-15.774886-5.088673-19.400565-13.644004 7.569401-11.513122 18.00118-20.672733 25.888623-31.99503 5.311302-7.601205 6.20182-13.644004-1.113147-20.768147-22.708203-22.167531-45.098363-44.684909-67.361307-67.297698-6.424449-6.519862-9.350436-5.438519-13.6122 2.512532-16.124732 30.118582-36.193186 56.993136-66.502593 74.612666-12.053794-1.20856-24.234804-0.508867-36.22499-2.544337-10.050129-4.420785-16.251949-12.62627-21.372426-21.881293 0.095413-7.505792 0.159021-15.043389 0.254433-22.549181 10.845234-1.685623 15.933907 6.869708 22.199336 12.848899 17.174271 16.442774 17.01525 16.569991 36.415815 1.97186 21.849489-16.442774 35.493493-38.864739 46.720378-63.194956 4.293568-9.286828 1.240364-15.838494-5.502128-22.580986-22.867224-22.835419-46.21151-45.193776-68.347237-68.760692 5.343107-5.438519 10.81343-10.781626 18.255614-13.357766 6.710687 1.303972 10.781626 6.424449 15.234214 10.845234 18.00118 17.873963 36.065969 35.684318 53.749107 53.876324 6.965121 7.124142 14.566326 9.732087 24.266609 7.951051 48.819455-9.032394 98.052365-16.220145 145.05898-33.267198 19.146132-6.965121 21.849489-10.845234 22.326552-31.199926 0.190825-7.728422-1.908252-15.997515 3.721093-22.899028l16.56999-0.095412c5.883778 7.442184 4.325372 16.347362 3.593876 24.489238-1.494798 16.092928 6.010995 24.298413 20.354691 29.387086 35.048234 12.435444 71.305028 19.718607 107.625431 26.874553 8.269093 1.622014 17.047054 1.81284 24.966301 4.357176 21.054384 6.8061 36.129577-0.127217 49.932603-16.379166 12.976116-15.266019 28.114918-28.719197 42.395005-42.840264 4.452589-4.420785 8.39631-9.668478 15.170606-10.908843 7.442184 2.576141 13.198745 7.505792 18.287418 13.325962-21.563251 23.248874-44.271454 45.384601-67.075069 67.361307-9.827499 9.477653-10.527192 17.905768-4.675218 29.387086 12.62627 24.870889 28.369351 46.783986 51.300183 63.44939 9.763891 7.092338 16.283753 5.883778 24.680064-2.099078 8.428114-7.982856 13.99385-20.19567 27.669658-21.658664zM192.733484 766.290524c-2.162686-7.124142-4.834239-14.152871-3.275833-21.849489 11.831164 11.481318 20.259279 5.056869 29.482499-4.516197 15.361431-15.933907 32.376681-30.182191 49.487343-44.207846 8.300898-6.8061 8.809765-10.5908-1.717427-14.788955-21.563251-8.61894-42.42681-18.764481-63.703823-28.019505-5.406715-2.353511-10.81343-4.325372-13.6122-10.018325-0.031804-6.424449-0.031804-12.880703-0.063608-19.305152 18.128397-1.653819 31.454359 10.749821 46.911202 16.601795 17.237879 6.519862 34.253129 13.99385 50.918533 22.00851 9.064199 4.357176 15.584061 2.671553 22.962636-3.466659 14.184676-11.831164 27.924092-24.139392 41.854335-36.288598 8.809765-0.190825 17.842159-1.240364 24.902693 5.883778 2.480728 6.869708-3.625679 9.127807-7.02873 12.658074-10.654409 11.036059-23.185266 19.941237-34.507563 30.245799-6.392645 5.788365-7.887443 8.936982 1.399385 13.103333 25.984036 11.703948 52.349722 22.517377 77.952108 35.01643 8.459919 4.134547 12.435444 1.558406 14.97978-6.933317 5.311302-17.683138 11.767556-35.01643 17.047054-52.731372 2.989595-10.018325 3.148616-18.446439-5.661148-25.63419-3.212225-2.639749-5.692953-6.297233-5.343107-11.004255 2.830574-6.933317 9.127807-7.569401 15.266019-8.459919 4.99326 0.826909 10.654409 2.894183 10.463584-5.788365 6.837904-10.272758 17.142467-16.951641 25.952231-25.157126 2.162686-2.003665 5.343107-3.721092 8.300898-0.477064 2.735162 11.672143-5.661149 20.990776-6.837904 33.299004 15.075193 0.222629 30.086778-0.413455 45.798055 0.413454 0.477063-11.990185-9.127807-21.658664-6.488058-33.458024 3.625679-4.134547 7.155946-1.335777 9.191416 1.20856 7.251359 9.00059 17.842159 14.375501 24.711867 23.662329 0.063608 5.438519 1.81284 8.173681 7.505793 4.579805 7.283163 1.59021 14.979781 2.385315 18.764481 10.336367 0.190825 2.766966-0.349846 5.82017-2.448924 7.251359-16.156536 11.004255-11.19508 24.711868-5.883778 39.087368 5.120477 13.866634 10.145542 27.82868 13.675808 42.204181 1.844644 7.442184 4.866043 11.576731 13.23055 7.887443 27.542442-12.181011 55.116688-24.203 82.4365-36.82927 6.742492-3.116812 5.311302-6.138212 0.699693-10.304563-11.385906-10.272758-23.535112-19.623195-34.825605-29.959561-4.039134-3.721092-10.399975-6.265428-8.364506-13.771221 6.933317-7.155946 15.743082-7.378576 24.80728-6.710687 12.817095 12.435444 26.715533 23.662329 40.00969 35.588905 8.364506 7.505792 16.379166 8.777961 27.192596 3.816505 26.302078-12.085598 52.826785-23.725937 79.383297-35.302668 5.088673-2.226294 9.954716-6.615275 16.156536-2.703357-0.031804 6.583471-0.031804 13.135137-0.063609 19.718607-8.491723 10.336367-21.467839 12.785291-32.726527 18.064789-14.311892 6.710687-28.687393 13.38957-43.41274 19.241544-11.131472 4.420785-10.654409 9.255024-1.940057 16.347361 21.690468 17.651334 42.299593 36.574836 62.527068 55.879989 1.908252 1.844644 3.848309 3.593875 4.897848 6.138212 0.38165 1.526602 0.445259 3.053204 0.222629 4.61161-2.099078 6.106407-5.152281 11.449514-11.449514 14.121067-1.59021 0.159021-3.085008-0.127217-4.516197-0.826909-25.63419-22.899028-50.982141-46.084294-76.83896-68.728888-7.760226-6.774296-14.629934-9.350436-24.203-4.738827-27.701463 13.262354-56.134422 24.839084-84.153928 37.369941-16.665404 7.473988-16.79262 8.682548-10.940646 26.715533 3.593875 11.067863 7.505792 22.072119 10.940646 33.171786 1.876448 6.042799 3.975526 12.276423-0.636084 18.192006-4.579806 2.957791-9.477653 2.957791-14.534522 1.622014-1.622014-0.572476-3.0214-1.431189-4.293568-2.576141-10.113737-15.870298-13.325962-34.348542-19.273348-51.777246-3.593875-10.495388-9.382241-16.633599-20.036649-20.163866-34.284933-11.322297-68.379042-11.672143-102.822996-1.049539-11.608535 3.593875-18.510048 10.399975-22.485573 22.135727-5.565736 16.474578-8.428114 33.871479-16.6336 49.487344-1.081343 1.303972-2.353511 2.353511-3.848309 3.18042-5.661149 2.226294-11.354101 2.353511-17.078858 0.381651-1.526602-0.699693-2.576141-1.844644-3.116812-3.40305 1.876448-19.146132 10.845234-36.352207 15.552256-54.766842 2.639749-10.304563 0.477063-15.80669-9.191415-19.845824-29.259869-12.308227-58.265304-25.157126-87.016306-38.673914-8.682548-4.070938-15.584061-3.371246-22.99444 3.40305-19.464174 17.873963-40.264124 34.284933-59.187627 52.794981-6.392645 6.265428-13.357766 12.085598-21.913097 15.42504-7.982856-0.095413-12.912507-7.537597-20.513713-8.61894z" fill="#AD4D56" p-id="70684"></path><path d="M784.323508 219.385409c-24.298413 24.902693-48.596826 49.83719-72.927042 74.739882-2.607945 2.671553-5.343107 4.516197-9.700283 3.752896-52.763177-9.032394-105.8762-16.729012-156.444886-35.207255-25.379756-9.255024-25.188931-9.827499-25.157127-36.065969 0-7.378576 0.127217-14.788955 0.159021-22.167531 72.259155-0.159021 144.518309-0.667888 216.777464-0.222629 16.856229 0.095413 33.299003 4.675218 47.292853 15.170606zM503.715005 204.532845c0.031804 9.541262-0.795105 19.146132 0.318042 28.560176 1.781036 15.075193-6.106407 22.771811-18.669069 27.415225-52.731372 19.432369-108.07069 27.637854-163.028357 37.369941-4.38898 0.763301-7.124142-1.017735-9.763891-3.721092-24.42563-24.966301-48.787651-49.932602-73.181476-74.930707 13.675808-9.891108 29.482498-14.82076 45.798055-14.916173 72.83163-0.508867 145.663261 0.031804 218.526696 0.22263zM221.102836 232.55235c4.834239-0.318042 7.633009 2.925987 10.622604 5.915582 21.563251 21.690468 42.903873 43.603566 64.880579 64.848775 6.074603 5.883778 6.392645 11.19508 3.498463 18.096592-13.484983 32.344877-33.171786 59.505668-63.194956 78.779017-7.664813 4.929652-11.862969 3.148616-17.587726-2.289903-9.477653-9.032394-17.492313-19.877628-29.736932-25.697798-1.971861-26.429295-2.321707-53.01761-0.031804-79.287884 2.099078-23.789546 13.230549-44.303258 31.549772-60.364381zM834.510544 369.119607c-9.954716 9.477653-20.259279 18.637264-29.705127 28.591981-6.233624 6.551666-11.767556 7.537597-19.273349 2.385315-29.705128-20.4183-50.123428-47.897133-63.194956-81.259744-1.749231-4.452589-2.035469-8.046464 1.462994-11.544927 24.711868-24.648259 49.423735-49.328323 74.231015-73.881169 0.890518-0.890518 3.0214-0.508867 4.579805-0.731497 22.040314 20.609125 32.82194 45.925273 32.249465 76.171072-0.38165 20.100258-0.254434 40.168711-0.349847 60.268969zM834.351523 623.426033c-33.267199 14.661739-66.598006 29.132652-99.674379 44.176042-7.633009 3.466658-13.294158 4.070938-19.623195-2.480728-13.644004-14.089263-33.299003-22.00851-42.20418-41.027425 1.971861-3.498463 5.502128-4.770631 8.968786-5.883778 28.751002-9.286828 54.798646-23.376091 77.602261-43.380936 2.79877-2.448924 6.042799-4.166351 9.922912-4.261764 21.436034 6.901513 44.366866 8.523527 64.975991 18.414635 0 11.481318 0.031804 22.962636 0.031804 34.443954zM351.086623 624.221139c-5.724757 16.061124-22.708203 20.958971-32.694723 32.917352-11.067863 13.262354-22.899028 14.757151-39.532627 6.042799-28.846414-15.075193-59.569277-26.588316-89.528838-39.596235 0.031804-11.608535 0.031804-23.21707 0.063608-34.793801 19.686803-9.60487 41.917943-10.20915 62.177221-17.714943 4.452589-0.413455 8.746156 0.699693 11.862969 3.593876 23.948567 22.040314 53.049415 34.539367 83.072584 45.384601 2.035469 0.731497 3.562071 2.226294 4.579806 4.166351zM822.170513 760.215921c-27.288008-24.521042-54.576016-49.01028-83.581452-75.057925 33.299003-14.59813 64.498928-28.305743 95.730658-42.013355 0 33.712458-0.031804 67.393111-0.031804 101.105569-3.0214 6.106407-1.717427 15.488648-12.117402 15.965711zM189.394043 642.922011l95.380812 42.395006c-13.962046 12.785291-26.62012 24.42563-39.341802 36.002361-9.732087 8.841569-19.686803 17.428705-29.355282 26.333882-15.297823 14.089263-15.234214 14.152871-26.588315-3.180421-1.431189-33.871479-1.367581-67.711153-0.095413-101.550828z" fill="#EA5B5A" p-id="70685"></path><path d="M392.43209 839.376588c-40.645774-0.477063-81.577787 4.420785-121.873715-2.576141-30.659254-5.343107-54.257974-22.517377-68.887909-50.759512-0.477063-8.428114 4.325372-11.163276 11.831165-10.97245 2.639749 0.477063 5.120477 1.526602 7.092337 3.275833 30.913688 27.60605 67.170482 37.974221 108.166103 35.080038 17.301488-1.240364 34.793801-0.349846 52.190701-0.127217 6.20182 0.095413 12.817095-0.858714 17.937572 4.166351l0.699692 0.699693c3.148616 8.936982-0.540671 15.584061-7.155946 21.213405zM809.957698 776.277044c0.922322-0.031804 1.844644-0.031804 2.766966-0.063608 5.533932-1.272168 8.046464 1.908252 9.60487 6.519862-11.576731 31.454359-48.787651 56.166227-87.87502 56.897724-34.316738 0.636084-68.665279-0.095413-103.013821-0.22263-9.127807-5.851974-10.81343-13.644004-6.074603-23.153461 6.233624-3.848309 13.230549-2.957791 20.004845-3.0214 21.054384-0.127217 42.172376-0.763301 63.194956 0.127217 32.662919 1.399385 61.064074-8.746156 86.475635-28.719198 4.516197-3.562071 8.61894-7.982856 14.916172-8.364506zM611.690282 839.344784c-66.502593 0.031804-133.005187 0.031804-199.507781 0.063608-4.866043-8.936982 0.286238-15.20241 5.692953-21.40423l0.922322-0.763301c6.996925-4.516197 14.884368-4.643414 22.83542-4.643414h140.479175c7.919247 0 15.838494 0.031804 22.867223 4.516197l1.049539 0.795105c6.106407 6.042799 8.809765 12.976116 5.661149 21.436035z" fill="#B64544" p-id="70686"></path><path d="M834.319719 442.65093l-0.190825 129.633941c-19.241544 2.289903-37.369941 0.572476-51.809051-14.375501-0.922322-6.297233 2.41712-11.19508 5.661149-15.965711 17.61953-25.697798 27.987701-54.194366 32.82194-84.821815 0.890518-5.692953 1.240364-11.672143 6.58347-15.488648 2.544336-1.113147 4.897848-1.144951 6.933317 1.017734zM189.553064 572.475696c-1.303972-43.380936-2.099078-86.730068 0.413455-130.079199 2.258099-1.844644 4.548001-1.653819 6.837904-0.127217 3.562071 3.530267 5.025064 8.046464 5.565736 12.848899 3.752896 32.790136 16.633599 62.050005 34.316737 89.465229 2.576141 3.975526 5.406715 7.919247 4.929652 13.103333-14.311892 15.584061-32.726527 16.79262-52.063484 14.788955z" fill="#EA5B5A" p-id="70687"></path><path d="M783.210361 556.255552c14.59813 12.944312 34.0305 10.399975 50.918533 16.029319 0.031804 5.565736 0.095413 11.131472 0.127217 16.697208-22.835419-1.717427-44.653104-7.696618-65.898314-15.965711-1.081343-10.940647 6.074603-14.566326 14.852564-16.760816z" fill="#AE4E56" p-id="70688"></path><path d="M189.553064 572.475696c12.02199-2.766966 24.075783-5.406715 36.034165-8.364506 5.438519-1.335777 11.290493-2.19449 14.788955-7.537596 9.318632 0.922322 11.831164 7.41038 12.467249 15.393235-19.464174 11.990185-41.44088 14.470913-63.417586 16.824425 0.031804-5.438519 0.063608-10.877038 0.127217-16.315558z" fill="#AF4E56" p-id="70689"></path><path d="M417.875454 818.004162c-1.908252 7.124142-3.7847 14.280088-5.692953 21.40423h-19.718607c2.385315-7.092338 4.770631-14.152871 7.155946-21.245209 6.074603-0.063608 12.149206-0.127217 18.255614-0.159021z" fill="#864048" p-id="70690"></path><path d="M611.690282 839.344784l-5.629345-21.404231c5.438519-0.286238 10.877038-0.60428 16.315558-0.890517l1.494797-0.381651 0.954127 1.20856c2.226294 7.18775 4.420785 14.343697 6.647078 21.499643-6.583471 0-13.198745-0.031804-19.782215-0.031804z" fill="#854048" p-id="70691"></path><path d="M194.737149 442.396497h-4.738826c0.031804-15.870298-2.925987-31.676989-0.636084-47.579092 7.219555 5.152281 13.580396 11.19508 18.700872 18.478244-6.138212 5.152281-11.099668 10.654409-9.350436 19.750411 0.636084 3.40305 0.063608 7.41038-3.975526 9.350437zM815.936889 413.422865c4.866043-7.378576 11.226884-13.230549 18.351026-18.351026 0.031804 9.350436 0.095413 18.669069 0.127217 28.019505-1.653819 2.003665-3.689288 2.035469-5.915582 1.272168-3.752896-4.134547-8.841569-6.742492-12.562661-10.940647z" fill="#E95B5A" p-id="70692"></path><path d="M211.975029 776.340653c-4.802435 1.781036-7.855639 5.438519-10.304563 9.700282-5.343107-5.502128-6.329037-12.976116-8.936982-19.718607 9.954716-7.633009 12.785291 4.675218 19.273349 6.837904 0.667888 0.699693 0.890518 1.431189 0.667888 2.130882-0.222629 0.667888-0.477063 1.049539-0.699692 1.049539z" fill="#834049" p-id="70693"></path><path d="M822.329534 782.701494c-3.212225-2.162686-6.424449-4.325372-9.60487-6.488058 3.116812-4.261764 6.233624-8.491723 9.350436-12.753486 4.293568-3.085008 6.901513-1.049539 8.905178 2.894182-2.162686 5.82017-3.689288 11.990185-8.650744 16.347362z" fill="#864048" p-id="70694"></path><path d="M830.980278 766.354132c-2.957791-0.954126-5.915582-1.940057-8.905178-2.894182l0.095413-3.212225c4.039134-5.343107 8.078268-10.654409 12.117402-15.997515 1.908252 7.823835-2.162686 14.725347-3.307637 22.103922z" fill="#AA4546" p-id="70695"></path><path d="M829.135634 422.995931c1.749231 0.031804 3.530267 0.063608 5.279498 0.063609-0.031804 6.519862-0.063608 13.039724-0.063609 19.559586l-5.915582-0.286238c-5.120477-6.615275-5.533932-13.103333 0.699693-19.336957z" fill="#AF4E56" p-id="70696"></path><path d="M194.737149 442.396497c-0.127217-4.102742 0.413455-8.332702-0.540671-12.244619-2.957791-12.117402 2.607945-16.665404 13.834829-16.856229 13.962046 1.176756 28.146722-0.349846 41.949747 3.116812 4.325372-2.321707 8.809765-3.40305 13.739417-2.41712 36.733857 7.314967 70.796161 21.213405 102.25052 41.504488 2.258099 1.462993 3.752896 3.689288 3.911917 6.551666 6.265428 4.261764 12.562661 8.523527 18.82809 12.785291 13.103333 0.731497 19.591391 11.79936 28.305743 18.891698 15.870298 12.912507 31.549772 26.270274 42.585831 43.985216 6.392645 5.21589 12.785291 10.431779 19.146131 15.647669 3.40305-1.367581 4.38898 1.749231 6.20182 3.339442 4.452589 4.579806 9.414045 8.300898 15.774886 9.891108 3.943721 7.728422 0.572476 12.371836-6.551666 15.393235-10.177346 10.050129-20.163866 20.291083-32.090443 28.337547-0.254434 6.329037-6.010995 5.025064-9.509458 6.869708-5.629344 0.98593-11.099668 2.321707-15.361431 6.519862-19.20974 11.290493-39.150977 15.297823-60.459794 6.265429-8.587135-1.908252-17.142467-3.848309-25.729602-5.756561-37.592571-8.332702-69.110538-28.051309-98.274995-52.25431-4.166351-5.120477-8.300898-10.240954-12.467248-15.393235-26.461099-33.521632-38.228655-72.958847-45.543623-114.177097zM829.135634 422.995931c-0.222629 6.456254-0.477063 12.912507-0.699693 19.368761-5.311302 21.245209-7.569401 43.190111-16.283753 63.672019-7.633009 17.969376-17.587726 34.475759-28.941827 50.250645-4.929652 5.59754-9.891108 11.163276-14.820759 16.760816-27.765071 24.648259-59.124018 42.585831-95.539833 51.04575-8.555331 1.971861-17.110662 3.943721-25.665994 5.947386-21.308818 8.968786-41.250054 4.99326-60.459795-6.265428-6.360841-3.212225-12.721682-6.392645-19.082523-9.60487-3.657484 1.526602-5.152281-0.445259-5.947386-3.62568-12.212815-7.696618-21.754076-18.478243-32.249464-28.146721-7.473988-3.180421-11.354101-7.760226-6.329037-15.902103 5.343107-3.307637 10.718017-6.615275 16.061123-9.922912 1.622014-1.717427 2.703357-4.420785 5.915583-3.371246 6.360841-5.184085 12.689878-10.368171 19.050719-15.552256 20.19567-24.775476 40.963817-48.914868 70.732552-63.004131 6.360841-4.229959 12.721682-8.459919 19.114328-12.689878 1.017735-6.106407 6.297233-8.141877 10.654409-10.877038 28.528372-17.905768 59.696493-29.132652 92.42302-36.44762 5.915582-1.303972 11.513122-1.272168 16.888033 1.717427 13.834829-3.275833 27.987701-1.971861 41.981552-2.894182 6.329037 0.477063 13.707613-0.413455 13.198745 9.541261z" fill="#123450" p-id="70697"></path><path d="M520.09417 321.79495c0-12.181011 0.190825-24.393826-0.063608-36.574836-0.190825-8.746156 1.144951-13.039724 11.703947-8.777961 47.292853 19.177936 97.448085 26.810945 147.31708 35.525297 3.562071 0.636084 8.173681-0.636084 9.954716 3.339442 1.971861 4.38898-2.735162 6.360841-5.120477 8.777961-24.934497 25.284343-50.155232 50.282449-74.962512 75.694008-4.579806 4.675218-8.809765 5.692953-15.297823 4.961456-21.531447-2.480728-40.804795-9.922912-58.646955-22.072118-11.067863-7.537597-16.601795-16.79262-15.106997-30.659254 1.081343-9.98652 0.222629-20.163866 0.222629-30.213995zM503.810417 322.1766c0 7.41038-1.176756 15.043389 0.22263 22.199336 4.770631 24.075783-9.382241 36.892878-27.701463 46.084293-12.149206 6.074603-25.665994 9.573066-38.769327 13.484983-10.972451 3.275833-19.336957-0.190825-27.60605-9.064198-22.740007-24.362021-46.81579-47.483679-70.223685-71.209616-2.130882-2.162686-5.279498-5.311302-4.929652-7.505793 0.731497-4.38898 5.565736-3.562071 9.127807-4.16635 50.409665-8.332702 100.882939-16.538187 148.652856-35.684319 9.00059-3.593875 11.449514-0.954126 11.290493 7.728422-0.222629 12.721682-0.063608 25.41156-0.063609 38.133242zM369.914713 462.051495c-37.147312-22.644594-76.23468-40.168711-119.901855-45.639034 18.637264-19.241544 39.723452-36.320403 52.890394-60.332578 2.289903-4.166351 5.025064-8.110072 7.092338-12.371836 7.951051-16.347362 7.919247-16.41097 20.322887-3.911917 23.153462 23.280678 45.957077 46.911203 69.587601 69.683014 6.869708 6.615275 7.41038 11.449514 1.653819 18.382831-9.954716 11.990185-16.760816 26.810945-31.645184 34.18952zM773.955337 416.317048c-43.63537 5.565736-82.913563 22.676398-119.965462 45.575426-18.541852-7.664813-24.393826-26.524707-35.684319-40.550361-2.830574-3.498463 0.318042-5.788365 2.448924-7.982856 26.206665-27.447029 54.480604-52.922198 79.287884-81.736808 3.085008-3.593875 6.360841-3.816505 8.332702 1.144952 13.644004 34.316738 38.801131 59.569277 65.580271 83.549647zM459.634376 537.7137c-23.503308-21.086188-45.766252-43.603566-70.891574-62.876914 9.00059-12.308227 18.160201-24.489238 26.969966-36.924682 3.816505-5.406715 7.251359-4.99326 11.41771-0.667889 21.913097 22.835419 43.857999 45.639035 65.834705 68.410846 2.925987 3.0214 4.802435 5.947386 0.063609 8.841569-11.640339 7.028729-19.782216 19.082523-33.394416 23.21707zM634.907352 474.614157c-24.902693 19.495978-47.451874 41.663509-70.732553 63.00413-13.103333-3.880113-21.149797-15.329627-32.44029-21.913097-4.834239-2.830574-4.229959-6.265428-0.445258-10.177346 21.690468-22.390161 43.317328-44.84393 64.785166-67.456719 4.99326-5.279498 7.982856-4.643414 12.149206 1.240364 8.459919 12.053794 17.746747 23.566916 26.683729 35.302668zM520.825667 491.693015v-95.635246c18.541852 10.686213 36.384011 19.750412 56.102618 23.980371 8.205485 1.749231 6.392645 5.184085 2.353511 9.477653-18.446439 19.623195-36.924682 39.246389-58.456129 62.177222zM503.810417 394.84921c0 29.387086 0.031804 55.307513-0.063608 81.22794 0 3.0214 1.303972 6.996925-1.940057 8.714352-4.420785 2.353511-6.551666-2.258099-8.873373-4.643414-16.156536-16.729012-32.122247-33.617045-48.087959-50.536882-2.894183-3.053204-6.869708-7.346771 0.540672-9.032394 20.259279-4.643414 38.673914-13.294158 58.424325-25.729602zM523.147374 566.432897c-2.067273 6.965121 4.357176 10.558996 6.329037 15.902103 3.848309 12.530857 7.728422 25.02991 11.862968 38.483089H482.787837c3.816505-13.00792 7.633009-25.952232 11.41771-38.864739 2.003665-5.21589 7.951051-8.746156 6.551666-15.393236 1.113147-11.481318 5.82017-21.785881 11.131472-35.684318l11.258689 35.557101z" fill="#EA5B5A" p-id="70698"></path><path d="M484.982328 556.700811l-6.20182-3.339442c-0.159021-5.533932 2.703357-8.746156 7.919247-10.304562 3.148616 5.120477-2.512532 8.968786-1.717427 13.644004z" fill="#E15959" p-id="70699"></path><path d="M545.12408 553.170544c-1.971861 1.113147-3.943721 2.258099-5.915582 3.371246 0.254434-4.516197-5.152281-8.205485-2.003665-13.357767 5.184085 1.431189 7.919247 4.61161 7.919247 9.986521z" fill="#E35959" p-id="70700"></path><path d="M211.975029 776.340653c0-1.049539 0-2.130882 0.031804-3.180421 27.383421-23.82135 55.084884-47.261049 81.864025-71.750287 7.155946-6.519862 12.912507-7.124142 20.831754-3.562071 32.154052 14.534522 64.244495 29.132652 96.589372 43.221915 8.300898 3.625679 11.036059 7.283163 7.505792 16.6336-7.378576 19.654999-13.357766 39.818865-19.941237 59.760101-33.362611 0.063608-66.788831 1.081343-100.119638-0.031804-34.41215-1.144951-62.336243-17.873963-86.761872-41.091033zM624.825419 817.876945c-0.795105-0.349846-1.622014-0.636084-2.448924-0.858713-2.925987-20.068454-11.385906-38.483088-17.555922-57.533808-3.116812-9.60487-1.749231-14.439109 7.63301-18.478243 33.012765-14.280088 65.739292-29.196261 98.656645-43.730783 5.247694-2.321707 10.050129-4.039134 15.774886 1.240364 26.779141 24.775476 54.130758 48.978476 81.196136 73.467715 1.049539 0.954126 1.272168 2.830574 1.908252 4.293567-24.457434 26.143057-54.289779 40.868404-90.387552 41.345467-31.61338 0.38165-63.194956 0.190825-94.776531 0.254434zM605.011399 817.113644c-62.081809 0.031804-124.131814 0.095413-186.213623 0.127217 6.074603-19.082523 12.530857-38.069634 18.032985-57.311178 2.448924-8.587135 7.378576-13.357766 15.393235-16.379166 41.409075-15.647669 82.4365-13.771221 123.432121 1.781036 6.488058 2.448924 8.269093 7.601205 10.081933 13.103332 6.456254 19.559586 12.848899 39.119173 19.273349 58.678759zM376.816225 629.9777c20.513712 1.335777 40.486753-2.385315 60.459795-6.265429 21.054384 14.343697 16.251949 32.726527 8.746156 52.063485-5.533932 14.21648-10.368171 28.719197-14.470913 43.41274-2.226294 7.951051-6.042799 8.873373-12.530857 6.010995-30.818275-13.644004-61.604746-27.319812-92.423021-40.963817-8.428114-3.721092-4.707022-7.314967-0.095413-11.19508 16.79262-14.311892 33.553437-28.687393 50.314253-43.062894zM586.72398 623.744076c19.941237 4.166351 39.946082 7.442184 60.459795 6.265428 15.902103 13.803025 31.295338 28.21033 47.833525 41.154642 10.113737 7.887443 8.61894 10.113737-2.385316 14.661738-29.259869 12.085598-58.2335 24.934497-86.793676 38.610306-10.081933 4.834239-12.499053 1.20856-15.011585-7.314968-5.661149-19.20974-11.19508-38.546697-18.22381-57.279373-4.38898-11.703948-5.088673-20.704538 6.901513-27.860484 2.989595-1.781036 4.866043-5.438519 7.219554-8.237289zM572.34848 716.008075c1.335777 6.551666-2.480728 6.424449-6.360841 5.247694-35.779731-10.654409-71.559462-10.718017-107.370998-0.222629-6.996925 2.067273-8.650744-0.190825-6.392645-7.060534 6.424449-19.527782 12.467249-39.182781 18.700873-58.774171 0.318042-1.017735 0.699693-2.067273 1.303972-2.894183 13.99385-18.764481 34.41215-12.721682 52.572352-12.308228 12.244619 0.286238 24.902693 3.085008 29.132652 19.082524 5.152281 19.400565 12.244619 38.228655 18.414635 56.929527z" fill="#EA5B5A" p-id="70701"></path><path d="M452.637451 617.192409c3.180421-2.289903 6.329037-4.579806 9.509457-6.869708 5.565736 3.053204 2.925987 7.346771 0.413455 9.922912-4.261764 4.325372-6.106407-3.40305-9.922912-3.053204z" fill="#E15959" p-id="70702"></path><path d="M561.725875 610.513526c1.971861 1.20856 3.975526 2.41712 5.947386 3.62568-0.286238 3.657484-1.113147 8.777961-5.438519 7.092337-5.184085-1.971861-5.788365-6.837904-0.508867-10.718017z" fill="#E35959" p-id="70703"></path><path d="M455.976892 564.683666c-21.149797 27.860484-49.201106 38.864739-82.404696 35.970556-75.662205-6.583471-128.616206-59.664689-136.28102-135.231481-2.099078-20.609125-1.622014-20.736342 19.464174-18.287418 51.968072 6.042799 94.84014 30.754667 133.768488 63.958257 21.308818 18.192005 40.041495 39.40541 65.453054 53.590086zM640.822934 602.085412c-27.351617 0.286238-50.695903-8.809765-69.333168-29.228065-4.070938-4.452589-6.233624-7.664813 0.98593-11.894773 24.902693-14.534522 43.444545-36.82927 65.516664-54.894058 38.769326-31.740597 81.386962-54.639625 132.05106-60.396186 13.325962-1.526602 18.987111 0.159021 17.873964 16.665403-5.406715 79.097059-68.410846 139.779483-147.09445 139.747679z" fill="#FFFFFF" p-id="70704"></path></svg>