<?xml version="1.0" standalone="no"?><!DOCTYPE svg PUBLIC "-//W3C//DTD SVG 1.1//EN" "http://www.w3.org/Graphics/SVG/1.1/DTD/svg11.dtd"><svg t="1596784355790" class="icon" viewBox="0 0 1369 1024" version="1.1" xmlns="http://www.w3.org/2000/svg" p-id="34673" xmlns:xlink="http://www.w3.org/1999/xlink" width="267.3828125" height="200"><defs><style type="text/css"></style></defs><path d="M1188.122367 164.041071H1000.790092a29.52387 29.52387 0 1 1 0-59.034191h30.323277a52.50344 52.50344 0 0 0 0-105.00688H756.537313a52.50344 52.50344 0 0 0 0 105.00688h56.283688a29.52387 29.52387 0 0 1 0 59.034191h-77.35281a79.710384 79.710384 0 1 0 0 159.407219h452.654176a79.710384 79.710384 0 0 0 0-159.407219zM556.631312 842.290674h-108.082566a33.155076 33.155076 0 1 1 0-66.310151h34.035778a58.952895 58.952895 0 1 0 0-117.878692H58.952895a58.952895 58.952895 0 0 0 0 117.878692h178.511697a33.155076 33.155076 0 1 1 0 66.310151h-93.340955a89.492961 89.492961 0 1 0 0 178.985922h412.507675a89.492961 89.492961 0 1 0 0-178.985922z m0 0" fill="#FFCB27" opacity=".26" p-id="34674"></path><path d="M512.894252 28.873505l13.711866 13.711866-13.711866 13.725415-13.711866-13.725415z m0 65.727532L499.182386 80.889171l13.711866-13.725415 13.725416 13.725415z m5.41971-32.870541l13.711866-13.711866 13.725416 13.711866-13.725416 13.725416z m-38.290251 0l13.725416-13.725415 13.711866 13.725415-13.711866 13.725416z m0 0" fill="#FFB000" p-id="34675"></path><path d="M95.346247 643.536361l11.286546 11.272996-11.286546 11.286546-11.272996-11.286546z m0 54.061607l-11.286546-11.286546 11.286546-11.286546 11.286546 11.286546z m4.457712-27.030804l11.272997-11.286546 11.286546 11.286546-11.286546 11.286546z m-31.502064 0l11.286546-11.286546 11.286546 11.286546-11.286546 11.286546z m0 0M961.795279 969.911295l11.286546 11.286546-11.286546 11.286546-11.300095-11.286546z m0 54.088705l-11.300095-11.272997 11.300095-11.286546 11.272997 11.286546z m4.444162-26.990156l11.286546-11.272996 11.272997 11.286546-11.272997 11.272996z m-31.488515 0l11.286546-11.286546 11.272997 11.286546-11.2188 11.232349z m0 0M1342.435059 713.166084l11.286546 11.272997-11.286546 11.286546-11.272997-11.286546z m0 54.088706l-11.272997-11.286546 11.272997-11.286546 11.286546 11.286546z m4.457711-27.09855l11.286546-11.272997 11.272997 11.286546-11.272997 11.286546z m-31.488515 0l11.272997-11.272997 11.286546 11.286546-11.286546 11.286546z m0 0" fill="#FF664D" p-id="34676"></path><path d="M684.590664 777.755478l-597.523023-344.964539 8.96962-16.936594a665.093257 665.093257 0 0 1 1177.323594 0l8.98317 16.936594zM140.560178 417.588652l544.030486 314.058643 544.179528-314.180586a625.109347 625.109347 0 0 0-1088.210014 0.121943z m0 0" fill="#CA3A2A" p-id="34677"></path><path d="M1048.564835 544.586006l207.127766-119.518154c-108.041918-205.000529-323.150206-344.829046-571.020642-344.829046s-462.992273 139.828517-571.03419 344.829046l207.127765 119.640098a584.637663 584.637663 0 0 1 727.799301-0.121944z m0 0" fill="#FF664D" p-id="34678"></path><path d="M320.765534 564.652482a20.500053 20.500053 0 0 1-9.972266-2.61501l-207.127766-119.640097a19.99873 19.99873 0 0 1-7.723086-26.54303 665.093257 665.093257 0 0 1 1177.323594 0 19.876786 19.876786 0 0 1-7.723086 26.54303l-206.992273 119.518154a19.99873 19.99873 0 0 1-22.437599-1.625913c-100.820155-80.265905-222.330052-122.756431-351.427543-122.756431s-250.756431 42.490526-351.576586 122.756431a19.958082 19.958082 0 0 1-12.343389 4.362866z m-180.205356-147.06383l178.4575 103.069335a603.93183 603.93183 0 0 1 731.17307-0.121944l178.579444-103.069334a625.109347 625.109347 0 0 0-1088.210014 0.121943z m0 0" fill="#CA3A2A" p-id="34679"></path><path d="M684.590664 777.755478l-597.523023-344.964539 8.96962-16.936594a665.093257 665.093257 0 0 1 1177.323594 0l8.98317 16.936594zM140.560178 417.588652l544.030486 314.058643 544.179528-314.180586a625.109347 625.109347 0 0 0-1088.210014 0.121943z m0 0" fill="#CA3A2A" p-id="34680"></path><path d="M684.590664 777.755478l-597.523023-344.964539 8.96962-16.936594a665.093257 665.093257 0 0 1 1177.323594 0l8.98317 16.936594zM140.560178 417.588652l544.030486 314.058643 544.179528-314.180586a625.109347 625.109347 0 0 0-1088.210014 0.121943z m0 0" fill="#CA3A2A" p-id="34681"></path><path d="M684.590664 777.755478l-597.523023-344.964539 8.96962-16.936594a665.093257 665.093257 0 0 1 1177.323594 0l8.98317 16.936594zM140.560178 417.588652l544.030486 314.058643 544.179528-314.180586a625.109347 625.109347 0 0 0-1088.210014 0.121943z m0 0" fill="#CA3A2A" p-id="34682"></path><path d="M684.590664 777.755478l-597.523023-344.964539 8.96962-16.936594a665.093257 665.093257 0 0 1 1177.323594 0l8.98317 16.936594zM140.560178 417.588652l544.030486 314.058643 544.179528-314.180586a625.109347 625.109347 0 0 0-1088.210014 0.121943z m0 0" fill="#CA3A2A" p-id="34683"></path><path d="M684.590664 774.639145a20.147772 20.147772 0 0 1-9.958717-2.61501L103.665502 442.397375a19.99873 19.99873 0 0 1-7.723086-26.54303 665.093257 665.093257 0 0 1 1177.323594 0 19.876786 19.876786 0 0 1-7.723086 26.54303L694.508733 772.091881a20.161321 20.161321 0 0 1-9.972266 2.61501zM140.560178 417.588652l544.030486 314.058643 544.179528-314.180586a625.109347 625.109347 0 0 0-1088.210014 0.121943z m0 0" fill="#CA3A2A" p-id="34684"></path><path d="M213.319784 295.157404l14.19964-13.996401 437.2622 443.603261-14.21319 13.996401z m0 0" fill="#FFC215" p-id="34685"></path><path d="M350.072616 188.470414l17.343072-9.850323 328.244733 578.174659-17.343072 9.877421z m0 0" fill="#FFC215" p-id="34686"></path><path d="M510.035355 120.751138l19.307717-5.013232 167.441939 643.455065-19.294167 5.026781z m0 0" fill="#FFC215" p-id="34687"></path><path d="M677.111464 761.686038l4.769345-664.876469 19.930983 0.149042-4.782894 664.86292z m0 0" fill="#FFC215" p-id="34688"></path><path d="M677.477294 759.125225l176.723193-640.880703 19.226421 5.297767-176.723193 640.880702z m0 0" fill="#FFC215" p-id="34689"></path><path d="M695.213295 728.219329l319.844184-544.911189 17.194029 10.09421L712.420874 738.313539z m0 0" fill="#FFC215" p-id="34690"></path><path d="M708.979359 726.281783L1153.571716 288.057584l14.00995 14.199641L722.989309 740.481423z m0 0" fill="#FFC215" p-id="34691"></path><path d="M838.700116 850.542183a174.040436 174.040436 0 0 1-308.069863-0.121944l154.041706-88.869694z m0 0" fill="#FFCB27" p-id="34692"></path><path d="M684.671959 963.570234a193.754631 193.754631 0 0 1-171.737059-103.692601l-8.96962-16.936594 180.706679-104.329416 180.70668 104.329416-8.98317 16.936594a193.849476 193.849476 0 0 1-171.72351 103.692601z m-126.509579-105.928231a154.109453 154.109453 0 0 0 252.870117 0.121943l-126.360538-73.166084z m0 0" fill="#CA3A2A" p-id="34693"></path><path d="M684.590664 774.639145a20.147772 20.147772 0 0 1-9.958717-2.61501L103.665502 442.397375a19.99873 19.99873 0 0 1-7.723086-26.54303 665.093257 665.093257 0 0 1 1177.323594 0 19.876786 19.876786 0 0 1-7.723086 26.54303L694.508733 772.091881a20.161321 20.161321 0 0 1-9.972266 2.61501zM140.560178 417.588652l544.030486 314.058643 544.179528-314.180586a625.109347 625.109347 0 0 0-1088.210014 0.121943z m0 0" fill="#CA3A2A" p-id="34694"></path><path d="M186.66836 391.425003c4.362867-4.362867 17.93924 0.121943 21.936276 3.983486s3.726051 4.728697-0.623266 9.091564-18.074733 5.826188-22.004023 1.8698-3.617656-10.581984 0.74521-14.904203z m0 0M235.025722 388.647401c0 6.110723-12.844713 12.722769-18.332168 12.722769s-5.97523-0.758759-5.975231-6.855933 8.60379-16.950143 14.21319-16.950143 10.09421 4.986133 10.094209 11.083307z m0 0" fill="#FBEDD7" p-id="34695"></path><path d="M220.067323 375.342013c4.362867 4.362867-0.121943 17.952789-3.983487 21.936276s-4.742246 3.7396-9.105113-0.623266-5.853287-18.074733-1.8698-22.05822 10.595533-3.617656 14.904203 0.74521z m0 0" fill="#FBEDD7" p-id="34696"></path><path d="M200.000847 376.453054c6.097174 0 12.70922 12.844713 12.70922 18.31862s-0.74521 5.98878-6.855933 5.988779-16.950143-8.60379-16.950143-14.213189 4.986133-10.09421 11.096856-10.09421z m0 0" fill="#FBEDD7" p-id="34697"></path><path d="M187.79295 411.491479c0-6.110723 12.831163-12.722769 18.305071-12.722769s5.98878 0.758759 5.988779 6.869482-8.60379 16.882397-14.19964 16.882397-10.09421-4.986133-10.09421-11.083307z m0 0" fill="#FBEDD7" p-id="34698"></path><path d="M202.7378 424.823965c-4.349317-4.362867 0.135493-17.952789 3.997036-21.936276s4.728697-3.7396 9.091564 0.623267 5.853287 18.074733 1.8698 22.058219-10.595533 3.617656-14.904203-0.74521z m0 0" fill="#FBEDD7" p-id="34699"></path><path d="M222.804276 423.699375c-6.110723 0-12.70922-12.831163-12.709219-18.318619s0.74521-5.97523 6.855933-5.97523 16.950143 8.59024 16.950143 14.19964-4.986133 10.09421-11.096857 10.094209z m0 0" fill="#FBEDD7" p-id="34700"></path><path d="M236.109664 408.754525c-4.362867 4.349317-17.93924-0.135493-21.922726-3.997036s-3.7396-4.742246 0.623266-9.105113 18.061183-5.853287 22.05822-1.85625 3.604107 10.581984-0.75876 14.904202z m0 0" fill="#FBEDD7" p-id="34701"></path><path d="M202.114534 399.148089a9.728379 9.728379 0 1 0 4.864189-8.414099 9.741929 9.741929 0 0 0-4.864189 8.414099z m0 0" fill="#FF664D" p-id="34702"></path><path d="M380.328147 355.03165c4.362867-4.362867 17.952789 0.121943 21.936276 3.983487s3.7396 4.742246-0.623267 9.105113-18.074733 5.853287-22.05822 1.8698-3.482164-10.595533 0.745211-14.904203z m0 0M428.685509 352.294697c0 6.097174-12.831163 12.70922-18.31862 12.70922s-5.97523-0.74521-5.97523-6.855934 8.59024-16.923044 14.19964-16.923044 10.09421 4.986133 10.09421 11.096856z m0 0" fill="#FBEDD7" p-id="34703"></path><path d="M413.727109 338.96221c4.362867 4.362867-0.121943 17.93924-3.983487 21.922727s-4.742246 3.7396-9.091563-0.623267-5.866836-18.061183-1.883349-22.058219 10.595533-3.604107 14.904202 0.758759z m0 0" fill="#FBEDD7" p-id="34704"></path><path d="M393.796126 340.073251c6.110723 0 12.70922 12.844713 12.70922 18.318619s-0.74521 5.98878-6.855933 5.98878-16.950143-8.60379-16.950143-14.213189 4.86419-10.09421 11.096856-10.09421z m0 0" fill="#FBEDD7" p-id="34705"></path><path d="M381.57468 375.098126c0-6.110723 12.844713-12.70922 18.332169-12.709219s5.97523 0.74521 5.97523 6.842383-8.60379 16.963692-14.213189 16.963693-10.09421-4.86419-10.09421-11.096857z m0 0" fill="#FBEDD7" p-id="34706"></path><path d="M396.533079 388.430613c-4.362867-4.362867 0.121943-17.952789 3.983487-21.936276s4.742246-3.7396 9.105113 0.623266 5.853287 18.074733 1.8698 22.05822-10.595533 3.617656-14.904203-0.74521z m0 0" fill="#FBEDD7" p-id="34707"></path><path d="M416.477612 387.292474c-6.110723 0-12.70922-12.831163-12.70922-18.31862s0.74521-5.98878 6.842384-5.988779 16.950143 8.617339 16.950143 14.213189-4.85064 10.09421-11.083307 10.09421z m0 0" fill="#FBEDD7" p-id="34708"></path><path d="M429.864296 372.388271c-4.362867 4.362867-17.952789-0.121943-21.936277-3.983486s-3.7396-4.728697 0.623267-9.091564 18.074733-5.866836 22.05822-1.8698 3.617656 10.595533-0.74521 14.904203z m0 0" fill="#FBEDD7" p-id="34709"></path><path d="M395.787869 362.754737a9.728379 9.728379 0 1 0 9.71483-9.71483 9.71483 9.71483 0 0 0-9.71483 9.71483z m0 0" fill="#FF664D" p-id="34710"></path><path d="M457.843548 231.89584c4.362867-4.349317 17.952789 0.135493 21.936276 3.997036s3.7396 4.728697-0.623266 9.091564-18.074733 5.853287-22.05822 1.869799-3.617656-10.595533 0.74521-14.904202z m48.357362-2.709855c0 6.110723-12.831163 12.70922-18.318619 12.70922s-5.97523-0.74521-5.975231-6.855933 8.59024-16.950143 14.199641-16.950143 10.09421 4.986133 10.094209 11.096856z m0 0" fill="#FBEDD7" p-id="34711"></path><path d="M491.25606 215.8264c4.349317 4.362867-0.135493 17.952789-3.997036 21.936276s-4.728697 3.7396-9.091563-0.623267-5.866836-18.074733-1.8698-22.058219 10.595533-3.617656 14.904202 0.74521z m0 0" fill="#FBEDD7" p-id="34712"></path><path d="M471.176035 216.95099c6.110723 0 12.722769 12.831163 12.722769 18.318619s-0.758759 5.97523-6.855933 5.975231-16.950143-8.59024-16.950143-14.19964 4.986133-10.09421 11.083307-10.09421z m0 0" fill="#FBEDD7" p-id="34713"></path><path d="M458.968138 251.975865c0-6.110723 12.844713-12.722769 18.31862-12.722769s5.98878 0.758759 5.988779 6.855933-8.60379 16.950143-14.213189 16.950143-10.09421-4.986133-10.09421-11.083307z m0 0" fill="#FBEDD7" p-id="34714"></path><path d="M473.926538 265.349c-4.362867-4.362867 0.121943-17.952789 3.983486-21.936276s4.742246-3.7396 9.105113 0.623266 5.853287 18.074733 1.8698 22.05822-10.595533 3.604107-14.904202-0.74521z m0 0" fill="#FBEDD7" p-id="34715"></path><path d="M493.993014 264.183762c-6.110723 0-12.722769-12.844713-12.722769-18.31862s0.758759-5.98878 6.869482-5.988779 16.936594 8.60379 16.936594 14.213189-4.972584 10.09421-11.083307 10.09421z m0 0" fill="#FBEDD7" p-id="34716"></path><path d="M507.3255 249.225363c-4.362867 4.362867-17.952789-0.121943-21.936276-3.983487s-3.7396-4.742246 0.623267-9.105113 18.074733-5.853287 22.058219-1.856251 3.617656 10.581984-0.74521 14.904203z m0 0" fill="#FBEDD7" p-id="34717"></path><path d="M473.221975 239.605377a9.728379 9.728379 0 1 0 9.71483-9.728379 9.71483 9.71483 0 0 0-9.71483 9.728379z m0 0" fill="#FF664D" p-id="34718"></path><path d="M586.832645 172.956494c4.362867-4.362867 17.952789 0.121943 21.936276 3.983487s3.7396 4.742246-0.623266 9.105113-18.074733 5.853287-22.05822 1.8698-3.617656-10.595533 0.74521-14.904203z m0 0M635.190007 170.219541c0 6.097174-12.831163 12.70922-18.318619 12.709219s-5.98878-0.74521-5.98878-6.855933 8.671536-16.950143 14.21319-16.950143 10.09421 4.86419 10.094209 11.096857z m0 0" fill="#FBEDD7" p-id="34719"></path><path d="M620.231608 156.9548c4.362867 4.349317-0.121943 17.93924-3.983487 21.922727s-4.742246 3.7396-9.105113-0.623266-5.853287-18.061183-1.85625-22.05822 10.581984-3.604107 14.904202 0.758759z m0 0" fill="#FBEDD7" p-id="34720"></path><path d="M600.165132 157.998095c6.110723 0 12.722769 12.831163 12.722769 18.318619s-0.758759 5.98878-6.855933 5.98878-16.950143-8.60379-16.950143-14.21319 4.986133-10.09421 11.083307-10.094209z m0 0" fill="#FBEDD7" p-id="34721"></path><path d="M587.957235 192.887478c0-6.097174 12.844713-12.70922 18.31862-12.70922s5.98878 0.74521 5.988779 6.855933-8.60379 17.072086-14.091246 17.072086-10.216153-4.986133-10.216153-11.218799z m0 0" fill="#FBEDD7" p-id="34722"></path><path d="M602.915635 206.355457c-4.362867-4.362867 0.121943-17.952789 3.983486-21.936276s4.728697-3.7396 9.091564 0.623266 5.866836 18.074733 1.8698 22.05822-10.581984 3.617656-14.904203-0.74521z m0 0" fill="#FBEDD7" p-id="34723"></path><path d="M622.982111 205.108923c-6.110723 0-12.722769-12.831163-12.722769-18.318619s0.758759-5.97523 6.855933-5.97523 16.950143 8.59024 16.950143 14.19964-4.986133 10.09421-11.083307 10.094209z m0 0" fill="#FBEDD7" p-id="34724"></path><path d="M636.314597 190.150524c-4.362867 4.362867-17.952789-0.121943-21.936276-3.983487s-3.7396-4.742246 0.623267-9.105113 18.074733-5.853287 22.058219-1.85625 3.617656 10.703927-0.74521 14.904202z m0 0" fill="#FBEDD7" p-id="34725"></path><path d="M602.292368 180.679581a9.71483 9.71483 0 1 0 9.71483-9.71483 9.728379 9.728379 0 0 0-9.71483 9.71483z m0 0" fill="#FF664D" p-id="34726"></path><path d="M726.295332 275.646449c4.362867-4.362867 17.93924 0.121943 21.922727 3.983486s3.7396 4.742246-0.623267 9.105113-18.061183 5.853287-22.05822 1.8698-3.604107-10.595533 0.75876-14.904202z m0 0M774.639145 272.895946c0 6.110723-12.831163 12.722769-18.305071 12.722769s-5.98878-0.758759-5.988779-6.855933 8.60379-16.950143 14.19964-16.950143 10.09421 4.86419 10.09421 11.083307z m0 0" fill="#FBEDD7" p-id="34727"></path><path d="M759.558802 259.563459c4.362867 4.376416-0.121943 17.952789-3.983487 21.949826s-4.742246 3.726051-9.091564-0.636816-5.866836-18.061183-1.883349-22.05822 10.731026-3.617656 14.904203 0.74521z m0 0" fill="#FBEDD7" p-id="34728"></path><path d="M739.627818 260.688049c6.110723 0 12.70922 12.844713 12.70922 18.31862s-0.74521 5.98878-6.855933 5.988779-16.950143-8.60379-16.950143-14.213189 4.86419-10.09421 11.096856-10.09421z m0 0" fill="#FBEDD7" p-id="34729"></path><path d="M727.406372 295.590981c0-6.110723 12.844713-12.70922 18.332169-12.70922s5.97523 0.74521 5.975231 6.842384-8.60379 16.950143-14.21319 16.950143-10.09421-4.85064-10.09421-11.083307z m0 0" fill="#FBEDD7" p-id="34730"></path><path d="M742.364772 309.045411c-4.362867-4.362867 0.121943-17.952789 3.983487-21.936276s4.742246-3.7396 9.105112 0.623267 5.853287 18.074733 1.8698 22.058219-10.595533 3.617656-14.904202-0.74521z m0 0" fill="#FBEDD7" p-id="34731"></path><path d="M762.309305 307.798878c-6.110723 0-12.70922-12.831163-12.70922-18.31862s0.74521-5.98878 6.774637-5.988779 16.950143 8.60379 16.950143 14.213189-4.85064 10.09421-11.083307 10.09421z m0 0" fill="#FBEDD7" p-id="34732"></path><path d="M775.763735 292.840478c-4.362867 4.362867-17.93924-0.121943-21.936277-3.983486s-3.726051-4.728697 0.623267-9.091564 18.074733-5.866836 22.05822-1.8698 3.617656 10.717476-0.74521 14.904203z m0 0" fill="#FBEDD7" p-id="34733"></path><path d="M741.619562 283.247592a9.728379 9.728379 0 1 0 9.71483-9.71483 9.728379 9.728379 0 0 0-9.71483 9.71483z m0 0" fill="#FF664D" p-id="34734"></path><path d="M885.309622 240.621573c4.362867-4.362867 17.952789 0.135493 21.936276 3.983487s3.7396 4.742246-0.623266 9.105113-18.074733 5.853287-22.05822 1.869799-3.617656-10.595533 0.74521-14.904202z m0 0M933.666984 237.884619c0 6.110723-12.844713 12.70922-18.318619 12.70922s-5.98878-0.74521-5.98878-6.855933 8.60379-16.936594 14.213189-16.936593 10.09421 4.85064 10.09421 11.083306z m0 0" fill="#FBEDD7" p-id="34735"></path><path d="M918.708585 224.430189c4.349317 4.335768-0.121943 17.885043-3.983487 21.949826s-4.742246 3.753149-9.105113-0.609718-5.853287-18.074733-1.8698-22.058219 10.595533-3.495713 14.904203 0.74521z m0 0" fill="#FBEDD7" p-id="34736"></path><path d="M898.669207 225.663173c6.110723 0 12.722769 12.844713 12.722769 18.332169s-0.758759 5.97523-6.869482 5.975231-16.936594-8.59024-16.936594-14.19964 4.972584-10.107759 11.083307-10.10776z m0 0" fill="#FBEDD7" p-id="34737"></path><path d="M886.47486 260.566106c0-6.110723 12.831163-12.70922 18.318619-12.70922s5.97523 0.74521 5.975231 6.855933-8.59024 16.950143-14.19964 16.950143-10.09421-4.86419-10.09421-11.096856z m0 0" fill="#FBEDD7" p-id="34738"></path><path d="M901.379062 273.898592c-4.349317-4.362867 0.135493-17.93924 4.064783-21.922727s4.728697-3.753149 9.091563 0.609718 5.812639 18.074733 1.747857 22.058219-10.581984 3.617656-14.904203-0.74521z m0 0" fill="#FBEDD7" p-id="34739"></path><path d="M921.459088 272.774002c-6.110723 0-12.722769-12.831163-12.72277-18.318619s0.758759-5.97523 6.855934-5.975231 16.950143 8.59024 16.950142 14.158993-4.986133 10.09421-11.083306 10.09421z m0 0" fill="#FBEDD7" p-id="34740"></path><path d="M934.791574 257.829152c-4.362867 4.362867-17.952789-0.121943-21.936276-3.997036s-3.7396-4.728697 0.623267-9.091563 18.061183-5.853287 22.058219-1.8698 3.617656 10.595533-0.74521 14.904202z m0 0" fill="#FBEDD7" p-id="34741"></path><path d="M900.769345 248.222716a9.728379 9.728379 0 1 0 9.71483-9.71483 9.71483 9.71483 0 0 0-9.71483 9.71483z m0 0" fill="#FF664D" p-id="34742"></path><path d="M979.1519 354.28644c4.362867-4.362867 17.952789 0.121943 21.936276 3.983487s3.7396 4.728697-0.623267 9.091563-18.074733 5.866836-22.058219 1.8698-3.617656-10.581984 0.74521-14.904202z m0 0M1027.509262 351.535937c0 6.110723-12.831163 12.722769-18.318619 12.722769s-5.98878-0.758759-5.98878-6.855933 8.60379-16.950143 14.213189-16.950143 10.09421 4.986133 10.09421 11.083307z m0 0" fill="#FBEDD7" p-id="34743"></path><path d="M1012.550863 338.203451c4.362867 4.376416-0.067746 17.925691-3.983487 21.990473s-4.742246 3.7396-9.105113-0.623267-5.853287-18.074733-1.8698-22.058219 10.595533-3.617656 14.904203 0.74521z m0 0" fill="#FBEDD7" p-id="34744"></path><path d="M992.484387 339.328041c6.110723 0 12.70922 12.844713 12.709219 18.318619s-0.74521 5.98878-6.774637 5.98878-16.963692-8.60379-16.963692-14.21319 4.999682-10.09421 11.096856-10.094209z m0 0" fill="#FBEDD7" p-id="34745"></path><path d="M980.27649 374.352916c0-6.110723 12.831163-12.722769 18.31862-12.722769s5.98878 0.758759 5.988779 6.869483-8.60379 16.936594-14.213189 16.936593-10.09421-4.972584-10.09421-11.083307z m0 0" fill="#FBEDD7" p-id="34746"></path><path d="M995.234889 387.685403c-4.362867-4.362867 0.121943-17.952789 3.983487-21.936276s4.728697-3.7396 9.091564 0.623266 5.866836 18.074733 1.8698 22.05822-10.581984 3.617656-14.904203-0.74521z m0 0" fill="#FBEDD7" p-id="34747"></path><path d="M1015.287816 386.560813c-6.097174 0-12.70922-12.831163-12.70922-18.31862s0.74521-5.97523 6.855933-5.97523 16.950143 8.59024 16.950143 14.19964-4.986133 10.09421-11.096856 10.09421z m0 0" fill="#FBEDD7" p-id="34748"></path><path d="M1028.620303 371.615963c-4.349317 4.349317-17.93924-0.135493-21.922727-3.997036s-3.7396-4.742246 0.623267-9.105113 18.061183-5.853287 22.058219-1.856251 3.604107 10.595533-0.758759 14.904203z m0 0" fill="#FBEDD7" p-id="34749"></path><path d="M994.47613 362.009527a9.728379 9.728379 0 1 0 9.728379-9.71483 9.741929 9.741929 0 0 0-9.728379 9.71483z m0 0" fill="#FF664D" p-id="34750"></path></svg>