<?xml version="1.0" standalone="no"?><!DOCTYPE svg PUBLIC "-//W3C//DTD SVG 1.1//EN" "http://www.w3.org/Graphics/SVG/1.1/DTD/svg11.dtd"><svg t="1596783595779" class="icon" viewBox="0 0 1024 1024" version="1.1" xmlns="http://www.w3.org/2000/svg" p-id="2063" xmlns:xlink="http://www.w3.org/1999/xlink" width="200" height="200"><defs><style type="text/css"></style></defs><path d="M709.6 161.8c16.2 5.5 29.6 18.9 33 37.6 0 0.3 0.1 0.5 0.1 0.8 5.4 31.4-0.6 61.2-14.4 85.9h0.1s-21 33.2-26.7 44.3c-18.7 36.5-27.9 77.2-27.9 118.2v44.8H350.2v-44.8c0-41-9.2-81.7-27.9-118.2-5.7-11.1-26.7-44.3-26.7-44.3h0.1c-13.8-24.8-19.8-54.5-14.4-85.9 0-0.3 0.1-0.5 0.1-0.8 3.7-20.6 19.6-34.8 38.1-39l0.2-61.2c0-19.2 13.4-34.9 29.7-34.9 16.3 0 29.7 15.7 29.7 34.9l-0.2 81.6c39.2 22.7 84.6 35.7 133.1 35.7 50.6 0 97.9-14.2 138.2-38.7l0.3-78.7c0-19.2 13.4-34.9 29.7-34.9 16.4 0 29.7 15.7 29.7 34.9l-0.3 62.7z" fill="#FF6A9B" p-id="2064"></path><path d="M673.8 475.1H350.2L172 798.2c-9.7 17.5-4.9 39.5 11.1 51.5 91.4 69.1 205.1 110.1 328.3 110.1 123.8 0 238-41.3 329.6-111 15.9-12.1 20.7-34 11-51.5L673.8 475.1z" fill="#FF9DC6" p-id="2065"></path><path d="M400.1 528.8c-5.5-2.7-12.2-0.5-14.9 5l-137.1 277c-2.7 5.5-0.5 12.2 5 14.9 1.6 0.8 3.3 1.2 4.9 1.2 4.1 0 8-2.3 10-6.2l137.1-277c2.8-5.5 0.5-12.2-5-14.9z m50.1 117.6c-5.9-1.4-12 2.3-13.4 8.3l-44.6 188.7c-1.4 6 2.3 12 8.3 13.4 0.9 0.2 1.7 0.3 2.6 0.3 5 0 9.6-3.4 10.8-8.6l44.6-188.7c1.4-5.9-2.3-11.9-8.3-13.4z m325.7 164.4l-137.1-277c-2.7-5.5-9.4-7.8-14.9-5-5.5 2.7-7.8 9.4-5 14.9l137.1 277c1.9 3.9 5.9 6.2 10 6.2 1.7 0 3.3-0.4 4.9-1.2 5.5-2.7 7.7-9.4 5-14.9zM587.2 654.7c-1.4-6-7.4-9.7-13.4-8.3-6 1.4-9.7 7.4-8.3 13.4l44.6 188.7c1.2 5.1 5.8 8.6 10.8 8.6 0.8 0 1.7-0.1 2.6-0.3 6-1.4 9.7-7.4 8.3-13.4l-44.6-188.7z" fill="#FF6A9B" p-id="2066"></path></svg>