<?xml version="1.0" standalone="no"?><!DOCTYPE svg PUBLIC "-//W3C//DTD SVG 1.1//EN" "http://www.w3.org/Graphics/SVG/1.1/DTD/svg11.dtd"><svg t="1596782805269" class="icon" viewBox="0 0 1024 1024" version="1.1" xmlns="http://www.w3.org/2000/svg" p-id="39416" xmlns:xlink="http://www.w3.org/1999/xlink" width="200" height="200"><defs><style type="text/css"></style></defs><path d="M486.52288 183.79844266h49.790976v131.63997867h-49.790976z" fill="#FFDD50" p-id="39417"></path><path d="M573.64206933 362.46596266c0-21.83441067-19.86286933-50.81770667-61.64206933-50.81770667s-61.64206933 28.983296-61.64206933 50.81770667" fill="#FFDD50" p-id="39418"></path><path d="M512 371.57546666c5.668864 0 63.750144 0.28398933 99.39080533-29.05975467 57.84098133-47.628288 144.75264-58.90048 216.64017067-7.53117866 95.72078933 68.39773867 166.15560533 308.887552 135.64859733 513.212416-9.02212267 60.43511467-65.23562667 82.48251733-102.92974933 76.300288-80.216064-13.16181333-154.79057067-201.17367467-250.18914133-245.91837867-48.92808533-22.94852267-98.56068267-20.83498667-98.56068267-20.83498667s-49.63805867-2.113536-98.56068267 20.83498667c-95.39857067 44.744704-169.97853867 232.76202667-250.18914133 245.91837867-37.69412267 6.18222933-93.90762667-15.86517333-102.92974933-76.300288-30.507008-204.324864 39.927808-444.81467733 135.64859733-513.212416 71.88753067-51.36930133 158.80465067-40.091648 216.64017067 7.53117866 35.64066133 29.343744 93.72194133 29.05975467 99.39080533 29.05975467z" fill="#FFDD50" p-id="39419"></path><path d="M403.73998933 467.75500799H333.10856533V397.12358399H259.86116267v70.631424H189.22973867v73.24740267h70.631424v70.631424h73.24740266V541.00241066h70.631424z" fill="#76E276" p-id="39420"></path><path d="M726.20987733 418.69585066m-37.51936 0a37.51936 37.51936 0 1 0 75.03872 0 37.51936 37.51936 0 1 0-75.03872 0Z" fill="#FFDD50" p-id="39421"></path><path d="M726.20987733 590.05610666m-37.51936 0a37.51936 37.51936 0 1 0 75.03872 0 37.51936 37.51936 0 1 0-75.03872 0Z" fill="#76E276" p-id="39422"></path><path d="M640.53248 504.37870933m-37.51936 0a37.51936 37.51936 0 1 0 75.03872 0 37.51936 37.51936 0 1 0-75.03872 0Z" fill="#5CB9FF" p-id="39423"></path><path d="M811.892736 504.37870933m-37.51936 0a37.51936 37.51936 0 1 0 75.03872 0 37.51936 37.51936 0 1 0-75.03872 0Z" fill="#FF5757" p-id="39424"></path><path d="M839.18301867 319.37604266c-73.613312-52.59264-170.05499733-49.24484267-239.98190934 8.33399467a78.299136 78.299136 0 0 1-12.42453333 8.257536c-6.111232-13.16181333-16.77175467-24.90368-31.28797867-32.87176534V183.79844266a19.18020267 19.18020267 0 0 0-38.34948266 0v108.89352533c-1.70939733-0.08192-3.38056533-0.229376-5.13911467-0.229376-2.15176533 0-4.21614933 0.15291733-6.29691733 0.278528V183.79844266a19.17474133 19.17474133 0 0 0-38.34948267 0v119.95272533c-13.92093867 7.95170133-24.17732267 19.40411733-30.12471467 32.210944a78.299136 78.299136 0 0 1-12.42453333-8.257536C354.87744 270.11481599 258.43029333 266.77247999 184.82244267 319.37058133c-105.38734933 75.300864-173.768704 328.70126933-143.46376534 531.64987733 4.47829333 29.99364267 19.22389333 54.86455467 42.65301334 71.94760533 19.27304533 14.05201067 43.11722667 21.73610667 66.22958933 21.73610667 5.43402667 0 10.829824-0.42052267 16.11639467-1.28887467 49.01546667-8.044544 91.05134933-64.25258667 135.55029333-123.764736 38.273024-51.17815467 77.84584533-104.09847467 119.67965867-123.72104533 43.78350933-20.54007467 89.18357333-19.09828267 89.604096-19.038208 0.54613333 0.02184533 1.08680533 0.02184533 1.63293866 0 0.44782933-0.05461333 45.449216-1.68209067 89.59863467 19.038208 41.83381333 19.62257067 81.412096 72.548352 119.67965867 123.72650667 44.50440533 59.506688 86.540288 115.71473067 135.55029333 123.75927466 27.76541867 4.56567467 58.54549333-3.08565333 82.34052267-20.447232 23.42912-17.07758933 38.18018133-41.95396267 42.65847466-71.94760533 30.294016-202.93768533-38.08187733-456.343552-143.46922666-531.644416zM512 330.82299733c20.56738133 0 32.18363733 8.75997867 37.896192 17.77117866a204.90922667 204.90922667 0 0 1-37.67773867 3.80654934h-0.43690666a204.90922667 204.90922667 0 0 1-37.67773867-3.80654934c5.71255467-9.0112 17.32881067-17.77117867 37.896192-17.77117866z m432.71236267 514.53952c-2.965504 19.88471467-12.156928 35.56420267-27.312128 46.61794133-15.21527467 11.09742933-36.225024 16.44407467-53.542912 13.58779733-33.75650133-5.537792-73.05079467-58.07035733-111.03982934-108.87714133-41.10199467-54.95739733-83.59662933-111.78257067-134.11396266-135.479296-49.68721067-23.30350933-99.50549333-22.87752533-106.70353067-22.659072-7.19803733-0.20206933-57.01085867-0.64989867-106.708992 22.659072-50.51733333 23.69672533-93.011968 80.52189867-134.10850133 135.479296-37.994496 50.806784-77.283328 103.33934933-111.04529067 108.87714133-17.30696533 2.83989333-38.322176-2.49582933-53.53745067-13.58779733-15.1552-11.04827733-24.346624-26.73322667-27.31758933-46.61794133-30.654464-205.30244267 43.548672-434.552832 127.827968-494.780416 29.73149867-21.24458667 61.25431467-30.048256 91.242496-30.048256 39.07037867 0 75.54116267 14.942208 102.06139733 36.78208 12.41361067 10.21815467 26.92437333 17.29058133 41.402368 22.23854933 1.67662933 0.84104533 3.46248533 1.45271467 5.373952 1.769472 27.57973333 8.454144 54.0672 9.42626133 64.58026667 9.42626133h0.45329067c10.51306667 0 37.00053333-0.97757867 64.58026666-9.42626133 1.90600533-0.31675733 3.69732267-0.92842667 5.36849067-1.769472 14.47799467-4.947968 28.99421867-12.01493333 41.402368-22.23854933 46.88554667-38.60616533 124.829696-55.66190933 193.30389333-6.73928534 84.29021867 60.227584 158.49335467 289.48343467 127.83342934 494.78587734z" fill="" p-id="39425"></path><path d="M403.73998933 448.57480533h-51.45122133v-51.45122134a19.17474133 19.17474133 0 0 0-19.17474133-19.17474133H259.86116267a19.17474133 19.17474133 0 0 0-19.17474134 19.17474133v51.45122134h-51.45668266a19.17474133 19.17474133 0 0 0-19.17474134 19.17474133v73.24740267a19.17474133 19.17474133 0 0 0 19.17474134 19.17474133h51.45668266v51.45668267a19.17474133 19.17474133 0 0 0 19.17474134 19.17474133h73.24740266a19.18020267 19.18020267 0 0 0 19.17474134-19.17474133v-51.45668267h51.45122133a19.17474133 19.17474133 0 0 0 19.17474133-19.17474133V467.75500799a19.16928 19.16928 0 0 0-19.16928-19.18020266z m-19.18020266 73.24740266h-51.45122134a19.17474133 19.17474133 0 0 0-19.17474133 19.17474134v51.45668266h-34.89245867v-51.45668266a19.17474133 19.17474133 0 0 0-19.17474133-19.17474134H208.40448v-34.89245866h51.45668267a19.17474133 19.17474133 0 0 0 19.17474133-19.17474134v-51.45122133h34.89245867v51.45122133a19.17474133 19.17474133 0 0 0 19.17474133 19.17474134h51.45122133v34.89245866zM726.20987733 475.38995199c31.26613333 0 56.69956267-25.43342933 56.69956267-56.69410133s-25.43342933-56.69410133-56.69956267-56.69410133c-31.260672 0-56.68864 25.43342933-56.68864 56.69410133s25.43342933 56.69410133 56.68864 56.69410133z m0-75.03325866c10.11438933 0 18.34461867 8.224768 18.34461867 18.33915733s-8.23022933 18.33915733-18.34461867 18.33915733-18.33915733-8.224768-18.33915733-18.33915733 8.23022933-18.33915733 18.33915733-18.33915733zM726.20987733 533.36200533c-31.260672 0-56.68864 25.43342933-56.68864 56.69410133s25.43342933 56.69410133 56.68864 56.69410133c31.26613333 0 56.69956267-25.43342933 56.69956267-56.69410133s-25.43342933-56.69410133-56.69956267-56.69410133z m0 75.03325866c-10.11438933 0-18.33915733-8.224768-18.33915733-18.33915733s8.224768-18.33915733 18.33915733-18.33915733 18.34461867 8.224768 18.34461867 18.33915733-8.23022933 18.33915733-18.34461867 18.33915733z" fill="" p-id="39426"></path><path d="M697.22658133 504.37324799c0-31.260672-25.43342933-56.69410133-56.69410133-56.69410133-31.26613333 0-56.69410133 25.43342933-56.69410133 56.69410133s25.43342933 56.69410133 56.69410133 56.69410134c31.260672 0.00546133 56.69410133-25.427968 56.69410133-56.69410134z m-56.69410133 18.34461867a18.366464 18.366464 0 0 1-18.34461867-18.34461867 18.36100267 18.36100267 0 0 1 18.34461867-18.33915733 18.35554133 18.35554133 0 0 1 18.33915733 18.33915733 18.36100267 18.36100267 0 0 1-18.33915733 18.34461867zM755.19863467 504.37324799c0 31.260672 25.43342933 56.69410133 56.69410133 56.69410134s56.68864-25.43342933 56.68864-56.69410134-25.43342933-56.69410133-56.68864-56.69410133c-31.26613333 0-56.69410133 25.43342933-56.69410133 56.69410133z m75.03325866 0c0 10.11438933-8.224768 18.34461867-18.33915733 18.34461867s-18.34461867-8.23022933-18.34461867-18.34461867 8.23022933-18.33915733 18.34461867-18.33915733 18.33915733 8.23022933 18.33915733 18.33915733z" fill="" p-id="39427"></path></svg>