<?xml version="1.0" standalone="no"?><!DOCTYPE svg PUBLIC "-//W3C//DTD SVG 1.1//EN" "http://www.w3.org/Graphics/SVG/1.1/DTD/svg11.dtd"><svg t="1596782642776" class="icon" viewBox="0 0 1050 1024" version="1.1" xmlns="http://www.w3.org/2000/svg" p-id="34869" xmlns:xlink="http://www.w3.org/1999/xlink" width="205.078125" height="200"><defs><style type="text/css"></style></defs><path d="M525.434402 512.895627m-457.366764 0a457.366764 457.366764 0 1 0 914.733528 0 457.366764 457.366764 0 1 0-914.733528 0Z" fill="#F6F8FA" p-id="34870"></path><path d="M471.099708 526.031487h105.683965v145.68863H471.099708z" fill="#EFA500" p-id="34871"></path><path d="M662.166764 755.311953H385.716618v-77.023906c0-13.13586 10.150437-23.286297 23.286297-23.286298H638.880466c13.13586 0 23.286297 10.150437 23.286298 23.286298v77.023906z" fill="#FDC60E" p-id="34872"></path><path d="M914.136443 511.104373m-25.077551 0a25.077551 25.077551 0 1 0 50.155102 0 25.077551 25.077551 0 1 0-50.155102 0Z" fill="#BDE5FA" p-id="34873"></path><path d="M69.858892 531.405248m-25.077551 0a25.077551 25.077551 0 1 0 50.155102 0 25.077551 25.077551 0 1 0-50.155102 0Z" fill="#E9EDF3" p-id="34874"></path><path d="M155.241983 742.176093m-25.077552 0a25.077551 25.077551 0 1 0 50.155103 0 25.077551 25.077551 0 1 0-50.155103 0Z" fill="#FFBE1D" p-id="34875"></path><path d="M888.461808 792.331195m-25.077551 0a25.077551 25.077551 0 1 0 50.155102 0 25.077551 25.077551 0 1 0-50.155102 0Z" fill="#E9EDF3" p-id="34876"></path><path d="M705.753936 416.16793H342.726531c-179.125364 0-324.21691-145.68863-324.21691-324.21691V28.062974h1011.461224v63.888046c0 179.125364-145.68863 324.21691-324.216909 324.21691z m-615.594169-316.45481c4.179592 135.538192 115.834402 244.804665 252.566764 244.804664h362.43032c136.732362 0 248.387172-109.266472 252.566764-244.804664H90.159767z" fill="#FFC01A" p-id="34877"></path><path d="M524.240233 536.181924c-154.047813 0-278.838484-124.790671-278.838484-278.838484V69.261808h557.676968v188.678717c0 153.450729-124.790671 278.241399-278.838484 278.241399z" fill="#FDC411" p-id="34878"></path><path d="M305.707289 313.469388c-8.956268 0-16.121283-6.56793-17.912537-14.927114-1.791254-11.941691-2.985423-24.480466-2.985423-36.422157 0-10.150437 7.762099-17.912536 17.912537-17.912537s17.912536 7.762099 17.912536 17.912537 0.597085 20.897959 2.388339 31.048396c1.791254 9.553353-5.373761 19.106706-14.927114 20.300875h-2.388338zM524.240233 500.953936c-85.38309 0-165.39242-45.97551-207.785423-120.611079-4.776676-8.359184-1.791254-19.70379 6.567931-24.480466 8.359184-4.776676 19.70379-1.791254 24.480466 6.56793 36.422157 63.290962 103.892711 102.698542 176.737026 102.698542 10.150437 0 17.912536 7.762099 17.912537 17.912536s-8.359184 17.912536-17.912537 17.912537zM245.401749 28.062974h557.676968v71.650146H245.401749z" fill="#EFA500" p-id="34879"></path><path d="M763.074052 995.937026h-477.667638v-206.591253c0-19.106706 15.524198-34.630904 34.630904-34.630904h407.808746c19.106706 0 34.630904 15.524198 34.630904 34.630904v206.591253z" fill="#2222B1" p-id="34880"></path><path d="M646.642566 841.292128h116.431486v69.261808h-116.431486z" fill="#3476CC" p-id="34881"></path><path d="M285.406414 841.292128h116.431487v69.261808H285.406414z" fill="#3476CC" p-id="34882"></path><path d="M529.613994 823.379592l11.344607 34.630904h36.422157c5.373761 0 7.762099 7.165015 3.582507 10.747521l-29.257143 21.495044 11.344607 34.630904c1.791254 5.373761-4.179592 9.553353-8.956268 6.56793l-29.257143-21.495044L495.580175 931.451895c-4.776676 3.582507-10.747522-1.194169-8.956268-6.56793l11.344606-34.630904-29.257143-21.495044c-4.776676-3.582507-2.388338-10.747522 3.582508-10.747521H507.521866l11.344606-34.630904c1.194169-5.373761 8.956268-5.373761 10.747522 0z" fill="#FFFFFF" p-id="34883"></path></svg>