<?xml version="1.0" standalone="no"?><!DOCTYPE svg PUBLIC "-//W3C//DTD SVG 1.1//EN" "http://www.w3.org/Graphics/SVG/1.1/DTD/svg11.dtd"><svg t="1596783860412" class="icon" viewBox="0 0 1024 1024" version="1.1" xmlns="http://www.w3.org/2000/svg" p-id="3412" xmlns:xlink="http://www.w3.org/1999/xlink" width="200" height="200"><defs><style type="text/css"></style></defs><path d="M839.6 402.9c-37.9 41.4-93.9 65.4-154.1 60.1-29.6-2.6-57-12-80.7-26.4-2.6-1.6-5.1-3.2-7.6-4.9-12.8-7.9-26.5-14.7-40.9-20.1-10.4-3.9-14.8-16.4-9.1-25.9 13.8-23.3 21.8-50.5 21.8-79.5 0-86.2-69.8-156-156-156-31.6 0-61 9.4-85.6 25.5-3.1 2.1-6.2 4.2-9.1 6.5-35 26.8-58.3 68-61 114.8-0.2 3-0.3 6.1-0.3 9.2 0 17.5 2.9 34.3 8.2 50 9.4 27.7 26.3 51.9 48.4 70.2 9.4 7.8 9.7 22.3 0.6 30.4-43.5 38.9-72.9 93.8-78.4 156.5-11.4 129.7 83.8 244.2 213 257.2 0 0 36.7 3.3 57.5 3.3 200.5 0 363.1-113.3 363.1-334.9-0.1-45.3-29-133.3-29.8-136z" fill="#FFD628" p-id="3413"></path><path d="M412.9 150.2c86.1 0 156 69.8 156 156 0 29-7.9 56.2-21.8 79.5-5.7 9.5-1.3 22 9.1 25.9 14.4 5.4 28.1 12.1 40.9 20.1 2.5 1.7 5 3.3 7.6 4.9 23.8 14.5 51.2 23.8 80.7 26.4 5.5 0.5 11 0.7 16.5 0.7 53.9 0 103.3-23.2 137.7-60.8 0.8 2.7 29.7 90.7 29.7 136.1 0 221.5-162.6 334.9-363.1 334.9-20.8 0-57.5-3.3-57.5-3.3-129.2-13-224.3-127.5-213-257.2 5.5-62.7 34.9-117.6 78.4-156.5 9.1-8.2 8.9-22.6-0.6-30.4-22.1-18.3-39-42.5-48.4-70.2-5.3-15.7-8.2-32.5-8.2-50 0-3.1 0.1-6.2 0.3-9.2 2.7-46.8 26-88 61-114.8 3-2.3 6-4.4 9.1-6.5 24.6-16.2 54-25.6 85.6-25.6m0-15.5c-33.6 0-66.1 9.7-94.1 28.1-3.4 2.3-6.8 4.7-10 7.1-39.7 30.4-64.2 76.4-67.1 126.2-0.2 3.2-0.3 6.6-0.3 10.1 0 18.8 3 37.3 9 55 10.2 30.1 28.6 56.8 53.2 77.2 1.4 1.1 1.6 2.6 1.6 3.4 0 0.8-0.2 2.3-1.5 3.5-48.2 43.1-77.9 102.3-83.5 166.7-3 33.8 0.7 67.1 11 99.2 9.9 30.9 25.5 59.3 46.3 84.5 20.8 25.1 45.8 45.7 74.4 61.1 29.5 16 61.6 25.8 95.2 29.2h0.2c1.5 0.1 37.6 3.3 58.9 3.3 52.1 0 101.2-7.4 146.1-21.9 46.2-15 86.8-37.2 120.7-66.1 73.1-62.4 111.8-153.1 111.8-262.3 0-38.7-18.7-103.6-29.8-138.9-0.2-0.7-0.4-1.3-0.5-1.5l-2.4-8.6-8.6-2.1-8.9-2.4-6.4 7c-32.4 35.5-78.4 55.8-126.2 55.8-5 0-10.1-0.2-15.1-0.7-26.4-2.3-51.2-10.4-73.7-24l-0.4-0.2c-2.3-1.4-4.7-2.9-6.9-4.4l-0.3-0.2-0.3-0.2c-13.8-8.5-28.4-15.7-43.6-21.4-0.9-0.3-1.2-1-1.4-1.5-0.2-0.5-0.3-1.2 0.2-2 15.7-26.4 23.9-56.6 23.9-87.4 0-45.8-17.8-88.9-50.2-121.3-32.4-32.5-75.5-50.3-121.3-50.3z" fill="#FFA300" p-id="3414"></path><path d="M374.5 280.3m-20.2 0a20.2 20.2 0 1 0 40.4 0 20.2 20.2 0 1 0-40.4 0Z" fill="#533630" p-id="3415"></path><path d="M143.3 333.6c29.3 32.1 56.8 61.3 122.7 62.8 7.9 0.2 28.4-8.5 27.6-38.4-72.1 21.9-121.2-7-150.3-24.4zM671.5 550c-12.2 4.3-26.2 8.2-26.2 8.2-9.7 94.7-89 171-186.1 171.7h-2.4c-2.8 0-5.6-0.2-8.3-0.5 15.3 11.5 34.3 18.4 54.9 18.7h2.4c103.2-0.6 193.4-94.6 193.4-208.4-0.1 0-16.6 6.4-27.7 10.3z" fill="#FF6D2C" p-id="3416"></path><path d="M284.7 343.8c-25-13.4-24.1-61.5-30.9-61.5-19.6 16.8-47.4 27-74 27-7.8 0-15.5-0.5-23.1-1.4-14.2-1.7-23 15.1-13.4 25.6 29.2 17.5 78.2 46.4 150.3 24.5-0.8-6.1-3.6-11.4-8.9-14.2zM630.3 561.5c-36.4 6.1-125.8-0.9-125.8-0.9-51.7 0-93.7 41.9-93.7 93.7 0 30.7 14.8 57.9 37.6 75 3.3 0.4 7.7 0.5 10.7 0.5 97.1-0.6 176.4-77 186.1-171.7-5.3 1.5-10.4 2.7-14.9 3.4z" fill="#FF8F29" p-id="3417"></path><path d="M839.6 402.9c-1.1 1.2-2.1 2.3-3.2 3.4 20.1 313.3-197.7 449.1-499.8 422.8 32.2 22.5 70.4 37.3 112.1 41.5 0 0 36.7 3.3 57.5 3.3 200.5 0 363.1-113.3 363.1-334.9 0-45.4-28.9-133.4-29.7-136.1zM385.1 457.1c9.7 1.9 19.8 2.9 30.1 2.9 85.5 0 154.8-69.3 154.8-154.8 0-85.5-69.3-154.8-154.8-154.8-10.3 0-20.3 1-30.1 2.9 71.1 14 124.7 76.7 124.7 151.9s-53.6 137.9-124.7 151.9z" fill="#FFB829" p-id="3418"></path></svg>