<?xml version="1.0" standalone="no"?><!DOCTYPE svg PUBLIC "-//W3C//DTD SVG 1.1//EN" "http://www.w3.org/Graphics/SVG/1.1/DTD/svg11.dtd"><svg t="1596783392828" class="icon" viewBox="0 0 1024 1024" version="1.1" xmlns="http://www.w3.org/2000/svg" p-id="57844" xmlns:xlink="http://www.w3.org/1999/xlink" width="200" height="200"><defs><style type="text/css"></style></defs><path d="M104.441701 63.815421V957.234387h812.208362V63.815421h-812.208362z m730.987526 81.222883v101.518115h-81.247442v-101.518115h81.247442z m-81.247442 406.095995h81.247442v142.585439h-81.247442V551.134299z m0-81.21879V327.779302h81.247442V469.915509h-81.247442z m-81.219813-324.877205V469.915509H348.130815V145.038304h324.831157z m-406.056086 0V469.915509h-81.245396V327.779302h81.235163v-81.222883h-81.235163v-101.518115h81.245396z m-81.245396 730.9732v-101.07093h81.235163v-81.220836h-81.235163V551.134299h81.245396v324.877205h-81.245396z m162.470325 0V551.134299H672.960948v324.877205H348.130815z m406.05097 0v-101.07093h81.247442v101.07093h-81.247442z" fill="#a4579d" p-id="57845"></path></svg>