<?xml version="1.0" standalone="no"?><!DOCTYPE svg PUBLIC "-//W3C//DTD SVG 1.1//EN" "http://www.w3.org/Graphics/SVG/1.1/DTD/svg11.dtd"><svg t="1596784499282" class="icon" viewBox="0 0 1102 1024" version="1.1" xmlns="http://www.w3.org/2000/svg" p-id="42356" xmlns:xlink="http://www.w3.org/1999/xlink" width="215.234375" height="200"><defs><style type="text/css"></style></defs><path d="M705.46737867 251.97134624l61.15135701-105.9348387a59.08255529 59.08255529 0 0 1 102.34485909 59.08255528l-33.95269414 58.7783194a152.11780472 152.11780472 0 0 1 118.86485272 146.5807162c1.09524843 89.9320457-4.25929857 164.59146453-16.12448736 223.91740852a602.87328241 602.87328241 0 0 1-26.83358057 93.55244928 243.38848677 243.38848677 0 0 1-227.87247118 157.92870437H390.00547619a243.38848677 243.38848677 0 0 1-232.86193511-172.59286102c-7.75800779-25.55579138-14.60330947-53.05869012-20.50548028-82.56954417a1038.96460344 1038.96460344 0 0 1-20.01870286-219.87107392 152.14822792 152.14822792 0 0 1 112.56717564-144.63360883L193.92562627 205.11906283A59.08255529 59.08255529 0 0 1 296.30090858 146.03650754l61.75982877 106.96923995a2739.00276166 2739.00276166 0 0 1 347.43706452-1.03440125z m-190.84699727 161.9750382a60.84712188 60.84712188 0 0 0-94.52600336 50.68565251v195.31926059a60.84712188 60.84712188 0 0 0 94.52600336 50.6856525l146.88495208-97.65963028a60.84712188 60.84712188 0 0 0 0-101.34088104l-146.88495208-97.65963029z" fill="#F5A623" p-id="42357"></path></svg>