<?xml version="1.0" standalone="no"?><!DOCTYPE svg PUBLIC "-//W3C//DTD SVG 1.1//EN" "http://www.w3.org/Graphics/SVG/1.1/DTD/svg11.dtd"><svg t="1596784447693" class="icon" viewBox="0 0 1024 1024" version="1.1" xmlns="http://www.w3.org/2000/svg" p-id="40797" xmlns:xlink="http://www.w3.org/1999/xlink" width="200" height="200"><defs><style type="text/css"></style></defs><path d="M512 106.667c162.517 1.834 277.504 67.626 344.96 197.354 33.515 64.512 48.47 156.075 49.856 229.312 1.43 75.456-10.773 136.534-24.107 179.67a502.57 502.57 0 0 1-31.189 78.336L866.965 614.1c5.078-35.029 5.334-68.544 0.704-100.544-6.912-48.021-22.4-28.65-35.349-60.458-12.95-31.83-20.48-61.334-43.307-101.44-22.4-39.403-98.986-137.152-268.032-138.347l-8.981 0.021c-175.339-2.261-254.08 98.219-276.864 138.326-22.827 40.106-30.357 69.61-43.307 101.44-12.949 31.808-28.437 12.437-35.349 60.458-4.608 32-4.373 65.515 0.704 100.544l15.445 177.238a502.57 502.57 0 0 1-31.189-78.336c-13.333-43.136-25.536-104.214-24.107-179.67 1.387-73.237 16.342-164.8 49.878-229.312C234.645 174.315 349.589 108.501 512 106.667z" fill="#F06AE9" p-id="40798"></path><path d="M120.043 485.312l40.106 10.73a119.083 119.083 0 0 0-3.669 17.494l-0.427 3.477-37.674-10.048c0.426-7.125 0.981-14.357 1.664-21.653z m785.706 21.61l-37.61 10.049a313.77 313.77 0 0 0-0.47-3.414 118.912 118.912 0 0 0-3.69-17.578l40.128-10.688a647.963 647.963 0 0 1 1.664 21.632z" fill="#FFDAFD" p-id="40799"></path><path d="M513.792 128c295.659-1.408 352.427 238.336 363.328 300.245l0.341 1.878c8.32 48.746-15.466 50.581-27.456 45.397-2.922-2.197-5.973-4.31-8.981-7.701v-0.022a48.981 48.981 0 0 1-8.704-14.72c-12.95-31.808-20.48-61.312-43.307-101.418-22.4-39.403-98.986-137.152-268.032-138.347l-8.981 0.021c-175.339-2.261-254.08 98.219-276.864 138.326-22.827 40.106-30.357 69.61-43.307 101.44-6.186 15.232-12.97 18.73-19.114 23.509-12.523 3.499-32.043-1.664-24.363-46.485l1.92-10.518C164.736 346.773 228.693 126.635 512 128h1.792z" fill="#EB49D6" p-id="40800"></path><path d="M521.941 144.96c79.083 0 148.544 21.61 208.384 64.853 93.504 67.542 117.078 165.91 128.235 219.094 7.765 37.077-9.621 42.197-22.507 31.936a63.21 63.21 0 0 1-3.733-7.744c-12.95-31.83-20.48-61.334-43.307-101.44-22.4-39.403-98.986-137.152-268.032-138.347l-8.981 0.021c-175.339-2.261-254.08 98.219-276.864 138.326-22.827 40.106-30.357 69.61-43.307 101.44a64.192 64.192 0 0 1-3.626 7.573c-12.886 10.517-30.592 5.59-22.763-31.787l1.728-8.085c11.883-54.613 37.547-146.73 126.507-210.987C356.01 164.78 428.779 143.19 512 145.067l9.941-0.107z" fill="#FF77F8" p-id="40801"></path><path d="M521.941 144.96c79.083 0 148.544 21.61 208.384 64.853l4.736 3.499-40.746 44.843c-41.899-24.896-98.56-44.31-173.334-44.843l-8.981 0.021c-79.232-1.024-138.752 18.944-182.272 44.822l-40.81-44.822a273.74 273.74 0 0 1 4.757-3.498C356.01 164.779 428.779 143.189 512 145.067l9.941-0.107z" fill="#F65DE2" p-id="40802"></path><path d="M152.693 747.926a149.333 32 70 1 0 60.14-21.89 149.333 32 70 1 0-60.14 21.89z" fill="#F06AE9" p-id="40803"></path><path d="M236.565 853.61c11.072-4.053 0.427-61.162-23.744-127.573-24.17-66.432-52.757-117.013-63.829-113.002-11.072 4.053-3.712 62.357 20.48 128.789 24.15 66.41 56.021 115.819 67.093 111.787z" fill="#C4136B" p-id="40804"></path><path d="M147.179 608.043c-16.491 5.973-7.232 68.309 17.28 135.594l4.266 11.392c23.915 61.846 54.102 109.227 69.654 103.595 16.042-5.845 5.354-63.253-20.544-134.4l-4.48-12.01c-24.662-64.79-51.051-109.675-66.176-104.171z m3.626 10.026c5.931-2.176 32.854 45.078 54.955 104.214l2.048 5.568c22.464 61.696 33.024 118.528 26.923 120.746-6.912 2.518-38.614-49.173-60.267-108.586l-3.797-10.838c-18.859-55.701-26.326-108.778-19.84-111.146z" fill="#DD32C7" p-id="40805"></path><path d="M197.27 527.36l131.349 360.853-82.048-38.25c-17.238-5.824-38.507-43.478-63.808-112.982-25.302-69.525-33.216-112.042-23.744-127.573l38.25-82.048z" fill="#FF8A11" p-id="40806"></path><path d="M295.04 795.968l-96.555-18.667a866.219 866.219 0 0 1-15.722-40.32c-5.44-14.933-10.07-28.586-13.888-41.024l61.952-76.373 64.213 176.384z" fill="#F85600" p-id="40807"></path><path d="M232.863 718.742a192 32 70 1 0 60.14-21.89 192 32 70 1 0-60.14 21.89z" fill="#EC0049" p-id="40808"></path><path d="M310.25 463.53c29.931-0.96 67.627 61.014 113.067 185.878 45.44 124.885 56.406 196.565 32.854 215.061a142.677 142.677 0 0 1-46.443 28.267 142.677 142.677 0 0 1-53.76 8.213c-23.339-1.706-57.685-64.874-103.04-189.504-45.376-124.65-59.67-195.114-42.901-211.413a142.677 142.677 0 0 1 46.464-28.267 142.677 142.677 0 0 1 53.76-8.234z" fill="#FF7325" p-id="40809"></path><path d="M355.947 900.95c-23.318-1.707-57.664-64.875-103.04-189.505-45.355-124.65-59.648-195.114-42.88-211.413 7.68-6.87 15.68-12.757 24.042-17.685-4.757 35.69 13.824 121.728 48.918 218.154 35.093 96.363 76.138 174.166 102.72 198.486a147.712 147.712 0 0 1-29.76 1.941z" fill="#FF5C00" p-id="40810"></path><path d="M457.707 863.147l-1.515 1.322c-9.323 8.342-19.157 15.254-29.525 20.736-26.539-23.381-68.118-101.866-103.595-199.317-35.456-97.408-54.059-184.256-48.747-219.243a147.541 147.541 0 0 1 35.926-3.114c29.269-0.939 65.941 58.282 110.037 177.642l3.03 8.235c44.437 122.112 55.893 193.365 34.389 213.76z" fill="#FF962A" p-id="40811"></path><path d="M426.197 657.387l3.904 11.008c37.376 106.517 47.275 170.666 29.696 192.49-18.837-8.853-59.861-88.554-96.64-189.589-36.757-101.013-56.576-188.437-47.829-207.317 27.477 5.397 61.12 60.885 100.95 166.464a1354.237 1354.237 0 0 1 7.04 18.986z" fill="#FFB468" p-id="40812"></path><path d="M383.232 664c32.213 88.576 62.848 158.741 68.395 156.736 5.525-2.027-12.118-76.907-44.352-165.483-32.235-88.576-66.859-157.29-72.406-155.264-5.546 2.006 16.107 75.456 48.363 164.011z" fill="#DD0E6B" p-id="40813"></path><path d="M871.307 747.926a32 149.333 20 1 0-60.14-21.89 32 149.333 20 1 0 60.14 21.89z" fill="#F06AE9" p-id="40814"></path><path d="M875.008 613.035c-11.093-4.011-39.659 46.57-63.83 113.002-24.191 66.411-34.815 123.52-23.743 127.574 11.093 4.032 42.944-45.376 67.114-111.787 24.171-66.432 31.531-124.757 20.459-128.79z" fill="#C4136B" p-id="40815"></path><path d="M785.621 858.624c16.491 5.995 49.451-47.68 73.942-114.987l4.053-11.477c21.419-62.763 28.757-118.464 13.227-124.117-15.595-5.675-43.158 42.133-68.459 110.122l-2.219 6.038c-25.898 71.168-36.586 128.576-20.544 134.4z m3.627-10.027c-6.08-2.218 4.48-59.05 26.944-120.746l4.139-11.094c21.674-56.512 47.104-100.8 52.842-98.709 6.912 2.517-2.005 62.507-23.637 121.941l-4.053 10.71c-21.334 54.805-49.707 100.266-56.214 97.898z" fill="#DD32C7" p-id="40816"></path><path d="M695.381 888.213l131.35-360.853 38.25 82.027c9.472 15.552 1.558 58.069-23.744 127.573-25.301 69.525-46.57 107.179-63.808 113.003l-82.048 38.25z" fill="#FF8A11" p-id="40817"></path><path d="M793.173 619.605l61.952 76.374c-3.84 12.416-8.448 26.09-13.866 41.002-5.44 14.912-10.667 28.374-15.744 40.342l-96.555 18.666 64.213-176.384z" fill="#F85600" p-id="40818"></path><path d="M791.137 718.742a32 192 20 1 0-60.14-21.89 32 192 20 1 0 60.14 21.89z" fill="#EC0049" p-id="40819"></path><path d="M567.808 864.47c-23.53-18.497-12.587-90.177 32.875-215.04 45.44-124.886 83.136-186.86 113.066-185.9 19.136-0.597 37.056 2.134 53.76 8.235 16.704 6.08 32.214 15.488 46.464 28.267 16.768 16.299 2.475 86.763-42.88 211.413-45.376 124.63-79.722 187.798-103.04 189.504a142.677 142.677 0 0 1-53.76-8.213 142.677 142.677 0 0 1-46.485-28.267z" fill="#FF7325" p-id="40820"></path><path d="M813.973 500.032c16.768 16.299 2.475 86.763-42.88 211.413-45.376 124.63-79.722 187.798-103.04 189.504a151.168 151.168 0 0 1-29.781-1.92c26.581-24.277 67.648-102.122 102.741-198.528 35.072-96.384 53.654-182.4 48.918-218.09 8.362 4.864 16.384 10.752 24.042 17.621z" fill="#FF5C00" p-id="40821"></path><path d="M711.744 463.573l2.005-0.042a148.608 148.608 0 0 1 35.926 3.114c5.312 34.966-13.291 121.814-48.747 219.243-35.477 97.43-77.035 175.915-103.595 199.296a147.541 147.541 0 0 1-29.525-20.693c-23.019-18.091-13.056-87.04 29.888-206.827l2.987-8.256c44.437-122.09 81.45-184.043 111.061-185.835z" fill="#FF962A" p-id="40822"></path><path d="M603.605 641.45l4.075-10.943c39.85-105.6 73.515-161.131 100.97-166.528 8.747 18.88-11.05 106.304-47.829 207.317-36.757 101.035-77.781 180.736-96.597 189.59-17.6-21.803-7.701-85.931 29.653-192.427a1290.406 1290.406 0 0 1 6.827-19.051z" fill="#FFB468" p-id="40823"></path><path d="M640.768 664c32.256-88.555 53.888-162.005 48.363-164.01-5.547-2.027-40.171 66.687-72.406 155.263-32.234 88.576-49.877 163.456-44.352 165.483 5.547 2.005 36.16-68.16 68.395-156.736z" fill="#DD0E6B" p-id="40824"></path></svg>