<?xml version="1.0" standalone="no"?><!DOCTYPE svg PUBLIC "-//W3C//DTD SVG 1.1//EN" "http://www.w3.org/Graphics/SVG/1.1/DTD/svg11.dtd"><svg t="1596782335883" class="icon" viewBox="0 0 1024 1024" version="1.1" xmlns="http://www.w3.org/2000/svg" p-id="15464" xmlns:xlink="http://www.w3.org/1999/xlink" width="200" height="200"><defs><style type="text/css"></style></defs><path d="M713.756472 459.474593L656.813039 412.348993l45.162033-91.305848c5.8907-11.7814 2.94535-25.526366-6.872483-33.380633-9.817833-7.854267-23.5628-8.83605-34.362416-0.981783l-55.96165 40.253116C563.543624 265.081496 493.837009 223.846596 414.31256 223.846596 285.698945 224.82838 194.393097 316.134228 187.520614 451.620326c-2.94535 67.743049-15.708533 120.759348-29.4535 161.012464-1.963567 0-2.94535 0.981783-4.908916 0.981783C51.052733 646.013423 0.981783 683.321189 0.981783 727.501438c0 45.162033 49.089166 82.469799 151.194631 113.886865 24.544583 7.854267 56.943432 14.72675 76.579099 19.635666v127.631832c0 14.72675 13.744966 34.362416 28.471716 34.362416h168.866731c14.72675 0 27.489933-14.72675 27.489933-29.4535s-12.763183-29.4535-27.489933-29.453499h-30.435283v-87.378716c58.906999-6.872483 114.868648-34.362416 145.303931-75.597315 13.744966-17.6721 22.581016-35.344199 25.526366-55.961649 39.271333-65.779482 66.761266-144.322148 74.615532-232.682646h54.979866c11.7814 0 21.599233-9.817833 25.526366-20.61745 4.908917-9.817833 0.981783-24.544583-7.854266-32.398849zM366.205177 824.697987c-41.234899 0-122.722915-11.7814-197.338446-35.3442-94.251198-29.4535-113.886865-55.961649-113.886865-61.852349 0-5.8907 19.635666-32.398849 113.886865-61.852349 74.615532-22.581016 155.121764-35.344199 197.338446-35.344199 79.524449 0 147.267498 44.180249 147.267498 96.214765 0 14.72675-4.908917 28.471716-14.72675 41.234899-24.544583 35.344199-76.579099 56.943432-132.540748 56.943433z m49.089166-544.889742c95.232982 0 172.793864 77.560882 172.793864 172.793864 0 71.670182-14.72675 145.303931-41.234899 208.138064-10.799616-15.708533-24.544583-30.435283-42.216683-43.198466-37.307766-26.50815-87.378715-41.234899-139.413231-41.2349-37.307766 0-92.287632 7.854267-145.303931 19.635667 10.799616-38.289549 18.653883-85.415149 21.599233-141.376798 5.8907-107.996165 72.651965-174.75743 173.775647-174.757431z m-127.631831 592.015341c19.635666 2.94535 39.271333 5.8907 58.906999 6.872483v86.396932h-58.906999v-93.269415z" fill="" p-id="15465"></path><path d="M220.901246 595.942474c53.016299-11.7814 107.996165-19.635666 145.303931-19.635667 52.034516 0 102.105465 14.72675 139.413231 41.2349 17.6721 12.763183 31.417066 26.50815 42.216683 43.198466 26.50815-61.852349 41.234899-135.486098 41.234899-208.138064 0-95.232982-77.560882-172.793864-172.793863-172.793864-102.105465 0-167.884947 66.761266-172.793864 174.757431-3.927133 55.961649-11.7814 103.087248-22.581017 141.376798z m264.099713-200.283797c14.72675 0 27.489933 12.763183 27.489933 27.489933 0 14.72675-12.763183 27.489933-27.489933 27.489933-14.72675 0-27.489933-12.763183-27.489933-27.489933 0-14.72675 11.7814-27.489933 27.489933-27.489933z" fill="#FFB9A8" p-id="15466"></path><path d="M498.745925 769.718121c9.817833-12.763183 14.72675-27.489933 14.72675-41.2349 0-52.034516-67.743049-96.214765-147.267498-96.214765-41.234899 0-122.722915 11.7814-197.338446 35.3442-94.251198 29.4535-113.886865 55.961649-113.886865 61.852349 0 5.8907 19.635666 32.398849 113.886865 61.852349C243.482263 811.934803 324.970278 824.697987 366.205177 824.697987c55.961649 0 107.996165-21.599233 132.540748-54.979866z" fill="#FF5F7D" p-id="15467"></path><path d="M485.000959 423.14861m-27.489933 0a27.489933 27.489933 0 1 0 54.979866 0 27.489933 27.489933 0 1 0-54.979866 0Z" fill="" p-id="15468"></path><path d="M954.293384 378.96836c-2.94535-0.981783-4.908917-0.981783-7.854266-0.981783-5.8907 0-10.799616 2.94535-13.744967 6.872483-0.981783 0.981783-2.94535 1.963567-4.908916 1.963567s-2.94535-0.981783-4.908917-1.963567c-3.927133-3.927133-7.854267-6.872483-13.744966-6.872483-1.963567 0-3.927133 0-6.872483 0.981783-14.72675 4.908917-30.435283 37.307766 25.526366 73.633749 56.943432-36.325983 41.234899-68.724832 26.508149-73.633749z" fill="#F41818" p-id="15469"></path><path d="M1022.036433 390.74976c-3.927133-29.4535-24.544583-54.979866-52.034515-63.815915-7.854267-2.94535-15.708533-3.927133-24.544583-3.927134-6.872483 0-12.763183 0.981783-19.635667 2.94535-5.8907-1.963567-11.7814-1.963567-18.653883-1.963566-7.854267 0-15.708533 0.981783-23.562799 3.927133-27.489933 8.83605-48.107383 33.380633-52.034516 63.815916-2.94535 23.5628 0.981783 67.743049 64.797699 107.996165 8.83605 5.8907 19.635666 8.83605 29.453499 8.836049s20.61745-2.94535 29.4535-8.836049c65.779482-41.234899 69.706616-86.396932 66.761265-108.977949z m-94.251198 61.852349c-56.943432-36.325983-41.234899-68.724832-25.526366-73.633749 1.963567-0.981783 4.908917-0.981783 6.872483-0.981783 5.8907 0 10.799616 2.94535 13.744966 6.872483 0.981783 0.981783 2.94535 1.963567 4.908917 1.963567s3.927133-0.981783 4.908916-1.963567c3.927133-3.927133 7.854267-6.872483 13.744967-6.872483 1.963567 0 4.908917 0 7.854266 0.981783 14.72675 4.908917 30.435283 37.307766-26.508149 73.633749z" fill="" p-id="15470"></path><path d="M860.042186 215.010547C981.783317 137.449664 947.420901 68.724832 916.003835 57.925216c-5.8907-1.963567-10.799616-2.94535-15.708533-2.94535-12.763183 0-23.5628 5.8907-30.435283 14.72675-2.94535 2.94535-5.8907 4.908917-9.817833 4.908916-2.94535 0-5.8907-0.981783-8.83605-3.927133-7.854267-8.83605-18.653883-14.72675-31.417066-14.72675-4.908917 0-9.817833 0.981783-14.72675 1.963567-32.398849 9.817833-66.761266 79.524449 54.979866 157.085331z" fill="#F41818" p-id="15471"></path><path d="M889.495686 261.154362c39.271333-25.526366 68.724832-52.034516 87.378715-81.488015 23.5628-36.325983 25.526366-68.724832 22.581016-89.342282-4.908917-40.253116-31.417066-73.633749-67.743049-84.433365-9.817833-3.927133-20.61745-5.8907-31.417066-5.8907-14.72675 0-28.471716 2.94535-41.234899 8.83605-12.763183-5.8907-25.526366-8.83605-40.253116-8.83605-10.799616 0-20.61745 1.963567-31.417066 4.908917-35.344199 11.7814-61.852349 45.162033-67.743049 84.433365-2.94535 20.61745-0.981783 53.016299 22.581016 89.342282 18.653883 28.471716 48.107383 55.961649 87.378715 81.488015 8.83605 5.8907 19.635666 8.83605 29.4535 8.83605 11.7814 0.981783 21.599233-1.963567 30.435283-7.854267zM805.06232 57.925216c4.908917-1.963567 9.817833-1.963567 14.72675-1.963567 12.763183 0 23.5628 5.8907 31.417066 14.72675 1.963567 2.94535 5.8907 3.927133 8.83605 3.927133 3.927133 0 6.872483-1.963567 9.817833-4.908916 7.854267-8.83605 17.6721-14.72675 30.435283-14.72675 4.908917 0 9.817833 0.981783 15.708533 2.94535 32.398849 9.817833 65.779482 79.524449-55.961649 157.085331-121.741131-77.560882-87.378715-147.267498-54.979866-157.085331z" fill="" p-id="15472"></path></svg>