<?xml version="1.0" standalone="no"?><!DOCTYPE svg PUBLIC "-//W3C//DTD SVG 1.1//EN" "http://www.w3.org/Graphics/SVG/1.1/DTD/svg11.dtd"><svg t="1596781962770" class="icon" viewBox="0 0 1024 1024" version="1.1" xmlns="http://www.w3.org/2000/svg" p-id="1861" xmlns:xlink="http://www.w3.org/1999/xlink" width="200" height="200"><defs><style type="text/css"></style></defs><path d="M918.4 291.4C866.7 239 804.2 208.9 737 246.3c9.7-53 2.6-119.2-57.7-181.7 0 0-94 121-17.1 246.9-13.8 15.2-27.3 30.6-40.8 44.3-30 30.5 16.5 77.6 46.5 47.2 25.7-26.1 51.4-52.1 77.1-78.2 45.6-46.2 87-26.8 126.9 13.6 30 30.6 76.6-16.6 46.5-47z" fill="#58D598" p-id="1862"></path><path d="M729.2 317.2c-84.1-85.3-220.5-85.3-304.6 0-20.5 20.8-35.8 44.7-46.4 70.2-72.3-0.1-144.6 27.8-199.7 83.7-110.1 111.7-110.1 292.8 0 404.5 110.1 111.7 288.7 111.7 398.9 0 55.1-55.9 82.7-129.2 82.6-202.5 25.1-10.7 48.7-26.3 69.2-47 84.1-85.3 84.1-223.6 0-308.9z" fill="#FF5C7A" p-id="1863"></path><path d="M514.7 839.1c-84.6 82.6-219.2 80.1-300.7-5.7-81.5-85.7-79-222.2 5.6-304.9 0 0-50.5 135.8 49.4 240.9 113.3 119.3 245.7 69.7 245.7 69.7" fill="#F14767" p-id="1864"></path></svg>