<?xml version="1.0" standalone="no"?><!DOCTYPE svg PUBLIC "-//W3C//DTD SVG 1.1//EN" "http://www.w3.org/Graphics/SVG/1.1/DTD/svg11.dtd"><svg t="1596783055280" class="icon" viewBox="0 0 1056 1024" version="1.1" xmlns="http://www.w3.org/2000/svg" p-id="45697" xmlns:xlink="http://www.w3.org/1999/xlink" width="206.25" height="200"><defs><style type="text/css"></style></defs><path d="M887.309163 174.512328h-28.020289v-29.495041a57.023747 57.023747 0 0 0-55.548995-58.990083H302.324175a57.023747 57.023747 0 0 0-55.548995 58.990083v29.495041h-28.020289a86.027204 86.027204 0 0 0-83.569284 88.485125v58.990083a86.027204 86.027204 0 0 0 83.569284 88.485124h28.020289a318.546447 318.546447 0 0 0 278.236558 322.970704v89.959876H446.849878a28.511873 28.511873 0 0 0-26.053954 19.171777l-20.646529 58.990083a30.969794 30.969794 0 0 0 2.949505 27.037121 28.020289 28.020289 0 0 0 23.104449 12.781185h253.657356a28.020289 28.020289 0 0 0 23.104449-12.781185 30.969794 30.969794 0 0 0 2.949504-27.037121l-20.646529-58.990083a28.511873 28.511873 0 0 0-26.053953-19.171777h-78.16186v-89.959876a318.546447 318.546447 0 0 0 278.236558-322.970704h28.020289a86.027204 86.027204 0 0 0 83.569284-88.485124v-58.990083a86.027204 86.027204 0 0 0-83.569284-88.485125z" fill="#FDD545" p-id="45698"></path><path d="M675.928033 1023.969522h-294.950414a68.330179 68.330179 0 0 1-57.023747-29.986626 67.347011 67.347011 0 0 1-7.865345-63.905923l24.579202-65.380675a69.313347 69.313347 0 0 1 64.889091-45.22573h53.091074v-30.969794a401.624148 401.624148 0 0 1-323.462287-354.432081A135.185607 135.185607 0 0 1 0 298.883087V233.502411A135.185607 135.185607 0 0 1 131.252934 98.316805a102.249477 102.249477 0 0 1 102.249477-98.316805h589.900829a102.249477 102.249477 0 0 1 102.249477 98.316805 135.185607 135.185607 0 0 1 131.252934 135.185606v65.380676a135.185607 135.185607 0 0 1-132.727686 135.185606 401.624148 401.624148 0 0 1-325.920208 354.432081v30.969794h55.057411a69.804931 69.804931 0 0 1 64.889091 45.22573l24.579201 65.380675a69.313347 69.313347 0 0 1-66.855427 93.892549z m-294.950414-73.737604h287.085069l-22.612865-59.973251-153.865799 2.949504H403.590484z m-245.792012-778.17751A61.448003 61.448003 0 0 0 73.737604 233.502411v65.380676a61.448003 61.448003 0 0 0 61.448003 61.448003h69.804931v36.868801a326.411792 326.411792 0 0 0 294.950414 322.47912h58.990083a326.411792 326.411792 0 0 0 294.950415-322.47912v-36.868801h67.838595A61.448003 61.448003 0 0 0 983.168048 298.883087V233.502411a61.448003 61.448003 0 0 0-61.448003-61.448003h-69.804932V102.249477a28.511873 28.511873 0 0 0-28.511873-28.511873h-589.900829a28.511873 28.511873 0 0 0-28.511873 28.511873V172.054408z" fill="#333333" p-id="45699"></path><path d="M412.93058 572.203804a32.444546 32.444546 0 0 1-31.952961-37.360386l19.66336-112.081157-81.602947-79.636612a31.461378 31.461378 0 0 1-7.865345-32.93613 31.952962 31.952962 0 0 1 25.562369-21.629697l112.572742-16.222273 49.158402-102.249477a32.93613 32.93613 0 0 1 57.023747 0l49.158402 102.249477 112.572742 16.222273a31.952962 31.952962 0 0 1 25.562369 21.629697 31.461378 31.461378 0 0 1-7.865344 32.93613l-78.653444 79.636612 19.663361 112.081157a31.461378 31.461378 0 0 1-12.781185 30.969794 30.478209 30.478209 0 0 1-33.427713 2.45792l-101.266309-53.091075-98.316805 53.091075a31.461378 31.461378 0 0 1-17.205441 3.932672z m115.522246-124.862342a38.343554 38.343554 0 0 1 14.74752 3.441088l58.498499 30.969793-11.306432-64.889091a33.919298 33.919298 0 0 1 9.340096-28.511873l49.158403-45.717314-67.347012-10.814849a32.444546 32.444546 0 0 1-24.087617-17.205441l-29.003457-58.006915-29.003458 58.990083a32.444546 32.444546 0 0 1-24.087617 16.222273l-65.380675 9.831681 49.158402 45.717314a33.919298 33.919298 0 0 1 9.340097 28.511873L457.173142 480.769175l58.498499-30.969793a38.343554 38.343554 0 0 1 12.781185-2.45792z" fill="#333333" p-id="45700"></path></svg>