<?xml version="1.0" standalone="no"?><!DOCTYPE svg PUBLIC "-//W3C//DTD SVG 1.1//EN" "http://www.w3.org/Graphics/SVG/1.1/DTD/svg11.dtd"><svg t="1596783112628" class="icon" viewBox="0 0 1170 1024" version="1.1" xmlns="http://www.w3.org/2000/svg" p-id="47793" xmlns:xlink="http://www.w3.org/1999/xlink" width="228.515625" height="200"><defs><style type="text/css"></style></defs><path d="M585.142857 0C263.314286 0 0 212.114286 0 475.428571c0 168.228571 102.4 314.514286 263.314286 394.971429-21.942857 29.257143-58.514286 51.2-95.085715 80.457143-197.485714 124.342857 102.4 29.257143 256-21.942857 51.2 14.628571 102.4 21.942857 160.914286 21.942857 321.828571 0 585.142857-212.114286 585.142857-475.428572S906.971429 0 585.142857 0zM292.571429 512c-36.571429 0-73.142857-36.571429-73.142858-73.142857s36.571429-73.142857 73.142858-73.142857 73.142857 36.571429 73.142857 73.142857-36.571429 73.142857-73.142857 73.142857z m292.571428 0c-36.571429 0-73.142857-36.571429-73.142857-73.142857s36.571429-73.142857 73.142857-73.142857 73.142857 36.571429 73.142857 73.142857-36.571429 73.142857-73.142857 73.142857z m292.571429 0c-36.571429 0-73.142857-36.571429-73.142857-73.142857s36.571429-73.142857 73.142857-73.142857 73.142857 36.571429 73.142857 73.142857-36.571429 73.142857-73.142857 73.142857z" fill="#19D5A2" p-id="47794"></path></svg>