<?xml version="1.0" standalone="no"?><!DOCTYPE svg PUBLIC "-//W3C//DTD SVG 1.1//EN" "http://www.w3.org/Graphics/SVG/1.1/DTD/svg11.dtd"><svg t="1596783149127" class="icon" viewBox="0 0 1024 1024" version="1.1" xmlns="http://www.w3.org/2000/svg" p-id="48361" xmlns:xlink="http://www.w3.org/1999/xlink" width="200" height="200"><defs><style type="text/css"></style></defs><path d="M618.432 176c-23.104-38.72-62.4-64-106.432-64-69.984 0-128 63.84-128 144v48a32 32 0 0 1-64 0V256c0-5.376 0.192-10.72 0.576-16h-54.08a63.36 63.36 0 0 0-62.72 58.304L160.352 791.456A97.376 97.376 0 0 0 160 800c0 53.12 42.464 96 94.656 96h514.688c2.784 0 5.568-0.128 8.352-0.384 52.032-4.672 90.56-51.232 85.92-104.16L820.256 298.304a63.36 63.36 0 0 0-62.72-58.304 32 32 0 0 1 0-64c65.824 0 120.64 50.72 126.464 116.704l43.36 493.152c7.744 87.936-56.64 165.664-143.936 173.504-4.672 0.416-9.376 0.64-14.08 0.64H254.656C166.976 960 96 888.288 96 800c0-4.704 0.192-9.44 0.64-14.144L139.968 292.704C145.792 226.72 200.64 176 266.464 176h68.256c28.8-74.944 96.96-128 177.28-128 80.32 0 148.48 53.056 177.28 128h67.104a32 32 0 1 1 0 64h-52.96c0.384 5.28 0.576 10.624 0.576 16v48a32 32 0 0 1-64 0V256c0-5.44-0.256-10.752-0.768-16h-161.984a32 32 0 1 1 0-64h141.184z m-96.192 246.72l42.464-6.72v47.808L704 429.984V787.52h-41.12l-11.424-311.36-108.8 53.408h-20.416v-106.848z m44.416 142.528h51.136l-15.232 73.504h30.848l-42.336 89.472v-67.008h-31.648l7.232-95.968z m-233.824-116.448l158.976-30.944 10.08 224.8h-43.584v-160.704l-95.264 21.44v104.256H320l12.8-158.848z m59.808 110.016h27.232l12.16 107.936 82.208 45.088-13.632 62.848-80.736-62.848v62.848h-37.664l10.432-215.872z" fill="#ee537a" p-id="48362"></path></svg>