<?xml version="1.0" standalone="no"?><!DOCTYPE svg PUBLIC "-//W3C//DTD SVG 1.1//EN" "http://www.w3.org/Graphics/SVG/1.1/DTD/svg11.dtd"><svg t="1596781997493" class="icon" viewBox="0 0 1024 1024" version="1.1" xmlns="http://www.w3.org/2000/svg" p-id="3067" xmlns:xlink="http://www.w3.org/1999/xlink" width="200" height="200"><defs><style type="text/css"></style></defs><path d="M512 139.946667c-64.853333 0-119.466667 54.613333-119.466667 119.466666s54.613333 119.466667 119.466667 119.466667 119.466667-54.613333 119.466667-119.466667-54.613333-119.466667-119.466667-119.466666z m0 184.32c-34.133333 0-61.44-27.306667-61.44-61.44S477.866667 197.973333 512 197.973333s61.44 27.306667 61.44 61.44S546.133333 324.266667 512 324.266667zM512 648.533333c-64.853333 0-119.466667 54.613333-119.466667 119.466667S447.146667 887.466667 512 887.466667s119.466667-54.613333 119.466667-119.466667S576.853333 648.533333 512 648.533333z m0 184.32c-34.133333 0-61.44-27.306667-61.44-61.44s27.306667-61.44 61.44-61.44 61.44 27.306667 61.44 61.44-27.306667 61.44-61.44 61.44zM884.053333 512c0-64.853333-51.2-119.466667-119.466666-119.466667-64.853333 0-119.466667 54.613333-119.466667 119.466667s54.613333 119.466667 119.466667 119.466667 119.466667-51.2 119.466666-119.466667z m-119.466666 64.853333c-34.133333 0-61.44-27.306667-61.44-61.44s30.72-61.44 61.44-61.44c34.133333 0 61.44 27.306667 61.44 61.44s-27.306667 61.44-61.44 61.44zM256 392.533333C191.146667 392.533333 136.533333 447.146667 136.533333 512s54.613333 119.466667 119.466667 119.466667S375.466667 576.853333 375.466667 512s-51.2-119.466667-119.466667-119.466667z m0 184.32c-34.133333 0-61.44-27.306667-61.44-61.44s30.72-61.44 61.44-61.44c34.133333 0 61.44 27.306667 61.44 61.44 3.413333 34.133333-23.893333 61.44-61.44 61.44z" fill="#FF7400" p-id="3068"></path><path d="M955.733333 962.56h-197.973333C914.773333 873.813333 1024 706.56 1024 512c0-283.306667-232.106667-512-512-512S0 228.693333 0 512s232.106667 512 512 512h443.733333c20.48 0 34.133333-13.653333 34.133334-30.72s-13.653333-30.72-34.133334-30.72zM61.44 512c0-245.76 204.8-450.56 450.56-450.56S962.56 262.826667 962.56 512s-204.8 450.56-450.56 450.56S61.44 761.173333 61.44 512z" fill="#FF7400" p-id="3069"></path></svg>