<?xml version="1.0" standalone="no"?><!DOCTYPE svg PUBLIC "-//W3C//DTD SVG 1.1//EN" "http://www.w3.org/Graphics/SVG/1.1/DTD/svg11.dtd"><svg t="1596783181613" class="icon" viewBox="0 0 1024 1024" version="1.1" xmlns="http://www.w3.org/2000/svg" p-id="50136" xmlns:xlink="http://www.w3.org/1999/xlink" width="200" height="200"><defs><style type="text/css"></style></defs><path d="M854 859.9H176.3V323.3c0-90.4 73.3-163.6 163.6-163.6h350.4c90.4 0 163.6 73.3 163.6 163.6v536.6z" fill="#5B79FB" p-id="50137"></path><path d="M690.3 159.6H339.9c-90.4 0-163.6 73.3-163.6 163.6V406c0-90.4 73.3-163.6 163.6-163.6h350.4c90.4 0 163.6 73.3 163.6 163.6v-82.8c0.1-90.3-73.2-163.6-163.6-163.6z" fill="#83A4FF" p-id="50138"></path><path d="M690.3 159.6H339.9c-90.4 0-163.6 73.3-163.6 163.6v15.1c0-90.4 73.3-163.6 163.6-163.6h350.4c90.4 0 163.6 73.3 163.6 163.6v-15.1c0.1-90.3-73.2-163.6-163.6-163.6z" fill="#A4BEFF" p-id="50139"></path><path d="M794.2 859.9H846c29.4 0 53.2-23.8 53.2-53.2V483.8c0-29.4-23.8-53.2-53.2-53.2-58 0-105 47-105 105v271.1c0 29.4 23.8 53.2 53.2 53.2z" fill="#83A4FF" p-id="50140"></path><path d="M763.6 806.7V535.6c0-53.5 40.1-97.6 91.9-104.1-3.1-0.6-6.3-0.9-9.5-0.9-58 0-105 47-105 105v271.1c0 29.4 23.8 53.2 53.2 53.2h22.6c-29.4 0-53.2-23.8-53.2-53.2z" fill="#A4BEFF" p-id="50141"></path><path d="M850.2 664.1c17.6 0 34.2-4.3 48.9-11.7V483.8c0-11.5-3.7-22.1-9.9-30.8-12.1-4.7-25.3-7.3-39.1-7.3-60.3 0-109.2 48.9-109.2 109.2s49 109.2 109.3 109.2z" fill="#5B79FB" p-id="50142"></path><path d="M763.6 535.6c0-29.4 12.2-55.9 31.7-75-32.4 18.9-54.3 54-54.3 94.2 0 25 8.5 47.9 22.6 66.3v-85.5z" fill="#83A4FF" p-id="50143"></path><path d="M741 539.9a109.2 109.2 0 1 0 218.4 0 109.2 109.2 0 1 0-218.4 0z" fill="#A4BEFF" p-id="50144"></path><path d="M771.1 577.5c0-60.3 48.9-109.2 109.2-109.2 25.7 0 49.3 8.9 68 23.8-17.7-36.4-54.9-61.5-98.1-61.5-60.3 0-109.2 48.9-109.2 109.2 0 34.6 16.1 65.3 41.2 85.3-7-14.3-11.1-30.5-11.1-47.6z" fill="#C7D8FF" p-id="50145"></path><path d="M228.6 859.9h-51.8c-29.4 0-53.2-23.8-53.2-53.2V483.8c0-29.4 23.8-53.2 53.2-53.2 58 0 105 47 105 105v271.1c-0.1 29.4-23.9 53.2-53.2 53.2z" fill="#83A4FF" p-id="50146"></path><path d="M259.1 806.7V535.6c0-53.5-40.1-97.6-91.9-104.1 3.1-0.6 6.3-0.9 9.5-0.9 58 0 105 47 105 105v271.1c0 29.4-23.8 53.2-53.2 53.2H206c29.3 0 53.1-23.8 53.1-53.2z" fill="#A4BEFF" p-id="50147"></path><path d="M172.5 664.1c-17.6 0-34.2-4.3-48.9-11.7V483.8c0-11.5 3.7-22.1 9.9-30.8 12.1-4.7 25.3-7.3 39.1-7.3 60.3 0 109.2 48.9 109.2 109.2s-49 109.2-109.3 109.2z" fill="#5B79FB" p-id="50148"></path><path d="M259.1 535.6c0-29.4-12.2-55.9-31.7-75 32.4 18.9 54.3 54 54.3 94.2 0 25-8.5 47.9-22.6 66.3v-85.5z" fill="#83A4FF" p-id="50149"></path><path d="M63.3 539.9a109.2 109.2 0 1 0 218.4 0 109.2 109.2 0 1 0-218.4 0z" fill="#A4BEFF" p-id="50150"></path><path d="M251.6 577.5c0-60.3-48.9-109.2-109.2-109.2-25.7 0-49.3 8.9-68 23.8 17.7-36.4 54.9-61.5 98.1-61.5 60.3 0 109.2 48.9 109.2 109.2 0 34.6-16.1 65.3-41.2 85.3 7-14.3 11.1-30.5 11.1-47.6z" fill="#C7D8FF" p-id="50151"></path><path d="M706.1 859.9H316.6c-19.2 0-34.9-15.7-34.9-34.9v-65.8c0-19.2 15.7-34.9 34.9-34.9h389.5c19.2 0 34.9 15.7 34.9 34.9V825c0 19.2-15.7 34.9-34.9 34.9z" fill="#83A4FF" p-id="50152"></path><path d="M706.1 724.3H316.6c-19.2 0-34.9 15.7-34.9 34.9v22.6c0-19.2 15.7-34.9 34.9-34.9h389.5c19.2 0 34.9 15.7 34.9 34.9v-22.6c0-19.2-15.7-34.9-34.9-34.9z" fill="#A4BEFF" p-id="50153"></path><path d="M706.6 724.3H316.1c-18.9 0-34.4-15.5-34.4-34.4 0-55.6 45.5-101.1 101.1-101.1h257.1c55.6 0 101.1 45.5 101.1 101.1 0 18.9-15.5 34.4-34.4 34.4z" fill="#E5ECFF" p-id="50154"></path><path d="M713.9 724.3H308.8c-14.9 0-27.1-12.2-27.1-27.1 0-43.8 35.8-79.6 79.6-79.6h300.1c43.8 0 79.6 35.8 79.6 79.6 0 14.9-12.2 27.1-27.1 27.1z" fill="#C7D8FF" p-id="50155"></path><path d="M322 259.5c0.6-4.9 4.6-8.6 12-11.1s16.7-4.1 28.1-5.1c11.4-0.9 24-1.2 38-0.9 14 0.3 28.1 0.8 42.4 1.6s28 1.5 41.2 2.3c13.2 0.8 24.7 1.2 34.6 1.2 14.4 0 29.9-0.5 46.3-1.6s32.1-2.5 47-4.1c14.9-1.7 28.1-3.5 39.6-5.5s19.7-3.9 24.7-5.8c4.9-1.8 8.8-1.6 11.5 0.7s4.8 5.8 6.2 10.4 2.2 10.1 2.3 16.4c0.2 6.3-0.1 12.5-0.7 18.7-0.6 6.1-1.8 13.8-3.7 23-1.8 9.2-3.8 19.5-5.8 30.9-2 11.4-3.8 23.4-5.3 36.2-1.5 12.7-2.3 25.4-2.3 38 0 8.6 0.3 18.4 0.9 29.5 0.6 11.1 1.5 22.6 2.5 34.6s2.4 23.9 3.9 35.7c1.5 11.8 3.1 22.7 4.8 32.5 1.7 9.8 3.4 18.3 5.1 25.3 1.7 7.1 3.3 11.8 4.8 14.3 2.5 3.7 3.5 6.8 3 9.4-0.5 2.6-2.1 4.8-4.8 6.7-2.8 1.8-6.5 3.6-11.3 5.3-4.8 1.7-10.1 3.5-15.9 5.3-6.1 1.8-14.2 1.8-24.2 0s-21.5-4.2-34.6-7.1c-13.1-2.9-27.3-5.9-42.9-9s-31.7-4.9-48.6-5.5c-16.9-0.6-34.7 0.1-53.4 2.1-18.7 2-36.4 4.4-53 7.1-16.6 2.8-31.1 5.4-43.5 7.8-12.4 2.5-20.8 4-25.1 4.6-8.6 1.2-14.6-0.8-18-6-3.4-5.2-3.8-12.1-1.4-20.7 1.2-4.3 2.5-10.4 3.7-18.4 1.2-8 2.3-17.1 3.2-27.4 0.9-10.3 1.6-21.3 2.1-32.9 0.5-11.7 0.7-23.3 0.7-35 0-11.4 0.1-22.9 0.2-34.6s0.2-22.8 0.2-33.4c0-10.6-0.2-20.6-0.5-30-0.3-9.4-1.1-17.7-2.3-25.1s-2.8-14.7-4.6-21.9c-1.8-7.2-3.5-14.2-4.8-21-1.4-6.8-2.4-13.3-3-19.6-0.4-6.4-0.3-12.3 0.7-17.9z" fill="#F7554D" p-id="50156"></path><path d="M611.6 241.8c-14.9 1.7-30.6 3.1-47 4.1-16.4 1.1-31.9 1.6-46.3 1.6-9.8 0-21.3-0.4-34.6-1.2-13.2-0.8-27-1.5-41.2-2.3-14.3-0.8-28.4-1.3-42.4-1.6-14-0.3-26.6 0-38 0.9-11.4 0.9-20.7 2.6-28.1 5.1-7.4 2.5-11.4 6.1-12 11.1-0.9 5.5-1.1 11.4-0.5 17.7 0.6 6.3 1.6 12.8 3 19.6 1.4 6.8 3 13.7 4.8 21 1.8 7.2 3.4 14.5 4.6 21.9 1.2 7.4 2 15.7 2.3 25.1 0.3 9.4 0.5 19.4 0.5 30 0 10.6-0.1 21.7-0.2 33.4-0.2 11.7-0.2 23.2-0.2 34.6 0 11.7-0.2 23.3-0.7 35-0.5 11.7-1.2 22.7-2.1 32.9-0.9 10.3-2 19.4-3.2 27.4-1.2 8-2.5 14.1-3.7 18.4-0.7 2.4-1.1 4.6-1.3 6.8 9.7 0.9 19.5 1.4 29.5 1.4 172.9 0 313.1-134.5 313.1-300.4 0-17.2-1.6-34-4.5-50.4-3.6 0.8-7.5 1.6-12.1 2.4-11.6 2-24.8 3.8-39.7 5.5z" fill="#FF7E71" p-id="50157"></path></svg>