<?xml version="1.0" standalone="no"?><!DOCTYPE svg PUBLIC "-//W3C//DTD SVG 1.1//EN" "http://www.w3.org/Graphics/SVG/1.1/DTD/svg11.dtd"><svg t="1596783817291" class="icon" viewBox="0 0 1024 1024" version="1.1" xmlns="http://www.w3.org/2000/svg" p-id="1282" xmlns:xlink="http://www.w3.org/1999/xlink" width="200" height="200"><defs><style type="text/css"></style></defs><path d="M64 973.312c-15.872-15.872-15.872-41.984 0-57.856l181.248-181.248c4.096-4.096 10.24-4.09600001 14.336-1e-8l43.52 43.52000001c4.096 4.096 4.09600001 10.24 0 14.336l-181.248 181.248c-15.872 15.872-41.984 15.872-57.856 0z" fill="#ee537a" p-id="1283"></path><path d="M572.52864 428.22144001l36.20352 36.20352-309.53984 309.53983999-36.1984-36.1984z" fill="#ee537a" p-id="1284"></path><path d="M571.392 573.952l-108.544-108.544c-10.24-10.24-10.24-26.112 0-36.352s26.112-10.24 36.352 0L607.744 537.6c10.24 10.24 10.24 26.112 0 36.352-9.728 10.24-26.112 10.24-36.352 0zM645.12 500.736L536.57599999 392.192l39.42400001-76.288L720.896 460.8zM905.728 240.128L797.184 131.584l-76.288 39.936 144.896 144.38400001z" fill="#ee537a" p-id="1285"></path><path d="M800.256 576.512l-347.648-347.648c-4.096-4.096-4.09600001-10.24 0-14.336L619.00800001 47.616c4.096-4.096 10.24-4.09600001 14.33599999 0L980.992 395.264c4.096 4.096 4.09600001 10.24 0 14.336l-166.4 166.4c-4.096 4.608-10.752 4.608-14.336 0.512z" fill="#DCDDDD" p-id="1286"></path><path d="M423.936 221.696c0-9.728 3.58399999-18.432 10.752-25.6L601.088 29.696c13.824-13.824 36.864-13.824 50.688 0L998.912 377.344c13.824 13.824 13.824 36.864 0 50.688l-166.4 166.4c-13.824 13.824-36.864 13.824-50.688 0l-347.648-347.648c-6.656-6.656-10.24-15.872-10.24-25.088zM626.176 76.8L481.28 221.696l325.632 325.632L952.32 402.432 626.176 76.8z" fill="#ee537a" p-id="1287"></path><path d="M592.896 577.536l19.456-16.896c0.512 0.512 27.648 31.744 57.856 60.416 3.584 3.584 7.168 6.656 10.752 9.72800001 6.14399999-17.92 20.48-30.72 38.912-33.28000001 18.944-2.56 39.424 15.36 47.104 34.304 8.192 19.968 2.048 39.424-15.872 52.736-9.728 7.168-22.528 7.168-39.424-0.512 5.632 8.192 13.824 14.848 24.576 17.408 11.776 3.072 22.528 1.024 33.792-6.144 47.104-30.20800001 77.312-144.384 84.992-185.344l25.08799999 4.608c-1.024 6.656-30.208 159.744-96.25599999 202.24-16.896 10.75200001-35.328 13.824-53.76 9.216-32.256-8.192-50.176-36.864-52.736-65.024-7.68-6.14399999-15.872-13.312-25.088-22.016-31.232-28.672-58.368-60.416-59.392-61.44z m152.576 71.68c0-2.048-0.512-4.608-1.536-6.656-4.096-11.776-16.384-19.968-20.48-19.968-15.872 2.56-19.456 18.43200001-20.48 26.112 25.6 18.432 33.28 15.36 33.28 15.36 6.144-4.608 9.216-9.216 9.216-14.848zM683.52 160.256l0 25.6-74.752 0 0-25.6zM703.48800001 204.8l-1e-8 25.6-132.608 0 1e-8-25.6z" fill="#ee537a" p-id="1288"></path></svg>