<?xml version="1.0" standalone="no"?><!DOCTYPE svg PUBLIC "-//W3C//DTD SVG 1.1//EN" "http://www.w3.org/Graphics/SVG/1.1/DTD/svg11.dtd"><svg t="1596785479329" class="icon" viewBox="0 0 1024 1024" version="1.1" xmlns="http://www.w3.org/2000/svg" p-id="59661" xmlns:xlink="http://www.w3.org/1999/xlink" width="200" height="200"><defs><style type="text/css"></style></defs><path d="M 596.783 488.53 s 35.0078 167.005 165.619 106.465 c 0 0 -54.5801 -51.759 -31.7153 -82.1587 c 22.8508 -30.4208 111.848 -121.339 111.848 -121.339 s 72.7313 74.4761 8.49165 145.259 c 0 0 64.0497 -54.4324 140.967 7.81627 c 0 0 -105.981 161.587 -174.948 98.0934 c 0 0 -124.716 196.405 -424.386 219.862" fill="#7dc5eb" p-id="59662"></path><path d="M 315.087 265.517 s -16.5189 -24.7855 -57.8164 -22.0347 c -41.2974 2.75785 -16.5189 -60.5602 28.9082 -52.3077 c 45.4342 8.25949 23.4066 44.0482 28.9082 74.3424 Z M 319.654 190.436 s 0.703534 -18.6577 -21.2819 -32.4259 c -21.9924 -13.7681 13.8596 -36.83 33.8892 -15.9562 c 20.0437 20.8808 -4.29156 30.9696 -12.6073 48.382 Z M 328.933 265.517 s 16.5189 -24.7855 57.8093 -22.0347 c 41.3045 2.75785 16.533 -60.5602 -28.9012 -52.3077 c -45.4272 8.25949 -23.4066 44.0482 -28.9082 74.3424 Z" fill="#2595ce" p-id="59663"></path><path d="M 322.003 581.242 m -290.003 0 a 290.003 290.003 0 1 0 580.007 0 a 290.003 290.003 0 1 0 -580.007 0 Z" fill="#7dc5eb" p-id="59664"></path><path d="M 32.387 596.263 s 99.7256 39.3698 174.385 -6.86649 c 42.3457 -26.2208 38.4059 161.693 161.257 194.618 c 122.844 32.9183 326.75 -16.2235 449.023 -141.347 c 0 0 -258.331 375.715 -638.703 201.597 c 0 0.007035 -140.052 -59.8356 -145.962 -248.003 Z" fill="#d8d8d8" p-id="59665"></path><path d="M 280.017 579.504 c -0.0633178 22.1895 3.00409 44.3227 9.21629 65.3794 c 1.59702 5.24836 3.41917 10.4123 5.48756 15.4777 c 2.10356 5.04434 4.50262 9.94097 7.11273 14.7109 l 4.22121 6.95795 l 4.70664 6.60619 l 5.11469 6.26849 c 1.76587 2.02618 3.73576 3.86944 5.5931 5.81823 c 3.92572 3.65838 8.02028 7.15494 12.53 10.0605 c 2.15281 1.61109 4.49558 2.91967 6.86649 4.17196 c 2.34277 1.30857 4.67146 2.63826 7.19012 3.58099 c 4.86142 2.28649 10.0183 3.83426 15.1752 5.36093 c 5.26243 1.08344 10.4756 2.53975 15.8929 2.89856 l 8.0625 0.84424 l 8.12582 0.246237 c 5.42424 0.393979 10.8696 -0.372873 16.3079 -0.492474 c 5.42424 -0.443227 10.8414 -1.30154 16.2728 -1.92065 l 16.1391 -3.13072 l -1.80808 1.18897 c 1.35782 -1.92769 2.61714 -4.71368 3.68652 -7.23937 c 0.984947 -2.65232 1.8925 -5.35389 2.51865 -8.14692 c 0.823134 -2.74378 1.03419 -5.64937 1.59702 -8.46352 c 0.225131 -2.87745 0.612074 -5.74787 0.703534 -8.64643 c -0.0351769 -2.89856 0.112566 -5.81119 -0.0703537 -8.72382 l -0.752781 -8.73085 l -1.49853 -8.67457 c -0.40805 -2.91263 -1.39299 -5.71973 -2.05432 -8.58311 c -0.752782 -2.84932 -1.41411 -5.72677 -2.48347 -8.49869 l -2.89856 -8.37908 c -0.949772 -2.8071 -2.2302 -5.48756 -3.34178 -8.24542 c -1.16083 -2.72971 -2.24427 -5.50163 -3.48249 -8.2032 c -2.70157 -5.29058 -5.26947 -10.6796 -8.09768 -15.928 l -8.95598 -15.527 l 10.152 14.8164 c 3.15887 5.08655 6.07853 10.3349 9.1389 15.5129 c 1.41411 2.64529 2.6875 5.38204 4.03125 8.0625 c 1.28043 2.72971 2.79303 5.35389 3.86944 8.17507 l 3.29254 8.43537 c 1.18897 2.786 1.98397 5.71269 2.86339 8.61126 c 0.794993 2.91967 1.90657 5.76194 2.4483 8.759 l 1.88547 8.93488 l 1.13269 9.09669 c 0.309555 3.0463 0.274378 6.12074 0.429156 9.19519 c 0.0211059 3.07445 -0.260307 6.15592 -0.415085 9.23739 c -0.548756 3.05333 -0.745746 6.15592 -1.60405 9.17408 a 69.1292 69.1292 0 0 1 -2.66639 8.98413 c -1.24525 2.97594 -2.34277 5.72677 -4.38302 8.73788 l -0.640216 0.949772 l -1.16786 0.239201 l -16.5049 3.41214 c -5.58606 0.72464 -11.151 1.66034 -16.7652 2.20207 c -5.64937 0.204024 -11.2636 1.04123 -16.9481 0.72464 l -8.51276 -0.161812 c -2.8282 -0.182918 -5.65642 -0.61911 -8.48462 -0.928665 c -5.67752 -0.450262 -11.2284 -2.04728 -16.7793 -3.27847 c -5.47349 -1.68144 -10.9329 -3.41214 -16.1109 -5.91672 c -2.67343 -1.04123 -5.14987 -2.49051 -7.64741 -3.92572 a 55.3681 55.3681 0 0 1 -7.28861 -4.55186 c -4.78403 -3.17294 -9.1178 -6.95795 -13.2475 -10.9118 c -1.94879 -2.0895 -4.01014 -4.0805 -5.86043 -6.25442 l -5.31872 -6.71171 l -4.68553 -7.13383 l -4.13678 -7.44338 a 159.463 159.463 0 0 1 -6.80317 -15.5129 a 181.976 181.976 0 0 1 -5.03027 -16.0969 a 197.482 197.482 0 0 1 -3.46842 -16.4486 a 229.077 229.077 0 0 1 -1.90657 -16.6456 c -0.84424 -11.1229 -1.04123 -22.302 0.0562828 -33.3757 Z" fill="#218588" p-id="59666"></path><path d="M 153.747 483.978 m -26.9594 0 a 26.9594 26.9594 0 1 0 53.9188 0 a 26.9594 26.9594 0 1 0 -53.9188 0 Z" fill="#434849" p-id="59667"></path><path d="M 163.927 478.786 m -10.1801 0 a 10.1801 10.1801 0 1 0 20.3603 0 a 10.1801 10.1801 0 1 0 -20.3603 0 Z" fill="#ffffff" p-id="59668"></path></svg>