<?xml version="1.0" standalone="no"?><!DOCTYPE svg PUBLIC "-//W3C//DTD SVG 1.1//EN" "http://www.w3.org/Graphics/SVG/1.1/DTD/svg11.dtd"><svg t="1595819342202" class="icon" viewBox="0 0 1024 1024" version="1.1" xmlns="http://www.w3.org/2000/svg" p-id="2769" xmlns:xlink="http://www.w3.org/1999/xlink" width="200" height="200"><defs><style type="text/css"></style></defs><path d="M539.306667 566.613333c71.68-44.373333 122.88-126.293333 122.88-218.453333 0-139.946667-116.053333-256-256-256S150.186667 204.8 150.186667 348.16c0 92.16 47.786667 170.666667 122.88 218.453333-129.706667 51.2-225.28 180.906667-225.28 331.093334 0 20.48 13.653333 34.133333 34.133333 34.133333s34.133333-13.653333 34.133333-34.133333c0-160.426667 129.706667-286.72 290.133334-286.72s290.133333 129.706667 290.133333 286.72c0 20.48 13.653333 34.133333 34.133333 34.133333s34.133333-13.653333 34.133334-34.133333c-3.413333-150.186667-95.573333-279.893333-225.28-331.093334z m-320.853334-218.453333c0-102.4 85.333333-187.733333 187.733334-187.733333s187.733333 81.92 187.733333 187.733333-85.333333 187.733333-187.733333 187.733333-187.733333-85.333333-187.733334-187.733333z" fill="#ffffff" p-id="2770"></path><path d="M805.546667 552.96c54.613333-37.546667 88.746667-98.986667 88.746666-170.666667 0-116.053333-92.16-208.213333-208.213333-208.213333-20.48 0-34.133333 13.653333-34.133333 34.133333s13.653333 34.133333 34.133333 34.133334c78.506667 0 139.946667 61.44 139.946667 139.946666s-61.44 139.946667-139.946667 139.946667c-20.48 0-34.133333 13.653333-34.133333 34.133333v6.826667c0 20.48 13.653333 34.133333 34.133333 34.133333 122.88 0 221.866667 98.986667 221.866667 218.453334 0 20.48 13.653333 34.133333 34.133333 34.133333s34.133333-13.653333 34.133333-34.133333c0-116.053333-68.266667-218.453333-170.666666-262.826667z" fill="#ffffff" p-id="2771"></path></svg>