<?xml version="1.0" standalone="no"?><!DOCTYPE svg PUBLIC "-//W3C//DTD SVG 1.1//EN" "http://www.w3.org/Graphics/SVG/1.1/DTD/svg11.dtd"><svg t="1593245493966" class="icon" viewBox="0 0 1024 1024" version="1.1" xmlns="http://www.w3.org/2000/svg" p-id="18758" xmlns:xlink="http://www.w3.org/1999/xlink" width="200" height="200"><defs><style type="text/css"></style></defs><path d="M512 85.333333c235.648 0 426.666667 191.018667 426.666667 426.666667s-191.018667 426.666667-426.666667 426.666667S85.333333 747.648 85.333333 512 276.352 85.333333 512 85.333333z m0 44.117334a382.549333 382.549333 0 1 0 0 765.098666 382.549333 382.549333 0 0 0 0-765.098666zM677.546667 618.666667c12.16 0 22.058667 9.898667 22.058666 22.058666 0 30.848-27.605333 65.109333-63.872 76.288-39.253333 12.074667-82.346667-2.048-123.733333-43.52-41.386667 41.472-84.48 55.594667-123.733333 43.52-36.266667-11.178667-63.872-45.44-63.872-76.288a22.058667 22.058667 0 0 1 44.16 0c0 10.666667 14.293333 28.416 32.682666 34.090667 25.813333 7.936 57.856-5.077333 93.824-48.213333a22.058667 22.058667 0 0 1 33.877334 0c35.968 43.136 68.010667 56.149333 93.824 48.213333 18.389333-5.674667 32.682667-23.381333 32.682666-34.090667 0-12.16 9.898667-22.058667 22.058667-22.058666zM364.842667 383.274667a55.168 55.168 0 1 1 0 110.336 55.168 55.168 0 0 1 0-110.336z m294.229333 0a55.168 55.168 0 1 1 0 110.336 55.168 55.168 0 0 1 0-110.336z" p-id="18759" fill="#e6e6e6"></path></svg>