<?xml version="1.0" standalone="no"?><!DOCTYPE svg PUBLIC "-//W3C//DTD SVG 1.1//EN" "http://www.w3.org/Graphics/SVG/1.1/DTD/svg11.dtd"><svg t="1593252252098" class="icon" viewBox="0 0 1401 1024" version="1.1" xmlns="http://www.w3.org/2000/svg" p-id="48130" xmlns:xlink="http://www.w3.org/1999/xlink" width="273.6328125" height="200"><defs><style type="text/css"></style></defs><path d="M433.583158 925.049263a154.031158 154.031158 0 0 0 106.981053 42.900211h646.898526a154.677895 154.677895 0 0 0 154.51621-154.570106V208.464842A154.677895 154.677895 0 0 0 1187.462737 53.894737H540.564211c-40.043789 0-77.985684 15.36-106.981053 43.115789l-0.862316-0.377263-359.531789 357.645474a66.452211 66.452211 0 0 0-1.347369 92.429474l360.825263 378.77221 0.916211-0.431158z m753.879579 96.794948H540.564211a207.279158 207.279158 0 0 1-144.114527-57.775158l-1.077895 0.431158L32.875789 583.895579A120.616421 120.616421 0 0 1 35.139368 416.067368l360.825264-358.938947 0.91621 0.431158A207.548632 207.548632 0 0 1 540.564211 0h646.898526A208.626526 208.626526 0 0 1 1395.873684 208.464842v604.914526a208.626526 208.626526 0 0 1-208.410947 208.464843z" fill="#dbdbdb" p-id="48131"></path><path d="M1050.408421 333.392842l-37.995789-38.103579-177.529264 177.583158-177.529263-177.583158-38.049684 38.103579 177.529263 177.475369-177.529263 177.583157 38.049684 37.99579 177.529263-177.475369 177.529264 177.475369 38.049684-37.99579-177.529263-177.583157z" fill="#dbdbdb" p-id="48132"></path></svg>