<?xml version="1.0" standalone="no"?><!DOCTYPE svg PUBLIC "-//W3C//DTD SVG 1.1//EN" "http://www.w3.org/Graphics/SVG/1.1/DTD/svg11.dtd"><svg t="1593769694439" class="icon" viewBox="0 0 1097 1024" version="1.1" xmlns="http://www.w3.org/2000/svg" p-id="9206" xmlns:xlink="http://www.w3.org/1999/xlink" width="214.2578125" height="200"><defs><style type="text/css"></style></defs><path d="M540.818286 0c28.818286 0 62.610286 19.456 62.610285 74.093714v875.154286C603.282286 1004.397714 569.782857 1024 540.964571 1024c-26.331429 0-55.588571-15.652571-86.747428-46.372571L224.621714 750.445714H120.612571C54.125714 750.445714 0 696.905143 0 631.222857V392.265143c0-65.828571 54.125714-119.222857 120.685714-119.222857H224.548571L454.290286 45.933714C484.937143 15.506286 514.194286 0 540.745143 0z m-17.993143 91.574857c-4.096 3.364571-8.045714 6.948571-11.702857 10.678857l-241.371429 238.665143a40.374857 40.374857 0 0 1-28.525714 11.702857H120.685714a40.082286 40.082286 0 0 0-40.228571 39.716572v238.738285c0 21.942857 18.139429 39.716571 40.228571 39.716572H241.371429c10.678857 0 20.845714 4.242286 28.379428 11.702857l241.517714 238.811429c4.242286 4.169143 8.118857 7.68 11.702858 10.678857V91.574857z m210.797714 243.2c10.532571 0 20.918857 3.876571 28.891429 11.776l119.149714 117.467429 119.222857-117.394286a40.96 40.96 0 0 1 57.782857 0 39.789714 39.789714 0 0 1-0.146285 56.978286l-119.003429 117.394285 119.003429 117.394286a39.789714 39.789714 0 0 1 0 56.905143 41.106286 41.106286 0 0 1-57.709715 0l-119.149714-117.321143-119.222857 117.248a41.106286 41.106286 0 0 1-57.636572 0 39.789714 39.789714 0 0 1 0-56.978286l119.003429-117.321142-119.003429-117.394286a39.789714 39.789714 0 0 1 0-56.978286 40.813714 40.813714 0 0 1 28.818286-11.776z" p-id="9207" fill="#ffffff"></path></svg>