<?xml version="1.0" standalone="no"?><!DOCTYPE svg PUBLIC "-//W3C//DTD SVG 1.1//EN" "http://www.w3.org/Graphics/SVG/1.1/DTD/svg11.dtd"><svg t="1594615473881" class="icon" viewBox="0 0 1024 1024" version="1.1" xmlns="http://www.w3.org/2000/svg" p-id="8859" xmlns:xlink="http://www.w3.org/1999/xlink" width="200" height="200"><defs><style type="text/css"></style></defs><path d="M488.727273 396.8V314.181818h-139.636364a23.272727 23.272727 0 0 1 0-46.545454h325.818182a23.272727 23.272727 0 1 1 0 46.545454h-139.636364v82.618182A232.727273 232.727273 0 0 1 744.727273 628.363636v23.272728a23.272727 23.272727 0 1 1-46.545455 0v-23.272728a186.181818 186.181818 0 0 0-162.909091-184.785454V791.272727a23.272727 23.272727 0 1 1-46.545454 0V443.578182A186.181818 186.181818 0 0 0 325.818182 628.363636v23.272728a23.272727 23.272727 0 1 1-46.545455 0v-23.272728a232.727273 232.727273 0 0 1 209.454546-231.563636zM512 977.454545C254.929455 977.454545 46.545455 769.070545 46.545455 512S254.929455 46.545455 512 46.545455s465.454545 208.384 465.454545 465.454545-208.384 465.454545-465.454545 465.454545z m0-46.545454a418.909091 418.909091 0 1 0 0-837.818182 418.909091 418.909091 0 0 0 0 837.818182z" fill="#ffffff" p-id="8860" data-spm-anchor-id="a313x.7781069.0.i2" class="selected"></path></svg>