<?xml version="1.0" standalone="no"?><!DOCTYPE svg PUBLIC "-//W3C//DTD SVG 1.1//EN" "http://www.w3.org/Graphics/SVG/1.1/DTD/svg11.dtd"><svg t="1592965305278" class="icon" viewBox="0 0 1024 1024" version="1.1" xmlns="http://www.w3.org/2000/svg" p-id="4552" data-spm-anchor-id="a313x.7781069.0.i1" xmlns:xlink="http://www.w3.org/1999/xlink" width="200" height="200"><defs><style type="text/css"></style></defs><path d="M512 977.454545C254.929455 977.454545 46.545455 769.070545 46.545455 512S254.929455 46.545455 512 46.545455s465.454545 208.384 465.454545 465.454545a465.454545 465.454545 0 0 1-465.454545 465.454545zM367.941818 246.039273a33.233455 33.233455 0 0 0 0 66.466909h288.116364a33.233455 33.233455 0 0 0 0-66.466909h-288.116364z m177.338182 123.205818V312.506182h-66.56v56.785454A210.106182 210.106182 0 0 0 279.272727 578.466909v44.311273a33.233455 33.233455 0 0 0 66.513455 0v-44.311273a143.639273 143.639273 0 0 1 132.980363-142.754909v310.318545a33.233455 33.233455 0 1 0 66.46691 0V435.758545a143.639273 143.639273 0 0 1 132.980363 142.75491v44.311272a33.233455 33.233455 0 0 0 66.513455 0v-44.311272a210.106182 210.106182 0 0 0-199.493818-209.268364z" fill="#707070" p-id="4553" data-spm-anchor-id="a313x.7781069.0.i2" class="selected"></path></svg>