<?xml version="1.0" standalone="no"?><!DOCTYPE svg PUBLIC "-//W3C//DTD SVG 1.1//EN" "http://www.w3.org/Graphics/SVG/1.1/DTD/svg11.dtd"><svg t="1594738104244" class="icon" viewBox="0 0 1024 1024" version="1.1" xmlns="http://www.w3.org/2000/svg" p-id="4377" xmlns:xlink="http://www.w3.org/1999/xlink" width="200" height="200"><defs><style type="text/css"></style></defs><path d="M773.458 1005.43c-14.403 0-30.582-4.132-45.599-11.638L513.567 886.61 297.948 993.618c-13.655 7.27-29.286 11.095-45.225 11.095a96.205 96.205 0 0 1-57.549-18.847c-30.177-22.63-45.64-61.85-38.502-97.551l44.099-228.762L31.744 501.996a104.059 104.059 0 0 1-26.281-100.66l0.338-1.162c12.288-36.828 42.772-62.633 79.734-67.584l234.839-42.7L425.779 75.811c16.932-33.895 51.37-55.675 87.788-55.675 37.99 0 73.318 22.6 88.13 56.29l105.068 213.4L941.64 330.89a95.677 95.677 0 0 1 78.264 68.373 98.98 98.98 0 0 1-24.474 101.002l-0.578 0.579-168.55 158.72 42.598 229.17c6.86 36.66-7.716 73.662-38.062 96.733a90.296 90.296 0 0 1-57.38 19.963zM513.644 806.03l225.095 112.564c6.615 3.338 14.234 5.427 19.44 5.427 8.029 0 15.484-2.468 20.947-7.03l1.029-0.84c12.79-9.605 19.02-24.842 16.225-39.787L751.068 632.35l179.175-168.725c10.992-11.151 14.755-27.12 9.87-41.81l-0.48-1.54a36.895 36.895 0 0 0-30.623-26.702l-1.024-0.158-247.91-43.346L548.51 123.438c-5.433-12.662-20.117-21.852-34.965-21.852-14.587 0-28.534 9.129-35.604 23.234L367.084 349.972l-249.222 45.272c-15.134 1.899-26.895 11.955-32.322 27.632-3.856 14.331 0.706 31.585 11.243 42.353l179.37 167.152-47.074 244.148c-2.826 14.11 3.855 30.366 16.225 39.654 6.2 4.66 14.234 7.23 22.656 7.23 6.492 0 12.724-1.516 18.09-4.404l0.772-0.45L513.644 806.03z" p-id="4378" fill="#ffffff"></path></svg>