<?xml version="1.0" standalone="no"?><!DOCTYPE svg PUBLIC "-//W3C//DTD SVG 1.1//EN" "http://www.w3.org/Graphics/SVG/1.1/DTD/svg11.dtd"><svg t="1594738122102" class="icon" viewBox="0 0 1102 1024" version="1.1" xmlns="http://www.w3.org/2000/svg" p-id="4791" xmlns:xlink="http://www.w3.org/1999/xlink" width="215.234375" height="200"><defs><style type="text/css"></style></defs><path d="M831.803 1023.37c-15.439 0-32.847-4.254-48.994-12.052l-230.794-111.3-232.212 111.064c-14.73 7.64-31.508 11.579-48.68 11.579a106.18 106.18 0 0 1-61.99-19.535C176.6 979.574 159.98 938.85 167.62 901.75l47.498-237.568L33.162 500.578A105.393 105.393 0 0 1 4.805 396.052l0.394-1.26a104.527 104.527 0 0 1 85.858-70.105l252.85-44.426L457.491 57.974A107.599 107.599 0 0 1 552.015 0.158c40.96 0 78.927 23.473 94.917 58.446l113.112 221.657 252.928 42.614c40.173 5.593 73.177 33.398 84.283 70.971 12.525 37.022 2.363 77.588-26.309 104.92l-0.63 0.63-181.563 164.786 45.923 238.04c7.404 38.046-8.35 76.486-40.96 100.51-17.566 13.549-39.385 20.874-61.834 20.638z m-279.63-203.54l245.13 118.154a53.957 53.957 0 0 0 21.267 5.75c8.664 0 16.778-2.6 22.764-7.404l1.103-0.867a41.826 41.826 0 0 0 17.723-41.747l-49.388-256.394 195.19-177.23a41.826 41.826 0 0 0 10.712-43.875l-0.472-1.576a39.778 39.778 0 0 0-33.398-28.12l-1.103-0.158-270.021-45.529-121.698-238.04c-5.908-13.312-21.898-22.922-38.046-22.922a44.583 44.583 0 0 0-38.833 24.418L392.428 340.756 120.99 388.332a42.142 42.142 0 0 0-35.21 28.987 47.104 47.104 0 0 0 12.288 44.505l195.347 175.577-51.278 256.472a42.772 42.772 0 0 0 62.07 44.584l0.787-0.473 247.1-118.154z" fill="#ffffff" p-id="4792"></path></svg>