<?xml version="1.0" standalone="no"?><!DOCTYPE svg PUBLIC "-//W3C//DTD SVG 1.1//EN" "http://www.w3.org/Graphics/SVG/1.1/DTD/svg11.dtd"><svg t="1594801965039" class="icon" viewBox="0 0 1024 1024" version="1.1" xmlns="http://www.w3.org/2000/svg" p-id="6087" xmlns:xlink="http://www.w3.org/1999/xlink" width="200" height="200"><defs><style type="text/css"></style></defs><path d="M657.590857 365.714286h-292.571428a18.285714 18.285714 0 0 1 0-36.571429h292.571428a18.285714 18.285714 0 1 1 0 36.571429z m-381.074286 0H256a18.285714 18.285714 0 0 1 0-36.571429h20.553143a18.285714 18.285714 0 0 1 0 36.571429z m527.36 146.285714h-292.571428a18.285714 18.285714 0 1 1 0-36.571429h292.571428a18.285714 18.285714 0 1 1 0 36.571429z m-381.074285 0H402.285714a18.285714 18.285714 0 1 1 0-36.571429h20.553143a18.285714 18.285714 0 1 1 0 36.571429zM219.428571 201.142857A128 128 0 0 0 91.428571 329.142857v402.285714A128 128 0 0 0 219.428571 859.428571h585.142858a128 128 0 0 0 128-128V329.142857A128 128 0 0 0 804.571429 201.142857H219.428571z m0-36.571428h585.142858A164.571429 164.571429 0 0 1 969.142857 329.142857v402.285714a164.571429 164.571429 0 0 1-164.571428 164.571429H219.428571A164.571429 164.571429 0 0 1 54.857143 731.428571V329.142857A164.571429 164.571429 0 0 1 219.428571 164.571429z" fill="#ffffff" p-id="6088"></path></svg>