<?xml version="1.0" standalone="no"?><!DOCTYPE svg PUBLIC "-//W3C//DTD SVG 1.1//EN" "http://www.w3.org/Graphics/SVG/1.1/DTD/svg11.dtd"><svg t="1594801818206" class="icon" viewBox="0 0 1024 1024" version="1.1" xmlns="http://www.w3.org/2000/svg" p-id="5548" xmlns:xlink="http://www.w3.org/1999/xlink" width="200" height="200"><defs><style type="text/css"></style></defs><path d="M791.272727 209.454545H232.727273c-65.163636 0-116.363636 51.2-116.363637 116.363637v325.818182c0 65.163636 51.2 116.363636 116.363637 116.363636h558.545454c65.163636 0 116.363636-51.2 116.363637-116.363636V325.818182c0-65.163636-51.2-116.363636-116.363637-116.363637z m69.818182 442.181819c0 39.563636-30.254545 69.818182-69.818182 69.818181H232.727273c-39.563636 0-69.818182-30.254545-69.818182-69.818181V325.818182c0-39.563636 30.254545-69.818182 69.818182-69.818182h558.545454c39.563636 0 69.818182 30.254545 69.818182 69.818182v325.818182z" p-id="5549" fill="#ee537a"></path><path d="M367.709091 325.818182l-130.327273 325.818182h55.854546l30.254545-79.127273h144.290909l30.254546 79.127273h55.854545l-128-325.818182h-58.181818z m-25.6 197.818182l53.527273-137.309091 53.527272 137.309091h-107.054545z" p-id="5550" fill="#ee537a"></path></svg>