<?xml version="1.0" standalone="no"?><!DOCTYPE svg PUBLIC "-//W3C//DTD SVG 1.1//EN" "http://www.w3.org/Graphics/SVG/1.1/DTD/svg11.dtd"><svg t="1594802088368" class="icon" viewBox="0 0 1024 1024" version="1.1" xmlns="http://www.w3.org/2000/svg" p-id="6628" xmlns:xlink="http://www.w3.org/1999/xlink" width="200" height="200"><defs><style type="text/css"></style></defs><path d="M767.305143 731.428571H364.434286a18.285714 18.285714 0 1 1 0-36.571428h402.870857a18.285714 18.285714 0 1 1 0 36.571428z m-490.788572 0H256a18.285714 18.285714 0 1 1 0-36.571428h20.553143a18.285714 18.285714 0 1 1 0 36.571428zM219.428571 201.142857A128 128 0 0 0 91.428571 329.142857v402.285714A128 128 0 0 0 219.428571 859.428571h585.142858a128 128 0 0 0 128-128V329.142857A128 128 0 0 0 804.571429 201.142857H219.428571z m0-36.571428h585.142858A164.571429 164.571429 0 0 1 969.142857 329.142857v402.285714a164.571429 164.571429 0 0 1-164.571428 164.571429H219.428571A164.571429 164.571429 0 0 1 54.857143 731.428571V329.142857A164.571429 164.571429 0 0 1 219.428571 164.571429z" fill="#ffffff" p-id="6629"></path></svg>