<?xml version="1.0" standalone="no"?><!DOCTYPE svg PUBLIC "-//W3C//DTD SVG 1.1//EN" "http://www.w3.org/Graphics/SVG/1.1/DTD/svg11.dtd"><svg t="1594801911727" class="icon" viewBox="0 0 1024 1024" version="1.1" xmlns="http://www.w3.org/2000/svg" p-id="5801" xmlns:xlink="http://www.w3.org/1999/xlink" width="200" height="200"><defs><style type="text/css"></style></defs><path d="M791.272727 209.454545H232.727273c-65.163636 0-116.363636 51.2-116.363637 116.363637v325.818182c0 65.163636 51.2 116.363636 116.363637 116.363636h558.545454c65.163636 0 116.363636-51.2 116.363637-116.363636V325.818182c0-65.163636-51.2-116.363636-116.363637-116.363637z m69.818182 442.181819c0 39.563636-30.254545 69.818182-69.818182 69.818181H232.727273c-39.563636 0-69.818182-30.254545-69.818182-69.818181V325.818182c0-39.563636 30.254545-69.818182 69.818182-69.818182h558.545454c39.563636 0 69.818182 30.254545 69.818182 69.818182v325.818182z" p-id="5802" fill="#ee537a"></path><path d="M318.836364 418.909091L232.727273 651.636364h37.236363l20.945455-55.854546h93.090909l20.945455 55.854546H442.181818l-83.781818-232.727273h-39.563636z m-16.290909 141.963636l34.90909-97.745454 34.909091 97.745454h-69.818181z" p-id="5803" fill="#ee537a"></path></svg>