<?xml version="1.0" standalone="no"?><!DOCTYPE svg PUBLIC "-//W3C//DTD SVG 1.1//EN" "http://www.w3.org/Graphics/SVG/1.1/DTD/svg11.dtd"><svg t="1592907330687" class="icon" viewBox="0 0 1024 1024" version="1.1" xmlns="http://www.w3.org/2000/svg" p-id="18042" xmlns:xlink="http://www.w3.org/1999/xlink" width="200" height="200"><defs><style type="text/css"></style></defs><path d="M886.6 601.7c0 0 60 5 60-57.3 0 0 0-89.7-88.7-391.3 0 0-27.5-88.5-61.2-88.5L438.2 64.6c-25 0-88.7 16.8-88.7 63.6l0 473.5c0 0 177.4 130.9 177.4 297.8 5 8.7-8.7 61.1 57.5 61.1 0 0 156.1-17.4 63.7-358.9L886.6 601.7 886.6 601.7zM251.6 601.6c0 0 36.3 0.5 36.3-36.2l0-480.6c0 0 0.2-20.1-25.5-20.1L138.7 64.7c0 0-30.4 0-30.4 30.4l-29.5 477.6c0 0 0.5 29 30 29L251.6 601.7 251.6 601.6z" p-id="18043" fill="#ee537a"></path></svg>