<?xml version="1.0" standalone="no"?><!DOCTYPE svg PUBLIC "-//W3C//DTD SVG 1.1//EN" "http://www.w3.org/Graphics/SVG/1.1/DTD/svg11.dtd"><svg t="1593011492334" class="icon" viewBox="0 0 1024 1024" version="1.1" xmlns="http://www.w3.org/2000/svg" p-id="2906" xmlns:xlink="http://www.w3.org/1999/xlink" width="200" height="200"><defs><style type="text/css"></style></defs><path d="M411.672 950.08c-52.253-28.864-89.675-79.616-91.803-139.327-3.09-111.553 80.061-166.273 129.294-241.026 70.448-107.52 51.223-174.207 51.223-174.207s58.775 30.848 92.97 145.344c10.643 33.856 12.84 67.776 9.613 99.649-5.288 80.64-42.71 153.28-42.71 153.28s65.163-12.93 83.29-123.457c30.006 28.864 57.746 70.656 60.904 114.496 5.357 75.712-42.64 145.344-115.355 175.168 125.861-26.88 215.81-126.4 246.778-199.104 39.481-91.52 28.838-173.183 22.384-243.904C849.745 420.48 886 348.736 886 348.736s-69.419 18.944-120.711 97.536c-23.482 35.904-33.095 88.575-33.095 88.575s5.356-46.72-27.81-132.35c-33.026-83.65-63.033-113.473-81.229-175.17C599.741 144.64 651.994 64 651.994 64s-207.09 35.904-301.158 204.096c-83.288 149.312-49.095 238.976-49.095 238.976s-35.293-30.912-53.42-73.728c-18.127-42.817-14.075-81.6-14.075-81.6S87.03 503.04 158.646 693.247C206.711 826.624 299.545 914.24 411.672 950.08" fill="#ff3b01" p-id="2907" data-spm-anchor-id="a313x.7781069.0.i1" class="selected"></path></svg>