<?xml version="1.0" standalone="no"?><!DOCTYPE svg PUBLIC "-//W3C//DTD SVG 1.1//EN" "http://www.w3.org/Graphics/SVG/1.1/DTD/svg11.dtd"><svg t="1593770970023" class="icon" viewBox="0 0 1024 1024" version="1.1" xmlns="http://www.w3.org/2000/svg" p-id="2897" xmlns:xlink="http://www.w3.org/1999/xlink" width="200" height="200"><defs><style type="text/css"></style></defs><path d="M160.6 512c0-19.1-15.5-34.6-34.6-34.6H34.6C15.5 477.4 0 492.9 0 512s15.5 34.6 34.6 34.6H126c19.1 0 34.6-15.5 34.6-34.6z m30.8 273l-65.6 63.8c-13.5 13.4-13.6 35.3-0.1 48.8l0.1 0.1 1.3 0.5c13.4 13.5 35.3 13.6 48.8 0.1l0.1-0.1 64.4-64.4c13.5-13.5 13.5-35.4 0-48.9-13.6-13.4-35.5-13.4-49 0.1z m641.2-546l65.6-63.8c13.5-13.4 13.6-35.3 0.1-48.8l-0.1-0.1-1.3-0.5c-13.4-13.5-35.3-13.6-48.8-0.1l-0.1 0.1-64.4 64.4c-13.5 13.5-13.5 35.4 0 48.9 13.6 13.4 35.5 13.4 49-0.1z m-320.7-78.8h0.3c19.1 0 34.5-15.4 34.5-34.5V34.6C546.6 15.5 531.1 0 512 0s-34.6 15.5-34.6 34.6v91.1c0 19.1 15.4 34.5 34.5 34.5z m-316.7 79c13.4 13.5 35.3 13.6 48.8 0.1l0.1-0.1 0.3 1c13.5-13.4 13.6-35.3 0.1-48.8l-0.1-0.1-62-65.9c-13.2-13.8-35.1-14.3-48.9-1-13.8 13.2-14.3 35.1-1 48.9l62.7 65.9z m633.6 545.6c-13.4-13.5-35.3-13.6-48.8-0.1l-0.1 0.1-0.3-1c-13.5 13.4-13.6 35.3-0.1 48.8l0.1 0.1 62 65.9c13.2 13.8 35.1 14.3 48.9 1 13.8-13.2 14.3-35.1 1-48.9l-62.7-65.9z m160.6-307.4h-91.1c-19.1 0-34.6 15.5-34.6 34.6s15.5 34.6 34.6 34.6h91.1c19.1 0 34.6-15.5 34.6-34.6s-15.5-34.6-34.6-34.6zM511.1 241.1c-149.4 0-270.9 121.5-270.9 270.9s121.5 270.9 270.9 270.9S781.9 661.4 781.9 512 660.4 241.1 511.1 241.1z m0 461.5c-105.3 0-190.6-85.4-190.6-190.6s85.4-190.6 190.6-190.6S701.7 406.7 701.7 512s-85.4 190.6-190.6 190.6z m1 161.2h-0.3c-19.1 0-34.5 15.4-34.5 34.5v91.1c0 19.1 15.5 34.6 34.6 34.6s34.6-15.5 34.6-34.6v-91.1c0.1-19.1-15.3-34.5-34.4-34.5z" p-id="2898" fill="#ffffff"></path></svg>