<?xml version="1.0" standalone="no"?><!DOCTYPE svg PUBLIC "-//W3C//DTD SVG 1.1//EN" "http://www.w3.org/Graphics/SVG/1.1/DTD/svg11.dtd"><svg t="1592907250545" class="icon" viewBox="0 0 1024 1024" version="1.1" xmlns="http://www.w3.org/2000/svg" p-id="17103" xmlns:xlink="http://www.w3.org/1999/xlink" width="200" height="200"><defs><style type="text/css"></style></defs><path d="M295.075 931.923c2.121 0 2.121 0 0 0 2.121 0 2.121 0 0 0 2.121 0 2.121 0 0 0z m-82.708-511.092H104.212c-21.207 0-40.294 19.086-40.294 40.294v430.504c0 23.328 16.966 40.294 40.294 40.294h108.156c21.207 0 40.294-19.087 40.294-40.294V461.125c-0.001-21.208-16.966-40.294-40.295-40.294z m733.767 14.845c-19.087-31.81-46.656-44.535-80.587-46.656-2.121 0-201.468-2.12-201.468-2.12 12.725-40.294 16.967-86.949 16.967-131.485 0-29.69-2.121-57.259-8.483-82.708C661.959 126.053 621.665 90 572.889 90c-57.259 0-93.312 48.777-93.312 108.156v10.604c-2.12 110.276-89.07 197.226-192.984 209.95v513.212h508.97c19.087 0 29.69-4.241 46.656-16.966 16.966-10.603 29.69-25.448 36.053-42.415 2.12-4.241 80.587-352.037 82.707-373.245 2.12-21.206-2.12-42.412-14.845-63.62z" fill="#ee537a" p-id="17104"></path></svg>