<?xml version="1.0" standalone="no"?><!DOCTYPE svg PUBLIC "-//W3C//DTD SVG 1.1//EN" "http://www.w3.org/Graphics/SVG/1.1/DTD/svg11.dtd"><svg t="1594632782295" class="icon" viewBox="0 0 1024 1024" version="1.1" xmlns="http://www.w3.org/2000/svg" p-id="4279" xmlns:xlink="http://www.w3.org/1999/xlink" width="200" height="200"><defs><style type="text/css"></style></defs><path d="M783.1 452.5H355.2V297.6c0-80.9 70.3-146.7 156.8-146.7s156.8 65.8 156.8 146.7v153.9h92.9V297.6C761.7 168.8 649.7 64 512 64S262.3 168.8 262.3 297.6v154.8h-21.4c-51.2 0-92.9 39-92.9 86.9V873c0 47.9 41.7 86.9 92.9 86.9h542.2c51.2 0 92.9-39 92.9-86.9V539.4c0-48-41.7-86.9-92.9-86.9zM240.9 873.1V539.4h542.2l0.1 333.7H240.9z" p-id="4280" fill="#ffffff"></path><path d="M533.8 697.8v-76.4c0-11.3-9.7-20.4-21.8-20.4-12 0-21.8 9.1-21.8 20.4v76.4c-15.5 7.1-26.1 21.9-26.1 39.1v2.7c0 24 20.8 43.5 46.4 43.5h2.9c25.7 0 46.4-19.5 46.4-43.5v-2.7c0.1-17.2-10.6-32.1-26-39.1z" p-id="4281" fill="#ffffff"></path></svg>