<?xml version="1.0" standalone="no"?><!DOCTYPE svg PUBLIC "-//W3C//DTD SVG 1.1//EN" "http://www.w3.org/Graphics/SVG/1.1/DTD/svg11.dtd"><svg t="1593769077059" class="icon" viewBox="0 0 1024 1024" version="1.1" xmlns="http://www.w3.org/2000/svg" p-id="2090" xmlns:xlink="http://www.w3.org/1999/xlink" width="200" height="200"><defs><style type="text/css"></style></defs><path d="M228.04207 0.344043h0.062233v-0.344043l-0.062233 0.344043z m0 0M522.201533 121.723263c-28.948963-11.959325-62.257767-5.294511-84.381049 16.885134L243.197593 333.774946h-98.99761c-42.767062 0-77.432077 34.66619-77.432077 77.432077v232.296231a77.412115 77.412115 0 0 0 22.679858 54.749871 77.41329 77.41329 0 0 0 54.751044 22.679858h98.997611L437.819309 916.14063c22.12798 22.185516 55.446177 28.843284 84.401011 16.876914 28.956008-11.971067 47.846692-40.213156 47.852564-71.542241V193.233801c-0.017613-31.324389-18.914168-59.552388-47.871351-71.510538z m-29.560726 739.712116l-217.310969-217.933299H144.199983V411.207023h131.128681l217.310968-217.972048v668.200404zM828.503497 190.872465c-14.775079-15.458469-39.28553-16.012696-54.743999-1.236442-15.458469 14.772731-16.015045 39.282008-1.24114 54.741651a385.670313 385.670313 0 0 1 107.285182 267.529563 385.671487 385.671487 0 0 1-107.670322 267.914705c-14.184452 15.516005-13.395383 39.512153 1.775405 54.062958s39.179851 14.338273 54.091138-0.4826a463.042505 463.042505 0 0 0 129.232333-321.534986 463.054248 463.054248 0 0 0-128.728597-320.994849z" p-id="2091" fill="#ffffff"></path><path d="M802.370289 523.287677c0-82.037327-32.095845-159.123012-88.309955-216.574739-15.008747-14.954733-39.244433-15.065109-54.390562-0.258326-15.150826 14.807957-15.580587 39.038946-0.976942 54.382343a231.354515 231.354515 0 0 1 66.245382 162.449548 231.350992 231.350992 0 0 1-66.823094 162.993207 38.752439 38.752439 0 0 0 55.208987 54.398781h-0.039923a308.783069 308.783069 0 0 0 89.086107-217.390814z" p-id="2092" fill="#ffffff"></path></svg>