<?xml version="1.0" standalone="no"?><!DOCTYPE svg PUBLIC "-//W3C//DTD SVG 1.1//EN" "http://www.w3.org/Graphics/SVG/1.1/DTD/svg11.dtd"><svg t="1593248732670" class="icon" viewBox="0 0 1366 1024" version="1.1" xmlns="http://www.w3.org/2000/svg" p-id="40427" xmlns:xlink="http://www.w3.org/1999/xlink" width="266.796875" height="200"><defs><style type="text/css"></style></defs><path d="M955.733 901.12c-180.906 0-327.68-150.187-327.68-334.507s146.774-334.506 327.68-334.506 327.68 150.186 327.68 334.506c0 184.32-146.773 334.507-327.68 334.507z m0-600.747c-143.36 0-259.413 119.467-259.413 266.24 0 146.774 116.053 266.24 259.413 266.24s259.414-119.466 259.414-266.24c0-146.773-116.054-266.24-259.414-266.24z" p-id="40428" fill="#e6e6e6"></path><path d="M1307.307 1000.107c-10.24 0-17.067-3.414-23.894-10.24l-143.36-143.36c-13.653-13.654-13.653-34.134 0-47.787 13.654-13.653 34.134-13.653 47.787 0l143.36 143.36c13.653 13.653 13.653 34.133 0 47.787-6.827 6.826-13.653 10.24-23.893 10.24zM1054.72 75.093H51.2c-20.48 0-34.133-13.653-34.133-34.133S30.72 6.827 51.2 6.827h1000.107c20.48 0 34.133 13.653 34.133 34.133s-13.653 34.133-30.72 34.133zM481.28 477.867H51.2c-20.48 0-34.133-13.654-34.133-34.134S30.72 409.6 51.2 409.6h433.493c20.48 0 34.134 13.653 34.134 34.133s-17.067 34.134-37.547 34.134zM518.827 887.467H51.2c-20.48 0-34.133-13.654-34.133-34.134S30.72 819.2 51.2 819.2h467.627c20.48 0 34.133 13.653 34.133 34.133s-13.653 34.134-34.133 34.134z" p-id="40429" fill="#e6e6e6"></path></svg>