<?xml version="1.0" standalone="no"?><!DOCTYPE svg PUBLIC "-//W3C//DTD SVG 1.1//EN" "http://www.w3.org/Graphics/SVG/1.1/DTD/svg11.dtd"><svg t="1593255540479" class="icon" viewBox="0 0 1024 1024" version="1.1" xmlns="http://www.w3.org/2000/svg" p-id="53291" xmlns:xlink="http://www.w3.org/1999/xlink" width="200" height="200"><defs><style type="text/css"></style></defs><path d="M620.741632 858.042368h-0.004096c-13.331456-0.006144-26.293248-5.516288-34.6624-14.751744-11.404288-12.504064-47.538176-45.018112-77.115392-45.018112-29.37344 0-66.06848 32.702464-76.607488 44.155904-8.348672 9.079808-21.220352 14.49984-34.422784 14.49984-6.291456 0-12.224512-1.204224-17.645568-3.586048l-0.949248-0.411648-89.903104-50.2784-0.896-0.623616c-16.36352-11.457536-22.592512-33.867776-14.482432-52.127744 0.062464-0.13824 8.293376-19.130368 8.293376-36.446208 0-52.549632-42.754048-95.30368-95.302656-95.30368h-3.186688a13.9776 13.9776 0 0 1-0.576512 0.012288c-15.055872 0-27.309056-13.372416-31.230976-34.069504-0.310272-1.657856-7.666688-40.907776-7.666688-71.831552 0-30.927872 7.354368-70.181888 7.666688-71.840768 3.964928-20.957184 16.4864-34.418688 31.808512-34.05824h3.186688c52.548608 0 95.301632-42.753024 95.301632-95.299584 0-17.31072-8.225792-36.299776-8.312832-36.489216-8.101888-18.240512-1.830912-40.648704 14.608384-52.069376l0.930816-0.64512 94.87872-52.117504 0.98816-0.418816c5.34528-2.2784 11.194368-3.432448 17.393664-3.432448 13.177856 0 26.070016 5.302272 34.500608 14.184448 11.229184 11.756544 46.724096 42.33728 75.454464 42.33728 28.46208 0 63.740928-29.974528 74.934272-41.527296 8.382464-8.699904 21.184512-13.912064 34.2272-13.912064 6.325248 0 12.284928 1.196032 17.717248 3.556352l0.960512 0.418816 91.638784 50.911232 0.905216 0.63488c16.398336 11.440128 22.641664 33.851392 14.52544 52.1216-0.059392 0.139264-8.293376 19.132416-8.293376 36.448256 0 52.545536 42.754048 95.299584 95.299584 95.299584h3.191808c15.296512-0.342016 27.836416 13.097984 31.803392 34.05824 0.31232 1.657856 7.666688 40.907776 7.666688 71.8336 0 30.928896-7.355392 70.180864-7.672832 71.83872-3.96288 20.958208-16.50176 34.369536-31.804416 34.056192h-3.18464c-52.545536 0-95.299584 42.754048-95.299584 95.30368 0 17.307648 8.225792 36.293632 8.30976 36.482048 8.09472 18.23232 1.837056 40.643584-14.569472 52.074496l-0.917504 0.644096-93.18912 51.506176-0.969728 0.41984c-5.33504 2.292736-11.158528 3.46112-17.32608 3.46112z m-2.828288-43.904c0.41472 0.272384 1.594368 0.734208 2.829312 0.734208 0.052224 0 0.098304 0 0.141312-0.002048l87.063552-48.119808c-2.102272-4.880384-11.710464-28.577792-11.710464-53.289984 0-73.918464 58.216448-134.494208 131.209216-138.281984 1.048576-5.801984 6.751232-38.43584 6.751232-62.915584 0-24.479744-5.701632-57.09824-6.751232-62.916608-72.991744-3.790848-131.209216-64.367616-131.209216-138.279936 0-24.752128 9.637888-48.477184 11.71968-53.322752l-85.651456-47.586304c-0.098304-0.004096-0.219136-0.013312-0.359424-0.013312-1.4592 0-2.822144 0.533504-3.273728 0.838656-1.439744 1.477632-13.851648 14.067712-31.68768 26.611712-26.399744 18.571264-51.361792 27.990016-74.19904 27.990016-23.054336 0-48.218112-9.604096-74.786816-28.539904-17.9456-12.787712-30.41792-25.621504-31.859712-27.12576-0.454656-0.308224-1.83808-0.857088-3.308544-0.857088-0.114688 0-0.21504 0.004096-0.305152 0.009216l-88.718336 48.728064c2.12992 4.941824 11.701248 28.597248 11.701248 53.26848 0 73.91232-58.215424 134.489088-131.209216 138.279936-1.047552 5.805056-6.750208 38.433792-6.750208 62.916608 0 24.476672 5.701632 57.095168 6.756352 62.911488 72.9856 3.791872 131.203072 64.365568 131.203072 138.281984 0 24.802304-9.675776 48.566272-11.737088 53.3504l83.969024 46.952448c0.053248 0.008192 0.11776 0.008192 0.188416 0.008192 1.225728 0 2.387968-0.449536 2.804736-0.717824 1.569792-1.68448 14.108672-14.959616 32.176128-28.201984 26.923008-19.733504 52.51072-29.737984 76.050432-29.737984 23.760896 0 49.543168 10.19392 76.623872 30.308352 18.17088 13.485056 30.765056 27.006976 32.329728 28.719104z m-108.6464-175.44192c-69.98016 0-126.913536-56.936448-126.913536-126.916608s56.9344-126.91456 126.913536-126.91456c69.982208 0 126.91968 56.9344 126.91968 126.91456-0.001024 69.98016-56.937472 126.916608-126.91968 126.916608z m0-210.663424c-46.176256 0-83.741696 37.567488-83.741696 83.743744 0 46.181376 37.566464 83.74784 83.741696 83.74784 46.180352 0 83.753984-37.566464 83.753984-83.74784-0.001024-46.176256-37.571584-83.743744-83.753984-83.743744z" p-id="53292" fill="#e6e6e6"></path></svg>