<?xml version="1.0" standalone="no"?><!DOCTYPE svg PUBLIC "-//W3C//DTD SVG 1.1//EN" "http://www.w3.org/Graphics/SVG/1.1/DTD/svg11.dtd"><svg t="1592898991913" class="icon" viewBox="0 0 1024 1024" version="1.1" xmlns="http://www.w3.org/2000/svg" p-id="52707" xmlns:xlink="http://www.w3.org/1999/xlink" width="200" height="200"><defs><style type="text/css"></style></defs><path d="M839.964444 611.555556h83.768889v184.888888a56.888889 56.888889 0 0 1-56.888889 56.888889h-711.111111a56.888889 56.888889 0 0 1-56.888889-56.888889V227.555556a56.888889 56.888889 0 0 1 56.888889-56.888889h327.111111v85.333333H214.186667a28.444444 28.444444 0 0 0-28.444445 28.444444v455.111112a28.444444 28.444444 0 0 0 28.444445 28.444444h597.333333a28.444444 28.444444 0 0 0 28.444444-28.444444z m28.444445-440.888889h-256a56.888889 56.888889 0 0 0-56.888889 56.888889v256a56.888889 56.888889 0 0 0 56.888889 56.888888h256a56.888889 56.888889 0 0 0 56.888889-56.888888V227.555556a56.888889 56.888889 0 0 0-56.888889-56.888889z m-56.888889 284.444444h-142.222222a28.444444 28.444444 0 0 1-28.444445-28.444444V284.444444a28.444444 28.444444 0 0 1 28.444445-28.444444h142.222222a28.444444 28.444444 0 0 1 28.444444 28.444444v142.222223a28.444444 28.444444 0 0 1-28.444444 28.444444z" fill="#ffffff" p-id="52708"></path></svg>