<?xml version="1.0" standalone="no"?><!DOCTYPE svg PUBLIC "-//W3C//DTD SVG 1.1//EN" "http://www.w3.org/Graphics/SVG/1.1/DTD/svg11.dtd"><svg t="1594632677911" class="icon" viewBox="0 0 1025 1024" version="1.1" xmlns="http://www.w3.org/2000/svg" p-id="2139" xmlns:xlink="http://www.w3.org/1999/xlink" width="200.1953125" height="200"><defs><style type="text/css"></style></defs><path d="M846.560427 227.329167 762.801867 227.329167l-27.919179-55.636757c-16.464763-32.373844-25.008756-42.335185-55.837334-42.335185L344.01316 129.357225c-30.851092 0-41.029383 13.251428-55.838358 42.335185l-27.919179 55.636757-83.759583 0c-61.677623 0-111.677739 49.798515-111.677739 111.252023l0 445.078704c0 61.453508 50.000116 111.273514 111.677739 111.273514l670.065411 0c61.678646 0 111.676716-49.818982 111.676716-111.273514L958.238166 338.58119C958.238166 277.127682 908.239073 227.329167 846.560427 227.329167zM902.399808 790.311704c0 30.738523-25.00978 55.636757-55.838358 55.636757L176.493993 845.94846c-30.850068 0-55.837334-24.898234-55.837334-55.636757L120.656658 345.232999c0-30.714986 24.988289-55.63471 55.837334-55.63471l111.677739 0 27.919179-55.617313c19.73029-32.371798 24.988289-55.638804 55.837334-55.638804l279.195883 0c30.828578 0 36.084531 23.267006 55.837334 55.638804l27.918156 55.617313 111.678762 0c30.828578 0 55.838358 24.921771 55.838358 55.63471l0 445.078704L902.399808 790.311704z" p-id="2140" fill="#ffffff"></path><path d="M511.528233 323.590058c-123.35627 0-223.356501 99.645128-223.356501 222.553168 0 122.884503 100.000232 222.525537 223.356501 222.525537S734.883711 669.027729 734.883711 546.143226C734.883711 423.235186 634.884503 323.590058 511.528233 323.590058zM511.528233 713.029959c-92.528715 0-167.515074-74.719263-167.515074-166.88878 0-92.171564 74.986359-166.912317 167.515074-166.912317 92.506201 0 167.515074 74.740753 167.515074 166.912317C679.04433 638.31172 604.035458 713.029959 511.528233 713.029959z" p-id="2141" fill="#ffffff"></path></svg>