<?xml version="1.0" standalone="no"?><!DOCTYPE svg PUBLIC "-//W3C//DTD SVG 1.1//EN" "http://www.w3.org/Graphics/SVG/1.1/DTD/svg11.dtd"><svg t="1592894105762" class="icon" viewBox="0 0 1092 1024" version="1.1" xmlns="http://www.w3.org/2000/svg" p-id="7451" xmlns:xlink="http://www.w3.org/1999/xlink" width="213.28125" height="200"><defs><style type="text/css"></style></defs><path d="M136.533333 0h819.2a136.533333 136.533333 0 0 1 136.533334 136.533333v546.133334a136.533333 136.533333 0 0 1-136.533334 136.533333H136.533333a136.533333 136.533333 0 0 1-136.533333-136.533333V136.533333a136.533333 136.533333 0 0 1 136.533333-136.533333z m0 102.4a34.133333 34.133333 0 0 0-34.133333 34.133333v546.133334a34.133333 34.133333 0 0 0 34.133333 34.133333h819.2a34.133333 34.133333 0 0 0 34.133334-34.133333V136.533333a34.133333 34.133333 0 0 0-34.133334-34.133333H136.533333z" fill="#ffffff" p-id="7452"></path><path d="M273.066667 887.466667m51.2 0l443.733333 0q51.2 0 51.2 51.2l0 0q0 51.2-51.2 51.2l-443.733333 0q-51.2 0-51.2-51.2l0 0q0-51.2 51.2-51.2Z" fill="#ffffff" p-id="7453"></path><path d="M204.8 204.8h319.488v54.613333H396.4928v335.325867h-63.8976V259.413333H204.8V204.8z m330.410667 0h69.358933l107.042133 317.8496h1.6384L820.292267 204.8h69.358933L750.933333 594.7392H673.928533L535.210667 204.8z" fill="#ffffff" p-id="7454"></path></svg>