<?xml version="1.0" standalone="no"?><!DOCTYPE svg PUBLIC "-//W3C//DTD SVG 1.1//EN" "http://www.w3.org/Graphics/SVG/1.1/DTD/svg11.dtd"><svg t="1594738049758" class="icon" viewBox="0 0 1024 1024" version="1.1" xmlns="http://www.w3.org/2000/svg" p-id="2691" xmlns:xlink="http://www.w3.org/1999/xlink" width="200" height="200"><defs><style type="text/css"></style></defs><path d="M512 0A512 512 0 1 0 1024 512 512.292571 512.292571 0 0 0 512 0z m-94.208 647.168a283.794286 283.794286 0 0 1-71.68-10.24 8.484571 8.484571 0 0 1-4.096-2.048L286.72 667.648c-14.336 8.192-24.576 2.048-20.48-14.336 0 0 14.336-58.514286 12.288-58.514286a156.818286 156.818286 0 0 1-77.824-141.312c4.096-105.325714 94.208-187.245714 217.088-187.245714 112.64 0 204.8 69.632 221.184 161.792h-10.24c-112.64 0-204.8 77.824-204.8 174.08a154.770286 154.770286 0 0 0 6.144 45.056z m329.728 80.164571l16.384 33.353143c8.192 14.336 2.048 20.48-12.288 12.288a275.309714 275.309714 0 0 0-43.008-22.528 342.601143 342.601143 0 0 1-79.872 12.288c-104.448 0-190.464-71.68-190.464-159.744s86.016-160.036571 190.464-160.036571S819.2 514.340571 819.2 602.404571a149.796571 149.796571 0 0 1-71.68 124.928z m0 0" fill="#07B906" p-id="2692"></path><path d="M280.283429 369.225143a32.768 32.768 0 1 0 16.384-29.257143 32.768 32.768 0 0 0-16.384 29.257143z m416.621714 175.542857a29.257143 29.257143 0 1 0 29.257143-29.257143 29.257143 29.257143 0 0 0-29.257143 29.257143z m-154.770286 0a29.257143 29.257143 0 1 0 29.257143-29.257143 29.257143 29.257143 0 0 0-29.257143 29.257143z m-65.243428-175.542857a32.768 32.768 0 1 0 16.384-29.257143 32.182857 32.182857 0 0 0-16.384 29.257143z m0 0" fill="#07B906" p-id="2693"></path></svg>