<?xml version="1.0" standalone="no"?><!DOCTYPE svg PUBLIC "-//W3C//DTD SVG 1.1//EN" "http://www.w3.org/Graphics/SVG/1.1/DTD/svg11.dtd"><svg t="1591279353511" class="icon" viewBox="0 0 1024 1024" version="1.1" xmlns="http://www.w3.org/2000/svg" p-id="59750" data-spm-anchor-id="a313x.7781069.0.i62" xmlns:xlink="http://www.w3.org/1999/xlink" width="200" height="200"><defs><style type="text/css"></style></defs><path d="M511.999704 1023.999435a478.332125 478.332125 0 0 1-193.03824-40.35706A492.974359 492.974359 0 0 1 161.533521 873.749058 511.760442 511.760442 0 0 1 55.573509 711.057566a529.646936 529.646936 0 0 1 0-398.115649 511.760442 511.760442 0 0 1 105.960012-162.691492 492.974359 492.974359 0 0 1 157.427943-109.893317 481.853917 481.853917 0 0 1 386.076479 0A492.974359 492.974359 0 0 1 862.465887 150.250425a511.760442 511.760442 0 0 1 105.960011 162.691492 529.646936 529.646936 0 0 1 0 398.115649 511.760442 511.760442 0 0 1-105.960011 162.691492 492.974359 492.974359 0 0 1-157.427944 109.874177A478.332125 478.332125 0 0 1 511.999704 1023.999435z m0-979.976984C263.177423 44.022451 60.770067 253.951896 60.770067 511.999742s202.407356 467.97729 451.229637 467.97729S963.22934 770.047587 963.22934 511.999742 760.821985 44.022451 511.999704 44.022451z" p-id="59751" fill="#e6e6e6" data-spm-anchor-id="a313x.7781069.0.i64" class="selected"></path><path d="M653.570012 582.818391l-70.81865-70.818649 70.81865-70.81865a50.076441 50.076441 0 0 0-70.81865-70.818649l-70.818649 70.818649-70.818649-70.818649a50.076441 50.076441 0 0 0-70.818649 70.818649l70.818649 70.81865-70.818649 70.818649a50.076441 50.076441 0 0 0 70.818649 70.818649l70.818649-70.818649 70.818649 70.818649a50.076441 50.076441 0 0 0 70.81865-70.818649z" fill="#ffffff" p-id="59752" data-spm-anchor-id="a313x.7781069.0.i60" class="selected"></path><path d="M354.868433 669.131012a72.139321 72.139321 0 0 1 0-101.911864l55.219406-55.219406-55.219406-55.219407A72.062761 72.062761 0 0 1 456.780298 354.868471l55.219406 55.219406 55.219406-55.219406A72.062761 72.062761 0 0 1 669.130974 456.780335l-55.219406 55.219407 55.219406 55.219406A72.062761 72.062761 0 0 1 567.21911 669.131012l-55.219406-55.219406-55.219406 55.219406a72.139321 72.139321 0 0 1-101.911865 0z m70.81865-283.140616a28.043228 28.043228 0 1 0-39.658444 39.658444L472.34126 511.999742l-86.350901 86.350901a28.043228 28.043228 0 1 0 39.658443 39.658444l86.350902-86.350902 86.350901 86.350902a28.043228 28.043228 0 1 0 39.658444-39.658444L551.658147 511.999742l86.350902-86.350902a28.043228 28.043228 0 1 0-39.658444-39.658444l-86.350901 86.350902z" p-id="59753" fill="#e6e6e6" data-spm-anchor-id="a313x.7781069.0.i61" class=""></path></svg>