<?xml version="1.0" standalone="no"?><!DOCTYPE svg PUBLIC "-//W3C//DTD SVG 1.1//EN" "http://www.w3.org/Graphics/SVG/1.1/DTD/svg11.dtd"><svg t="1591279522243" class="icon" viewBox="0 0 1024 1024" version="1.1" xmlns="http://www.w3.org/2000/svg" p-id="63450" xmlns:xlink="http://www.w3.org/1999/xlink" width="200" height="200"><defs><style type="text/css"></style></defs><path d="M511.96388 0.03612c-282.710688 0-511.89164 229.217072-511.89164 512.03612 0 282.602328 229.180952 511.89164 511.89164 511.89164 282.746808 0 512-229.289312 512-511.89164C1023.96388 229.289312 794.710688 0.03612 511.96388 0.03612zM512 979.536367c-258.149136 0-467.428007-209.314991-467.428007-467.464127 0-258.185256 209.278871-467.464127 467.428007-467.464127 258.113016 0 467.428007 209.278871 467.428007 467.464127C979.428007 770.221376 770.149136 979.536367 512 979.536367zM644.95746 167.957672 254.464903 512.397319 537.283951 559.858907 397.716543 853.008254 765.923104 469.848042 504.161975 433.439153Z" p-id="63451" data-spm-anchor-id="a313x.7781069.0.i77" class="" fill="#e6e6e6"></path></svg>