<?xml version="1.0" standalone="no"?><!DOCTYPE svg PUBLIC "-//W3C//DTD SVG 1.1//EN" "http://www.w3.org/Graphics/SVG/1.1/DTD/svg11.dtd"><svg t="1591279463894" class="icon" viewBox="0 0 1024 1024" version="1.1" xmlns="http://www.w3.org/2000/svg" p-id="62291" data-spm-anchor-id="a313x.7781069.0.i71" xmlns:xlink="http://www.w3.org/1999/xlink" width="200" height="200"><defs><style type="text/css"></style></defs><path d="M512 60c60.824 0 119.884 11.97 175.539 35.578 53.804 22.823 102.18 55.49 143.784 97.096 41.605 41.606 74.273 89.985 97.097 143.793C952.029 392.129 964 451.198 964 512.033c0 60.814-11.971 119.867-35.579 175.518-22.823 53.8-55.491 102.173-97.097 143.776s-89.982 74.271-143.786 97.094C631.882 952.029 572.822 964 512 964c-60.827 0-119.889-11.971-175.546-35.579-53.804-22.823-102.18-55.49-143.785-97.094-41.604-41.603-74.27-89.976-97.092-143.775C71.97 631.901 60 572.849 60 512.033c0-60.836 11.97-119.906 35.578-175.567 22.822-53.809 55.489-102.188 97.093-143.793 41.604-41.605 89.979-74.272 143.783-97.095C392.11 71.97 451.172 60 512 60m0-60C229.983 0 0 229.983 0 512.033 0 794 229.983 1024 512 1024c282 0 512-230 512-511.967C1024 229.983 794 0 512 0z" fill="#e6e6e6" opacity=".56" p-id="62292" data-spm-anchor-id="a313x.7781069.0.i69" class="selected"></path><path d="M738.973 674.29H285.031v-61.196l103.8-101.48 51.128 50.351 164.999-161.9 134.786 131.69zM347.001 471.333c-34.085 0-61.971-27.113-61.971-60.423s27.112-61.198 61.971-61.198c34.083 0 61.971 27.112 61.971 60.423 0.001 33.31-27.888 61.198-61.971 61.198z" p-id="62293" data-spm-anchor-id="a313x.7781069.0.i72" class="selected" fill="#e6e6e6"></path><path d="M769.184 309.15c6.654 0 11.125 5.352 11.125 10.35v0.161l1.549 384.881c-0.026 5.592-5.11 10.308-11.125 10.308H253.268c-6.655 0-11.125-5.352-11.125-10.351V319.5c0-5.61 5.095-10.35 11.125-10.35h515.916m0-40H253.268c-27.888 0-51.125 22.466-51.125 50.35v384.999c0 27.113 22.465 50.351 51.125 50.351h517.464c27.888 0 51.125-22.461 51.125-50.351L820.309 319.5c0-27.112-22.465-50.35-51.125-50.35z" p-id="62294" data-spm-anchor-id="a313x.7781069.0.i70" class="selected" fill="#e6e6e6"></path></svg>