<?xml version="1.0" standalone="no"?><!DOCTYPE svg PUBLIC "-//W3C//DTD SVG 1.1//EN" "http://www.w3.org/Graphics/SVG/1.1/DTD/svg11.dtd"><svg t="1596790230274" class="icon" viewBox="0 0 1024 1024" version="1.1" xmlns="http://www.w3.org/2000/svg" p-id="17408" xmlns:xlink="http://www.w3.org/1999/xlink" width="200" height="200"><defs><style type="text/css"></style></defs><path d="M284.980144 717.843394c0 22.849939 18.523798 41.373737 41.373737 41.373737 22.849939 0 41.373737-18.523798 41.373738-41.373737 0-79.416889 64.605091-144.02198 144.021979-144.02198s144.011636 64.584404 144.011637 144.02198c0 22.849939 18.523798 41.373737 41.373737 41.373737 22.849939 0 41.373737-18.523798 41.373737-41.373737a225.28 225.28 0 0 0-66.415191-160.323232 228.346828 228.346828 0 0 0-42.770101-33.647192 153.632323 153.632323 0 0 0 40.680727-104.251475c0-85.033374-69.187232-154.220606-154.220606-154.220606s-154.220606 69.187232-154.220606 154.220606a153.565091 153.565091 0 0 0 37.888 101.138101 227.942141 227.942141 0 0 0-48.055596 36.760566 225.28 225.28 0 0 0-66.415192 160.323232z m230.79305-369.736404c39.473131 0 71.473131 32 71.473132 71.473131s-32 71.473131-71.473132 71.473132-71.473131-32-71.473131-71.473132c0.045253-39.45503 32.018101-71.427879 71.473131-71.473131z m431.43499-19.466344C871.229194 148.799354 692.448103 34.222545 497.308871 40.312242 302.170932 46.401939 130.882366 171.902707 66.264346 356.132202c-64.61802 184.229495-9.249616 389.229899 139.332525 515.877495 148.580848 126.647596 359.762747 148.848485 531.432727 55.867475 20.081778-10.90198 27.523879-36.02101 16.621899-56.102788-10.90198-20.081778-36.02101-27.523879-56.102788-16.621899a390.587475 390.587475 0 0 1-185.809454 46.990222c-215.00897 0-389.81301-174.752323-389.81301-389.554424 0-215.143434 174.897131-390.17503 389.864727-390.17503s389.823354 175.031596 389.823354 390.17503a389.232485 389.232485 0 0 1-94.714829 254.520889c-14.957899 17.286465-13.071515 43.425616 4.21495 58.383515 17.286465 14.957899 43.425616 13.071515 58.383515-4.21495 117.454869-136.067879 147.572364-326.977939 77.710222-492.595717v-0.041374z" fill="#ffffff" p-id="17409"></path></svg>