<?xml version="1.0" standalone="no"?><!DOCTYPE svg PUBLIC "-//W3C//DTD SVG 1.1//EN" "http://www.w3.org/Graphics/SVG/1.1/DTD/svg11.dtd"><svg t="1597073861912" class="icon" viewBox="0 0 1024 1024" version="1.1" xmlns="http://www.w3.org/2000/svg" p-id="5518" xmlns:xlink="http://www.w3.org/1999/xlink" width="200" height="200"><defs><style type="text/css"></style></defs><path d="M502.986719 194.21533c-238.769059 0-432.330496 306.896692-432.330496 306.896692S264.21766 808.002574 502.986719 808.002574C748.739842 814.458613 935.323355 501.110999 935.323355 501.110999S741.760894 194.21533 502.986719 194.21533z m-0.61603 552.026622c-203.565279 0-368.658338-245.748007-368.658338-245.748007s165.092036-245.780753 368.658338-245.780753c203.598025 0 368.628662 245.780753 368.628661 245.780753S705.968713 746.241952 502.370689 746.241952z m-1.913583-399.535579c-85.292572 0-154.404626 69.112054-154.404626 154.404626s69.112054 154.404626 154.404626 154.404625c85.258803 0 154.370857-69.112054 154.370857-154.404625S585.715909 346.706373 500.457106 346.706373z m0 247.044536c-51.140751 0-92.644003-41.438785-92.644003-92.638887 0-51.140751 41.475624-92.644003 92.644003-92.644003 51.201126 0 92.610234 41.470507 92.610234 92.644003 0 51.200102-41.409109 92.638887-92.610234 92.638887z m0 0" p-id="5519" fill="#ffffff"></path></svg>