<?xml version="1.0" standalone="no"?><!DOCTYPE svg PUBLIC "-//W3C//DTD SVG 1.1//EN" "http://www.w3.org/Graphics/SVG/1.1/DTD/svg11.dtd"><svg t="1592303986400" class="icon" viewBox="0 0 1024 1024" version="1.1" xmlns="http://www.w3.org/2000/svg" p-id="23549" xmlns:xlink="http://www.w3.org/1999/xlink" width="200" height="200"><defs><style type="text/css"></style></defs><path d="M512 512m-512 0a512 512 0 1 0 1024 0 512 512 0 1 0-1024 0Z" fill="#ee537a" p-id="23550" data-spm-anchor-id="a313x.7781069.0.i18" class="selected"></path><path d="M659.2 249.6H364.8c-19.2 0-32 12.8-32 32v492.8c0 19.2 12.8 32 32 32h294.4c19.2 0 32-12.8 32-32V281.6c0-19.2-12.8-32-32-32z m-6.4 518.4H371.2V288h281.6V768z" fill="#FFFFFF" p-id="23551" data-spm-anchor-id="a313x.7781069.0.i21" class="selected"></path><path d="M627.2 736H403.2V486.4l224-128zM441.6 217.6h147.2V256H441.6z" fill="#FFFFFF" p-id="23552" data-spm-anchor-id="a313x.7781069.0.i20" class="selected"></path></svg>