<?xml version="1.0" standalone="no"?><!DOCTYPE svg PUBLIC "-//W3C//DTD SVG 1.1//EN" "http://www.w3.org/Graphics/SVG/1.1/DTD/svg11.dtd"><svg t="1592707974175" class="icon" viewBox="0 0 1024 1024" version="1.1" xmlns="http://www.w3.org/2000/svg" p-id="4909" xmlns:xlink="http://www.w3.org/1999/xlink" width="200" height="200"><defs><style type="text/css"></style></defs><path d="M563.97 138.75c-14.24-9.76-32.39-11.7-48.27-5.01L251.62 292.18H113.24c-28.49 0-51.68 23.64-51.68 52.68v334.61c0 29.03 23.19 52.68 51.68 52.68h138.38l262.7 157.66 1.51 0.64c6.3 2.57 12.85 3.85 19.54 3.85 10.08 0 20.17-3.08 28.73-8.99 14.27-9.77 22.82-26.16 22.81-43.68V182.44c-0.13-17.61-8.57-33.93-22.94-43.69z m-40.96 683.46l-247.7-150.85-1.38-0.65c-6.18-2.57-12.73-3.85-19.54-3.85H125.33V357.19h129.05c6.68 0 13.24-1.29 19.54-3.85L523 201.84v620.37z m337.21-314.83l90.58-92.36c8.2-8.24 11.43-20.31 8.48-31.63-2.95-11.33-11.63-20.18-22.75-23.18-11.1-3.02-22.94 0.28-31.02 8.64l-90.59 92.36-90.59-92.36c-8.07-8.35-19.91-11.65-31.03-8.64-11.11 3-19.79 11.85-22.74 23.18-2.94 11.33 0.29 23.4 8.48 31.63l90.58 92.36-90.58 92.36c-8.19 8.23-11.42 20.3-8.48 31.63 2.95 11.33 11.63 20.18 22.74 23.19s22.95-0.29 31.03-8.64l90.59-92.36 90.59 92.36c8.07 8.35 19.92 11.65 31.02 8.64 11.12-3.01 19.8-11.86 22.75-23.19 2.95-11.33-0.28-23.4-8.48-31.63l-90.58-92.36z" p-id="4910" fill="#ffffff"></path></svg>