<?xml version="1.0" standalone="no"?><!DOCTYPE svg PUBLIC "-//W3C//DTD SVG 1.1//EN" "http://www.w3.org/Graphics/SVG/1.1/DTD/svg11.dtd"><svg t="1592826990122" class="icon" viewBox="0 0 1024 1024" version="1.1" xmlns="http://www.w3.org/2000/svg" p-id="21927" xmlns:xlink="http://www.w3.org/1999/xlink" width="200" height="200"><defs><style type="text/css"></style></defs><path d="M789.8 175.2H230.5v-55.9c0-30.9 25.1-55.9 55.9-55.9h447.5c30.9 0 55.9 25.1 55.9 55.9v55.9z m56 167.8H174.5v-56c0-30.9 25.1-55.9 55.9-55.9h559.4c30.9 0 55.9 25.1 55.9 55.9v56zM62.7 398.9h895l-93.9 469.4c-10.4 52.3-56.3 89.9-109.7 89.9H266.3c-53.4 0-99.3-37.6-109.7-89.9L62.7 398.9z m335.6 335.6H622v-55.9H398.3v55.9z" fill="#e6e6e6" p-id="21928" data-spm-anchor-id="a313x.7781069.0.i0" class="selected"></path></svg>