<?xml version="1.0" standalone="no"?><!DOCTYPE svg PUBLIC "-//W3C//DTD SVG 1.1//EN" "http://www.w3.org/Graphics/SVG/1.1/DTD/svg11.dtd"><svg t="1592667677799" class="icon" viewBox="0 0 1024 1024" version="1.1" xmlns="http://www.w3.org/2000/svg" p-id="16827" xmlns:xlink="http://www.w3.org/1999/xlink" width="200" height="200"><defs><style type="text/css"></style></defs><path d="M616.296296 208.592593l-208.592593 0C234.894222 208.592593 94.814815 339.26637 94.814815 500.451556c0 161.204148 140.079407 291.877926 312.888889 291.877926l94.416593 0L622.819556 872.296296l42.401185-83.911111C814.743704 766.426074 929.185185 646.068148 929.185185 500.451556 929.185185 339.26637 789.105778 208.592593 616.296296 208.592593zM644.342519 729.315556 606.814815 796.444444l-103.348148-64-81.540741 0C272.687407 732.444444 151.703704 627.920593 151.703704 498.972444 151.703704 370.024296 272.687407 265.481481 421.925926 265.481481l180.148148 0C751.312593 265.481481 872.296296 370.024296 872.296296 498.972444 872.296296 615.461926 773.44237 711.736889 644.342519 729.315556z" p-id="16828" fill="#e6e6e6"></path></svg>