<?xml version="1.0" standalone="no"?><!DOCTYPE svg PUBLIC "-//W3C//DTD SVG 1.1//EN" "http://www.w3.org/Graphics/SVG/1.1/DTD/svg11.dtd"><svg t="1592729398368" class="icon" viewBox="0 0 1024 1024" version="1.1" xmlns="http://www.w3.org/2000/svg" p-id="9729" xmlns:xlink="http://www.w3.org/1999/xlink" width="200" height="200"><defs><style type="text/css"></style></defs><path d="M853.333333 341.333333h-239.445333l47.914667-143.658666c8.618667-25.941333 4.266667-54.698667-11.733334-76.885334A85.717333 85.717333 0 0 0 580.778667 85.333333H512c-12.672 0-24.661333 5.632-32.810667 15.36L278.656 341.333333H170.666667c-47.061333 0-85.333333 38.272-85.333334 85.333334v384c0 47.061333 38.272 85.333333 85.333334 85.333333h567.765333a85.76 85.76 0 0 0 79.914667-55.381333l117.632-313.642667A42.666667 42.666667 0 0 0 938.666667 512v-85.333333c0-47.061333-38.272-85.333333-85.333334-85.333334zM170.666667 426.666667h85.333333v384H170.666667v-384z m682.666666 77.610666L738.432 810.666667H341.333333V399.445333L531.968 170.666667h48.896l-66.645333 199.808A42.581333 42.581333 0 0 0 554.666667 426.666667h298.666666v77.610666z" p-id="9730" fill="#e6e6e6"></path></svg>