<?xml version="1.0" standalone="no"?><!DOCTYPE svg PUBLIC "-//W3C//DTD SVG 1.1//EN" "http://www.w3.org/Graphics/SVG/1.1/DTD/svg11.dtd"><svg t="1592301759281" class="icon" viewBox="0 0 1024 1024" version="1.1" xmlns="http://www.w3.org/2000/svg" p-id="19033" xmlns:xlink="http://www.w3.org/1999/xlink" width="200" height="200"><defs><style type="text/css"></style></defs><path d="M826.770286 592.310857c0-86.016-27.282286-167.826286-77.787429-235.52L871.643429 234.057143v95.670857c0 15.981714 6.473143 30.427429 16.932571 40.886857a57.782857 57.782857 0 0 0 98.669714-40.850286V99.218286a57.636571 57.636571 0 0 0-16.822857-45.641143 57.636571 57.636571 0 0 0-45.677714-16.822857h-230.509714a57.782857 57.782857 0 0 0 0 115.565714h95.670857L667.245714 275.017143a392.155429 392.155429 0 0 0-235.556571-77.787429 392.521143 392.521143 0 0 0-279.405714 115.712A392.521143 392.521143 0 0 0 36.571429 592.347429c0 105.508571 41.106286 204.726857 115.712 279.369142A392.521143 392.521143 0 0 0 431.689143 987.428571c105.508571 0 204.763429-41.106286 279.369143-115.712a392.521143 392.521143 0 0 0 115.712-279.405714z m-395.081143 298.020572a296.082286 296.082286 0 0 1-210.724572-87.296 296.045714 296.045714 0 0 1-87.296-210.724572c0-79.579429 31.012571-154.441143 87.296-210.724571a296.082286 296.082286 0 0 1 210.724572-87.259429c79.579429 0 154.441143 30.976 210.724571 87.259429a296.045714 296.045714 0 0 1 87.259429 210.724571 296.082286 296.082286 0 0 1-87.259429 210.724572 296.045714 296.045714 0 0 1-210.724571 87.296z" fill="#4596F5" p-id="19034"></path></svg>