<?xml version="1.0" standalone="no"?><!DOCTYPE svg PUBLIC "-//W3C//DTD SVG 1.1//EN" "http://www.w3.org/Graphics/SVG/1.1/DTD/svg11.dtd"><svg t="1592299699238" class="icon" viewBox="0 0 1024 1024" version="1.1" xmlns="http://www.w3.org/2000/svg" p-id="18126" xmlns:xlink="http://www.w3.org/1999/xlink" width="200" height="200"><defs><style type="text/css"></style></defs><path d="M199.528 1022.797l-28.487-167.171L3.866 827.134l301.98-301.981 195.663 195.552-301.981 302.092z m0 0" fill="#F3C450" p-id="18127"></path><path d="M169.442 846.735L11.158 819.729l-7.292 7.405 167.175 28.492-1.599-8.891z m321.699-136.404l-294.688 294.688 2.963 17.778L501.51 720.704l-10.369-10.373z m0 0" fill="#F7D582" p-id="18128"></path><path d="M828.45 1022.797l28.486-167.171L1024 827.134 722.014 525.152 526.353 720.704l302.097 302.093z m0 0" fill="#F3C450" p-id="18129"></path><path d="M299.694 532.563L156.565 675.688l15.498 39.319c10.939 27.575 32.252 49.569 59.487 61.417l150.422 65.187 113.271-113.274-195.549-195.774z m426.653-2.964l143.129 143.128-15.497 39.315c-10.939 27.577-32.253 49.569-59.487 61.419L644.07 838.646 530.798 725.373l195.549-195.774z m0 0" fill="#EF9115" p-id="18130"></path><path d="M692.045 701.102l-158.284 27.007-7.408-7.404 167.176-28.491-1.484 8.888z m314.291 129.113L718.938 542.818l3.076-17.666L1024 827.134l-17.664 3.081z m0 0" fill="#F7D582" p-id="18131"></path><path d="M930.099 393.42l-89.114-225.406c-10.94-27.579-32.248-49.57-59.482-61.42l-222.33-96.293c-27.122-11.737-57.889-12.309-85.465-1.37L248.301 98.045c-27.578 10.939-49.571 32.253-61.419 59.488L90.588 379.858c-11.737 27.123-12.309 57.893-1.37 85.47l89.113 225.4c10.941 27.578 32.248 49.569 59.483 61.426l222.329 96.293c27.123 11.737 57.889 12.305 85.466 1.364l225.406-89.114c27.577-10.935 49.57-32.248 61.425-59.483l96.293-222.442c11.738-27.123 12.193-57.888 1.366-85.352z m0 0" fill="#61A4DA" p-id="18132"></path><path d="M179.584 429.315c0 117.903 62.902 226.854 165.009 285.804 102.108 58.954 227.91 58.954 330.018 0 102.107-58.95 165.009-167.9 165.009-285.804s-62.901-226.85-165.009-285.804c-102.108-58.953-227.91-58.953-330.018 0-102.107 58.955-165.009 167.901-165.009 285.804z m0 0" fill="#E6F3FB" p-id="18133"></path><path d="M509.49 99.416c2.279 0 4.44 0 6.719 0.113-179.138 3.648-323.175 149.853-323.175 329.899 0 180.053 144.038 326.257 323.175 329.792-2.278 0-4.439 0.112-6.719 0.112-182.219 0-330.018-147.687-330.018-330.017 0.001-182.331 147.687-329.899 330.018-329.899z m0 0" fill="#BAD7F0" p-id="18134"></path><path d="M509.715 99.416c-2.279 0-4.446 0-6.725 0.113 179.024 3.53 323.18 149.853 323.18 329.787 0 179.938-144.156 326.369-323.293 329.904 2.28 0 4.446 0.112 6.725 0.112 182.213 0 330.018-147.687 330.018-330.017 0-182.331-147.686-329.899-329.905-329.899z m0 0" fill="#FBFDFF" p-id="18135"></path><path d="M218.102 429.315c0 160.992 130.512 291.501 291.5 291.501 160.989 0 291.5-130.509 291.5-291.501 0-160.988-130.512-291.5-291.5-291.5s-291.5 130.512-291.5 291.5z m0 0" fill="#61A4DA" p-id="18136"></path><path d="M624.924 593.415l-112.701-56.866-110.65 60.627v-15.162l19.146-109.505-91.734-86.493v-15.162l124.437-5.124 53.903-114.072L565.1 363.793l125.121 0.796v15.269l-88.771 89.569 23.474 108.714v15.274z m0 0" fill="#386BB4" p-id="18137"></path><path d="M624.924 578.142l-112.701-56.749-110.65 60.621 19.146-124.666-91.734-86.494 124.437-20.28 53.903-114.069L565.1 348.637l125.121 15.952-88.771 89.569 23.474 123.984z m0 0" fill="#FEF8F0" p-id="18138"></path><path d="M507.324 236.505l39.202 121.36 104.494 15.729-60.397 78.628 34.302 125.92-23.475-123.984 88.771-89.569L565.1 348.637l-57.776-112.132z m0 0" fill="#E6F3FB" p-id="18139"></path><path d="M795.063 143.972s47.858 69.738 74.526 127.288c26.779 57.546 42.732 131.96 46.724 147.003 3.985 15.043 24.271 2.964 15.952-18.573-8.319-21.539-85.583-216.857-85.583-216.857s-9.003-36.812-39.539-55.728c-17.665-11.165-12.08 16.867-12.08 16.867zM528.519 28.987s64.612 16.868 115.321 35.217c50.827 18.343 106.206 52.875 117.831 59.481 11.625 6.613 15.385-12.533-2.734-20.396-18.118-7.866-183.015-78.063-183.015-78.063s-18.114-17.889-46.948-11.165c-16.637 3.762-0.455 14.926-0.455 14.926z m366.71 456.965s-18.231 59.711-39.314 110.764c-21.082 51.169-60.056 102.786-67.464 113.844-7.404 11.052 13.219 20.625 22.222 2.735 9.004-17.89 89.114-180.85 89.114-180.85s13.332-28.145 11.968-60.167c-0.916-20.056-16.526 13.674-16.526 13.674z m0 0" fill="#9CC8EB" p-id="18140"></path><path d="M856.937 855.626l-9.8 2.391-28.717 154.755 10.03 10.025 28.487-167.171z m0 0" fill="#FFFFFF" p-id="18141"></path></svg>