<?xml version="1.0" standalone="no"?><!DOCTYPE svg PUBLIC "-//W3C//DTD SVG 1.1//EN" "http://www.w3.org/Graphics/SVG/1.1/DTD/svg11.dtd"><svg t="1592648148398" class="icon" viewBox="0 0 1024 1024" version="1.1" xmlns="http://www.w3.org/2000/svg" p-id="3666" xmlns:xlink="http://www.w3.org/1999/xlink" width="200" height="200"><defs><style type="text/css"></style></defs><path d="M258.44608 1004.16a101.696 101.696 0 0 1-99.648-121.088l35.968-209.472a33.856 33.856 0 0 0-9.792-30.4L31.82208 493.44a101.184 101.184 0 0 1-30.912-61.248c-3.328-26.88 4.032-53.504 20.736-74.88 16.64-21.376 40.704-35.008 67.584-38.272l210.752-30.592a33.92 33.92 0 0 0 25.856-18.752l94.592-191.744c9.728-20.992 27.264-38.464 48.896-48.576A100.736 100.736 0 0 1 546.95808 26.112c25.472 9.28 45.824 27.968 57.28 52.48l94.144 190.912a33.92 33.92 0 0 0 25.856 18.88l211.52 30.72c22.912 2.816 44.8 14.016 61.056 31.36 18.56 19.84 28.16 45.696 27.264 72.768a100.8 100.8 0 0 1-31.872 70.464l-152.704 149.312a33.92 33.92 0 0 0-9.984 30.272l36.16 210.56a101.44 101.44 0 0 1-149.056 107.52l-188.352-98.88a33.792 33.792 0 0 0-32-0.128l-189.248 99.392a100.288 100.288 0 0 1-48.576 12.416zM512.14208 87.616a33.856 33.856 0 0 0-30.72 19.584L386.63808 299.456c-14.72 30.272-43.52 51.2-77.056 55.936l-211.264 30.72a33.664 33.664 0 0 0-19.648 58.432L232.14208 594.56c24.128 23.36 35.2 57.28 29.312 90.56l-36.096 210.112a34.112 34.112 0 0 0 26.56 40.512c7.808 1.536 16 0.256 22.976-3.648l189.696-99.648a101.376 101.376 0 0 1 95.296 0.128l188.864 99.2a33.984 33.984 0 0 0 50.368-35.776l-36.288-211.264a101.376 101.376 0 0 1 29.44-90.24l152.896-149.504 0.576-0.512a33.92 33.92 0 0 0-18.944-58.368l-212.16-30.72a101.312 101.312 0 0 1-76.992-56.192l-94.464-191.36A34.24 34.24 0 0 0 512.14208 87.616z" p-id="3667" fill="#e6e6e6"></path></svg>