<?xml version="1.0" standalone="no"?><!DOCTYPE svg PUBLIC "-//W3C//DTD SVG 1.1//EN" "http://www.w3.org/Graphics/SVG/1.1/DTD/svg11.dtd"><svg t="1592648100768" class="icon" viewBox="0 0 1024 1024" version="1.1" xmlns="http://www.w3.org/2000/svg" p-id="3213" xmlns:xlink="http://www.w3.org/1999/xlink" width="200" height="200"><defs><style type="text/css"></style></defs><path d="M768.170667 985.8048c-11.8784 0-23.722667-3.003733-36.590934-9.9328l-199.816533-104.789333a38.638933 38.638933 0 0 0-19.797333-4.949334c-6.929067 0-14.813867 1.9456-19.797334 3.925334l-198.792533 105.813333a71.236267 71.236267 0 0 1-37.546667 9.9328c-23.790933 0-46.523733-10.922667-62.327466-28.740267-15.872-17.783467-21.8112-41.540267-17.783467-65.262933l38.536533-221.525333a44.373333 44.373333 0 0 0-12.8-37.614934l-160.256-155.272533A79.0528 79.0528 0 0 1 20.48 394.274133a81.578667 81.578667 0 0 1 65.262933-55.364266l221.525334-32.6656c13.858133-1.979733 26.7264-10.8544 32.6656-22.7328l98.850133-201.796267c13.858133-27.682133 41.540267-44.509867 72.192-44.509867s58.402133 16.827733 72.192 44.509867l98.9184 201.796267c6.929067 12.868267 18.807467 20.753067 32.6656 22.7328l221.525333 32.6656a82.158933 82.158933 0 0 1 65.262934 54.408533 80.622933 80.622933 0 0 1-19.797334 83.080533l-159.197866 156.2624c-10.8544 9.864533-14.882133 23.722667-12.868267 37.614934l37.614933 220.535466c3.925333 23.790933-2.013867 47.547733-17.783466 65.3312a78.574933 78.574933 0 0 1-61.3376 29.661867z m0 0" fill="#F4A02C" p-id="3214"></path></svg>