<?xml version="1.0" standalone="no"?><!DOCTYPE svg PUBLIC "-//W3C//DTD SVG 1.1//EN" "http://www.w3.org/Graphics/SVG/1.1/DTD/svg11.dtd"><svg t="1592619226003" class="icon" viewBox="0 0 1024 1024" version="1.1" xmlns="http://www.w3.org/2000/svg" p-id="2119" xmlns:xlink="http://www.w3.org/1999/xlink" width="200" height="200"><defs><style type="text/css"></style></defs><path d="M63.90803 493.726821c2.301416-0.177032 2.588965-2.226714 3.246951-3.738138 10.819416-24.880667 24.249287-48.338938 38.654368-71.273277 13.793144-21.960151 29.218462-42.753733 45.580105-62.831001 7.667633-9.4093 15.769149-18.485003 24.113187-27.340695 7.90811-8.392134 16.046464-16.508999 24.405853-24.457018 16.951067-16.118096 34.927487-30.947849 53.93233-44.537356 21.400403-15.303544 43.910069-28.803 67.676355-40.08188 33.082466-15.700587 67.52286-27.426653 103.59031-34.104749 18.348903-3.397377 36.759205-6.064113 55.471382-6.958482 10.834766-0.51677 21.772886-1.901303 32.515554-1.429559 21.636786 0.949628 43.286875 1.828648 64.831564 5.15644 26.311249 4.064572 51.988048 10.238179 77.147054 18.703991 15.939017 5.362124 31.368428 12.043291 46.63104 19.108197 3.664459 1.695618 4.652973 2.953262 1.281179 6.305613-32.801057 32.605605-65.48648 65.328891-98.130971 98.092086-2.551102 2.560312-4.348028 2.77009-7.823176 1.075495-17.460674-8.511861-35.71441-14.755052-55.014988-17.736966-11.386328-1.75804-22.846334-3.088338-34.317597-2.707668-26.586518 0.881067-52.176336 6.329149-76.511581 17.549701-24.692379 11.385305-45.816488 27.486004-63.808258 47.614437-15.708773 17.574261-27.668153 37.59013-35.665291 59.858296-6.618744 18.429745-10.443863 37.329187-11.647271 56.975643-1.954515 31.887244 5.055133 61.791321 17.711384 90.690512 1.327228 3.031033 4.903683 5.932106 3.954055 8.890484-0.970094 3.021823-4.459568 5.27719-6.947226 7.766894-36.666084 36.691667-73.380264 73.333192-109.964484 110.1057-2.866281 2.88163-4.315282 3.190669-7.562233 0.214894-11.933797-10.937097-23.952528-21.772886-35.151591-33.470299-15.708773-16.405645-30.397311-33.672914-44.332694-51.628868-18.778692-24.197098-35.3276-49.835012-50.479695-76.382645-7.306406-12.800537-14.047947-25.938766-19.920702-39.494503-0.700965-1.617847-0.957815-3.913123-3.464915-4.152577C63.90803 497.581616 63.90803 495.653707 63.90803 493.726821zM958.162014 499.508501c-2.838651 0.468674-3.032056 3.145643-3.880377 5.031597-11.183713 24.880667-24.808012 48.394197-39.317471 71.453379-13.988596 22.23235-29.772071 43.152822-46.37112 63.424518-14.82259 18.101263-30.901801 35.158754-48.064692 51.075259-25.02086 23.204491-51.888787 44.12087-81.121576 61.780065-34.004465 20.538779-70.070892 36.437887-108.443851 47.070039-18.945491 5.250584-38.119179 9.342786-57.533344 12.117992-11.977799 1.710968-24.107047 2.449795-36.204573 3.334955-12.667507 0.927115-25.315572 1.033539-37.943171 0.664126-19.280112-0.564865-38.48143-2.173502-57.586556-5.316076-13.551644-2.229784-26.990724-4.806469-40.318264-8.045233-2.149966-0.522909-4.240581-1.283226-6.383384-1.940189 0.521886-2.245134 2.161223-3.1569 3.362584-4.360308 34.836413-34.883485 69.730131-69.708642 104.504122-104.654548 2.720971-2.734274 5.431709-3.810792 9.266038-3.801583 43.499723 0.104377 82.410941-13.671371 116.567879-40.248679 35.777855-27.841092 58.436924-64.396659 68.899206-108.460224 3.221368-13.560854 4.754281-27.376511 4.184299-41.340547-0.143263-3.488451 0.898463-5.965875 3.3984-8.459672 49.012274-48.869011 97.975429-97.785094 146.778948-146.861836 3.282766-3.302209 4.849448-2.615571 7.347339 0.332575 14.044878 16.584724 27.561729 33.57263 40.143279 51.30448 16.330944 23.017226 30.742165 47.177486 43.894719 72.140017 4.188392 7.952112 7.918343 16.070001 11.580756 24.24724 0.674359 1.505283 0.945535 3.553942 3.242857 3.729951C958.162014 495.653707 958.162014 497.581616 958.162014 499.508501zM852.161818 170.909531c0.070608 1.421372 1.052982 1.610684 2.217505 2.001587 15.627932 5.244444 26.202779 15.47853 29.05678 31.991622 2.301416 13.325493-0.164752 25.923416-10.17985 35.944654-80.682577 80.747046-161.39483 161.466462-242.178715 242.113223-3.728928 3.722788-5.349845 6.949272-4.739954 12.81384 1.807159 17.374716-0.656963 34.446533-7.286963 50.79385-10.295484 25.38004-27.930119 44.202735-51.761897 57.161884-11.56336 6.28924-24.121374 10.001795-37.334303 11.507078-8.953929 1.020236-17.830087 1.473561-26.728758-0.074701-3.507894-0.610914-5.614881 1.320065-7.858992 3.563152-71.033823 71.098291-142.126998 142.134161-213.123982 213.268268-5.424546 5.435803-11.162224 10.082636-18.603707 12.296047-1.156336 0.343831-2.156106 0.698918-2.184759 2.128477-7.066953 0-14.132882 0-21.199835 0-0.23536-2.478448-2.506077-2.221598-3.990894-2.75167-27.628244-9.889231-36.014238-46.376237-15.33322-67.060325 197.962677-197.973934 395.937634-395.937634 593.874729-593.939197 4.792143-4.795213 10.530844-7.704472 16.813944-9.752108 1.172709-0.382717 2.159176-0.578168 2.234901-2.00568C839.954799 170.909531 846.057797 170.909531 852.161818 170.909531zM511.075443 385.849882c7.912204-0.74906 15.644305 0.549515 23.304775 2.198062 1.379417 0.296759 3.673669-0.144286 4.095271 1.721201 0.326435 1.442862-1.486864 2.309602-2.469238 3.311419-3.480264 3.553942-7.020904 7.05058-10.540054 10.568706-39.040155 39.040155-78.076216 78.084403-117.142977 117.098975-1.201361 1.200338-2.200108 3.473101-3.984754 3.056616-1.962701-0.458441-1.509377-3.048429-1.811252-4.622274-6.417153-33.412994 0.372483-63.927985 21.270443-90.819448 18.266016-23.50432 42.348504-37.437657 71.982428-41.778522C500.926292 385.832486 505.990634 386.134361 511.075443 385.849882z" p-id="2120" data-spm-anchor-id="a313x.7781069.0.i0" class="selected" fill="#e6e6e6"></path></svg>