<?xml version="1.0" standalone="no"?><!DOCTYPE svg PUBLIC "-//W3C//DTD SVG 1.1//EN" "http://www.w3.org/Graphics/SVG/1.1/DTD/svg11.dtd"><svg t="1590205650321" class="icon" viewBox="0 0 1024 1024" version="1.1" xmlns="http://www.w3.org/2000/svg" p-id="10965" xmlns:xlink="http://www.w3.org/1999/xlink" width="200" height="200"><defs><style type="text/css"></style></defs><path d="M1023.999269 700.927499V197.119859A196.900431 196.900431 0 0 0 826.879409 0h-629.75955A196.900431 196.900431 0 0 0 0 197.119859v630.27155A196.754145 196.754145 0 0 0 197.119859 1023.999269h630.27155a197.41243 197.41243 0 0 0 194.047861-162.303884c-52.223963-22.527984-278.527801-120.319914-396.287717-176.639874-89.599936 108.543922-183.807869 174.079876-325.119767 174.079875-141.311899 0-236.031831-87.039938-224.76784-194.047861 7.679995-70.14395 55.80796-184.831868 264.191812-164.863882 110.079921 10.239993 160.255886 30.719978 250.367821 60.415957a702.170927 702.170927 0 0 0 56.831959-139.263901H248.319823v-39.423972h196.607859v-70.655949H204.799854v-43.519969h240.127828V165.887882s2.047999-15.871989 19.967986-15.871989H563.199598v118.271915h255.999817v43.519969H563.199598v70.65595h208.895851a794.330861 794.330861 0 0 1-84.47994 212.479848C748.031466 616.44756 1023.999269 700.927499 1023.999269 700.927499zM283.647797 791.551435c-149.503893 0-173.055876-94.719932-165.375881-134.143905 7.679995-39.423972 51.199963-90.623935 134.655903-90.623935 95.743932 0 181.247871 24.575982 284.159797 74.239947-72.703948 94.719932-161.279885 150.527892-253.439819 150.527893z" fill="#0AA0F8" p-id="10966"></path></svg>