<?xml version="1.0" standalone="no"?><!DOCTYPE svg PUBLIC "-//W3C//DTD SVG 1.1//EN" "http://www.w3.org/Graphics/SVG/1.1/DTD/svg11.dtd"><svg t="1590204657333" class="icon" viewBox="0 0 1024 1024" version="1.1" xmlns="http://www.w3.org/2000/svg" p-id="8757" xmlns:xlink="http://www.w3.org/1999/xlink" width="200" height="200"><defs><style type="text/css"></style></defs><path d="M783.0784 0H240.896A240.9216 240.9216 0 0 0 0 240.9216V783.104A240.9216 240.9216 0 0 0 240.9216 1024H783.104A240.9216 240.9216 0 0 0 1024 783.0784V240.896A240.9216 240.9216 0 0 0 783.0784 0zM483.968 282.8032c6.5792-27.392 36.864-41.7024 69.7344-33.8688 31.5648 7.808 53.9136 36.48 47.36 63.8464-6.5792 27.392-36.864 41.7024-69.7344 33.8944-31.5648-9.1136-53.9392-37.8112-47.36-63.872z m146.048 569.5232c-168.3968 65.152-351.2576-16.9472-426.24-183.7568v-1.3056l-7.9104-19.5328a148.3008 148.3008 0 0 1-10.5216-29.9776c-1.3056-7.8336-3.9424-15.6416-5.2736-23.4496-1.3056-1.3056-1.3056-2.6368-1.3056-3.9168A370.8416 370.8416 0 0 1 205.056 357.12c13.1584-29.952 36.864-49.5104 68.4032-48.2304 26.3168 1.3312 46.0544 19.5584 46.0544 48.2304 0 16.9472-6.5792 31.2832-18.432 53.4528a289.9968 289.9968 0 0 0-35.5072 92.5184c-3.9424 19.5584-13.1584 99.0464 56.576 177.2288 59.1872 66.4576 193.3568 86.016 239.4112 3.9168 21.0432-54.7328 11.8272-122.496-24.9856-161.5872-85.504-91.2384-168.3968-92.544-157.8752-148.5824 11.8528-66.4576 98.6624-7.808 164.4544 16.9472 64.4352 23.4496 126.2848 10.4448 143.36-27.392 18.432-40.3968-17.1008-91.1872-84.1728-123.776-19.7632-9.1392-42.112-15.6416-42.112-40.4224-1.3056-33.8688 39.4752-43.008 119.7312 1.3056 0 0 14.464 9.1392 22.3232 14.336 43.4176 31.2832 80.2816 71.68 106.5984 121.216 9.472 17.536 17.3824 35.84 23.68 54.7328 64.4608 186.368-26.3168 393.5488-202.5728 461.3376z" fill="#108EE9" p-id="8758"></path></svg>