<?xml version="1.0" standalone="no"?><!DOCTYPE svg PUBLIC "-//W3C//DTD SVG 1.1//EN" "http://www.w3.org/Graphics/SVG/1.1/DTD/svg11.dtd"><svg t="1589956193393" class="icon" viewBox="0 0 1024 1024" version="1.1" xmlns="http://www.w3.org/2000/svg" p-id="24578" xmlns:xlink="http://www.w3.org/1999/xlink" width="200" height="200"><defs><style type="text/css"></style></defs><path d="M975.238 902.095H48.762C21.942 902.095 0 880.152 0 853.333V438.857h1024v414.476c0 26.82-21.943 48.762-48.762 48.762z m-73.143-243.81H707.048c-14.629 0-24.381 9.753-24.381 24.382l-24.381 97.523c0 14.629 9.752 24.381 24.38 24.381h195.048c14.629 0 24.381-9.752 24.381-24.38l24.381-97.524c0-14.629-9.752-24.381-24.38-24.381zM0 170.668c0-26.82 21.943-48.762 48.762-48.762h926.476c26.82 0 48.762 21.943 48.762 48.762v170.666H0V170.667z" p-id="24579" fill="#f4ea2a"></path></svg>