<?xml version="1.0" standalone="no"?>
<!DOCTYPE svg PUBLIC "-//W3C//DTD SVG 1.1//EN" "http://www.w3.org/Graphics/SVG/1.1/DTD/svg11.dtd">
<svg t="1589955223169" class="icon" viewBox="0 0 1024 1024" version="1.1" xmlns="http://www.w3.org/2000/svg" p-id="5410" xmlns:xlink="http://www.w3.org/1999/xlink" width="200" height="200">
    <defs>
        <style type="text/css"/>
    </defs>
    <path d="M336.099293 236.903571l451.105095 0 0 98.534154-451.105095 0 0-98.534154Z" fill="#ee537a" p-id="5411"/>
    <path d="M722.028992 433.974949l65.175395 0 0 65.688071-65.175395 0 0-65.688071Z" fill="#ee537a" p-id="5412"/>
    <path d="M722.028992 562.627051l65.175395 0 0 65.692165-65.175395 0 0-65.692165Z" fill="#ee537a" p-id="5413"/>
    <path d="M336.099293 433.974949l328.449567 0 0 65.688071-328.449567 0 0-65.688071Z" fill="#ee537a" p-id="5414"/>
    <path d="M336.099293 562.627051l196.556655 0 0 65.692165-196.556655 0 0-65.692165Z" fill="#ee537a" p-id="5415"/>
    <path d="M204.719056 64.46829l0 102.640682-101.257172 0 0 791.036157 722.586183 0L826.048067 855.505471l101.260242 0 0-791.037181L204.719056 64.46829zM760.355903 892.457058l-591.20697 0 0-659.656945 35.570123 0 0 622.704334 555.636846 0L760.355903 892.457058zM861.618191 789.818423l-591.20697 0 0-659.662061 591.20697 0L861.618191 789.818423z" fill="#ee537a" p-id="5416"/>
</svg>
