<?xml version="1.0" standalone="no"?><!DOCTYPE svg PUBLIC "-//W3C//DTD SVG 1.1//EN" "http://www.w3.org/Graphics/SVG/1.1/DTD/svg11.dtd"><svg t="1589956264672" class="icon" viewBox="0 0 1024 1024" version="1.1" xmlns="http://www.w3.org/2000/svg" p-id="25532" xmlns:xlink="http://www.w3.org/1999/xlink" width="200" height="200"><defs><style type="text/css"></style></defs><path d="M76.8 186.88c-7.68 10.24-12.8 25.6-12.8 51.2v138.24c0 10.24 2.56 15.36 7.68 20.48 5.12 5.12 10.24 7.68 20.48 7.68 12.8 2.56 23.04 7.68 33.28 20.48 10.24 10.24 15.36 28.16 15.36 46.08 0 12.8-2.56 23.04-7.68 33.28-5.12 10.24-10.24 15.36-15.36 23.04-5.12 5.12-10.24 10.24-15.36 12.8-5.12 2.56-10.24 5.12-15.36 5.12-10.24 2.56-15.36 5.12-17.92 10.24-2.56 5.12-5.12 12.8-5.12 20.48v189.44c0 25.6 5.12 40.96 15.36 48.64 10.24 7.68 25.6 12.8 48.64 12.8h153.6V171.52H128c-28.16 0-43.52 5.12-51.2 15.36z m908.8 345.6c7.68-2.56 12.8-7.68 17.92-15.36 2.56-7.68 5.12-15.36 5.12-23.04 0-7.68-2.56-15.36-7.68-23.04-5.12-7.68-12.8-12.8-20.48-15.36-10.24-2.56-17.92-10.24-23.04-17.92-5.12-7.68-7.68-15.36-7.68-23.04 0-7.68 2.56-15.36 10.24-23.04 5.12-7.68 15.36-12.8 25.6-15.36 10.24-2.56 15.36-7.68 20.48-12.8 5.12-7.68 5.12-12.8 5.12-20.48 0-7.68-2.56-15.36-7.68-20.48-5.12-7.68-12.8-12.8-20.48-15.36-10.24-2.56-20.48-7.68-23.04-15.36-5.12-7.68-7.68-15.36-5.12-20.48 2.56-15.36 12.8-28.16 30.72-33.28 7.68-2.56 15.36-7.68 17.92-15.36s5.12-12.8 5.12-20.48c0-7.68-2.56-12.8-7.68-17.92-5.12-5.12-10.24-7.68-17.92-7.68H335.36v655.36H972.8c7.68 0 12.8-2.56 17.92-7.68 5.12-5.12 7.68-12.8 7.68-17.92 0-7.68 0-15.36-2.56-20.48-2.56-7.68-7.68-12.8-15.36-15.36-10.24-5.12-20.48-12.8-25.6-20.48-5.12-7.68-7.68-15.36-7.68-23.04 0-7.68 2.56-15.36 10.24-23.04 5.12-7.68 15.36-12.8 25.6-15.36 7.68-2.56 15.36-7.68 17.92-12.8 2.56-7.68 5.12-12.8 5.12-23.04 0-7.68-2.56-15.36-7.68-23.04-5.12-7.68-12.8-12.8-20.48-15.36-17.92-7.68-28.16-20.48-28.16-35.84 0-23.04 12.8-35.84 35.84-46.08z m-230.4 17.92c12.8 0 25.6 10.24 25.6 25.6 0 12.8-10.24 25.6-25.6 25.6h-102.4V665.6c0 12.8-10.24 25.6-25.6 25.6-12.8 0-25.6-10.24-25.6-25.6v-66.56h-102.4c-12.8 0-25.6-10.24-25.6-25.6 0-12.8 10.24-25.6 25.6-25.6h102.4v-30.72h-102.4c-12.8 0-25.6-10.24-25.6-25.6 0-12.8 10.24-25.6 25.6-25.6h69.12l-71.68-125.44c-7.68-12.8-2.56-28.16 10.24-33.28 12.8-7.68 28.16-2.56 35.84 10.24l87.04 151.04h5.12l87.04-148.48c7.68-12.8 23.04-15.36 33.28-10.24 12.8 7.68 15.36 23.04 10.24 33.28l-71.68 125.44h66.56c12.8 0 25.6 10.24 25.6 25.6 0 12.8-10.24 25.6-25.6 25.6h-102.4v30.72h97.28z m0 0" fill="#FFA9A9" p-id="25533"></path></svg>