<?xml version="1.0" standalone="no"?><!DOCTYPE svg PUBLIC "-//W3C//DTD SVG 1.1//EN" "http://www.w3.org/Graphics/SVG/1.1/DTD/svg11.dtd"><svg t="1590205599614" class="icon" viewBox="0 0 1024 1024" version="1.1" xmlns="http://www.w3.org/2000/svg" p-id="9008" xmlns:xlink="http://www.w3.org/1999/xlink" width="200" height="200"><defs><style type="text/css"></style></defs><path d="M870.4 1024H153.6c-84.48 0-153.6-69.12-153.6-153.6V153.6c0-84.48 69.12-153.6 153.6-153.6h716.8c84.48 0 153.6 69.12 153.6 153.6v716.8c0 84.48-69.12 153.6-153.6 153.6z" fill="#0BB2FF" p-id="9009"></path><path d="M227.84 455.68v-2.56c10.24-43.52 7.68-89.6 17.92-135.68 15.36-92.16 76.8-176.64 163.84-215.04s192-25.6 263.68 33.28c61.44 51.2 94.72 133.12 102.4 212.48 0 7.68 0 15.36-2.56 23.04-2.56 7.68-10.24 12.8-15.36 17.92L537.6 565.76c-7.68 7.68-17.92 15.36-28.16 15.36-15.36 2.56-30.72-7.68-46.08-15.36-33.28-23.04-69.12-43.52-102.4-66.56-10.24-7.68-23.04-15.36-35.84-10.24-2.56 0-2.56 2.56 0 2.56l166.4 192c7.68 7.68 15.36 15.36 25.6 15.36 7.68 0 12.8-5.12 17.92-10.24l243.2-240.64h2.56c46.08 99.84 94.72 207.36 92.16 317.44 0 2.56 0 7.68-2.56 10.24-5.12 5.12-12.8 0-17.92-5.12L793.6 714.24s-2.56 0-2.56 2.56c-5.12 58.88-33.28 117.76-76.8 158.72v2.56c15.36 2.56 33.28 7.68 46.08 17.92 12.8 10.24 23.04 30.72 17.92 46.08 0 0 0 2.56-2.56 2.56H253.44c-5.12 0-15.36 2.56-17.92-5.12 0-5.12 5.12-12.8 7.68-17.92 2.56-5.12 7.68-10.24 12.8-15.36 10.24-10.24 20.48-15.36 33.28-20.48 0 0 12.8-2.56 15.36-2.56 0 0 2.56 0 2.56-2.56 0-23.04-17.92-38.4-33.28-56.32-17.92-23.04-30.72-48.64-38.4-76.8 0-15.36-5.12-30.72-15.36-33.28h-2.56c-10.24 23.04-25.6 46.08-43.52 66.56-5.12 5.12-10.24 7.68-15.36 5.12-2.56-2.56-2.56-5.12-2.56-7.68-7.68-69.12 2.56-138.24 25.6-202.24 15.36-40.96 35.84-79.36 46.08-120.32z" fill="#FFFFFF" p-id="9010"></path></svg>