<?xml version="1.0" standalone="no"?><!DOCTYPE svg PUBLIC "-//W3C//DTD SVG 1.1//EN" "http://www.w3.org/Graphics/SVG/1.1/DTD/svg11.dtd"><svg t="1589955502551" class="icon" viewBox="0 0 1024 1024" version="1.1" xmlns="http://www.w3.org/2000/svg" p-id="8322" xmlns:xlink="http://www.w3.org/1999/xlink" width="200" height="200"><defs><style type="text/css"></style></defs><path d="M615.81 477.445a24.228 24.228 0 0 1 7.123 17.15 24.234 24.234 0 0 1-7.123 17.151l-69.293 69.294-0.242 0.174h69.713c13.39 0 24.25 10.859 24.25 24.25 0 13.396-10.86 24.256-24.25 24.256h-79.689v55.438h52.619c13.391 0 24.25 10.858 24.25 24.25 0 13.398-10.859 24.256-24.25 24.256h-52.619v20.788c0 13.392-10.859 24.251-24.256 24.251s-24.256-10.859-24.256-24.251v-20.788h-52.621a24.262 24.262 0 0 1-21.003-12.127 24.26 24.26 0 0 1 0-24.256 24.258 24.258 0 0 1 21.003-12.123h52.621V629.72h-79.688a24.255 24.255 0 0 1-21.004-12.127 24.25 24.25 0 0 1 0-24.25 24.25 24.25 0 0 1 21.004-12.129h69.711l-0.244-0.174-69.293-69.294c-9.473-9.473-9.473-24.833 0-34.302 9.475-9.473 24.828-9.473 34.3 0l69.296 69.295 0.174 0.242 0.174-0.242 69.295-69.295c4.545-4.553 10.715-7.105 17.149-7.105s12.602 2.554 17.149 7.106m-103.768-77.677c-16.215 0-32.429-2.914-45.699-8.805L165.604 257.049v601.277c-0.059 38.188 30.789 69.227 68.982 69.396h554.842c38.228-0.11 69.145-31.165 69.088-69.396V255.109L557.709 390.927c-13.169 5.895-29.413 8.841-45.667 8.841" fill="#ee537a" p-id="8323" data-spm-anchor-id="a313x.7781069.0.i3" class="selected"></path><path d="M789.466 96.184H234.618c-38.203 0.132-69.089 31.16-69.053 69.363v15.663l328.908 146.418c8.526 3.812 26.609 3.812 35.099 0l328.944-148.501v-13.58c0.038-38.203-30.846-69.232-69.05-69.363" fill="#ee537a" p-id="8324" data-spm-anchor-id="a313x.7781069.0.i4" class="selected"></path></svg>