<?xml version="1.0" standalone="no"?><!DOCTYPE svg PUBLIC "-//W3C//DTD SVG 1.1//EN" "http://www.w3.org/Graphics/SVG/1.1/DTD/svg11.dtd"><svg t="1589956004099" class="icon" viewBox="0 0 1024 1024" version="1.1" xmlns="http://www.w3.org/2000/svg" p-id="19746" xmlns:xlink="http://www.w3.org/1999/xlink" width="200" height="200"><defs><style type="text/css"></style></defs><path d="M856.064 291.693714L577.828571 13.385143A45.714286 45.714286 0 0 0 545.499429 0h-345.234286a45.714286 45.714286 0 0 0-45.714286 45.714286v932.571428c0 25.234286 20.48 45.714286 45.714286 45.714286h623.469714c25.161143 0 45.714286-20.48 45.714286-45.714286V324.022857a45.714286 45.714286 0 0 0-13.385143-32.329143z m-78.043429 640.877715H245.979429V91.428571h280.576l251.465142 251.465143v589.677715z" fill="#1296db" p-id="19747" data-spm-anchor-id="a313x.7781069.0.i6" class="selected"></path><path d="M322.925714 534.235429v281.819428c0 25.234286 20.48 45.714286 45.714286 45.714286h281.892571c25.161143 0 45.714286-20.48 45.714286-45.714286V534.235429a45.714286 45.714286 0 0 0-45.714286-45.714286H368.64a45.714286 45.714286 0 0 0-45.714286 45.714286z m91.428572 45.714285h190.464v190.390857H414.354286V580.022857z" fill="#1296db" p-id="19748" data-spm-anchor-id="a313x.7781069.0.i7" class="selected"></path></svg>