<?xml version="1.0" standalone="no"?><!DOCTYPE svg PUBLIC "-//W3C//DTD SVG 1.1//EN" "http://www.w3.org/Graphics/SVG/1.1/DTD/svg11.dtd"><svg t="1590204541343" class="icon" viewBox="0 0 1024 1024" version="1.1" xmlns="http://www.w3.org/2000/svg" p-id="7351" xmlns:xlink="http://www.w3.org/1999/xlink" width="200" height="200"><defs><style type="text/css"></style></defs><path d="M928.753 992H96.376C60.236 992 32 963.765 32 928.753V96.376C32 60.236 60.235 32 96.376 32h832.377C963.765 32 992 60.235 992 96.376v832.377C992 963.765 963.765 992 928.753 992z" fill="#5ab514" p-id="7352"></path><path d="M402.447 606.87c-12.423 6.777-28.235 1.13-36.141-11.294l-2.259-3.388-73.412-161.506c-1.13-1.13-1.13-3.388-1.13-5.647 0-3.388 1.13-6.776 3.39-9.035 2.258-2.259 5.646-4.518 9.034-3.388 3.389 0 5.647 1.13 7.906 2.259l86.965 62.117c10.165 6.777 23.718 9.036 36.141 4.518L841.788 299.67c-73.412-85.836-194.259-142.306-330.917-142.306-223.624 0-404.33 151.34-404.33 337.694 0 101.647 54.212 193.13 140.047 255.247 6.777 4.518 11.294 13.553 11.294 21.459 0 3.388 0 5.647-1.13 9.035l-18.07 67.765c-1.13 3.388-2.258 6.776-2.258 10.164 0 7.906 5.647 13.553 13.552 13.553 2.26 0 5.648-1.13 7.906-2.258l88.094-50.824c10.165-6.776 22.589-7.906 33.883-4.518 42.917 12.424 86.965 18.07 132.141 18.07 223.624 0 404.33-151.34 404.33-336.564 0-55.34-15.812-109.553-46.306-155.859L404.706 605.741l-2.259 1.13z m0 0" fill="#FFFFFF" p-id="7353"></path></svg>