<?xml version="1.0" standalone="no"?><!DOCTYPE svg PUBLIC "-//W3C//DTD SVG 1.1//EN" "http://www.w3.org/Graphics/SVG/1.1/DTD/svg11.dtd"><svg t="1595896622233" class="icon" viewBox="0 0 1024 1024" version="1.1" xmlns="http://www.w3.org/2000/svg" p-id="15279" data-spm-anchor-id="a313x.7781069.0.i11" xmlns:xlink="http://www.w3.org/1999/xlink" width="200" height="200"><defs><style type="text/css"></style></defs><path d="M588.8 359.68l-12.032-7.424L727.04 145.664a30.976 30.976 0 0 0-51.2-36.352l-153.6 210.176L281.6 170.24a30.976 30.976 0 1 0-33.024 52.736L486.4 369.92l-22.784 31.488a30.976 30.976 0 1 0 51.2 36.352l25.6-35.072 16.128 9.728A30.976 30.976 0 1 0 588.8 359.68zM710.4 850.688a53.248 53.248 0 1 0 106.496 0 53.248 53.248 0 1 0-106.496 0zM261.12 797.44a53.248 53.248 0 1 0 53.504 53.248 53.248 53.248 0 0 0-53.504-53.248z" fill="#ffffff" p-id="15280" data-spm-anchor-id="a313x.7781069.0.i10" class="selected"></path><path d="M234.24 314.368h556.288q92.928 0 92.928 92.928V768q0 92.928-92.928 92.928H234.24q-92.928 0-92.928-92.928V407.296q0-92.928 92.928-92.928z" fill="#ffffff" p-id="15281" data-spm-anchor-id="a313x.7781069.0.i8" class="selected"></path><path d="M392.192 575.232a128.256 128.256 0 1 0 256.512 0 128.256 128.256 0 1 0-256.512 0z" fill="#FFFFFF" p-id="15282"></path><path d="M476.928 546.56c0-26.88 19.2-37.632 42.24-25.6l49.664 28.672a25.6 25.6 0 0 1 0 48.64l-49.664 28.672c-23.04 13.568-42.24 2.56-42.24-24.32z" fill="#ee537a" p-id="15283" data-spm-anchor-id="a313x.7781069.0.i7" class=""></path></svg>