<?xml version="1.0" standalone="no"?><!DOCTYPE svg PUBLIC "-//W3C//DTD SVG 1.1//EN" "http://www.w3.org/Graphics/SVG/1.1/DTD/svg11.dtd"><svg t="1595896989718" class="icon" viewBox="0 0 1024 1024" version="1.1" xmlns="http://www.w3.org/2000/svg" p-id="25788" xmlns:xlink="http://www.w3.org/1999/xlink" width="200" height="200"><defs><style type="text/css"></style></defs><path d="M115.367033 210.623357a23.027335 23.027335 0 0 0 14.89101 6.396482 19.29179 19.29179 0 0 0 14.89101-6.396482 20.571086 20.571086 0 0 0 0-29.78202L85.585013 121.277297a20.571086 20.571086 0 0 0-29.78202 0c-8.494528 6.396482-8.494528 21.287492 0 29.78202l59.56404 59.56404z m38.327719 72.357004c0-12.792964-8.5457-21.287492-21.287492-21.287492H47.308465c-12.792964 0-21.287492 8.5457-21.287492 21.287492 0 12.792964 8.494528 21.287492 21.287492 21.287492h85.098795c12.792964 0 21.287492-10.643746 21.287492-21.287492z m-8.545699 72.357003a20.571086 20.571086 0 0 0-29.78202 0L55.802993 414.901404a20.571086 20.571086 0 0 0 0 29.78202 23.027335 23.027335 0 0 0 14.89101 6.396482 23.027335 23.027335 0 0 0 14.89101-6.396482l59.56404-59.56404c8.5457-8.494528 8.5457-23.385538 0-29.78202z m712.823946-138.317525a19.29179 19.29179 0 0 0 14.839838-6.396482l59.615212-59.56404a20.571086 20.571086 0 0 0 0-29.78202 20.571086 20.571086 0 0 0-29.78202 0l-59.56404 59.56404a20.571086 20.571086 0 0 0 0 29.78202 19.29179 19.29179 0 0 0 14.839838 6.396482z m82.949578 44.67303h-85.098796c-12.792964 0-21.287492 8.5457-21.287491 21.287492 0 12.792964 8.5457 21.287492 21.287491 21.287492h85.098796c12.792964 0 21.287492-8.494528 21.287492-21.287492 0-12.792964-8.494528-21.287492-21.287492-21.287492z m-68.058568 93.644495a20.571086 20.571086 0 0 0-29.78202 0 20.571086 20.571086 0 0 0 0 29.78202L902.594857 444.683424a23.027335 23.027335 0 0 0 14.89101 6.396482 19.29179 19.29179 0 0 0 14.89101-6.396482 20.571086 20.571086 0 0 0 0-29.78202L872.915181 355.337364z m-27.632802 625.524762h-95.793713l-80.851532-578.753686c-2.098046-8.494528 0-19.138274 2.149218-27.632802l51.069512-157.455799 8.494528 6.396482c4.247264 2.098046 8.494528 4.247264 12.792964 4.247264 6.34531 0 12.741792-2.149218 16.989056-8.494528 6.396482-8.5457 4.247264-21.287492-4.247264-29.78202L500.486417 0l-255.347559 189.335865c-8.494528 6.396482-10.592574 19.189446-4.196092 29.833192a22.873819 22.873819 0 0 0 29.78202 4.247264l8.494528-6.396482 51.069512 157.455799c2.149218 8.494528 4.247264 19.138274 2.149218 27.632802l-80.851532 578.753686h-93.644496c-10.643746 0-17.040228 8.5457-17.040228 21.287492 0 10.643746 8.5457 21.287492 17.040228 21.287492H847.329253c10.643746 0 19.138274-8.494528 19.138274-21.287492-4.247264-12.792964-12.792964-21.287492-21.287492-21.287492z m-417.050622-210.623357c0 2.149218 0 2.149218-2.149218 4.247264 0 2.149218 0 2.149218-2.149218 4.247264l-2.098046 2.149218s-2.149218 2.098046-4.247264 2.098046c0 0-2.149218 2.149218-4.247264 2.149218-2.149218 0-2.149218 0-4.298436 2.149218h-8.494528c-2.098046 0-2.098046 0-4.247264-2.149218-2.149218 0-2.149218-2.149218-4.247264-2.149218l-2.149218-2.098046c0-2.149218-2.098046-2.149218-2.098046-2.149218 0-2.098046-2.149218-2.098046-2.149218-4.247264 0-2.098046 0-2.098046-2.149218-4.247264v-4.247264c0-6.396482 2.149218-10.643746 6.396482-14.89101l2.149218-2.149218c2.098046 0 2.098046-2.098046 4.247264-2.098046s2.149218 0 4.247264-2.149218h8.494528c2.149218 0 2.149218 0 4.298436 2.149218 2.098046 0 2.098046 2.098046 4.247264 2.098046 2.098046 0 2.098046 2.149218 4.247264 2.149218a19.29179 19.29179 0 0 1 6.396482 14.839838v4.298436z m0-110.633552c0 12.792964-8.5457 21.287492-21.287492 21.287492-12.792964 0-21.287492-8.5457-21.287492-21.287492v-127.673779c0-12.792964 8.494528-21.287492 21.287492-21.287492 12.792964 0 21.287492 8.5457 21.287492 21.287492v127.673779z m63.811304-393.613912a42.677327 42.677327 0 0 1-42.574984-42.574984c0-23.385538 19.189446-42.574984 42.574984-42.574984 23.385538 0 42.574984 19.189446 42.574984 42.574984a42.677327 42.677327 0 0 1-42.574984 42.574984z" p-id="25789" data-spm-anchor-id="a313x.7781069.0.i32" class="selected" fill="#ffffff"></path></svg>