<?xml version="1.0" standalone="no"?><!DOCTYPE svg PUBLIC "-//W3C//DTD SVG 1.1//EN" "http://www.w3.org/Graphics/SVG/1.1/DTD/svg11.dtd"><svg t="1595898413477" class="icon" viewBox="0 0 1171 1024" version="1.1" xmlns="http://www.w3.org/2000/svg" p-id="26969" xmlns:xlink="http://www.w3.org/1999/xlink" width="228.7109375" height="200"><defs><style type="text/css"></style></defs><path d="M1001.6 153.6s0-3.2 0 0C883.2 35.2 697.6 32 576 140.8 454.4 32 268.8 35.2 153.6 150.4 35.2 268.8 32 460.8 150.4 579.2l3.2 3.2 355.2 352c38.4 38.4 99.2 38.4 137.6 0l355.2-352C1120 464 1120 272 1001.6 153.6zM886.4 403.2c-9.6 0-16-6.4-16-16 0-57.6-48-105.6-105.6-105.6-9.6 0-16-6.4-16-16s6.4-16 16-16c76.8 0 137.6 60.8 137.6 137.6 0 9.6-6.4 16-16 16z" p-id="26970" data-spm-anchor-id="a313x.7781069.0.i37" class="selected" fill="#ffffff"></path></svg>