<?xml version="1.0" standalone="no"?><!DOCTYPE svg PUBLIC "-//W3C//DTD SVG 1.1//EN" "http://www.w3.org/Graphics/SVG/1.1/DTD/svg11.dtd"><svg t="1595896831964" class="icon" viewBox="0 0 1024 1024" version="1.1" xmlns="http://www.w3.org/2000/svg" p-id="17869" xmlns:xlink="http://www.w3.org/1999/xlink" width="200" height="200"><defs><style type="text/css"></style></defs><path d="M672 96a192 192 0 0 1 192 192l0.032 268.864a240 240 0 0 1-295.808 371.168L288 928a192 192 0 0 1-192-192V288a192 192 0 0 1 192-192h384z m16 448a176 176 0 1 0 0 352 176 176 0 0 0 0-352zM672 160H288a128 128 0 0 0-128 128v448a128 128 0 0 0 128 128h208A240 240 0 0 1 800 507.68L800 288a128 128 0 0 0-128-128z m-23.36 442.72a32 32 0 0 1 32.512 31.456l2.816 104.448 67.456 38.944a32 32 0 1 1-32 55.424l-83.136-48a32 32 0 0 1-16-27.168l-3.136-122.56a32 32 0 0 1 31.456-32.544zM448 480a32 32 0 0 1 0 64h-128a32 32 0 0 1 0-64h128z m192-192a32 32 0 0 1 0 64H320a32 32 0 0 1 0-64h320z" p-id="17870" fill="#ffffff"></path></svg>