<?xml version="1.0" standalone="no"?><!DOCTYPE svg PUBLIC "-//W3C//DTD SVG 1.1//EN" "http://www.w3.org/Graphics/SVG/1.1/DTD/svg11.dtd"><svg t="1588822697008" class="icon" viewBox="0 0 1024 1024" version="1.1" xmlns="http://www.w3.org/2000/svg" p-id="74123" xmlns:xlink="http://www.w3.org/1999/xlink" width="200" height="200"><defs><style type="text/css"></style></defs><path d="M672.256 954.368c-40.96 2.56-76.288-28.672-78.848-69.632s28.672-76.288 69.632-78.848h9.216c4.096-0.512 7.68-0.512 11.776 0 104.448-64 167.936-177.664 167.424-300.544 1.536-189.952-150.016-345.088-339.456-348.672-189.952 3.584-342.016 160.256-339.456 350.208 0 57.856 13.824 114.176 40.96 165.376 2.048 4.096 2.048 9.216 0 13.312-2.56 4.096-7.168 6.656-11.776 6.656H133.632c-2.048 0-4.608-0.512-6.656-1.536-69.12-17.92-116.736-81.92-113.664-153.6-2.048-60.416 31.232-116.736 85.504-143.872 48.128-189.44 218.112-322.048 413.184-323.584 195.072 1.024 365.056 134.144 413.184 323.584 53.76 27.648 87.04 83.968 85.504 144.384 2.56 69.632-42.496 132.608-109.568 152.064-33.28 74.24-87.04 137.728-154.112 183.296 0.512 2.56 0.512 5.12 0 7.68-0.512 40.448-33.28 73.728-74.752 73.728 0.512 0 0.512 0 0 0z" fill="#2c2c2c" p-id="74124"></path><path d="M512 711.168c-66.048 2.56-129.536-28.16-168.448-81.408-5.12-6.144-7.68-14.336-7.168-22.016 0.512-8.704 4.608-16.896 11.264-23.04 5.12-4.608 11.776-7.168 18.944-7.168 9.728 0 18.432 4.608 24.576 11.776 28.16 37.888 73.728 59.392 120.832 56.832 47.104 1.536 92.16-19.456 121.344-56.832 6.144-7.168 14.848-11.776 24.064-11.776 7.168 0 13.824 2.56 18.944 7.168 6.656 6.144 10.752 14.336 11.264 23.04 0.512 8.192-2.048 15.872-6.656 22.016-39.936 52.736-102.912 82.944-168.96 81.408zM350.72 473.088c-24.064 0-44.032-19.456-44.032-44.032V369.664c2.048-24.064 23.04-42.496 47.616-40.448 21.504 1.536 38.912 18.944 40.448 40.448V430.08c-1.024 24.064-20.48 43.008-44.032 43.008z m322.56 0c-24.064 0-44.032-19.456-44.032-44.032V369.664c2.048-24.064 23.04-42.496 47.616-40.448 21.504 1.536 38.912 18.944 40.448 40.448V430.08c-0.512 24.064-20.48 43.008-44.032 43.008z" fill="#2c2c2c" p-id="74125"></path></svg>