<?xml version="1.0" standalone="no"?><!DOCTYPE svg PUBLIC "-//W3C//DTD SVG 1.1//EN" "http://www.w3.org/Graphics/SVG/1.1/DTD/svg11.dtd"><svg t="1588819889351" class="icon" viewBox="0 0 1024 1024" version="1.1" xmlns="http://www.w3.org/2000/svg" p-id="12272" xmlns:xlink="http://www.w3.org/1999/xlink" width="200" height="200"><defs><style type="text/css"></style></defs><path d="M854.24 475.264l-66.784-60.16a32 32 0 0 0-42.848 47.584l118.912 107.072a32 32 0 0 0 45.184-2.368l107.072-118.912a32 32 0 1 0-47.552-42.816l-51.008 56.64C892.544 242.656 706.24 72 480 72 236.992 72 40 268.992 40 512S236.992 952 480 952a440 440 0 0 0 396.736-249.504 32 32 0 1 0-57.696-27.744A376 376 0 0 1 480 888C272.32 888 104 719.68 104 512S272.32 136 480 136c195.264 0 355.744 148.832 374.24 339.264z m-274.24 22.784a16.16 16.16 0 0 1 0 27.904L430.72 617.28c-11.68 7.168-26.688-0.992-26.688-13.92v-182.784c0-12.928 15.04-21.088 26.688-13.92l149.312 91.36z m-128.448 153.408l149.344-91.392a56.16 56.16 0 0 0 0-96.128l-149.344-91.392c-38.08-23.296-87.552 3.584-87.552 48.064v182.784c0 44.48 49.504 71.36 87.552 48.064z" fill="#bfbfbf" p-id="12273"></path></svg>