<?xml version="1.0" standalone="no"?><!DOCTYPE svg PUBLIC "-//W3C//DTD SVG 1.1//EN" "http://www.w3.org/Graphics/SVG/1.1/DTD/svg11.dtd"><svg t="1588671898582" class="icon" viewBox="0 0 1024 1024" version="1.1" xmlns="http://www.w3.org/2000/svg" p-id="28502" xmlns:xlink="http://www.w3.org/1999/xlink" width="200" height="200"><defs><style type="text/css"></style></defs><path d="M310.857143 493.714286a182.857143 182.857143 0 1 1 0 365.714285 182.857143 182.857143 0 0 1 0-365.714285z m402.285714 0a182.857143 182.857143 0 1 1 0 365.714285 182.857143 182.857143 0 0 1 0-365.714285z m-402.285714 73.142857a109.714286 109.714286 0 1 0 0 219.428571 109.714286 109.714286 0 0 0 0-219.428571z m402.285714 0a109.714286 109.714286 0 1 0 0 219.428571 109.714286 109.714286 0 0 0 0-219.428571zM512 146.285714a182.857143 182.857143 0 1 1 0 365.714286 182.857143 182.857143 0 0 1 0-365.714286z m0 73.142857a109.714286 109.714286 0 1 0 0 219.428572 109.714286 109.714286 0 0 0 0-219.428572z" p-id="28503" fill="#e6e6e6"></path></svg>