<?xml version="1.0" standalone="no"?><!DOCTYPE svg PUBLIC "-//W3C//DTD SVG 1.1//EN" "http://www.w3.org/Graphics/SVG/1.1/DTD/svg11.dtd"><svg t="1588821978829" class="icon" viewBox="0 0 1024 1024" version="1.1" xmlns="http://www.w3.org/2000/svg" p-id="55447" xmlns:xlink="http://www.w3.org/1999/xlink" width="200" height="200"><defs><style type="text/css"></style></defs><path d="M893.632 120.832c-19.072 0-31.808 12.736-31.808 31.808v737.792c0 31.808-31.808 63.616-63.616 63.616H238.528c-38.208 0-82.688-31.808-82.688-63.616V820.48c0-31.808 38.144-50.88 76.288-50.88h534.272c19.072 0 31.808-12.736 31.808-31.808v-623.36C798.208 44.608 747.328 0 670.976 0H238.528C168.576 0 98.56 38.144 98.56 114.496V915.84c6.4 57.216 63.616 101.76 120.896 108.096h578.752c69.952 0 127.232-57.216 127.232-120.832V152.64c0-12.736-12.8-31.808-31.808-31.808z m-120.832 712.32h-521.6c-19.072 0-31.744 12.8-31.744 31.872s12.672 31.744 31.744 31.744h521.6c19.072 0 31.744-12.672 31.744-31.744 0-19.136-12.672-31.808-31.744-31.808z" fill="#ffffff" p-id="55448"></path></svg>