<?xml version="1.0" standalone="no"?><!DOCTYPE svg PUBLIC "-//W3C//DTD SVG 1.1//EN" "http://www.w3.org/Graphics/SVG/1.1/DTD/svg11.dtd"><svg t="1588823699853" class="icon" viewBox="0 0 1028 1024" version="1.1" xmlns="http://www.w3.org/2000/svg" p-id="75707" xmlns:xlink="http://www.w3.org/1999/xlink" width="200.78125" height="200"><defs><style type="text/css"></style></defs><path d="M489.113665 206.369349c110.63908 41.587739 177.859515 174.197701 120.316731 281.698084l-140.456705-140.979821 52.311622-53.880971-32.171648-33.21788a66.43576 66.43576 0 0 1-67.74355 13.86258L313.869732 380.828608l60.419923 60.158365 40.279949-40.018391 140.195147 140.718263c-68.789783 37.664368-163.735377 26.155811-234.094508-47.080459L287.713921 528.347382a313.869732 313.869732 0 0 0 29.294508 37.664368 48.38825 48.38825 0 0 1-3.923372 3.661813 37.925926 37.925926 0 0 0-5.754278 0A33.740996 33.740996 0 0 0 274.636015 601.583653a32.956322 32.956322 0 0 0 32.956322 32.956321A33.740996 33.740996 0 0 0 340.025543 601.583653a32.956322 32.956322 0 0 0 0-6.015837l5.231162-5.231162a229.64802 229.64802 0 0 0 264.435249 4.18493l39.233716 39.495274 53.880971-52.311622-39.495274-40.018391c113.51622-171.320562-37.925926-340.025543-174.45926-335.317496z m0 0" p-id="75708" fill="#bfbfbf"></path><path d="M900.283014 854.510345H128.68659A128.68659 128.68659 0 0 1 0 725.823755V128.68659A128.68659 128.68659 0 0 1 128.68659 0h771.596424a128.68659 128.68659 0 0 1 128.68659 128.68659v597.137165a128.68659 128.68659 0 0 1-128.68659 128.68659zM128.68659 52.311622A76.374968 76.374968 0 0 0 52.311622 128.68659v597.137165a76.374968 76.374968 0 0 0 76.374968 76.374968h771.596424a76.374968 76.374968 0 0 0 76.374968-76.374968V128.68659A76.374968 76.374968 0 0 0 900.283014 52.311622zM863.141762 1024H170.012771a26.155811 26.155811 0 0 1 0-52.311622H863.141762a26.155811 26.155811 0 0 1 0 52.311622z" p-id="75709" fill="#bfbfbf"></path></svg>