<?xml version="1.0" standalone="no"?><!DOCTYPE svg PUBLIC "-//W3C//DTD SVG 1.1//EN" "http://www.w3.org/Graphics/SVG/1.1/DTD/svg11.dtd"><svg t="1588819648780" class="icon" viewBox="0 0 1024 1024" version="1.1" xmlns="http://www.w3.org/2000/svg" p-id="9256" xmlns:xlink="http://www.w3.org/1999/xlink" width="200" height="200"><defs><style type="text/css"></style></defs><path d="M512 79.55c12.84 0 24.53 3.22 35.05 9.64 10.51 6.43 18.4 15.2 23.66 26.29l101.64 211.18 233.96 34.17c11.68 1.75 22.19 6.43 31.54 14.02 9.34 7.6 16.06 17.24 20.15 28.92 3.51 11.1 3.94 22.34 1.31 33.74-2.63 11.39-8.32 21.47-17.09 30.23L771.37 638.59l39.43 237.46c2.33 11.69 1.01 23.08-3.94 34.17-4.97 11.09-12.42 20.15-22.34 27.16-5.85 4.08-11.98 7.01-18.4 8.76-6.43 1.75-12.86 2.63-19.28 2.63-5.26 0-10.51-0.59-15.77-1.75-5.26-1.18-10.51-3.22-15.77-6.13L512 831.37 307.83 940.9c-4.68 2.92-9.64 4.96-14.9 6.13-5.26 1.16-10.51 1.75-15.77 1.75-7.01 0-13.58-0.88-19.72-2.63-6.13-1.75-12.13-4.68-17.96-8.76-9.94-7.01-17.39-16.07-22.34-27.16-4.97-11.09-6.28-22.48-3.94-34.17l39.43-237.46L81.76 467.72c-8.76-8.76-14.46-18.84-17.09-30.23-2.63-11.39-2.19-22.63 1.31-33.74 4.08-11.09 10.8-20.59 20.15-28.48 9.34-7.89 19.85-12.71 31.54-14.46l233.96-34.17 101.64-211.18c5.26-11.09 13.14-19.85 23.66-26.29 10.54-6.41 22.21-9.62 35.07-9.62z m0 53.45L409.48 345.93l-18.4 37.68-273.39 40.31 198.03 198.03-6.13 39.43-40.31 236.59L512 768.28l242.72 129.68-40.31-236.59-6.13-39.43 198.03-198.03-274.26-40.31L512 133z" p-id="9257" fill="#ffffff"></path></svg>