<?xml version="1.0" standalone="no"?><!DOCTYPE svg PUBLIC "-//W3C//DTD SVG 1.1//EN" "http://www.w3.org/Graphics/SVG/1.1/DTD/svg11.dtd"><svg t="1588819719580" class="icon" viewBox="0 0 1024 1024" version="1.1" xmlns="http://www.w3.org/2000/svg" p-id="9805" xmlns:xlink="http://www.w3.org/1999/xlink" width="200" height="200"><defs><style type="text/css"></style></defs><path d="M736.711111 935.822222c-14.222222 0-28.444444-2.844444-39.822222-8.533333L512 827.733333l-184.888889 96.711111c-42.666667 22.755556-93.866667 5.688889-116.622222-36.977777-8.533333-14.222222-11.377778-34.133333-8.533333-51.2l34.133333-207.644445L88.177778 483.555556c-34.133333-34.133333-34.133333-88.177778-2.844445-119.466667 14.222222-14.222222 31.288889-22.755556 48.355556-25.6l207.644444-31.288889 93.866667-187.733333c19.911111-42.666667 71.111111-59.733333 113.777778-39.822223 17.066667 8.533333 31.288889 22.755556 39.822222 39.822223l93.866667 187.733333 207.644444 31.288889c45.511111 5.688889 79.644444 51.2 71.111111 96.711111-2.844444 19.911111-11.377778 36.977778-25.6 48.355556l-150.755555 145.066666 34.133333 207.644445c8.533333 45.511111-22.755556 91.022222-68.266667 99.555555h-14.222222z m-224.711111-170.666666l213.333333 110.933333c5.688889 2.844444 11.377778 2.844444 17.066667 2.844444 14.222222-2.844444 25.6-17.066667 22.755556-34.133333l-39.822223-236.088889 170.666667-167.822222c5.688889-5.688889 8.533333-11.377778 8.533333-17.066667 2.844444-14.222222-8.533333-31.288889-22.755555-31.288889l-236.088889-34.133333L540.444444 142.222222c-2.844444-5.688889-8.533333-11.377778-14.222222-14.222222-14.222222-5.688889-31.288889 0-36.977778 14.222222l-105.244444 216.177778L142.222222 392.533333c-5.688889 0-11.377778 2.844444-17.066666 8.533334-11.377778 11.377778-11.377778 28.444444 0 39.822222l170.666666 167.822222L256 844.8c0 5.688889 0 11.377778 2.844444 17.066667 8.533333 14.222222 25.6 19.911111 39.822223 11.377777l213.333333-108.088888z" p-id="9806" fill="#bfbfbf"></path></svg>