<?xml version="1.0" standalone="no"?><!DOCTYPE svg PUBLIC "-//W3C//DTD SVG 1.1//EN" "http://www.w3.org/Graphics/SVG/1.1/DTD/svg11.dtd"><svg t="1588819496344" class="icon" viewBox="0 0 1024 1024" version="1.1" xmlns="http://www.w3.org/2000/svg" p-id="6944" xmlns:xlink="http://www.w3.org/1999/xlink" width="200" height="200"><defs><style type="text/css"></style></defs><path d="M844.205101 211.183793 713.806215 211.183793l0 74.517157 74.513064 0c20.566408 0 37.258579 16.688077 37.258579 37.254485l0 409.834132c0 20.566408-16.692171 37.254485-37.258579 37.254485L266.717597 770.044054c-20.566408 0-37.259602-16.688077-37.259602-37.254485L229.457995 322.955436c0-20.566408 16.693194-37.254485 37.259602-37.254485l74.513064 0 0-74.517157-130.399909 0c-30.867008 0-55.885821 25.018813-55.885821 55.885821l0 521.605775c0 30.867008 25.018813 55.886845 55.885821 55.886845l633.374348 0c30.871101 0 55.890938-25.019837 55.890938-55.886845L900.096039 267.069615C900.096039 236.202607 875.076202 211.183793 844.205101 211.183793L844.205101 211.183793zM528.879436 658.272411l13.858636-13.858636 4.752234 4.752234 199.309348-199.328791-52.683896-52.679803L564.774971 526.477736 564.774971 164.615175c0-15.425318-12.515035-27.945469-27.941376-27.945469l-18.627243 0c-15.425318 0-27.944446 12.520151-27.944446 27.945469l0 345.989035L377.13029 397.472594l-54.526871 54.527894L528.879436 658.272411 528.879436 658.272411z" p-id="6945" fill="#bfbfbf"></path></svg>