<?xml version="1.0" standalone="no"?><!DOCTYPE svg PUBLIC "-//W3C//DTD SVG 1.1//EN" "http://www.w3.org/Graphics/SVG/1.1/DTD/svg11.dtd"><svg t="1589860753437" class="icon" viewBox="0 0 1024 1024" version="1.1" xmlns="http://www.w3.org/2000/svg" p-id="9795" xmlns:xlink="http://www.w3.org/1999/xlink" width="200" height="200"><defs><style type="text/css"></style></defs><path d="M533.888 665.6l85.856-85.856a20 20 0 1 1 28.288 28.288l-120 120a20 20 0 0 1-28.288 0L379.744 608a20 20 0 0 1 28.288-28.288l85.856 85.856v-231.712a20 20 0 0 1 40 0v231.68zM225.888 193.888a96 96 0 0 0-96 96v448a96 96 0 0 0 96 96h576a96 96 0 0 0 96-96v-317.92a96 96 0 0 0-96-96h-226.144a96 96 0 0 1-71.52-31.968L425.92 204.544a32 32 0 0 0-23.84-10.656H225.888z m0-64h176.192a96 96 0 0 1 71.52 31.936l78.304 87.488a32 32 0 0 0 23.84 10.656h226.144a160 160 0 0 1 160 160v317.92a160 160 0 0 1-160 160h-576a160 160 0 0 1-160-160v-448a160 160 0 0 1 160-160z m400 80a32 32 0 0 1 0-64h224a32 32 0 1 1 0 64h-224z" fill="#bfbfbf" p-id="9796" data-spm-anchor-id="a313x.7781069.0.i4" class="selected"></path></svg>