<?xml version="1.0" standalone="no"?><!DOCTYPE svg PUBLIC "-//W3C//DTD SVG 1.1//EN" "http://www.w3.org/Graphics/SVG/1.1/DTD/svg11.dtd"><svg t="1588821230546" class="icon" viewBox="0 0 1024 1024" version="1.1" xmlns="http://www.w3.org/2000/svg" p-id="48084" xmlns:xlink="http://www.w3.org/1999/xlink" width="200" height="200"><defs><style type="text/css"></style></defs><path d="M672.348 160c-98.264 0-186.61-64-323.826-64-62.602 0-116.606 12.964-161.442 30.336a96.08 96.08 0 0 0 4.284-41.454C186.134 39.15 148.334 3.188 102.402 0.208 46.484-3.42 0 40.862 0 96c0 35.528 19.314 66.524 48 83.124V992c0 17.674 14.326 32 32 32h32c17.674 0 32-14.326 32-32v-166.886C219.738 790.56 286.518 768 399.652 768c98.264 0 186.61 64 323.826 64 116.958 0 203.944-45.234 257.096-79.962C1007.692 734.322 1024 704.102 1024 671.71V191.874c0-68.918-70.528-115.536-133.808-88.234C818.386 134.618 743.282 160 672.348 160zM928 672c-43.566 30.824-121.648 64-204.522 64-119.89 0-204.004-64-323.826-64-86.722 0-192.758 18.806-255.652 48V256c43.568-30.824 121.648-64 204.522-64 119.89 0 204.004 64 323.826 64 86.542 0 192.64-34.732 255.652-64v480z" p-id="48085" fill="#bfbfbf"></path></svg>