<?xml version="1.0" standalone="no"?><!DOCTYPE svg PUBLIC "-//W3C//DTD SVG 1.1//EN" "http://www.w3.org/Graphics/SVG/1.1/DTD/svg11.dtd"><svg t="1588818722541" class="icon" viewBox="0 0 1024 1024" version="1.1" xmlns="http://www.w3.org/2000/svg" p-id="3755" xmlns:xlink="http://www.w3.org/1999/xlink" width="200" height="200"><defs><style type="text/css"></style></defs><path d="M879.998 325.948a32.605 32.605 0 0 1-4.985-6.79l-0.018 0.01C809.705 204.965 686.711 128 545.74 128c-202.27 0-367.53 158.452-378.428 358h55.168c8.836 0 16 7.163 16 16a16 16 0 0 1-3.96 10.536l-87.239 99.703c-5.819 6.65-15.927 7.324-22.577 1.505a16 16 0 0 1-1.505-1.505l-87.24-99.703c-5.819-6.65-5.145-16.758 1.505-22.577A16 16 0 0 1 48 486h55.229c10.963-234.911 204.888-422 442.51-422 166.229 0 307.578 83.971 382.46 217.446a447.775 447.775 0 0 1 2.83 4.772c0.404 0.641 0.785 1.297 1.144 1.968C970.225 354.039 992 430.476 992 512c0 247.424-200.576 448-448 448-181.065 0-337.042-107.416-407.683-262C135 684 142 674 159.51 668s29.49-1 48.463 30C273.473 816.08 399.403 896 544 896c212.077 0 384-171.923 384-384 0-67.502-17.417-130.935-48.002-186.052zM562 487.403L773.477 609.5c15.306 8.837 20.55 28.407 11.713 43.713-8.836 15.305-28.407 20.55-43.713 11.713L498 524.354a24 24 0 0 1-12-20.785V222c0-17.673 14.327-32 32-32 17.673 0 32 14.327 32 32v244.619a24 24 0 0 0 12 20.784z" p-id="3756" fill="#cdcdcd"></path></svg>