<?xml version="1.0" standalone="no"?><!DOCTYPE svg PUBLIC "-//W3C//DTD SVG 1.1//EN" "http://www.w3.org/Graphics/SVG/1.1/DTD/svg11.dtd"><svg t="1593917806028" class="icon" viewBox="0 0 1058 1024" version="1.1" xmlns="http://www.w3.org/2000/svg" p-id="32563" xmlns:xlink="http://www.w3.org/1999/xlink" width="206.640625" height="200"><defs><style type="text/css"></style></defs><path d="M1042.808163 398.686621L634.601361 46.20771C603.95102 16.253968 565.173696 0 525.699773 0h-0.928798c-39.938322 0.2322-78.715646 17.182766-109.365986 47.600907L15.789569 398.918821c-19.272562 16.950567-21.130159 46.20771-4.179592 65.480272s46.20771 21.130159 65.480272 4.179592L477.866667 116.331973c0.928798-0.696599 1.625397-1.393197 2.321995-2.321996 13.699773-13.699773 29.257143-21.130159 45.046712-21.362358h0.2322c15.789569 0 31.346939 7.198186 44.814512 20.66576 0.696599 0.696599 1.625397 1.393197 2.321996 2.089796l295.822222 255.419501v419.120181c-0.2322 77.554649-63.390476 140.945125-140.945125 141.177324H331.348753c-77.554649-0.2322-140.712925-63.622676-140.945125-140.945124v-173.453062c0-25.54195-20.897959-46.439909-46.439909-46.439909s-46.439909 20.897959-46.439909 46.439909v173.453062c0.2322 128.406349 105.186395 233.360544 233.824943 233.592743h396.364626c128.406349-0.464399 233.360544-105.186395 233.592743-233.824943v-339.011338l20.66576 17.879365c8.823583 7.662585 19.504762 11.377778 30.418141 11.377778 13.003175 0 26.006349-5.34059 35.062131-16.021769 16.950567-19.504762 14.628571-48.761905-4.643991-65.480272z" p-id="32564" fill="#e6e6e6"></path></svg>