<?xml version="1.0" standalone="no"?><!DOCTYPE svg PUBLIC "-//W3C//DTD SVG 1.1//EN" "http://www.w3.org/Graphics/SVG/1.1/DTD/svg11.dtd"><svg t="1588670956421" class="icon" viewBox="0 0 1085 1024" version="1.1" xmlns="http://www.w3.org/2000/svg" p-id="18861" xmlns:xlink="http://www.w3.org/1999/xlink" width="211.9140625" height="200"><defs><style type="text/css"></style></defs><path d="M1079.95813 378.65522C1072.265642 390.218927 1056.630911 393.365854 1045.042228 385.673366 1045.042228 385.673366 540.684764 50.300878 540.684764 50.300878 540.684764 50.300878 38.799886 384.124878 38.799886 384.124878 27.311106 391.767415 11.826228 388.670439 4.183691 377.181659-3.458846 365.692878-0.336894 350.183024 11.151886 342.540488 11.151886 342.540488 484.714423 30.645073 510.539203 10.364878 536.388959-9.940293 566.634423 6.218927 567.183886 7.442732 567.183886 7.442732 1072.939984 343.739317 1072.939984 343.739317 1084.528667 351.431805 1087.650618 367.066537 1079.95813 378.65522ZM185.007106 490.146341C205.686911 490.146341 218.824081 490.146341 234.958325 490.146341 187.454715 524.163122 185.007106 714.627122 185.007106 777.365854 185.007106 880.664976 269.050032 964.682927 372.324179 964.682927 372.324179 964.682927 697.007106 964.682927 697.007106 964.682927 800.306228 964.682927 884.324179 880.664976 884.324179 777.365854 884.324179 714.627122 881.876569 524.163122 834.372959 490.146341 857.850032 490.146341 865.117935 490.146341 884.324179 490.146341 944.690228 533.154341 934.275398 697.593756 934.275398 777.365854 934.275398 908.412878 828.05413 1014.634146 697.007106 1014.634146 697.007106 1014.634146 372.324179 1014.634146 372.324179 1014.634146 241.30213 1014.634146 135.055886 908.412878 135.055886 777.365854 135.055886 697.593756 124.641057 533.154341 185.007106 490.146341Z" p-id="18862" fill="#8a8a8a"></path></svg>