<?xml version="1.0" standalone="no"?><!DOCTYPE svg PUBLIC "-//W3C//DTD SVG 1.1//EN" "http://www.w3.org/Graphics/SVG/1.1/DTD/svg11.dtd"><svg t="1588821455023" class="icon" viewBox="0 0 1024 1024" version="1.1" xmlns="http://www.w3.org/2000/svg" p-id="54382" xmlns:xlink="http://www.w3.org/1999/xlink" width="200" height="200"><defs><style type="text/css"></style></defs><path d="M399.86406 599.948051 640.795365 445.095217 399.86406 290.254663 399.86406 599.948051Z" p-id="54383" fill="#2c2c2c"></path><path d="M394.618593 599.948051" p-id="54384" fill="#2c2c2c"></path><path d="M869.927949 759.768013 154.946978 759.768013c-49.753147 0-90.231047-40.4779-90.231047-90.231047L64.715931 224.40184c0-49.753147 40.4779-90.230024 90.231047-90.230024l714.980971 0c49.753147 0 90.231047 40.476877 90.231047 90.230024l0 445.13615C960.158996 719.290113 919.681096 759.768013 869.927949 759.768013zM154.946978 175.104063c-27.183106 0-49.298799 22.11467-49.298799 49.297776l0 445.13615c0 27.183106 22.11467 49.298799 49.298799 49.298799l714.980971 0c27.183106 0 49.298799-22.11467 49.298799-49.298799L919.226748 224.40184c0-27.183106-22.11467-49.297776-49.298799-49.297776L154.946978 175.104063z" p-id="54385" fill="#2c2c2c"></path><path d="M660.533918 890.960984 364.346125 890.960984c-11.302417 0-20.466124-9.162684-20.466124-20.466124s9.163707-20.466124 20.466124-20.466124l296.187793 0c11.30344 0 20.466124 9.162684 20.466124 20.466124S671.837358 890.960984 660.533918 890.960984z" p-id="54386" fill="#2c2c2c"></path></svg>