<?xml version="1.0" standalone="no"?><!DOCTYPE svg PUBLIC "-//W3C//DTD SVG 1.1//EN" "http://www.w3.org/Graphics/SVG/1.1/DTD/svg11.dtd"><svg t="1588865863066" class="icon" viewBox="0 0 1024 1024" version="1.1" xmlns="http://www.w3.org/2000/svg" p-id="24577" xmlns:xlink="http://www.w3.org/1999/xlink" width="200" height="200"><defs><style type="text/css"></style></defs><path d="M564.8 263.7c43.2 40 70.3 97.2 70.3 160.7 0 121-98.1 219-219 219-57.4 0-109.6-22.1-148.6-58.2C299.9 686.8 395 760.4 507.3 760.4c139 0 251.7-112.7 251.7-251.7 0-119.2-82.9-219-194.2-245z m-57.5 471.9c-69.4 0-132.7-31.1-174.9-82.1 26.5 9.7 54.8 14.8 83.7 14.8 134.5 0 243.8-109.4 243.8-243.8 0-35.3-7.8-70-22.3-101.6 59.2 41.4 96.5 109.7 96.5 185.9 0 125-101.7 226.8-226.8 226.8zM375.7 318.7l18.4-9.7 18.5 9.7-3.5-20.5 14.9-14.6-20.6-3-9.3-18.7-9.2 18.7-20.6 3 14.9 14.6zM276.4 455.3l18.4-9.7 18.5 9.7-3.6-20.5 15-14.6-20.7-3-9.2-18.7-9.2 18.7-20.6 3 14.9 14.6z" fill="#2c2c2c" p-id="24578"></path><path d="M487.4 517.4l18.5-9.7 18.4 9.7-3.5-20.6 14.9-14.5-20.6-3-9.2-18.7-9.2 18.7-20.7 3 15 14.5z" fill="#2c2c2c" p-id="24579"></path><path d="M512 957.9c-246.3 0-446.8-200.4-446.8-446.8S265.6 64.4 512 64.4s446.8 200.4 446.8 446.8S758.3 957.9 512 957.9z m0-871.7c-234.3 0-425 190.6-425 425s190.6 425 425 425 425-190.6 425-425-190.7-425-425-425z" fill="#2c2c2c" p-id="24580"></path></svg>