<?xml version="1.0" standalone="no"?><!DOCTYPE svg PUBLIC "-//W3C//DTD SVG 1.1//EN" "http://www.w3.org/Graphics/SVG/1.1/DTD/svg11.dtd"><svg t="1588687905142" class="icon" viewBox="0 0 1024 1024" version="1.1" xmlns="http://www.w3.org/2000/svg" p-id="2174" xmlns:xlink="http://www.w3.org/1999/xlink" width="200" height="200"><defs><style type="text/css"></style></defs><path d="M91.5 204.5h841.6c15 0 27.2-12.2 27.2-27.2v-35.6c0-15-12.2-27.2-27.2-27.2H91.5c-15 0-27.2 12.2-27.2 27.2v35.6c0 15 12.2 27.2 27.2 27.2M91.5 557.5h841.6c15 0 27.2-12.2 27.2-27.2v-35.6c0-15-12.2-27.2-27.2-27.2H91.5c-15 0-27.2 12.2-27.2 27.2v35.6c0 15 12.2 27.2 27.2 27.2M91.5 910.5h841.6c15 0 27.2-12.2 27.2-27.2v-35.6c0-15-12.2-27.2-27.2-27.2H91.5c-15 0-27.2 12.2-27.2 27.2v35.6c0 14.9 12.2 27.2 27.2 27.2" fill="#ee537a" p-id="2175"></path></svg>