<?xml version="1.0" standalone="no"?><!DOCTYPE svg PUBLIC "-//W3C//DTD SVG 1.1//EN" "http://www.w3.org/Graphics/SVG/1.1/DTD/svg11.dtd"><svg t="1588822380348" class="icon" viewBox="0 0 1024 1024" version="1.1" xmlns="http://www.w3.org/2000/svg" p-id="64504" xmlns:xlink="http://www.w3.org/1999/xlink" width="200" height="200"><defs><style type="text/css"></style></defs><path d="M72.704 545.672533c0-123.0336 0-246.1184 0.034133-369.2032 0-53.1968 34.833067-94.839467 87.466667-102.468266 17.373867-2.5088 35.464533-1.792 53.0944-0.597334 16.7424 1.092267 28.928 17.442133 28.16 34.5088-0.785067 17.476267-14.5408 31.556267-31.812267 32.1536-11.2128 0.392533-22.4256 0.0512-33.672533 0.136534-21.640533 0.187733-35.805867 14.3872-35.805867 36.181333-0.034133 246.152533-0.034133 492.3392 0 738.491733 0 22.033067 14.250667 36.420267 36.369067 36.420267h670.429867c22.903467 0 36.778667-14.199467 36.778666-37.632V179.456c0-9.250133-1.109333-18.158933-7.031466-25.787733-6.690133-8.618667-15.581867-13.2096-26.5216-13.380267-11.2128-0.256-22.408533 0-33.706667-0.136533-19.165867-0.170667-34.116267-14.7456-34.389333-33.297067-0.256-18.517333 14.609067-34.133333 33.6896-33.911467 19.370667 0.221867 39.1168-0.7168 57.838933 3.1232 44.3904 9.233067 75.963733 49.169067 77.499733 94.5152 0.170667 2.56 0.170667 5.137067 0.170667 7.714134v734.8736c-0.085333 44.407467-19.831467 76.9024-59.869867 96.4608-13.1584 6.536533-27.374933 9.181867-42.069333 9.181866-224.8704 0-449.7408 0.068267-674.645333-0.085333-57.275733 0-101.973333-44.9024-102.007467-102.4-0.0512-123.5968 0-247.108267 0-370.653867z m439.4496-338.005333c-43.9296 0-87.825067 0.0512-131.720533 0-42.752-0.017067-71.0656-28.330667-71.1168-71.1168-0.034133-20.5312-0.085333-41.096533 0-61.627733 0.170667-40.925867 28.859733-69.700267 69.632-69.751467a346112 346112 0 0 1 266.24 0c40.311467 0.034133 69.393067 29.115733 69.393066 69.3248 0.1024 21.725867 0.170667 43.451733 0 65.143467-0.2048 37.922133-28.672 67.447467-66.542933 67.857066-45.3632 0.529067-90.589867 0.136533-135.8848 0.136534v0.034133z m134.656-134.417067H377.309867V139.776H646.826667V73.250133h-0.017067zM511.351467 613.376c-66.082133 0-132.1472-0.1024-198.229334 0-9.608533 0.068267-18.551467-1.7408-25.9584-8.3968-10.5472-9.472-14.114133-21.384533-10.205866-34.901333 3.84-13.5168 13.294933-21.5552 27.2896-23.8592 2.5088-0.426667 5.085867-0.546133 7.662933-0.546134 133.290667-0.034133 266.581333-0.034133 399.957333 0 22.715733 0 37.7856 15.274667 36.420267 36.642134-0.938667 14.609067-12.475733 27.630933-26.8288 30.1056a75.741867 75.741867 0 0 1-12.5952 0.8704c-65.860267 0.085333-131.6352 0.085333-197.512533 0.085333z m0.085333 168.7552H309.725867c-14.1824 0-24.7808-6.4-30.856534-19.165867-5.922133-12.424533-4.539733-24.644267 3.959467-35.4816 6.894933-8.925867 16.2816-12.868267 27.4944-12.868266 31.2832 0.1024 62.5664 0.1024 93.866667 0.1024 102.724267 0 205.499733-0.1024 308.104533 0 21.0432 0 35.9424 14.045867 36.027733 33.723733a33.1776 33.1776 0 0 1-33.092266 33.604267c-25.463467 0.290133-50.8928 0.1024-76.305067 0.1024l-127.488-0.017067zM444.637867 376.832c44.817067 0 89.634133-0.119467 134.4512 0.0512 22.766933 0.119467 38.229333 19.968 33.194666 41.728-3.601067 15.138133-16.964267 25.582933-33.3824 25.6512-29.883733 0.119467-59.767467 0.034133-89.668266 0.034133-59.733333 0-119.534933 0.119467-179.268267-0.034133-24.456533-0.085333-40.721067-23.1424-32.4608-45.499733 5.000533-13.499733 17.220267-21.896533 32.6656-21.896534 44.834133-0.085333 89.6512-0.034133 134.468267-0.034133z m0 0" fill="#ffffff" p-id="64505"></path></svg>