<?xml version="1.0" standalone="no"?><!DOCTYPE svg PUBLIC "-//W3C//DTD SVG 1.1//EN" "http://www.w3.org/Graphics/SVG/1.1/DTD/svg11.dtd"><svg t="1588921085022" class="icon" viewBox="0 0 1024 1024" version="1.1" xmlns="http://www.w3.org/2000/svg" p-id="29724" xmlns:xlink="http://www.w3.org/1999/xlink" width="200" height="200"><defs><style type="text/css"></style></defs><path d="M867.196745 371.141902c-19.537985-46.194088-47.504944-87.675852-83.122139-123.294071-35.618219-35.618219-77.099982-63.584154-123.294071-83.123162-47.835472-20.23281-98.639554-30.491455-150.997016-30.491455-52.358485 0-103.161544 10.258645-150.997016 30.491455-46.194088 19.539009-87.675852 47.504944-123.294071 83.123162-35.618219 35.618219-63.584154 77.099982-83.123162 123.294071-20.23281 47.836495-30.491455 98.639554-30.491455 150.997016s10.258645 103.160521 30.491455 150.997016c19.539009 46.194088 47.504944 87.676875 83.123162 123.294071 35.618219 35.618219 77.099982 63.585177 123.294071 83.122139 47.836495 20.23281 98.639554 30.492478 150.997016 30.492478 52.357462 0 103.161544-10.258645 150.997016-30.492478 46.195112-19.537985 87.676875-47.504944 123.294071-83.122139s63.585177-77.101006 83.122139-123.294071c20.23281-47.836495 30.492478-98.639554 30.492478-150.997016S887.430578 418.977373 867.196745 371.141902zM755.131413 767.486812c-65.534576 65.534576-152.667052 101.626585-245.347894 101.626585s-179.813319-36.09201-245.347894-101.626585c-65.534576-65.534576-101.626585-152.667052-101.626585-245.347894 0-92.679819 36.09201-179.813319 101.626585-245.347894 65.534576-65.534576 152.667052-101.626585 245.347894-101.626585s179.813319 36.09201 245.347894 101.626585c65.534576 65.534576 101.626585 152.667052 101.626585 245.347894C856.756975 614.81976 820.665988 701.952236 755.131413 767.486812z" p-id="29725" fill="#2c2c2c"></path><path d="M658.929374 542.605042l-298.293757 0c-11.30344 0-20.466124-9.162684-20.466124-20.466124s9.162684-20.466124 20.466124-20.466124l298.293757 0c11.30344 0 20.466124 9.162684 20.466124 20.466124S670.232814 542.605042 658.929374 542.605042z" p-id="29726" fill="#2c2c2c"></path><path d="M315.561026 474.17144c-11.30344 0-20.466124-9.162684-20.466124-20.466124l0-68.87567c0-43.274596 35.205826-78.480422 78.480422-78.480422l69.3863 0c11.30344 0 20.466124 9.162684 20.466124 20.466124s-9.162684 20.466124-20.466124 20.466124l-69.3863 0c-20.703531 0-37.548174 16.84362-37.548174 37.548174l0 68.87567C336.02715 465.008756 326.864466 474.17144 315.561026 474.17144z" p-id="29727" fill="#2c2c2c"></path><path d="M703.749162 474.426243c-11.30344 0-20.466124-9.162684-20.466124-20.466124l0-69.3863c0-20.703531-16.844643-37.548174-37.548174-37.548174l-68.87567 0c-11.30344 0-20.466124-9.162684-20.466124-20.466124s9.162684-20.466124 20.466124-20.466124l68.87567 0c43.274596 0 78.480422 35.205826 78.480422 78.480422l0 69.3863C724.215286 465.263559 715.052602 474.426243 703.749162 474.426243z" p-id="29728" fill="#2c2c2c"></path><path d="M645.989667 737.927589l-69.3863 0c-11.30344 0-20.466124-9.162684-20.466124-20.466124s9.162684-20.466124 20.466124-20.466124l69.3863 0c20.703531 0 37.548174-16.84362 37.548174-37.547151l0-68.87567c0-11.30344 9.162684-20.466124 20.466124-20.466124s20.466124 9.162684 20.466124 20.466124l0 68.87567C724.471113 702.721763 689.264263 737.927589 645.989667 737.927589z" p-id="29729" fill="#2c2c2c"></path><path d="M442.705797 738.183416l-68.874647 0c-43.274596 0-78.480422-35.205826-78.480422-78.479399l0-69.387323c0-11.30344 9.162684-20.466124 20.466124-20.466124s20.466124 9.162684 20.466124 20.466124l0 69.387323c0 20.703531 16.84362 37.547151 37.548174 37.547151l68.874647 0c11.30344 0 20.466124 9.162684 20.466124 20.466124S454.009238 738.183416 442.705797 738.183416z" p-id="29730" fill="#2c2c2c"></path></svg>