<?xml version="1.0" standalone="no"?><!DOCTYPE svg PUBLIC "-//W3C//DTD SVG 1.1//EN" "http://www.w3.org/Graphics/SVG/1.1/DTD/svg11.dtd"><svg t="1588865201598" class="icon" viewBox="0 0 1024 1024" version="1.1" xmlns="http://www.w3.org/2000/svg" p-id="9659" xmlns:xlink="http://www.w3.org/1999/xlink" width="200" height="200"><defs><style type="text/css"></style></defs><path d="M784.980743 434.567443c-2.292206-12.891611-11.900028-23.267936-24.564465-26.622334-10.590196-2.793626-25.328875-4.15667-45.198411-4.15667-1.856277 0-3.821025 0.034792-5.785773 0.034792-2.293229-4.331655-4.804423-8.593725-7.42511-12.751419 11.791557-19.738553 18.779715-34.551934 22.054295-46.290279 3.385097-12.612249-0.873903-26.062586-10.809183-34.482349L680.609651 282.944164c-6.114255-5.169743-13.865799-7.860015-21.508873-7.860015-4.912893 0-9.825786 1.047866-14.301727 3.179412-11.027148 5.169743-24.346501 14.637372-41.705867 29.589922-4.367471-1.781576-8.843412-3.423983-13.319353-4.89038-3.712555-22.744004-7.861038-38.395472-11.791557-51.915393-4.256954-14.254655-17.358343-24.036439-32.206516-24.036439l-42.469254 0c-14.848173 0-27.949562 9.781784-32.206516 24.036439-3.821025 13.205766-7.970532 28.473495-11.464099 50.377364-4.693906 1.64343-9.498328 3.458775-14.193257 5.519714-16.703427-14.253632-30.132274-23.721261-41.159422-28.892027-4.476965-2.131547-9.389858-3.179412-14.302751-3.179412-7.751544 0-15.393595 2.690272-21.50785 7.895831l-32.643468 27.459399c-10.04375 8.419763-14.193257 21.8701-10.809183 34.447557 3.166109 11.598152 10.372232 26.796296 22.054295 46.359864-2.620687 4.157693-5.131881 8.419763-7.424086 12.786211-1.965771-0.034792-3.930519-0.034792-5.786797-0.034792-19.869536 0-34.609239 1.364067-45.307905 4.15667-12.555967 3.354398-22.162766 13.730723-24.454972 26.622334l-7.314593 41.923832c-2.292206 12.890588 3.166109 25.923416 13.865799 33.363875 6.550183 4.541433 18.34174 11.45796 46.617737 21.346167 0.873903 6.28924 1.964748 12.507872 3.493567 18.689664-2.947122 2.341325-5.895267 4.718465-8.843412 7.127328l-22.162766 17.888416c-12.882402 10.340509-16.375969 28.575826-8.079002 42.903136l21.289885 36.891212c6.114255 10.621918 17.358343 16.769942 29.040407 16.769942 4.040013 0 8.188496-0.769526 12.119015-2.306532l26.638707-10.30674c3.603061-1.357927 6.987135-2.687202 10.480702-4.013407 5.677303 5.308913 11.57257 10.337439 17.904789 15.019065-0.76441 3.63683-1.528819 7.338129-2.183735 11.110035l-5.567809 27.913746c-3.166109 16.246009 5.89629 32.387641 21.398356 38.08234l40.067554 14.528901c3.711532 1.39886 7.642051 2.028193 11.463076 2.028193 11.900028 0 23.364127-6.39464 29.368888-17.398252l13.756305-25.012673c1.855254-3.282766 3.603061-6.568602 5.459339-9.745968 3.929496 0.24457 7.750521 0.349971 11.57257 0.349971 3.930519 0 7.751544-0.105401 11.790534-0.349971 1.746784 3.213181 3.493567 6.463202 5.349845 9.745968l13.756305 25.012673c6.003737 11.004635 17.467837 17.398252 29.367865 17.398252 3.821025 0 7.751544-0.62831 11.463076-2.028193l40.067554-14.528901c15.503089-5.693676 24.564465-21.836331 21.398356-38.08234l-5.567809-27.913746c-0.654916-3.77293-1.419326-7.476275-2.183735-11.110035 6.332219-4.681626 12.338003-9.709129 18.014282-15.020088 3.385097 1.326205 6.769171 2.656503 10.372232 4.01443l26.638707 10.30674c3.930519 1.537006 8.080026 2.306532 12.119015 2.306532 11.682064 0 22.927175-6.148024 29.04143-16.769942l21.288862-36.891212c8.296967-14.32731 4.803399-32.561603-8.079002-42.903136l-22.162766-17.888416c-2.948145-2.408863-5.895267-4.786003-8.843412-7.127328 1.527796-6.145977 2.620687-12.401448 3.493567-18.690688 28.27702-9.887184 40.066531-16.802688 46.61876-21.345144 10.698666-7.442506 16.156982-20.473287 13.864776-33.363875L784.980743 434.567443zM707.138864 504.090866c-2.183735 0.732687-4.584412 1.431605-6.878664 2.131547-0.435928 19.561521-4.03899 38.290071-10.371208 55.757908 0.217964 0.209778 0.436952 0.416486 0.763386 0.593518 14.630209 11.703553 30.023804 24.281009 47.710628 38.464033l-21.289885 36.892235c-21.070898-8.244778-39.740096-15.335267-57.207933-22.148439-0.217964-0.105401-0.436952-0.209778-0.76441-0.349971-12.991895 15.510252-28.822442 28.646434-46.399773 38.917358 0.10847 0.282433 0.10847 0.594541 0.217964 0.873903 3.712555 18.413372 7.42511 37.97387 11.901051 60.228733l-40.067554 14.534018c-10.917654-19.878746-20.525476-37.241182-29.586852-53.695946-0.10847-0.317225-0.217964-0.595564-0.436952-0.873903-9.825786 1.711991-19.869536 2.758834-30.241768 2.758834-10.262738 0-20.306488-1.046842-30.132274-2.758834-0.217964 0.277316-0.327458 0.556679-0.436952 0.873903-8.952906 16.454764-18.669198 33.8172-29.586852 53.695946l-40.067554-14.534018c4.476965-22.254863 8.187473-41.816384 11.900028-60.228733 0.10847-0.278339 0.10847-0.590448 0.217964-0.873903-17.577331-10.270924-33.298384-23.407106-46.399773-38.917358-0.327458 0.140193-0.545422 0.24457-0.873903 0.349971-17.359366 6.813173-36.028565 13.903661-57.099463 22.148439l-21.288862-36.892235c17.686824-14.183024 33.080419-26.76048 47.710628-38.464033 0.327458-0.177032 0.545422-0.38374 0.76441-0.593518-6.332219-17.46886-9.934257-36.196387-10.371208-55.757908-2.293229-0.699941-4.694929-1.39886-6.878664-2.131547-24.346501-7.791453-42.906206-15.338337-52.18657-21.766746l7.424086-41.956577c7.861038-2.062985 20.634969-3.041266 36.683481-3.041266 4.257977 0 8.624425 0.068562 13.319353 0.174985 4.257977 0.140193 8.952906 0.348947 13.537318 0.557702 6.550183-16.663518 15.503089-32.106232 26.530236-45.871747-2.511193-3.914146-5.022387-7.826246-7.314593-11.529591-11.790534-19.110243-19.761066-34.796504-22.490224-44.789089l32.533974-27.460422c9.388834 4.403287 23.364127 14.814404 40.177048 29.731138 3.166109 2.829442 6.550183 5.520737 10.04375 8.664334 15.285125-8.41874 32.098046-15.442714 49.783847-18.971074 0.545422-4.611018 1.201361-10.865465 1.746784-15.092743 3.385097-22.219047 7.206122-37.521568 11.57257-52.194756l42.469254 0c4.367471 14.673188 8.188496 29.975708 11.463076 52.194756 0.654916 4.227278 1.309832 12.192693 1.855254 16.804734 17.686824 3.527336 34.499745 9.713222 49.894364 18.131963 3.384074-3.143597 6.768147-6.252401 9.934257-9.117658 16.813944-14.881942 30.788214-25.538653 40.177048-29.940916l32.534997 27.355021c-2.730181 9.991562-10.69969 25.608238-22.491247 44.754297-2.292206 3.667529-4.803399 7.581676-7.314593 11.492752 11.027148 13.730723 19.97903 29.208229 26.530236 45.87277 4.585435-0.24457 9.279341-0.453325 13.537318-0.559748 4.694929-0.140193 9.17087-0.209778 13.320377-0.209778 16.158005 0 28.822442 0.978281 36.683481 3.075035l7.424086 41.923832C750.044046 488.787322 731.485365 496.300436 707.138864 504.090866zM524.378423 48.101531c-246.956531 0-447.184809 200.184275-447.184809 447.184809 0 246.965741 200.228277 447.184809 447.184809 447.184809 246.955508 0 447.184809-200.218044 447.184809-447.184809C971.563232 248.285806 771.333932 48.101531 524.378423 48.101531zM524.378423 906.937864c-227.304959 0-411.70269-184.322006-411.70269-411.651524 0-227.365334 184.39773-411.653571 411.70269-411.653571 227.303936 0 411.701666 184.290283 411.701666 411.653571C936.08009 722.615858 751.682359 906.937864 524.378423 906.937864zM524.704858 394.670781c-55.570643 0-100.659561 45.032636-100.659561 100.615559 0 55.549154 45.089941 100.582813 100.659561 100.582813 55.571666 0 100.552114-45.033659 100.552114-100.582813C625.256972 439.702394 580.276525 394.670781 524.704858 394.670781zM524.704858 562.329269c-37.009915 0-67.033719-30.081109-67.033719-67.043952 0-36.997636 30.023804-67.075675 67.033719-67.075675 36.902468 0 67.034742 30.079062 67.034742 67.075675C591.739601 532.249183 561.607326 562.329269 524.704858 562.329269z" p-id="9660" fill="#2c2c2c"></path></svg>