<?xml version="1.0" standalone="no"?><!DOCTYPE svg PUBLIC "-//W3C//DTD SVG 1.1//EN" "http://www.w3.org/Graphics/SVG/1.1/DTD/svg11.dtd"><svg t="1588865665238" class="icon" viewBox="0 0 1024 1024" version="1.1" xmlns="http://www.w3.org/2000/svg" p-id="20347" xmlns:xlink="http://www.w3.org/1999/xlink" width="200" height="200"><defs><style type="text/css"></style></defs><path d="M512.1 307.2c-112.7 0-204.1 91.4-204.1 204.1s91.4 204.1 204.1 204.1S716.2 624 716.2 511.3s-91.4-204.1-204.1-204.1z m0 381.1c-97.6 0-177-79.4-177-177s79.4-177 177-177 177 79.4 177 177-79.4 177-177 177z m0-394.8c7.5 0 13.6-6.1 13.6-13.6v-40.8c0-7.6-6.1-13.6-13.6-13.6s-13.6 6.1-13.6 13.6v40.8c0 7.5 6.1 13.6 13.6 13.6z m0 435.6c-7.5 0-13.6 6.1-13.6 13.6v40.8c0 7.6 6.1 13.6 13.6 13.6s13.6-6.1 13.6-13.6v-40.8c0-7.6-6.1-13.6-13.6-13.6zM280.7 497.7h-40.8c-7.5 0-13.6 6.1-13.6 13.6 0 7.6 6.1 13.6 13.6 13.6h40.8c7.5 0 13.6-6.1 13.6-13.6 0-7.6-6.1-13.6-13.6-13.6z m503.6 0h-40.8c-7.5 0-13.6 6.1-13.6 13.6 0 7.6 6.1 13.6 13.6 13.6h40.8c7.5 0 13.6-6.1 13.6-13.6-0.1-7.6-6-13.6-13.6-13.6z" fill="#bfbfbf" p-id="20348"></path><path d="M339.1 360.3c2.7 2.7 6.1 4 9.6 4s7-1.4 9.6-4c5.3-5.3 5.3-13.9 0-19.2l-28.8-28.8c-5.3-5.3-13.9-5.3-19.2 0s-5.3 13.9 0 19.2l28.8 28.8z m346.5 308c-5.3-5.3-13.9-5.3-19.2 0s-5.3 13.9 0 19.2l28.8 28.8c2.7 2.7 6.1 4 9.6 4s7-1.4 9.6-4c5.3-5.3 5.3-13.9 0-19.2l-28.8-28.8z m-342.6 4l-28.8 28.8c-5.3 5.3-5.3 13.9 0 19.2 2.7 2.7 6.1 4 9.6 4s7-1.4 9.6-4l28.8-28.8c5.3-5.3 5.3-13.9 0-19.2-5.1-5.3-13.8-5.3-19.2 0z m356.1-356.1L670.3 345c-5.3 5.3-5.3 13.9 0 19.2 2.7 2.6 6.1 4 9.6 4s7-1.4 9.6-4l28.8-28.8c5.3-5.3 5.3-13.9 0-19.2-5.3-5.3-13.9-5.3-19.2 0z" fill="#bfbfbf" p-id="20349"></path><path d="M512.1 960.3c-247.6 0-449-201.4-449-449s201.4-449 449-449 449 201.4 449 449-201.4 449-449 449z m0-876.1C276.6 84.2 85 275.8 85 511.3s191.6 427.1 427.1 427.1 427.1-191.6 427.1-427.1S747.6 84.2 512.1 84.2z" fill="#bfbfbf" p-id="20350"></path></svg>