<?xml version="1.0" standalone="no"?><!DOCTYPE svg PUBLIC "-//W3C//DTD SVG 1.1//EN" "http://www.w3.org/Graphics/SVG/1.1/DTD/svg11.dtd"><svg t="1588823896407" class="icon" viewBox="0 0 1113 1024" version="1.1" xmlns="http://www.w3.org/2000/svg" p-id="77655" xmlns:xlink="http://www.w3.org/1999/xlink" width="217.3828125" height="200"><defs><style type="text/css"></style></defs><path d="M544.25229748 208.62313352c-53.17706341 0-103.103104 11.80040721-149.81036304 35.28300308-46.69651195 23.48259587-85.67654578 55.72414554-116.88636685 96.62792609-31.23668874 40.89303275-52.02174125 86.84798928-62.31216919 137.74664959h658.01779744c-10.33341698-50.89866032-31.11846947-96.84824332-62.33366335-137.74664959-31.20982034-40.89840629-70.16836001-73.14533023-116.87561976-96.62792609-46.73950026-23.48259587-96.67091439-35.28300307-149.8211094-35.28300308h0.02149415z m0-67.41170774c39.36155934 0 77.63765252 5.50793174 114.76917134 16.51842096 37.16913358 11.12333495 71.28069388 26.85183794 102.35617432 47.18550894a428.35586197 428.35586197 0 0 1 83.9408765 72.0222493c24.88510293 27.64175592 45.63254066 58.65275319 62.17782932 93.03299255a400.99890644 400.99890644 0 0 1 34.24589945 108.31011475c3.65941599 21.68781622 5.50793174 44.16017689 5.50793175 67.41708129H577.82649823v202.12765175c0 18.65173709 6.57190231 34.60593082 19.65659876 47.75510898 13.13305827 13.14380535 28.97440627 19.66197229 47.49180348 19.66197229 18.52814428 0 34.36949227-6.51816694 47.47568213-19.66734582 13.1115634-13.14380535 19.68346644-29.09799908 19.68346644-47.74973545 0-9.21033605 3.26714341-17.19011967 9.8605406-23.70828662 6.53966108-6.62563841 14.46570862-9.99488048 23.73515503-9.99488048 9.26944568 0 17.19549322 3.36924207 23.7351543 9.99488048 6.59339719 6.51816694 9.8605406 14.49795058 9.8605406 23.70828662 0 37.30347346-13.1115634 69.10438944-39.38842703 95.39199942-26.20163339 26.40582925-57.88433009 39.5496346-94.96211207 39.54963532-37.05628857 0-68.74973235-13.14380535-94.95136573-39.54963532-26.27686362-26.29298424-39.38842703-58.08852596-39.38842703-95.39199942V545.69779357H141.21142578c0-23.25690512 1.82702087-45.72926506 5.50793174-67.41708129a402.57336887 402.57336887 0 0 1 34.24589947-108.31011475c16.5237945-34.38023934 37.23899029-65.39661089 62.18857711-93.03299255a430.6396386 430.6396386 0 0 1 83.93550224-72.0222493c31.02711862-20.33367099 65.13867818-36.06217398 102.30243823-47.18550893C466.58240302 146.71398399 504.84774912 141.21142578 544.18781431 141.21142578h0.06448317z" p-id="77656" fill="#2c2c2c"></path></svg>