<?xml version="1.0" standalone="no"?><!DOCTYPE svg PUBLIC "-//W3C//DTD SVG 1.1//EN" "http://www.w3.org/Graphics/SVG/1.1/DTD/svg11.dtd"><svg t="1588865569402" class="icon" viewBox="0 0 1024 1024" version="1.1" xmlns="http://www.w3.org/2000/svg" p-id="17728" xmlns:xlink="http://www.w3.org/1999/xlink" width="200" height="200"><defs><style type="text/css"></style></defs><path d="M829.49 194.51C744.69 109.7 631.93 63 512 63s-232.69 46.7-317.49 131.51S63 392.07 63 512s46.7 232.69 131.51 317.49S392.07 961 512 961s232.69-46.7 317.49-131.51S961 631.93 961 512s-46.7-232.69-131.51-317.49z m-30.24 604.74c-76.72 76.73-178.74 119-287.25 119s-210.53-42.25-287.25-119-119-178.74-119-287.25 42.26-210.53 119-287.25 178.74-119 287.25-119 210.53 42.26 287.25 119 119 178.74 119 287.25-42.25 210.53-119 287.25z" p-id="17729" fill="#bfbfbf"></path><path d="M646.2 289.25a40.51 40.51 0 0 0-57.2 0l-36.46 36.47h-81.08L435 289.25a40.51 40.51 0 0 0-57.2 0L261.59 405.46a40.51 40.51 0 0 0 0 57.21l44.49 44.48a40.54 40.54 0 0 0 53.69 3.13v195.84a40.49 40.49 0 0 0 40.45 40.44h223.57a40.49 40.49 0 0 0 40.45-40.44V510.28a40.54 40.54 0 0 0 53.69-3.13l44.48-44.48a40.49 40.49 0 0 0 0-57.2z m91 148.22L692.73 482a4.85 4.85 0 0 1-6.8 0l-57.33-57.37v281.49a4.87 4.87 0 0 1-4.81 4.81H400.21a4.87 4.87 0 0 1-4.81-4.81V424.63L338.07 482a4.85 4.85 0 0 1-6.8 0l-44.49-44.48a4.89 4.89 0 0 1 0-6.81L403 314.46a4.89 4.89 0 0 1 6.82 0l46.9 46.9H567.3l46.9-46.89a4.88 4.88 0 0 1 6.81 0l116.21 116.2a4.88 4.88 0 0 1 0 6.8z" p-id="17730" fill="#bfbfbf"></path></svg>