<?xml version="1.0" standalone="no"?><!DOCTYPE svg PUBLIC "-//W3C//DTD SVG 1.1//EN" "http://www.w3.org/Graphics/SVG/1.1/DTD/svg11.dtd"><svg t="1588672116037" class="icon" viewBox="0 0 1024 1024" version="1.1" xmlns="http://www.w3.org/2000/svg" p-id="36921" xmlns:xlink="http://www.w3.org/1999/xlink" width="200" height="200"><defs><style type="text/css"></style></defs><path d="M612.352 56.32h1.536c1.024 5.632 1.024 20.48-8.192 45.056l-79.36 215.552c-20.48 55.808-68.096 96.256-113.152 96.256-8.192 0-16.384-1.536-24.576-4.096-50.688-18.432-76.288-74.752-57.856-124.928 23.04-62.464 110.592-150.528 187.392-188.928l51.712-25.6c24.064-12.288 37.888-13.312 42.496-13.312m94.72 268.288c11.264 0 22.528 2.048 33.28 6.144 62.464 23.04 150.528 110.592 188.928 187.392l25.6 51.712c11.776 23.552 13.312 37.888 13.312 44.032-1.536 0-3.072 0.512-6.144 0.512-7.168 0-19.456-1.536-38.912-8.704l-216.064-79.36c-68.096-25.088-110.08-88.064-92.16-137.728 14.336-38.4 51.2-64 92.16-64m-644.608 84.992c7.168 0 19.456 1.536 38.912 8.704l215.552 79.36c34.816 12.8 64 36.352 81.408 64 15.36 25.088 18.944 51.2 10.752 73.728-13.824 37.888-50.688 63.488-91.648 63.488-11.264 0-22.528-2.048-33.28-6.144-62.464-23.04-150.528-110.592-188.928-187.392l-25.6-51.712c-11.776-23.552-13.312-37.888-13.312-44.032h6.144m548.864 201.216c8.192 0 16.896 1.536 24.576 4.096 50.688 18.432 76.288 74.752 57.856 124.928-23.04 62.464-110.592 150.528-187.392 188.928l-51.712 25.6c-23.552 11.776-37.376 13.312-42.496 13.312h-1.536c-1.024-5.632-1.024-20.48 8.192-45.056l79.36-215.552c19.968-55.808 68.096-96.256 113.152-96.256m1.024-600.064c-16.896 0-37.888 5.632-62.464 17.92l-51.712 25.6c-88.576 44.032-182.784 140.288-209.92 214.016-27.136 73.728 10.752 156.672 84.48 183.808 12.8 4.608 26.624 7.168 39.936 7.168 63.488 0 128-49.664 156.16-125.952l79.36-215.552c25.088-67.584 8.704-107.008-35.84-107.008z m94.72 268.8c-58.368 0-113.152 35.84-134.656 93.696-27.136 73.728 26.112 162.304 118.784 196.096l215.552 79.36c20.992 7.68 39.424 11.776 54.784 11.776 51.712 0 67.584-41.984 33.792-110.08l-25.6-51.712c-44.032-88.576-140.288-182.784-214.016-209.92-15.872-6.656-32.256-9.216-48.64-9.216zM62.464 364.032c-51.712 0-67.584 41.984-33.792 110.08l25.6 51.712c44.032 88.576 140.288 182.784 214.016 209.92 15.872 6.144 32.768 8.704 49.152 8.704 58.368 0 113.152-35.84 134.656-93.696 27.136-73.728-26.112-162.304-118.784-196.096l-215.552-79.36c-21.504-7.68-39.936-11.264-55.296-11.264z m548.864 201.216c-63.488 0-128 49.664-156.16 125.952l-79.36 215.552c-24.576 67.072-8.192 106.496 36.352 106.496 16.896 0 37.888-5.632 62.464-17.92l51.712-25.6c88.576-44.032 182.784-140.288 209.92-214.016s-10.752-156.16-84.992-183.808c-12.8-4.608-26.624-6.656-39.936-6.656z" p-id="36922" fill="#e6e6e6"></path></svg>