<?xml version="1.0" standalone="no"?><!DOCTYPE svg PUBLIC "-//W3C//DTD SVG 1.1//EN" "http://www.w3.org/Graphics/SVG/1.1/DTD/svg11.dtd"><svg t="1588820436480" class="icon" viewBox="0 0 1170 1024" version="1.1" xmlns="http://www.w3.org/2000/svg" p-id="24251" xmlns:xlink="http://www.w3.org/1999/xlink" width="228.515625" height="200"><defs><style type="text/css"></style></defs><path d="M978.16047383 962H174.88084414a115.477875 115.477875 0 0 1-112.62371221-118.0234793V528.73297842a115.477875 115.477875 0 0 1 112.62371221-118.02348017h158.13603457a39.34115948 39.34115948 0 1 1 0 78.68231982H174.88084414a36.97554727 36.97554727 0 0 0-33.68426133 39.34116035v315.24354228a36.97554727 36.97554727 0 0 0 33.68426133 39.34115948h803.27962969a36.97554727 36.97554727 0 0 0 33.68426133-39.34115948V528.73297842a36.97554727 36.97554727 0 0 0-33.68426133-39.34116035h-158.13603457a39.34115948 39.34115948 0 1 1 0-78.68231982h158.13603457a115.477875 115.477875 0 0 1 112.62371309 118.02348017v315.24354228A115.477875 115.477875 0 0 1 978.16047383 962zM771.94079932 296.54299531a39.34115948 39.34115948 0 0 1-55.54046075-0.25713193l-100.2813873-99.76712432v456.15174873a39.59829141 39.59829141 0 0 1-79.19658369 0V194.46168536l-102.3384419 101.82417802a39.4440126 39.4440126 0 1 1-55.79759267-55.79759268l167.90704189-167.13564609A39.72685781 39.72685781 0 0 1 574.46360528 62.03882656h2.0570537a31.24150928 31.24150928 0 0 1 21.85620029 7.45682169 49.8835626 49.8835626 0 0 1 6.17116202 3.85697636l167.90704189 167.13564609a39.41829932 39.41829932 0 0 1 0 55.79759268c-0.25713193 0-0.25713193 0.25713193-0.51426386 0.25713193z" fill="#2c2c2c" p-id="24252"></path></svg>