<?xml version="1.0" standalone="no"?><!DOCTYPE svg PUBLIC "-//W3C//DTD SVG 1.1//EN" "http://www.w3.org/Graphics/SVG/1.1/DTD/svg11.dtd"><svg t="1588920803739" class="icon" viewBox="0 0 1024 1024" version="1.1" xmlns="http://www.w3.org/2000/svg" p-id="19835" xmlns:xlink="http://www.w3.org/1999/xlink" width="200" height="200"><defs><style type="text/css"></style></defs><path d="M706.021053 269.473684H315.284211c-29.642105 0-53.894737 24.252632-53.894737 53.894737v353.010526c0 29.642105 24.252632 53.894737 53.894737 53.894737h390.736842c29.642105 0 53.894737-24.252632 53.894736-53.894737V323.368421c0-29.642105-26.947368-53.894737-53.894736-53.894737z m-390.736842 35.031579h390.736842c10.778947 0 18.863158 8.084211 18.863158 18.863158v18.863158H299.115789V323.368421c0-10.778947 5.389474-18.863158 16.168422-18.863158z m409.6 282.947369h-88.926316c-29.642105 0-53.894737-24.252632-53.894737-53.894737s24.252632-53.894737 53.894737-53.894737h88.926316v107.789474z m-94.31579-140.126316c-48.505263 2.694737-86.231579 37.726316-86.231579 88.926316 0 48.505263 37.726316 88.926316 88.926316 88.926315h88.926316v53.894737c0 10.778947-8.084211 18.863158-18.863158 18.863158H315.284211c-10.778947 0-18.863158-8.084211-18.863158-18.863158V374.568421h425.768421v72.757895h-91.621053z" fill="#ffffff" p-id="19836"></path><path d="M630.568421 533.557895c0 8.084211 5.389474 18.863158 13.473684 21.557894 8.084211 5.389474 18.863158 5.389474 26.947369 0 8.084211-5.389474 13.473684-13.473684 13.473684-21.557894s-5.389474-18.863158-13.473684-21.557895c-8.084211-5.389474-18.863158-5.389474-26.947369 0-8.084211 5.389474-13.473684 13.473684-13.473684 21.557895z m0 0" fill="#ffffff" p-id="19837"></path><path d="M512 53.894737c253.305263 0 458.105263 204.8 458.105263 458.105263s-204.8 458.105263-458.105263 458.105263S53.894737 765.305263 53.894737 512 258.694737 53.894737 512 53.894737m0-40.421053C237.136842 13.473684 13.473684 237.136842 13.473684 512S237.136842 1010.526316 512 1010.526316 1010.526316 786.863158 1010.526316 512 786.863158 13.473684 512 13.473684z" fill="#ffffff" p-id="19838"></path></svg>