<?xml version="1.0" standalone="no"?>
<!DOCTYPE svg PUBLIC "-//W3C//DTD SVG 1.1//EN" "http://www.w3.org/Graphics/SVG/1.1/DTD/svg11.dtd">
<svg t="1588672211848" class="icon" viewBox="0 0 1024 1024" version="1.1" xmlns="http://www.w3.org/2000/svg" p-id="37684" xmlns:xlink="http://www.w3.org/1999/xlink" width="200" height="200">
    <defs>
        <style type="text/css"/>
    </defs>
    <path d="M295.424 183.854545C315.438545 85.643636 399.36 11.636364 500.363636 11.636364c101.003636 0 184.925091 74.007273 204.939637 172.218181h73.262545a49.896727 49.896727 0 0 1 1.256727 0c78.894545 0 144.896 59.857455 151.877819 137.681455l47.336727 479.185455c9.169455 102.353455-66.932364 192.558545-169.751273 201.588363-5.492364 0.465455-11.031273 0.744727-16.523636 0.744727H231.237818C128.046545 1003.054545 44.218182 919.924364 44.218182 817.198545c0-5.492364 0.232727-10.984727 0.791273-16.942545L92.253091 322.001455A152.157091 152.157091 0 0 1 244.177455 183.854545h51.246545z m71.959273 0h265.960727c-18.106182-59.578182-71.028364-102.4-132.980364-102.4-61.952 0-114.874182 42.821818-132.980363 102.4zM290.909091 281.6H244.177455c-28.485818 0-52.084364 21.410909-54.597819 49.570909L142.289455 809.425455a86.946909 86.946909 0 0 0-0.325819 7.77309c0 48.546909 39.889455 88.110545 89.274182 88.110546h561.524364c2.653091 0 5.306182-0.139636 7.912727-0.372364 49.198545-4.328727 85.317818-47.150545 81.035636-95.045818L834.373818 330.752a54.411636 54.411636 0 0 0-55.808-49.152H709.818182v20.945455a34.909091 34.909091 0 1 1-69.818182 0v-20.945455h-279.272727v20.945455a34.909091 34.909091 0 0 1-69.818182 0v-20.945455zM512 379.904L560.919273 372.363636v53.899637L721.454545 388.189091V791.272727h-47.383272l-13.172364-351.138909-125.44 60.229818H512V379.904z m55.668364 155.368727h64.325818l-19.176727 83.968H651.636364L598.341818 721.454545v-76.567272H558.545455l9.122909-109.614546zM294.027636 407.598545L477.137455 372.363636l11.589818 256H438.551273V445.346909l-109.707637 24.389818v118.784H279.272727l14.754909-180.922182z m67.956364 127.674182h33.605818L410.530909 651.636364 512 700.229818l-16.802909 67.770182-99.607273-67.770182V768H349.090909l12.893091-232.727273z" fill="#000" p-id="37685"/>
</svg>
