<?xml version="1.0" standalone="no"?><!DOCTYPE svg PUBLIC "-//W3C//DTD SVG 1.1//EN" "http://www.w3.org/Graphics/SVG/1.1/DTD/svg11.dtd"><svg t="1595833811508" class="icon" viewBox="0 0 1059 1024" version="1.1" xmlns="http://www.w3.org/2000/svg" p-id="59233" xmlns:xlink="http://www.w3.org/1999/xlink" width="206.8359375" height="200"><defs><style type="text/css"></style></defs><path d="M953.37931 1024H105.931034a105.931034 105.931034 0 0 1-105.931034-105.931034V247.172414a105.931034 105.931034 0 0 1 105.931034-105.931035h105.931035v105.931035a105.931034 105.931034 0 0 0 211.862069 0V141.241379h211.862069v105.931035a105.931034 105.931034 0 0 0 211.862069 0V141.241379h105.931034a105.931034 105.931034 0 0 1 105.931035 105.931035v670.896552a105.931034 105.931034 0 0 1-105.931035 105.931034zM741.517241 282.482759a35.310345 35.310345 0 0 1-35.310344-35.310345V35.310345a35.310345 35.310345 0 0 1 70.620689 0v211.862069a35.310345 35.310345 0 0 1-35.310345 35.310345zM317.793103 282.482759a35.310345 35.310345 0 0 1-35.310344-35.310345V35.310345a35.310345 35.310345 0 0 1 70.620689 0v211.862069a35.310345 35.310345 0 0 1-35.310345 35.310345z" fill="#ee537a" p-id="59234" data-spm-anchor-id="a313x.7781069.0.i50" class="selected"></path><path d="M635.586207 847.448276c-58.509241 0-105.931034-86.934069-105.931035-194.206897s47.421793-194.206897 105.931035-194.206896 105.931034 86.934069 105.931034 194.206896-47.421793 194.206897-105.931034 194.206897z m35.310345-317.793104h-70.62069v247.172414h70.62069v-247.172414z m-282.482759 0h-35.310345v-35.310344h105.931035v317.793103h-70.62069v-282.482759z" fill="#FFFFFF" p-id="59235"></path></svg>