<?xml version="1.0" standalone="no"?><!DOCTYPE svg PUBLIC "-//W3C//DTD SVG 1.1//EN" "http://www.w3.org/Graphics/SVG/1.1/DTD/svg11.dtd"><svg t="1595833881279" class="icon" viewBox="0 0 1024 1024" version="1.1" xmlns="http://www.w3.org/2000/svg" p-id="60984" xmlns:xlink="http://www.w3.org/1999/xlink" width="200" height="200"><defs><style type="text/css"></style></defs><path d="M858.91 103.07l-99.07 199.75c-83.9-80.67-225.92-89.25-225.92-89.25l66.34-130.66C602.82 71.9 612.6 64.08 623.9 64h215.17c13.72 0 24.86 11.14 24.86 24.87a24.133 24.133 0 0 1-5.02 14.2z m2.85 509.22c0 192.03-155.81 347.71-348 347.71s-348-155.68-348-347.71c0-192.1 155.81-347.8 348-347.8s348 155.7 348 347.8z m-184.99-80.03l-94.82-13.79-42.4-85.85c-14.52-29.41-37.31-28.87-51.58 0l-42.4 85.85-94.82 13.79c-32.48 4.71-38.97 26.53-15.94 48.99l68.64 66.78-16.22 94.4c-5.54 32.29 13.25 45.24 41.69 30.27l84.83-44.58 84.8 44.58c29.05 15.26 47.17 1.44 41.73-30.27l-16.2-94.4 68.61-66.78c23.5-22.95 15.88-44.38-15.92-48.99zM165.12 103.07a24.243 24.243 0 0 1-5.06-14.2c0-13.73 11.14-24.87 24.87-24.87H400.1c11.61 0 20.93 8.1 23.65 18.91l66.33 130.66s-142.02 8.57-225.92 89.31l-99.04-199.81z m0 0" p-id="60985" fill="#ffffff"></path></svg>