<?xml version="1.0" standalone="no"?><!DOCTYPE svg PUBLIC "-//W3C//DTD SVG 1.1//EN" "http://www.w3.org/Graphics/SVG/1.1/DTD/svg11.dtd"><svg t="1595832738559" class="icon" viewBox="0 0 1024 1024" version="1.1" xmlns="http://www.w3.org/2000/svg" p-id="19341" xmlns:xlink="http://www.w3.org/1999/xlink" width="200" height="200"><defs><style type="text/css"></style></defs><path d="M128 512h128c35.3 0 64 28.7 64 64v320c0 35.3-28.7 64-64 64H128c-35.3 0-64-28.7-64-64V576c0-35.3 28.7-64 64-64z m320-448h128c35.3 0 64 28.7 64 64v768c0 35.3-28.7 64-64 64H448c-35.3 0-64-28.7-64-64V128c0-35.3 28.7-64 64-64z m320 256h128c35.3 0 64 28.7 64 64v512c0 35.3-28.7 64-64 64H768c-35.3 0-64-28.7-64-64V384c0-35.3 28.7-64 64-64z" p-id="19342" data-spm-anchor-id="a313x.7781069.0.i37" class="selected" fill="#ffffff"></path></svg>