<?xml version="1.0" standalone="no"?><!DOCTYPE svg PUBLIC "-//W3C//DTD SVG 1.1//EN" "http://www.w3.org/Graphics/SVG/1.1/DTD/svg11.dtd"><svg t="1596373464918" class="icon" viewBox="0 0 1024 1024" version="1.1" xmlns="http://www.w3.org/2000/svg" p-id="3043" xmlns:xlink="http://www.w3.org/1999/xlink" width="200" height="200"><defs><style type="text/css"></style></defs><path d="M387.072 779.264H140.288L102.4 753.664 4.096 512v-29.696l89.088-237.568 76.8 28.672-83.968 222.208 81.92 201.728h191.488l25.6-63.488 37.888-26.624H512v81.92h-61.44l-25.6 64.512zM883.712 779.264H636.928l-37.888-25.6-25.6-64.512h-61.44v-81.92h89.088l38.912 26.624 24.576 63.488h191.488l81.92-201.728-83.968-222.208 76.8-28.672 89.088 237.568V512L921.6 753.664z" fill="#ffffff" p-id="3044" data-spm-anchor-id="a313x.7781069.0.i2" class="selected"></path><path d="M54.272 433.152h907.264v75.776H54.272z" fill="#ffffff" p-id="3045" data-spm-anchor-id="a313x.7781069.0.i4" class="selected"></path><path d="M137.216 545.792h254.976L333.824 675.84H197.632zM633.856 545.792h254.976L830.464 675.84H694.272z" fill="#ffffff" p-id="3046" data-spm-anchor-id="a313x.7781069.0.i3" class="selected"></path></svg>