<?xml version="1.0" standalone="no"?><!DOCTYPE svg PUBLIC "-//W3C//DTD SVG 1.1//EN" "http://www.w3.org/Graphics/SVG/1.1/DTD/svg11.dtd"><svg t="1596374267638" class="icon" viewBox="0 0 1024 1024" version="1.1" xmlns="http://www.w3.org/2000/svg" p-id="14980" xmlns:xlink="http://www.w3.org/1999/xlink" width="200" height="200"><defs><style type="text/css"></style></defs><path d="M0 0h1024v1024H0z" fill="#193545" p-id="14981"></path><path d="M0 0h1024v1024H0V0z m42.666667 42.666667v938.666666h938.666666V42.666667H42.666667z" fill="#50DBE1" p-id="14982"></path><path d="M162.133333 494.933333l-42.666666-68.266666 149.333333-89.6L119.466667 213.333333 170.666667 149.333333l196.266666 162.133334-4.266666 64-200.533334 119.466666z m546.133334 0l-200.533334-119.466666-4.266666-64 196.266666-162.133334L750.933333 213.333333 597.333333 337.066667l149.333334 89.6-38.4 68.266666z m170.666666-81.066666c-34.133333 0-64-29.866667-64-64l64-149.333334 64 149.333334c0 34.133333-25.6 64-64 64z m-64 192l64-149.333334 64 149.333334c0 34.133333-29.866667 64-64 64s-64-29.866667-64-64z m-153.6 68.266666l55.466667 46.933334-85.333333 110.933333h-59.733334l-55.466666-72.533333-55.466667 72.533333H413.866667l-55.466667-76.8-55.466667 72.533333H243.2l-81.066667-115.2 59.733334-46.933333 55.466666 72.533333 55.466667-72.533333h59.733333l51.2 72.533333 51.2-68.266666H554.666667l55.466666 72.533333 51.2-68.266667z" fill="#50DBE1" p-id="14983"></path></svg>