<?xml version="1.0" standalone="no"?><!DOCTYPE svg PUBLIC "-//W3C//DTD SVG 1.1//EN" "http://www.w3.org/Graphics/SVG/1.1/DTD/svg11.dtd"><svg t="1596374171914" class="icon" viewBox="0 0 1024 1024" version="1.1" xmlns="http://www.w3.org/2000/svg" p-id="13657" xmlns:xlink="http://www.w3.org/1999/xlink" width="200" height="200"><defs><style type="text/css"></style></defs><path d="M524.526808 119.049829s141.288134-8.028091 211.12903 134.865179c22.476727 47.362965 18.463284 50.574442 20.871591 64.221113s3.211477 126.035123 3.211477 126.035123S681.550818 459.020863 653.453103 567.394668c-40.139249-15.251807-227.184007-12.041534-264.110575 0-4.816614-46.559795-64.222317-111.585282-109.176976-126.035122 0.80317-30.504818 0-102.754021 0-102.754021s20.605473-215.943235 244.361256-219.555696z" fill="#ffffff" p-id="13658"></path><path d="M520.026886 607.332824s34.084766-9.633227 174.368636 21.072684v-36.726678s13.245687-87.301121 94.526041-110.180035 116.200802 40.941215 114.394572 78.26997-31.910065 64.422206-52.982749 72.85128c-10.235304 5.41869-9.633227 16.256071-12.041534 28.297605s-13.245687 49.972366-13.245687 54.186902-1.80623 17.460224-1.80623 17.460224-4.214537 79.474124-95.128118 96.934348c0 0 37.328755 24.685144 10.83738 58.401439s-67.43259 12.643611-68.636743-21.674761c0-23.480991 15.051917-34.920448 24.685145-34.920448h-342.581639s20.470608 10.83738 19.266454 34.318372-25.889298 40.726876-41.543292 39.328853-39.737062-13.439556-37.328755-43.54339c1.80623-22.878914 17.460224-31.307988 22.276838-31.307988s-25.287221 3.010383-60.809746-28.899682-37.328755-51.778596-40.339139-84.290737c0 0-12.643611-65.62636-14.449841-68.034666s-8.429074-15.653994-20.470607-19.868531-43.951599-26.491375-43.951599-69.23882 28.899681-84.892814 84.892814-80.678277 110.180035 32.512141 123.425722 111.384188 4.816614 27.695528 4.816614 34.318372 69.840897-17.159186 171.825463-17.460224z" fill="#ffffff" p-id="13659"></path></svg>