<?xml version="1.0" standalone="no"?><!DOCTYPE svg PUBLIC "-//W3C//DTD SVG 1.1//EN" "http://www.w3.org/Graphics/SVG/1.1/DTD/svg11.dtd"><svg t="1596373322444" class="icon" viewBox="0 0 2091 1024" version="1.1" xmlns="http://www.w3.org/2000/svg" p-id="2522" xmlns:xlink="http://www.w3.org/1999/xlink" width="408.3984375" height="200"><defs><style type="text/css"></style></defs><path d="M1168.659 7.418c-34.373-64.453 38.67-94.533 81.637-68.751-4.29 64.453-64.453 34.373-81.637 68.751v0zM1082.722 11.715c12.889-30.081 64.453-47.267 77.347 4.29-25.782-12.886-47.267 30.082-77.347-4.29v0zM1108.506 346.875c-17.186 0-30.081-12.896-30.081-30.081 0-17.186 12.895-30.082 30.081-30.082s30.074 12.896 30.074 30.082v8.596c98.832 0 124.614-154.694 412.506-137.503-146.092-244.923-442.578-201.954-532.815-30.081-90.236 167.583-150.398 348.053-313.673 335.158 30.074 0 94.532-21.485 103.122-38.671-158.988-150.389 51.565-227.737-4.299-455.473-85.937 111.718-227.737 111.718-176.172 270.706-120.317-133.204-223.438 8.596-335.158-17.186 81.637 171.874 266.407 17.186 339.457 240.625 68.751 262.114 210.55 395.317 365.237 442.585-42.97-98.832-60.161-163.284 0-317.972-17.186 55.856-25.781 107.42-21.485 146.092 0 47.267 8.589 85.937 21.485 116.018 8.589 25.782 21.485 42.97 30.074 55.862 25.782 42.97 47.267 85.937 38.677 158.979 184.763-107.42 133.204-399.611 98.823-541.41 34.378 94.533 64.453 240.633 42.97 369.537 4.299 0 8.596-4.299 12.895-4.299 64.453-25.782 128.905-81.637 171.874-141.793 0 0-34.371-55.862-38.671-128.912 4.299 21.485 8.596 38.677 17.186 60.161 8.596 25.777 17.186 42.97 21.485 51.559 21.485 42.967 42.97 90.234 51.565 154.686 180.469-171.874 60.154-330.859 38.671-472.659 0-8.59 4.299-12.889 4.299-21.485 30.081-128.905 73.049-184.763 94.533-206.246-326.569-17.191-317.972 137.495-446.877 124.607-4.299-4.297-17.194 8.599-25.782 8.599v0zM1108.506 346.875z" p-id="2523" fill="#ffffff"></path></svg>