<?xml version="1.0" standalone="no"?><!DOCTYPE svg PUBLIC "-//W3C//DTD SVG 1.1//EN" "http://www.w3.org/Graphics/SVG/1.1/DTD/svg11.dtd"><svg t="1591783493819" class="icon" viewBox="0 0 1024 1024" version="1.1" xmlns="http://www.w3.org/2000/svg" p-id="3928" xmlns:xlink="http://www.w3.org/1999/xlink" width="200" height="200"><defs><style type="text/css"></style></defs><path d="M911 498.75c-34.33-32.43-74.86-8.66-74.86 24.57v354.19a21.75 21.75 0 0 1-21.69 21.69h-665.6a21.75 21.75 0 0 1-21.69-21.69V211.89a21.75 21.75 0 0 1 21.69-21.69h353.47c20.7 0 39.4-16.85 40.65-37.52A40 40 0 0 0 503 110.2H148.85A101.69 101.69 0 0 0 47.16 211.89v665.62A101.69 101.69 0 0 0 148.85 979.2h726.5a40.82 40.82 0 0 0 40.82-40.82V510.67a18.84 18.84 0 0 0-5.17-11.92z" fill="#ffffff" p-id="3929"></path><path d="M965 221.55l-165-165a40 40 0 0 0-56.57 0l-434.56 434.7a40 40 0 0 0-9.47 15.06l-87.94 251.07a40 40 0 0 0 50.65 51.09L515 722.34a40 40 0 0 0 15.39-9.58L965 278.12a40 40 0 0 0 0-56.57zM314.14 706.24l57.75-164.88 2-2L482.31 647.7l-1.91 1.91z m189.38-79.75L395.14 518.11 771.8 141.45l108.38 108.38z" fill="#ffffff" p-id="3930"></path><path d="M532.58 524.57a15 15 0 0 0 21.21 0l263-263a15 15 0 0 0-21.21-21.21l-263 263a15 15 0 0 0 0 21.21z" fill="#ffffff" p-id="3931"></path><path d="M506.200929 550.946243m-10.606602 10.606601a15 15 0 1 0 21.213204-21.213203 15 15 0 1 0-21.213204 21.213203Z" fill="#ffffff" p-id="3932"></path></svg>