<?xml version="1.0" standalone="no"?><!DOCTYPE svg PUBLIC "-//W3C//DTD SVG 1.1//EN" "http://www.w3.org/Graphics/SVG/1.1/DTD/svg11.dtd"><svg t="1597755422905" class="icon" viewBox="0 0 1024 1024" version="1.1" xmlns="http://www.w3.org/2000/svg" p-id="2365" xmlns:xlink="http://www.w3.org/1999/xlink" width="200" height="200"><defs><style type="text/css"></style></defs><path d="M858.304512 338.161664 648.942592 338.161664c43.041792-28.939264 83.776512-66.617344 88.58624-107.684864 2.358272-20.025344-2.22208-49.388544-37.525504-75.53024-19.586048-14.51008-39.45984-21.844992-59.014144-21.844992-62.317568 0-97.565696 71.615488-116.614144 135.614464-22.769664-81.58208-66.72384-186.505216-142.217216-186.505216-22.018048 0-43.97056 8.94976-65.270784 26.602496-42.048512 34.879488-46.189568 71.092224-42.242048 95.343616 8.790016 54.243328 67.00032 100.873216 123.082752 134.00576L166.32832 338.162688c-16.954368 0-30.68416 13.73696-30.68416 30.691328l0 167.871488c0 16.951296 13.729792 30.68928 30.68416 30.68928l7.986176 0 0 367.096832c0 16.946176 13.737984 30.683136 30.686208 30.683136l614.596608 0c16.96768 0 30.722048-13.73696 30.722048-30.683136L850.31936 567.412736l7.986176 0c16.948224 0 30.701568-13.737984 30.701568-30.68928L889.007104 368.851968C889.00608 351.898624 875.252736 338.161664 858.304512 338.161664zM827.578368 503.201792 570.91072 503.201792l0-103.6288 256.667648 0L827.578368 503.201792zM640.98816 194.51392c6.013952 0 13.805568 3.38944 22.475776 9.816064 14.084096 10.416128 13.297664 16.847872 13.089792 18.97984-2.622464 22.36928-47.429632 57.603072-99.682304 86.647808C592.216064 248.022016 617.32864 194.51392 640.98816 194.51392zM335.25248 194.299904c-0.80384-5.035008-2.97472-18.453504 20.850688-38.23616 6.863872-5.66272 16.968704-12.443648 26.053632-12.443648 33.795072 0 68.554752 83.185664 88.813568 164.063232C407.14752 275.80928 341.143552 230.583296 335.25248 194.299904zM457.058304 399.574016l0 103.6288L197.035008 503.202816l0-103.6288L457.058304 399.574016zM235.727872 540.043264l221.330432 0 0 363.743232L235.727872 903.786496 235.727872 540.043264zM570.91072 903.786496 570.91072 540.043264l217.97376 0 0 363.743232L570.91072 903.786496z" p-id="2366" fill="#1A90F7"></path></svg>