<?xml version="1.0" standalone="no"?><!DOCTYPE svg PUBLIC "-//W3C//DTD SVG 1.1//EN" "http://www.w3.org/Graphics/SVG/1.1/DTD/svg11.dtd"><svg t="1597645987648" class="icon" viewBox="0 0 1024 1024" version="1.1" xmlns="http://www.w3.org/2000/svg" p-id="6865" xmlns:xlink="http://www.w3.org/1999/xlink" width="200" height="200"><defs><style type="text/css"></style></defs><path d="M 931.84 334.54 c -39.936 -10.444 -133.837 -10.24 -271.258 -13.926 c 6.554 -30.003 7.988 -57.036 7.988 -104.96 C 668.672 100.966 585.114 0 511.18 0 c -52.223 0 -95.231 42.7 -95.846 95.13 c -0.716 64.307 -20.48 175.41 -127.795 231.833 c -7.885 4.096 -30.31 15.155 -33.587 16.691 l 1.638 1.434 a 101.376 101.376 0 0 0 -63.897 -25.6 H 95.846 A 95.949 95.949 0 0 0 0 415.334 V 926.72 c 0 52.838 43.008 95.846 95.846 95.846 h 95.847 a 94.72 94.72 0 0 0 85.299 -55.193 l 1.434 0.41 l 7.68 2.047 c 0.512 0 0.819 0.103 1.433 0.308 c 18.432 4.608 53.863 13.004 129.536 30.412 c 16.384 3.687 101.99 22.016 190.874 22.016 h 174.694 c 53.248 0 92.672 -19.865 114.381 -61.644 c 21.3 -37.07 125.542 -236.032 125.44 -516.506 c 0 -40.346 -27.955 -91.853 -90.624 -109.773 Z M 223.642 926.72 c 0 17.613 -14.336 31.949 -31.95 31.949 H 95.847 a 31.949 31.949 0 0 1 -31.948 -31.949 V 415.334 c 0 -17.612 14.336 -31.948 31.948 -31.948 h 95.847 c 17.715 0 31.949 14.336 31.949 31.948 V 926.72 Z M 957.85 464.486 c -13.312 321.024 -117.146 466.33 -117.146 466.33 c -9.728 17.408 -25.19 27.853 -58.163 27.853 H 607.949 c -87.757 0 -174.797 -19.866 -177.05 -20.48 c -132.71 -30.515 -139.673 -32.87 -147.968 -35.226 l 4.608 -469.504 c 0 -48.537 1.024 -36.25 0 -35.635 C 433.562 337.408 478.003 204.8 479.232 95.949 A 32.051 32.051 0 0 1 511.181 64 c 33.792 0 93.491 67.789 93.491 151.757 c 0 75.776 -3.072 88.78 -29.594 167.731 c 319.488 0 317.338 4.608 345.498 11.98 c 35.02 10.036 37.888 38.913 37.888 48.948 c 0 10.957 -0.205 9.42 -0.614 20.07 Z" fill="#e6e6e6" p-id="6866"></path></svg>