<?xml version="1.0" standalone="no"?><!DOCTYPE svg PUBLIC "-//W3C//DTD SVG 1.1//EN" "http://www.w3.org/Graphics/SVG/1.1/DTD/svg11.dtd"><svg t="1597159665590" class="icon" viewBox="0 0 1024 1024" version="1.1" xmlns="http://www.w3.org/2000/svg" p-id="7905" xmlns:xlink="http://www.w3.org/1999/xlink" width="200" height="200"><defs><style type="text/css"></style></defs><path d="M128 576a128 128 0 0 1 128 128v192a128 128 0 0 1-256 0v-192a128 128 0 0 1 128-128z m384-576a128 128 0 0 1 128 128v768a128 128 0 0 1-256 0V128a128 128 0 0 1 128-128z m384 320a128 128 0 0 1 128 128v448a128 128 0 0 1-256 0V448a128 128 0 0 1 128-128z" p-id="7906" fill="#ffffff"></path></svg>