<?xml version="1.0" standalone="no"?><!DOCTYPE svg PUBLIC "-//W3C//DTD SVG 1.1//EN" "http://www.w3.org/Graphics/SVG/1.1/DTD/svg11.dtd"><svg t="1598241594099" class="icon" viewBox="0 0 1024 1024" version="1.1" xmlns="http://www.w3.org/2000/svg" p-id="2759" xmlns:xlink="http://www.w3.org/1999/xlink" width="200" height="200"><defs><style type="text/css"></style></defs><path d="M512 0c282.784 0 512 229.216 512 512s-229.216 512-512 512S0 794.784 0 512 229.216 0 512 0z m0 704a32 32 0 1 0 0 64 32 32 0 0 0 0-64z m0-448a32 32 0 0 0-32 32v352a32 32 0 0 0 64 0V288a32 32 0 0 0-32-32z" fill="#ffffff" p-id="2760" data-spm-anchor-id="a313x.7781069.0.i0" class="selected"></path></svg>